<svg xmlns="http://www.w3.org/2000/svg" xmlns:xlink="http://www.w3.org/1999/xlink" width="90.914" height="90.914" viewBox="0 0 90.914 90.914">
  <defs>
    <clipPath id="clip-path">
      <rect id="Rectángulo_403668" data-name="Rectángulo 403668" width="73.709" height="48.982" fill="none"/>
    </clipPath>
  </defs>
  <g id="Grupo_1107030" data-name="Grupo 1107030" transform="translate(-387.051 -6924)">
    <g id="Grupo_1106143" data-name="Grupo 1106143" transform="translate(387.051 6924)">
      <rect id="Rectángulo_400898" data-name="Rectángulo 400898" width="90.914" height="90.914" rx="45.457" transform="translate(0.001)" fill="#febdaf" opacity="0.859"/>
      <rect id="Rectángulo_400907" data-name="Rectángulo 400907" width="90.914" height="90.914" rx="45.457" transform="translate(0)" fill="none"/>
    </g>
    <g id="Grupo_1107032" data-name="Grupo 1107032" transform="translate(395.4 6946.915)">
      <g id="Grupo_1107031" data-name="Grupo 1107031" clip-path="url(#clip-path)">
        <path id="Trazado_878692" data-name="Trazado 878692" d="M203.509,227.955a4.17,4.17,0,0,1-1.231-.185l.4-1.3a2.832,2.832,0,0,0,2.742-.617,2.82,2.82,0,0,0,.171-3.985l1.005-.923a4.184,4.184,0,0,1-3.091,7.014" transform="translate(-163.856 -178.974)"/>
        <path id="Trazado_878693" data-name="Trazado 878693" d="M124.893,41.186c-1.227,0-2.5-.052-3.842-.156l.106-1.361a37.6,37.6,0,0,0,10.087-.414l.259,1.34a34.751,34.751,0,0,1-6.609.591" transform="translate(-98.057 -31.799)"/>
        <path id="Trazado_878694" data-name="Trazado 878694" d="M253.393,187.018a4.174,4.174,0,0,1-3.072-1.339l-1.351-1.322.954-.975,1.389,1.361a2.821,2.821,0,0,0,4.156-3.815l1.005-.923a4.183,4.183,0,0,1-3.082,7.014" transform="translate(-201.678 -145.812)"/>
        <path id="Trazado_878695" data-name="Trazado 878695" d="M223.791,207.488q-.092,0-.184,0a4.158,4.158,0,0,1-2.892-1.338l-.853-.838.956-.974.889.875a2.821,2.821,0,1,0,4.156-3.814l1.005-.923a4.186,4.186,0,0,1-3.079,7.016" transform="translate(-178.1 -162.393)"/>
        <path id="Trazado_878696" data-name="Trazado 878696" d="M171.141,49.548a4.176,4.176,0,0,1-3.077-1.345l-2.529-2.577.974-.956,2.552,2.6a2.821,2.821,0,0,0,4.156-3.815l-1.249-1.4c-.1-.118-10.386-11.713-14.508-15.594a3.1,3.1,0,0,0-2.19-.863c-1.751.044-3.869,1.136-6.3,3.245-1.829,1.59-3.618,2.276-5.319,2.038A5.289,5.289,0,0,1,140.2,28.7l-.205-.316.158-.342a28.609,28.609,0,0,1,4.379-6.444c3.823-4.252,8.325-6.5,13.018-6.5,2.727,0,5.113,1.127,7.639,2.32,1.162.549,2.364,1.117,3.674,1.617l-.486,1.275c-1.359-.519-2.585-1.1-3.771-1.658-2.487-1.175-4.635-2.189-7.056-2.189-9.392,0-14.922,9.746-15.974,11.782a3.848,3.848,0,0,0,2.289,1.286c1.287.174,2.706-.4,4.218-1.718,2.672-2.323,5.08-3.528,7.157-3.58a4.428,4.428,0,0,1,3.159,1.234c4.167,3.923,14.169,15.2,14.593,15.682l1.241,1.393a4.183,4.183,0,0,1-3.089,7.006" transform="translate(-113.401 -12.231)"/>
        <path id="Trazado_878697" data-name="Trazado 878697" d="M64.83,134.2q-.092,0-.184,0A4.185,4.185,0,0,1,62,126.933l3.214-2.864a4.183,4.183,0,0,1,5.78,6.047l-.017.016-3.323,2.975a4.15,4.15,0,0,1-2.819,1.1m3.264-9.927a2.809,2.809,0,0,0-1.949.788l-.018.017-3.215,2.865a2.821,2.821,0,0,0,3.821,4.15l3.32-2.972a2.822,2.822,0,0,0-1.959-4.848" transform="translate(-49.122 -99.562)"/>
        <path id="Trazado_878698" data-name="Trazado 878698" d="M87.44,157.951a4.184,4.184,0,0,1-2.83-7.267l4.626-4.311a4.182,4.182,0,0,1,5.782,6.045l-4.745,4.43a4.179,4.179,0,0,1-2.834,1.1m4.682-11.374a2.81,2.81,0,0,0-1.949.788l-4.637,4.321a2.821,2.821,0,1,0,3.81,4.16l4.734-4.42a2.818,2.818,0,0,0-.11-4.155,2.811,2.811,0,0,0-1.847-.694" transform="translate(-67.44 -117.627)"/>
        <path id="Trazado_878699" data-name="Trazado 878699" d="M120.4,181.015l-.112,0a4.185,4.185,0,0,1-2.772-7.22l3.844-3.692a4.182,4.182,0,0,1,5.882,5.947l-3.961,3.813a4.159,4.159,0,0,1-2.882,1.153m3.9-10.757a2.808,2.808,0,0,0-1.983.821l-3.855,3.7a2.82,2.82,0,1,0,3.88,4.095l3.95-3.8a2.818,2.818,0,0,0-.181-4.152,2.812,2.812,0,0,0-1.812-.663" transform="translate(-94.136 -136.81)"/>
        <path id="Trazado_878700" data-name="Trazado 878700" d="M155.092,208.046q-.092,0-.184,0a4.185,4.185,0,0,1-2.665-7.252l1.649-1.7a4.183,4.183,0,0,1,5.8,6.03l-1.773,1.822a4.156,4.156,0,0,1-2.825,1.1m-.247-7.976-1.664,1.712a2.821,2.821,0,0,0,3.8,4.169l1.755-1.805a2.817,2.817,0,0,0-.1-4.161h0a2.8,2.8,0,0,0-3.788.086" transform="translate(-122.238 -160.328)"/>
        <path id="Trazado_878701" data-name="Trazado 878701" d="M304.779,42.4l-5.411-23.6L310.8,16.179l5.411,23.6ZM301,19.826l4.8,20.942,8.773-2.011-4.8-20.943Z" transform="translate(-242.503 -13.106)"/>
        <path id="Trazado_878702" data-name="Trazado 878702" d="M10.326,26.882,0,21.317,11.489,0,21.815,5.565ZM1.849,20.763l7.923,4.27L19.966,6.119l-7.923-4.27Z"/>
      </g>
    </g>
  </g>
</svg>
