<svg xmlns="http://www.w3.org/2000/svg" xmlns:xlink="http://www.w3.org/1999/xlink" width="295" height="405" viewBox="0 0 295 405">
  <defs>
    <clipPath id="clip-path">
      <rect id="Rectángulo_403317" data-name="Rectángulo 403317" width="295" height="405" rx="13" transform="translate(1020.051 6818)" fill="#ccf6f0"/>
    </clipPath>
    <clipPath id="clip-path-2">
      <rect id="Rectángulo_403316" data-name="Rectángulo 403316" width="253.72" height="781.89" fill="none"/>
    </clipPath>
    <clipPath id="clip-path-4">
      <rect id="Rectángulo_403309" data-name="Rectángulo 403309" width="5.478" height="4.113" fill="none"/>
    </clipPath>
    <clipPath id="clip-path-5">
      <rect id="Rectángulo_403310" data-name="Rectángulo 403310" width="13.289" height="4.43" fill="none"/>
    </clipPath>
    <clipPath id="clip-path-6">
      <rect id="Rectángulo_403311" data-name="Rectángulo 403311" width="18.593" height="13.33" fill="none"/>
    </clipPath>
    <clipPath id="clip-path-7">
      <rect id="Rectángulo_403312" data-name="Rectángulo 403312" width="20.158" height="14.452" fill="none"/>
    </clipPath>
    <clipPath id="clip-path-8">
      <rect id="Rectángulo_403323" data-name="Rectángulo 403323" width="73.024" height="58.065" fill="none"/>
    </clipPath>
    <clipPath id="clip-path-9">
      <rect id="Rectángulo_403324" data-name="Rectángulo 403324" width="127.951" height="42.155" fill="none"/>
    </clipPath>
  </defs>
  <g id="Grupo_1107017" data-name="Grupo 1107017" transform="translate(-1020.051 -6818)">
    <rect id="Rectángulo_403045" data-name="Rectángulo 403045" width="295" height="405" rx="13" transform="translate(1020.051 6818)" fill="#ccf6f0"/>
    <g id="Enmascarar_grupo_1099793" data-name="Enmascarar grupo 1099793" clip-path="url(#clip-path)">
      <path id="Trazado_876349" data-name="Trazado 876349" d="M441.38,373.178c-14.065,29.832-39.637,54.015-69.936,63.558s-64.893,3.6-89.2-17.148-36.911-56.245-29.758-88.6c3.6-16.27,11.683-31.138,16.025-47.218s4.15-35.192-6.815-47.071c-18.942-20.522-56.128-7.065-76.158-26.415C165.56,190.985,173.364,148.9,149,136.26c-11.479-5.956-25.178-2.145-37.994-.736-32.97,3.623-67.043-10.886-88.045-37.493S-5.367,33.487,4.031,0L481.521,61.493Z" transform="translate(994.59 6787.116) rotate(-7)" fill="#01d2b5" fill-rule="evenodd"/>
      <g id="Grupo_1106290" data-name="Grupo 1106290" transform="translate(1040.691 6842.053)">
        <g id="Grupo_1106289" data-name="Grupo 1106289" clip-path="url(#clip-path-2)">
          <g id="Grupo_1106288" data-name="Grupo 1106288" transform="translate(0)">
            <g id="Grupo_1106287" data-name="Grupo 1106287" clip-path="url(#clip-path-2)">
              <path id="Trazado_876259" data-name="Trazado 876259" d="M106.606,136.472c.333.088.664.171,1,.244,9.439,2.124,18.5-3.23,26.876-9.332a272.03,272.03,0,0,0,21.444-17.861c13.887-12.587,26.274-25.239,26.794-25.771a16.35,16.35,0,1,0-23.381-22.86c-.148.152-10.211,10.425-21.894,21.218-12.749,11.775-20.261,17.553-24.341,20.337-3.168-3.265-8.726-9.924-17.226-23.141C87.971,67.016,81.794,55.672,81.733,55.557A16.351,16.351,0,1,0,53,71.17c.314.575,7.791,14.3,17.214,28.654a206.934,206.934,0,0,0,15.689,21.3c7.575,8.763,14.008,13.542,20.7,15.348" transform="translate(-38.469 49.578)" fill="#314fa5"/>
              <path id="Trazado_876260" data-name="Trazado 876260" d="M129.021,54.032a27.488,27.488,0,0,1-27.109,17.312c-.986-.047-.992-1.588,0-1.541a25.936,25.936,0,0,0,25.623-16.18c.364-.91,1.855-.514,1.485.409" transform="translate(-83.226 56.009)" fill="#1c2b74"/>
              <path id="Trazado_876261" data-name="Trazado 876261" d="M107.166,74.057s5.712,13.279,14.4,14.6c11.682,1.781,18.572-8.849,18.572-8.849,3.791-6.4,3.982-9.831,4.239-16.5S133.5,51.734,133.5,51.734s-12.574-23.47-16.918-24.641,4.927,22.138,4.927,22.138a4.278,4.278,0,0,0-4.091-.142c-3.277,1.449-10.417,7.764-13.11,12.432-2.412,4.177,2.858,12.535,2.858,12.535" transform="translate(-103.675 28.528)" fill="#eaad8f"/>
              <path id="Trazado_876262" data-name="Trazado 876262" d="M122.617,53.627c-5.151-1.1-11.8-2.011-15.8-5.767-1.512-1.418-2.893-3.879-1.568-5.856,1.163-1.738,3.67-1.964,5.529-2.365.962-.208,1.331,1.276.368,1.483-1.553.335-4.547.522-4.9,2.517-.269,1.508,1.531,3.152,2.648,3.918a16.3,16.3,0,0,0,3.092,1.578,65.735,65.735,0,0,0,11.07,3.024c.962.205.526,1.672-.434,1.467" transform="translate(-85.011 41.783)" fill="#c6695d"/>
              <path id="Trazado_876263" data-name="Trazado 876263" d="M130.882,43.472A41.313,41.313,0,0,1,114.1,56.441c-.9.378-1.654-.953-.748-1.333a39.892,39.892,0,0,0,16.221-12.426c.6-.77,1.911.012,1.309.791" transform="translate(-109.37 44.679)" fill="#c6695d"/>
              <path id="Trazado_876264" data-name="Trazado 876264" d="M112.807,47.054a17.612,17.612,0,0,1,6.579,15.853c-.095.972-1.625.941-1.529-.041A16.241,16.241,0,0,0,111.71,48.12c-.76-.625.343-1.683,1.1-1.066" transform="translate(-94.758 49.427)" fill="#c6695d"/>
              <path id="Trazado_876265" data-name="Trazado 876265" d="M121.434,49.708c-1.88-3.55-3.883-7.187-6.986-9.823-.75-.637.353-1.7,1.1-1.064,3.195,2.712,5.289,6.484,7.222,10.14.46.869-.873,1.619-1.333.748" transform="translate(-103.774 40.736)" fill="#c6695d"/>
              <path id="Trazado_876266" data-name="Trazado 876266" d="M123.74,52.316a39.715,39.715,0,0,0-7.062-10.146c-.676-.717.419-1.783,1.1-1.066a41.085,41.085,0,0,1,7.3,10.464c.421.886-.91,1.638-1.333.748" transform="translate(-110.729 43.098)" fill="#c6695d"/>
              <path id="Trazado_876267" data-name="Trazado 876267" d="M126.6,51.777l.2.314c-.446.249-.89.5-1.335.748a21.011,21.011,0,0,0-5.663-7.978c-.744-.649.36-1.709,1.1-1.064a21.889,21.889,0,0,1,5.9,8.294.766.766,0,0,1-1.335.748c-.066-.1-.134-.21-.2-.314-.536-.828.8-1.57,1.333-.748" transform="translate(-118.795 45.977)" fill="#c6695d"/>
              <path id="Trazado_876268" data-name="Trazado 876268" d="M114.308,38.172a18.358,18.358,0,0,1,2.737,5.652.766.766,0,0,1-1.485.368,17.1,17.1,0,0,0-2.585-5.272c-.563-.81.777-1.549,1.333-.748" transform="translate(-95.194 39.893)" fill="#c6695d"/>
              <path id="Trazado_876269" data-name="Trazado 876269" d="M87.039,74.308A16.688,16.688,0,0,1,90,85.688c-.078.768-1.29.781-1.21.006a15.709,15.709,0,0,0-2.8-10.783c-.448-.639.606-1.239,1.05-.6" transform="translate(-12.818 78.081)" fill="#1c2b74"/>
              <path id="Trazado_876270" data-name="Trazado 876270" d="M85,75.585a6.632,6.632,0,0,1,4.678,4.255c.265.736-.906,1.048-1.169.318a5.374,5.374,0,0,0-3.824-3.4A.606.606,0,0,1,85,75.585" transform="translate(-9.101 79.692)" fill="#1c2b74"/>
              <path id="Trazado_876271" data-name="Trazado 876271" d="M16.087,235.348c.647,11.489,1.685,25.149,3.164,40.587.762,7.912,1.635,16.291,2.628,25.085,0,0-3.575,25.027,2.379,65.548,4.259,28.954,15.716,114.644,18.518,137.3,6.014,6.464,9.39,4.407,17.855-3.963,1.512-14.109,7.341-50.63,9.314-71.766,2.78-29.794,15.492-96.133,0-121.956,2.172-10.9,4.206-21.1,6-30.6,2.95-15.6,5.243-29.336,6.41-41.24,1.609-16.435,1.07-29.391-2.881-38.988L18.3,196.546c-2.905-6.09-3.885,9.1-2.217,38.8" transform="translate(139.132 205.881)" fill="#eaad8f"/>
              <path id="Trazado_876272" data-name="Trazado 876272" d="M57.41,345.443s8.294,3.38,8.6,15.054,0,41.785,0,41.785H61.78l-2.3-10.618s-1.459,11.541-7.3,18.915-18.434,7.68-26.73,6.451-2.151-16.591,1.229-25.194,10.45-29.188,10.45-29.188Z" transform="translate(143.792 364.309)" fill="#171612"/>
              <path id="Trazado_876273" data-name="Trazado 876273" d="M49.792,337.317s-.263,14.239,2.194,16.7,5.837,10.446,3.38,20.277-4.1,24.17-9.833,30.316-20.686,6.349-21.917,1.434,7.579-23.147,7.99-32.57,2.046-34.82,2.046-34.82Z" transform="translate(149.217 355.74)" fill="#eaad8f"/>
              <path id="Trazado_876274" data-name="Trazado 876274" d="M18.278,249.724c-1.177-12.942-2.032-24.514-2.591-34.458l66.267-1c-.939,9.609-2.618,20.413-4.779,32.428-7.084,2.457-41.458,4.461-58.9,3.035" transform="translate(139.535 225.963)" fill="#c6695d"/>
              <path id="Trazado_876275" data-name="Trazado 876275" d="M54.932,249.268a33.534,33.534,0,0,1-19.917.98.771.771,0,0,1,.409-1.485,32.069,32.069,0,0,0,19.1-.98c.933-.341,1.335,1.149.409,1.486" transform="translate(127.45 261.262)" fill="#c6695d"/>
              <path id="Trazado_876276" data-name="Trazado 876276" d="M50.159,311.934c5.473,42.329,11.352,169.124,12.27,189.489,5.656,4.37,11.855,4.915,18.594,0,1.422-5.866,10.343-43.073,13.626-67.533,3.575-26.613,18.274-76.67,2.78-102.488,5.619-18.755,11.015-35.376,14.38-54.193a223.941,223.941,0,0,0,3.481-39.671,319.258,319.258,0,0,0-2.681-40.41L55.8,193.159S52.635,213,50.459,238.519c-.637,7.5-1.19,15.48-1.551,23.6-.766,17.144-.68,34.879,1.251,49.816" transform="translate(38.867 203.708)" fill="#eaad8f"/>
              <path id="Trazado_876277" data-name="Trazado 876277" d="M78.472,388.723c4.072-6.569,40.587-41.594,40.587-41.594s7.466,5.852,7.1,12.295c-.345,6.135-.086,38.425-.177,41.828h-4.43l-2.5-14.732s-10.094,16.149-17.674,21.68-33.188,4.537-39.333,3.717,12.348-16.624,16.42-23.195" transform="translate(2.597 366.087)" fill="#171612"/>
              <path id="Trazado_876278" data-name="Trazado 876278" d="M106.875,339.543l-.584,15.806s2.044,4.711,0,11.674-9.807,18.017-17.207,26.219c-6.388,7.074-20.074,14.132-24.17,12.289s7.785-15.977,11.267-23.351a126.558,126.558,0,0,0,7.54-20.756c1.911-7.037,2.176-23.583,2.176-23.583Z" transform="translate(14.892 356.293)" fill="#eaad8f"/>
              <path id="Trazado_876279" data-name="Trazado 876279" d="M112.367,248.158a225.779,225.779,0,0,0,2.453-33.4l-64.831.98c-.627,7.356-1.169,15.177-1.531,23.137,0,0,21.791,5.65,63.909,9.283" transform="translate(39.338 226.487)" fill="#c6695d"/>
              <path id="Trazado_876280" data-name="Trazado 876280" d="M89.243,254.543a19.219,19.219,0,0,1-18.288-1.074c-.84-.52-.068-1.855.779-1.331a17.63,17.63,0,0,0,16.733,1.075c.894-.411,1.679.916.777,1.331" transform="translate(19.037 265.782)" fill="#c6695d"/>
              <path id="Trazado_876281" data-name="Trazado 876281" d="M91.657,94.112c-24.281,6.647-50.445,5.467-77.642,0,2.254-17.522,3.546-39.925,2.092-49.064C11.184,14.086,38.816-6.047,72.07,1.642S99.733,55.185,95.764,71.274c-.8,3.244-2.507,12.961-4.107,22.837" transform="translate(126.13 0)" fill="#e59f3f"/>
              <path id="Trazado_876282" data-name="Trazado 876282" d="M149.49,91.743c-.4,2.484-3.752,7.479-7.608,14.286-.532.939-1.087,1.915-1.652,2.916-.257.446-.514.9-.775,1.356-10.109,17.816-24.785,44.016-30.39,63.368a58.26,58.26,0,0,0-2.155,10.6c-2.161,23.649,10.014,45.958,10.014,45.958C55.954,267.94,6.064,265.382,6.064,265.382S6.91,245.2,19.5,206.08c2.252-6.992,4.7-15.734,6.575-24.312v0c.144-.662.288-1.319.421-1.977.631-3.008,1.181-5.981,1.621-8.825.992-6.39,1.418-12.169.914-16.369a31.106,31.106,0,0,0-.631-3.515c-.119-.5-.24-1-.38-1.5-1.4-5.124-3.789-10.287-5.872-15.5-.236-.59-.466-1.186-.692-1.775-.6-1.555-1.151-3.111-1.633-4.676-.148-.5-.3-.986-.425-1.483a34.024,34.024,0,0,1-1.284-7.582,23.006,23.006,0,0,1,.031-2.722c.031-.5.082-.99.144-1.463a24.3,24.3,0,0,1,3.111-8.942c.078-.134.154-.261.232-.39.189-.323.384-.641.59-.953.117-.191.24-.376.364-.555,3-4.456,6.751-7.762,8.794-10.472,1.72-2.285,1.785-5.728,1.545-9.661-.236-3.809-.76-8.079-.343-12.2.051-.528.121-1.052.21-1.576.1-.631.23-1.257.394-1.878a13.576,13.576,0,0,1,2.435-5.2,8.864,8.864,0,0,1,1.138-1.192c3.213-2.788,7.9-2.813,13.394-3.162A25.43,25.43,0,0,0,55.5,57.186c.631-.179,1.257-.38,1.878-.6a63.14,63.14,0,0,0,11.294-5.4l37.671-4.389s1.5,3.994,9.287,8.917c.431.277.881.555,1.354.832a77.942,77.942,0,0,0,13.618,6.18c1.566.553,3.014,1.134,4.35,1.734q.884.4,1.7.805c6.38,3.189,9.9,6.91,11.728,10.805a15.928,15.928,0,0,1,.647,1.566,18.3,18.3,0,0,1,.812,3.131c.092.524.158,1.044.205,1.568a37.782,37.782,0,0,1-.555,9.4" transform="translate(91.109 49.362)" fill="#fff"/>
              <path id="Trazado_876283" data-name="Trazado 876283" d="M83.41,81.126c-.98,6.76-6.616,11.385-12.926,13.125C65.2,95.7,59.854,95.1,54.653,93.717c.078-.131.154-.261.232-.388.189-.325.384-.643.59-.955a28.951,28.951,0,0,0,13.182.734c6.708-1.385,12.915-6.112,13.357-13.382C82.45,72.606,77.634,66,71.82,62.4a34.543,34.543,0,0,0-5.985-2.911c.051-.528.121-1.052.21-1.576a32.561,32.561,0,0,1,9.065,4.9c5.379,4.241,9.322,11.315,8.3,18.311" transform="translate(57.857 61.076)" fill="#dbccc1"/>
              <path id="Trazado_876284" data-name="Trazado 876284" d="M134.182,62.654q-4.6-.21-9.213.031c-14.051.76-26.837,5.759-38.547,13.392-11.74,7.653-22,17.263-32.909,26.011C43.863,109.824,33.074,118.2,20.488,120.1a29.248,29.248,0,0,1-13.182-1.015q-.354-.888-.694-1.777c8.023,2.86,17.926,1.114,25.563-2.622,12.182-5.96,22.48-15.467,32.792-24.1,9.722-8.147,19.716-16.207,31.144-21.857a76.694,76.694,0,0,1,37.014-7.656c.14.006.273.012.411.016a15.723,15.723,0,0,1,.647,1.566" transform="translate(105.955 64.354)" fill="#dbccc1"/>
              <path id="Trazado_876285" data-name="Trazado 876285" d="M80.256,108.537A113.24,113.24,0,0,1,49.94,131.154c.144-.662.288-1.319.419-1.977a119.086,119.086,0,0,0,12.679-7.886,118.647,118.647,0,0,0,10.781-8.668c3.07-2.782,8.038-6.392,8.438-10.781.863-9.511-19.922-4.337-24.766-3.022q-2.65.715-5.227,1.648c-.117-.5-.24-1-.38-1.5q2.364-.841,4.779-1.51a71.384,71.384,0,0,1,11.319-2.176c3.46-.38,7.31-.857,10.739-.021,2.583.627,4.691,2.34,5.077,5.077.446,3.2-1.463,5.985-3.542,8.2" transform="translate(67.249 99.972)" fill="#dbccc1"/>
              <path id="Trazado_876286" data-name="Trazado 876286" d="M76.688,109.758c-6.279-3.059-13.065-.037-18.346,3.7a69.853,69.853,0,0,0-14.908,14.413,73.146,73.146,0,0,0-14.892,37.665c-.092.986,1.448.98,1.541,0a71.5,71.5,0,0,1,13.139-34.824,69.952,69.952,0,0,1,12.895-13.647c5.289-4.261,12.85-9.359,19.794-5.975.888.434,1.668-.9.777-1.329" transform="translate(118.003 114.425)" fill="#dbccc1"/>
              <path id="Trazado_876287" data-name="Trazado 876287" d="M19.532,170.839c2.9-9.8,6.39-19.646,12.537-27.933a44.062,44.062,0,0,1,10.795-10.46,44.408,44.408,0,0,1,13.484-5.576c7.651-2.053,17-4.843,19.5-13.425,1.354-4.664.238-9.546.394-14.3a21.5,21.5,0,0,1,4.382-12.513A13.882,13.882,0,0,1,92.933,81c4.631.471,8.977,3.275,10.351,7.859a.771.771,0,0,0,1.485-.411c-2.042-6.809-9.743-10.193-16.429-8.71-8.073,1.79-12.835,10.238-13.55,17.943-.542,5.876,1.574,12.35-1.438,17.811-2.6,4.724-7.927,7.134-12.852,8.631-5.163,1.572-10.47,2.581-15.282,5.13a41.577,41.577,0,0,0-11.249,8.921c-8.2,9.065-12.506,20.719-15.923,32.257a.771.771,0,0,0,1.485.409" transform="translate(111.907 83.727)" fill="#dbccc1"/>
              <path id="Trazado_876288" data-name="Trazado 876288" d="M7.9,81.98a13.132,13.132,0,0,0,7.962,9.636c-.257.446-.514.9-.775,1.354A14.668,14.668,0,0,1,6.173,80.626c-.914-11.078,9.281-18.789,19.3-17.177.092.524.158,1.042.205,1.566C15.9,63.069,5.968,71.329,7.9,81.98" transform="translate(215.474 66.69)" fill="#dbccc1"/>
              <path id="Trazado_876289" data-name="Trazado 876289" d="M36.682,60.7a61.714,61.714,0,0,1-11.9,5.389c-4.124,1.336-11.309,3.107-12.059-3.2-.462-3.885.888-8.064,2.936-11.746q.647.416,1.356.832a24.952,24.952,0,0,0-1.2,2.648c-.976,2.552-2.661,7.06-1.136,9.651,1.679,2.854,6,1.432,8.455.7a54.247,54.247,0,0,0,8.173-3.172q1.871-.9,3.67-1.915c.59.267,1.155.532,1.7.805" transform="translate(191.08 53.938)" fill="#dbccc1"/>
              <path id="Trazado_876290" data-name="Trazado 876290" d="M72.976,51.568c-2.038,4.717-4.456,9.04-9.7,10.39-4.713,1.21-8.773-.982-12.065-4.432a9.117,9.117,0,0,1,1.14-1.19c3.8,4.05,8.52,6.324,13.5,2.7A17.05,17.05,0,0,0,71.1,52.164q.946-.271,1.878-.6" transform="translate(75.514 54.384)" fill="#dbccc1"/>
              <path id="Trazado_876291" data-name="Trazado 876291" d="M29.222,58.726a6.432,6.432,0,0,0,3.111,7.331c3.6,2.149,8.5,1.629,12.484,1.354A78.353,78.353,0,0,0,72.19,60.325c.9-.413.117-1.734-.773-1.323a76.936,76.936,0,0,1-21.232,6.31,68.518,68.518,0,0,1-10.891.742c-3.809-.068-10.187-1.7-8.592-6.92.288-.945-1.192-1.35-1.479-.407" transform="translate(121.623 61.368)" fill="#dbccc1"/>
              <path id="Trazado_876292" data-name="Trazado 876292" d="M50.551,80.026a270.93,270.93,0,0,0-35.082,92.018c-.177.966,1.3,1.379,1.479.409A269.687,269.687,0,0,1,51.876,80.8a.768.768,0,0,0-1.325-.775" transform="translate(169.977 84.012)" fill="#dbccc1"/>
              <path id="Trazado_876293" data-name="Trazado 876293" d="M54.423,22s-3.972-.123-5.323,4.8.181,13.6,5.379,13.174S54.423,22,54.423,22" transform="translate(97.02 23.2)" fill="#c6695d"/>
              <path id="Trazado_876294" data-name="Trazado 876294" d="M61.265,35.5a6.967,6.967,0,1,0-7.446,6.456A6.974,6.974,0,0,0,61.265,35.5m-2.032-.144a4.93,4.93,0,1,1-4.567-5.268,4.935,4.935,0,0,1,4.567,5.268" transform="translate(95.157 29.57)" fill="#fff"/>
              <line id="Línea_655" data-name="Línea 655" y2="0.004" transform="translate(160.713 85.803)" fill="#eaad8f"/>
              <path id="Trazado_876295" data-name="Trazado 876295" d="M69.313,68.939S60.932,81.053,45.995,81.45c-18.976.5-20.162-7.793-20.162-7.793A35.532,35.532,0,0,0,28.225,66.1c.2-1.009.376-2.051.518-3.133a86.236,86.236,0,0,0,.62-9.981c.014-.883.021-1.8.018-2.751l0-.113c13.283-1.545,24.53-6.036,32.886-14.723l2.075-.929,1.4-.629.15.781-.528,2.373C62.847,48.146,64.3,57.8,69.313,68.939" transform="translate(131.33 35.688)" fill="#eaad8f"/>
              <path id="Trazado_876296" data-name="Trazado 876296" d="M57.594,38.922C54.14,44.771,46.526,54.938,34.186,57.607a85.771,85.771,0,0,0,.62-9.979q.022-1.328.018-2.753c.251.06.512.113.77.16,6.986,1.29,15.062-1.442,22-6.112" transform="translate(125.887 41.048)" fill="#171612"/>
              <path id="Trazado_876297" data-name="Trazado 876297" d="M85.864,47.474c-.38,7.056-6.817,15.375-16.061,15.134l-.047,0h0l-.2,0c-.168.4-.364.787-.565,1.183-.086.171-.179.345-.269.516a.292.292,0,0,1-.029.047C62.3,76.029,44.839,82.162,35.589,81.916A21.155,21.155,0,0,1,29.4,80.773c-9.677-2.655-10.8-15.983-8.718-26.013a38.66,38.66,0,0,1,1.1-4.113c.029-.086.058-.175.088-.261,0,0-2.521-14.323-2.959-20.536-.838-12.04,6.675-23.823,33.034-24.8S83.719,20.686,85.1,29.422c.232,1.455-.52,10.014-2.028,11.319,2.42,1.4,2.922,4.362,2.794,6.733" transform="translate(129.108 5.278)" fill="#eaad8f"/>
              <path id="Trazado_876298" data-name="Trazado 876298" d="M46.792,27.332c.2,1.97,1.19,3.485,2.213,3.382S50.7,28.929,50.5,26.958s-1.19-3.485-2.213-3.382-1.693,1.785-1.494,3.756" transform="translate(107.119 24.859)" fill="#171612"/>
              <path id="Trazado_876299" data-name="Trazado 876299" d="M54.43,25.652a.52.52,0,0,0,.255-.2.528.528,0,0,0-.148-.727c-.2-.134-5-3.232-9.125-.2a.525.525,0,0,0,.623.844c3.54-2.6,7.879.2,7.923.23a.52.52,0,0,0,.473.053" transform="translate(106.078 24.464)" fill="#171612"/>
              <path id="Trazado_876300" data-name="Trazado 876300" d="M38.418,26.63c.2,1.97,1.19,3.485,2.213,3.382s1.693-1.785,1.494-3.756-1.19-3.485-2.213-3.382-1.693,1.785-1.494,3.756" transform="translate(132.698 24.119)" fill="#171612"/>
              <path id="Trazado_876301" data-name="Trazado 876301" d="M45.453,25.606a.519.519,0,0,0,.277-.168.524.524,0,0,0-.058-.74c-.183-.158-4.547-3.838-9.022-1.35a.524.524,0,1,0,.51.916c3.842-2.137,7.791,1.2,7.83,1.229a.519.519,0,0,0,.462.113" transform="translate(133.115 23.715)" fill="#171612"/>
              <path id="Trazado_876302" data-name="Trazado 876302" d="M46.2,37.319a7.189,7.189,0,0,0,.937-.062c3.183-.411,5.36-3.462,5.453-3.591a.994.994,0,0,0-1.625-1.144c-.027.037-1.781,2.47-4.083,2.766a3.507,3.507,0,0,1-3.419-1.14,1,1,0,0,0-1.377-.261.988.988,0,0,0-.277,1.362A5.27,5.27,0,0,0,46.2,37.319" transform="translate(115.396 33.854)" fill="#c6695d"/>
              <path id="Trazado_876303" data-name="Trazado 876303" d="M22.52,36.309a.956.956,0,0,0,.822-.719c1.627-6.571,9.7-9.018,9.784-9.042a.954.954,0,0,0-.536-1.831c-.374.111-9.2,2.77-11.1,10.415a.953.953,0,0,0,.7,1.155.963.963,0,0,0,.333.023" transform="translate(175.814 26.026)" fill="#c6695d"/>
              <path id="Trazado_876304" data-name="Trazado 876304" d="M28.243,31.089a.969.969,0,0,0,.351-.109.954.954,0,0,0,.384-1.292,6.542,6.542,0,0,0-5.6-3.152.953.953,0,0,0-.025,1.907A4.637,4.637,0,0,1,27.3,30.594a.955.955,0,0,0,.943.5" transform="translate(178.57 27.985)" fill="#c6695d"/>
              <g id="Grupo_1106277" data-name="Grupo 1106277" transform="translate(149.795 55.927)" opacity="0.5">
                <g id="Grupo_1106276" data-name="Grupo 1106276" transform="translate(0)">
                  <g id="Grupo_1106275" data-name="Grupo 1106275" clip-path="url(#clip-path-4)">
                    <path id="Trazado_876305" data-name="Trazado 876305" d="M53.391,29.6c-.076,1.048-2.424,1.755-5.476,1.736a38.748,38.748,0,0,1,1.1-4.111c2.609.475,4.452,1.42,4.38,2.375" transform="translate(-47.914 -27.22)" fill="#c6695d"/>
                  </g>
                </g>
              </g>
              <g id="Grupo_1106280" data-name="Grupo 1106280" transform="translate(171.56 57.576)" opacity="0.5">
                <g id="Grupo_1106279" data-name="Grupo 1106279" transform="translate(0)">
                  <g id="Grupo_1106278" data-name="Grupo 1106278" clip-path="url(#clip-path-5)">
                    <path id="Trazado_876306" data-name="Trazado 876306" d="M33.522,29.762c-.086,1.194,2.819,2.375,6.488,2.638s6.71-.491,6.8-1.685-2.819-2.377-6.488-2.64-6.71.493-6.8,1.687" transform="translate(-33.52 -28.023)" fill="#c6695d"/>
                  </g>
                </g>
              </g>
              <path id="Trazado_876307" data-name="Trazado 876307" d="M33.16,34.787l-.045,0h0l-.2,0c-.171.4-.364.787-.567,1.183-.086.171-.179.345-.267.516a.362.362,0,0,1-.029.047,8.476,8.476,0,0,1-3.489-1.6,6.73,6.73,0,0,1-1.773-2.141.955.955,0,0,1,1.689-.894A5.144,5.144,0,0,0,30.641,34a6.969,6.969,0,0,0,1.633.608,8.322,8.322,0,0,0,.886.175" transform="translate(165.749 33.1)" fill="#c6695d"/>
              <path id="Trazado_876308" data-name="Trazado 876308" d="M21.112,35.931a8.616,8.616,0,0,0,2,.434c0,.035-.012.068-.014.1a4.93,4.93,0,1,0,6.045-4.444,1.384,1.384,0,0,1,.146-2.053,6.966,6.966,0,1,1-8.22,6.351c.008-.132.025-.261.041-.39" transform="translate(175.477 31.608)" fill="#fff"/>
              <path id="Trazado_876309" data-name="Trazado 876309" d="M45,37.945a3.711,3.711,0,0,0,2.2-1.13A.625.625,0,0,0,46.258,36a2.536,2.536,0,0,1-2.782.532.626.626,0,0,0-.429,1.175,4.107,4.107,0,0,0,1.958.24" transform="translate(118.764 37.737)" fill="#c6695d"/>
              <path id="Trazado_876310" data-name="Trazado 876310" d="M83.2,15.241C77.869,9.11,70.277,4.019,60.82,4.066,47.549,4.134,35.071,8.106,27.925,14.9A18.673,18.673,0,0,0,21.8,26.544c-1.453,13.708,1.65,11.183,1.65,11.183a17.238,17.238,0,0,1,.507-3.22h0c.337-1.748.9-4.432,1.855-8.543,2.27-9.8,33.846-9.262,31.462-2.983A11.364,11.364,0,0,0,57.164,25,13.6,13.6,0,0,0,58.2,30.028c.249.051.489.109.715.158a28.538,28.538,0,0,1,7.764,3l.01.01c.261.21,4.847,3.945,3.9,8.925-.972,5.126-3.232,11.767.347,10.678S75.9,47.577,75.9,47.577l0,0a16.452,16.452,0,0,1,7.908-5.34c1.654-9,2.476-18.231-.616-26.991" transform="translate(124.43 4.288)" fill="#e59f3f"/>
              <path id="Trazado_876311" data-name="Trazado 876311" d="M48.36,13.021C39.1,9.279,23.549,15.447,20.8,16.814a13.618,13.618,0,0,0,1.033,5.026c.251.049.491.107.715.158a28.539,28.539,0,0,1,7.764,3l.01.01c.261.21,4.847,3.947,3.9,8.925-.97,5.126-7.3,32.409-2.211,36.993,10.331,9.3,8.948-31.5,8.948-31.5,1.985-2.2,3.008-4.434,6.5-5.385,3.953-7.107,3.055-14.14.908-21.021" transform="translate(160.795 12.479)" fill="#e59f3f"/>
              <path id="Trazado_876312" data-name="Trazado 876312" d="M18.136,16.964s5.262,8.525,1.177,21.678c0,0,4.621-.9,6.741,0s4.806-6.891,3.016-14.3S17.442,7.47,17.442,7.47s-1.126,7,.694,9.494" transform="translate(188.933 7.878)" fill="#e59f3f"/>
              <path id="Trazado_876313" data-name="Trazado 876313" d="M47.541,36.417a.8.8,0,0,1-.427-.131l-3.483-2.3A.8.8,0,0,1,43.7,32.61c2.922-1.518,4.771-4,5.819-7.812a.8.8,0,1,1,1.543.425c-1.033,3.76-2.79,6.378-5.478,8.138L48,34.948a.8.8,0,0,1-.454,1.469" transform="translate(113.721 25.532)" fill="#c6695d"/>
              <path id="Trazado_876314" data-name="Trazado 876314" d="M37.04,23.046A1.944,1.944,0,0,1,34.392,20.3a5.645,5.645,0,0,1,3.339-2.124,14.1,14.1,0,0,1,12.211,2.889s-7.479-.388-10.963.99a10.83,10.83,0,0,0-1.937.994" transform="translate(133.897 18.743)" fill="#171612"/>
              <path id="Trazado_876315" data-name="Trazado 876315" d="M55.286,23.31a1.944,1.944,0,0,0,2.287-3.055A5.635,5.635,0,0,0,54,18.559c-7.279-.873-9.359,3.836-9.359,3.836a25.788,25.788,0,0,1,8.6.166,10.89,10.89,0,0,1,2.046.748" transform="translate(103.901 19.459)" fill="#171612"/>
              <g id="Grupo_1106283" data-name="Grupo 1106283" transform="translate(143.086 47.671)" opacity="0.6">
                <g id="Grupo_1106282" data-name="Grupo 1106282" transform="translate(0)">
                  <g id="Grupo_1106281" data-name="Grupo 1106281" clip-path="url(#clip-path-6)">
                    <path id="Trazado_876316" data-name="Trazado 876316" d="M44.8,29.867c0,3.682,4.163,6.665,9.3,6.665s9.3-2.983,9.3-6.665-4.163-6.665-9.3-6.665-9.3,2.983-9.3,6.665" transform="translate(-44.797 -23.202)" fill="#fff"/>
                  </g>
                </g>
              </g>
              <g id="Grupo_1106286" data-name="Grupo 1106286" transform="translate(164.454 46.697)" opacity="0.6">
                <g id="Grupo_1106285" data-name="Grupo 1106285" transform="translate(0)">
                  <g id="Grupo_1106284" data-name="Grupo 1106284" clip-path="url(#clip-path-7)">
                    <path id="Trazado_876317" data-name="Trazado 876317" d="M33.635,29.954c0,3.992,4.512,7.226,10.08,7.226s10.078-3.234,10.078-7.226-4.512-7.226-10.078-7.226-10.08,3.234-10.08,7.226" transform="translate(-33.634 -22.728)" fill="#fff"/>
                  </g>
                </g>
              </g>
              <path id="Trazado_876318" data-name="Trazado 876318" d="M43.392,27.6a.579.579,0,0,0,.382-.144,2.42,2.42,0,0,1,3.526-.043.582.582,0,0,0,.855-.791,3.564,3.564,0,0,0-5.145-.043.582.582,0,0,0,.382,1.021" transform="translate(117.454 26.901)" fill="#fff"/>
              <path id="Trazado_876319" data-name="Trazado 876319" d="M27.663,28.412a.6.6,0,0,0,.306-.086c6.088-3.768,13.712-3.817,13.788-3.817a.581.581,0,1,0,0-1.163c-.325,0-8.025.045-14.4,3.99a.582.582,0,0,0,.306,1.077" transform="translate(155.74 24.62)" fill="#fff"/>
              <path id="Trazado_876320" data-name="Trazado 876320" d="M50.881,28.61a.588.588,0,0,0,.46-.224c1.163-1.5,4.941-2.153,6.3-2.281a.581.581,0,1,0-.109-1.157c-.22.021-5.406.526-7.111,2.722a.582.582,0,0,0,.458.939" transform="translate(92.204 26.308)" fill="#fff"/>
              <path id="Trazado_876321" data-name="Trazado 876321" d="M10.53,322.081q4.077,1.282,8.14,2.408c.448.125.9.251,1.346.37a227.471,227.471,0,0,0,55.193,8.071c.475.008.947.016,1.424.021a216.663,216.663,0,0,0,25.974-1.192c.526-.055,1.046-.111,1.566-.171a227.318,227.318,0,0,0,28.214-5.026c.473-.111.941-.23,1.409-.345q7.31-1.831,14.58-4.136s19.075-88.753,5.562-133.476c-8.51-28.156-25.964-60.061-25.964-60.061-33.061,10.885-56.14,11.169-71.108,8.609-.561-.1-1.114-.2-1.65-.306-14.551-2.8-20.85-8.227-20.85-8.227a235.16,235.16,0,0,0-11.175,36.492c-.111.481-.218.962-.327,1.444-1.974,8.812-3.643,17.92-5.056,27.1-.082.54-.162,1.085-.247,1.629-1.327,8.847-2.418,17.758-3.32,26.529-.043.444-.088.89-.136,1.329q-.626,6.253-1.124,12.379c-.051.621-.1,1.239-.15,1.859q-.509,6.423-.9,12.624c-.031.522-.062,1.038-.095,1.553-.481,7.953-.822,15.558-1.06,22.632-.029.783-.051,1.557-.076,2.324-.83,26.883-.175,45.561-.175,45.561" transform="translate(73.812 135.564)" fill="#c04d3a"/>
              <path id="Trazado_876322" data-name="Trazado 876322" d="M59.45,162.295c8.383-2.587,17.657-3.725,24.84-8.3,4.976-3.17,9.252-7.992,9.95-14.047a15.54,15.54,0,0,0-.791-7.054c-.559-.1-1.112-.2-1.648-.306a14.353,14.353,0,0,1-.442,12.024c-5.907,11.549-20.156,12.852-31.583,16.24-.113.481-.22.962-.327,1.446" transform="translate(37.225 139.826)" fill="#7e231a"/>
              <path id="Trazado_876323" data-name="Trazado 876323" d="M24.936,190.49c1.183-.46,2.348-.966,3.489-1.5,18.748-8.827,32.315-25.535,48.4-38.076,16.049-12.5,38.353-22.453,58.137-12.262.818.419,1.541-.812.721-1.237-9.675-4.98-20.914-5.334-31.331-2.677-19.9,5.081-34.822,20.363-49.656,33.6-7.925,7.072-16.244,14.07-25.8,18.843-1.208.6-2.447,1.167-3.715,1.683-.084.54-.162,1.085-.247,1.629" transform="translate(66.436 140.365)" fill="#7e231a"/>
              <path id="Trazado_876324" data-name="Trazado 876324" d="M21.846,207.173c16.367.323,31.955-10.281,43.56-21.467,14.4-13.877,27.02-31.1,45.941-39.157,9.722-4.146,20.768-5.634,30.92-2.256a.841.841,0,0,0,.064.3c.2.475.39.951.577,1.43-21.086-7.752-41.68,5.769-56.226,19.959-14.31,13.959-27.067,31.084-46.153,38.832A48.126,48.126,0,0,1,21.71,208.5q.071-.663.136-1.331" transform="translate(66.207 150.208)" fill="#7e231a"/>
              <path id="Trazado_876325" data-name="Trazado 876325" d="M36.861,186.607a41.714,41.714,0,0,1,28.522-8.354c5.88.51,12.882,2.5,16.184,7.834,3.715,6.01-.66,12.835.413,19.258.91,5.422,5.358,9.12,9.776,11.878,5.6,3.5,11.516,6.359,16.749,10.464a42.738,42.738,0,0,1,12.858,15.6,28.372,28.372,0,0,1,2.622,10.7c.14,3.719-.464,7.4-.762,11.1-.464,5.792.4,11.076,3.417,15.89.524-.055,1.044-.111,1.566-.171a23.776,23.776,0,0,1-1.952-3.468c-3.75-8.255.021-17.09-1.023-25.674-1.646-13.571-12.3-23.509-23.371-30.258-5.328-3.25-11.7-5.757-15.779-10.661a12.493,12.493,0,0,1-2.759-9.554c.337-3.544,1.485-7.033,1.171-10.618-1.06-12.213-17.142-14.686-26.763-13.678a43.565,43.565,0,0,0-20.717,7.853c-.051.62-.1,1.239-.15,1.859" transform="translate(49.78 186.342)" fill="#7e231a"/>
              <path id="Trazado_876326" data-name="Trazado 876326" d="M79.856,206.911A56.9,56.9,0,0,1,85.1,248.2c-.131.51-.273,1.017-.421,1.522.45.125.9.251,1.348.37a57.274,57.274,0,0,0,1.414-25.822,59.822,59.822,0,0,0-10.651-24.84q-.04,1.174-.074,2.324a59.033,59.033,0,0,1,3.141,5.153" transform="translate(7.802 210.326)" fill="#7e231a"/>
              <path id="Trazado_876327" data-name="Trazado 876327" d="M49.863,189.366c7.83-1.017,16.137.2,19.64,8.14,1.757,3.972,1.652,8.449,2.825,12.589a19.746,19.746,0,0,0,6.133,9.379c6.312,5.56,14.61,7.713,21.645,12.1,7.731,4.814,12.022,12.8,13.423,21.649a57.339,57.339,0,0,1-.3,17.512c.475.008.947.016,1.424.021,1-6.893,1.294-13.85-.288-20.694-1.946-8.436-6.641-15.58-14.109-20.072-7.962-4.783-18.214-7.051-23.946-14.923-5.217-7.158-2.221-17.462-9.57-23.445-4.865-3.959-10.861-4.584-16.784-3.805q-.046.78-.095,1.553" transform="translate(35.79 197.763)" fill="#7e231a"/>
              <path id="Trazado_876328" data-name="Trazado 876328" d="M19.9,214.989c.888-6.063,4.491-11.243,7.107-16.649a24.622,24.622,0,0,0,2.782-9.307c.193-3.674-.914-7.22-1.929-10.707-1.687-5.79-2.846-11.761.567-17.181,3.472-5.515,9.733-8.718,15.736-10.7a64.982,64.982,0,0,1,24.97-3.037c.912.066.92,1.5,0,1.43a63.933,63.933,0,0,0-22.5,2.338c-5.93,1.732-12.165,4.411-16.067,9.416-4.652,5.969-2.646,12.663-.766,19.27a28.21,28.21,0,0,1,1.422,9.17,23.65,23.65,0,0,1-2.044,7.988c-2.316,5.42-5.925,10.32-7.432,16.075-1.734,6.63.612,13.088,4.845,18.247,8.214,10.01,21.091,13.745,30.868,21.793,10.7,8.808,13.768,22.184,14.261,35.422-.29.982-.594,1.958-.9,2.932a.662.662,0,0,1-.464-.647c-.224-13.881-3-27.984-14.388-37.088-10.1-8.079-23.2-11.882-31.255-22.5-3.54-4.668-5.671-10.359-4.806-16.262" transform="translate(141.519 155.279)" fill="#7e231a"/>
              <path id="Trazado_876329" data-name="Trazado 876329" d="M39.147,155.424a37.519,37.519,0,0,0-21.754,27.063c-2.357,11.828,1.993,23.953,10.534,32.307a36.323,36.323,0,0,0,17.154,9.48c.9.208.518,1.586-.38,1.379a38.935,38.935,0,0,1-26.735-23.112c-4.822-11.8-2.724-25.262,4.65-35.537a37.92,37.92,0,0,1,16.151-12.958c.847-.355,1.218,1.027.38,1.379" transform="translate(176.544 162.398)" fill="#7e231a"/>
              <path id="Trazado_876330" data-name="Trazado 876330" d="M31.636,172.372a240.445,240.445,0,0,1,9.283,78.969,233.993,233.993,0,0,1-15.786,74.087c.473-.111.941-.23,1.409-.345a230.407,230.407,0,0,0,11.434-39.519,242.024,242.024,0,0,0,2.116-79.3,234.668,234.668,0,0,0-24.259-76.343c-.358-.682-1.383-.078-1.029.6a230.093,230.093,0,0,1,16.831,41.855" transform="translate(181.064 136.697)" fill="#171612"/>
              <path id="Trazado_876331" data-name="Trazado 876331" d="M121.424,140.975s-1.288-14.364-5.49-17.113c0,0-43.2,17.629-86.326-2.542,0,0-6.618,6.055-5.424,17.643,0,0,30.523,22.847,97.241,2.011" transform="translate(82.905 127.947)" fill="#7e231a"/>
              <path id="Trazado_876332" data-name="Trazado 876332" d="M42.474,43.145S52.854,45.7,55.8,61.032c0,0,18.658,5.552,23.677,9.542s11.025,8.235,10.631,14.8c-1.288,21.368-33.184,68.717-36.453,81.472s16.427,59.113,16.427,59.113q-21.4,17.638-65.111,15.8S9.98,117.43,19.179,97.35s17.838-35.132,23.3-54.2" transform="translate(153.368 45.501)" fill="#314fa5"/>
              <path id="Trazado_876333" data-name="Trazado 876333" d="M50.346,53.138a45.886,45.886,0,0,1-27.9,34.52c-1.194.483-1.714-1.455-.532-1.931a43.908,43.908,0,0,0,26.5-33.12c.214-1.268,2.145-.731,1.931.532" transform="translate(159.707 54.715)" fill="#1c2b74"/>
              <path id="Trazado_876334" data-name="Trazado 876334" d="M47.949,69.292A331.663,331.663,0,0,0,35.677,176.13q.724,15.625,2.879,31.138c.173,1.259-1.757,1.806-1.933.532A341.748,341.748,0,0,1,38.8,99.437q2.848-15.508,7.218-30.677a1,1,0,0,1,1.931.532" transform="translate(137.255 71.772)" fill="#1c2b74"/>
              <path id="Trazado_876335" data-name="Trazado 876335" d="M76.267,130.355a80.236,80.236,0,0,1-59.325,14.029c-1.27-.2-.731-2.135.532-1.933a78.238,78.238,0,0,0,57.782-13.825c1.046-.756,2.048.982,1.011,1.73" transform="translate(143.695 135.453)" fill="#1c2b74"/>
              <path id="Trazado_876336" data-name="Trazado 876336" d="M118.162,44.806s-2.632,21.541-4.586,35.522c-2.1,14.986-19.4,57.724-21.43,85.846s-8.835,67.508-8.835,67.508S60.245,232.047,45.174,216.9c0,0,19.989-42.759,24.008-59.9s-8.368-39.116-5.276-48.565S76.638,95.411,77.431,86.936,74.257,65.04,80.6,60.963s23.607-3,25.816-4.824c0,0,5.145-10.571,11.742-11.333" transform="translate(42.743 47.253)" fill="#314fa5"/>
              <path id="Trazado_876337" data-name="Trazado 876337" d="M79.452,59.36c-.438,7.456-1.042,15.253-5.463,21.561-2.387,3.4-5.25,6.367-6.729,10.333a22.384,22.384,0,0,0-.82,12.741c.279,1.257-1.65,1.794-1.931.532a24.786,24.786,0,0,1,4.841-20.84c2.77-3.616,5.173-6.848,6.4-11.315a62.587,62.587,0,0,0,1.7-13.012c.076-1.282,2.079-1.29,2,0" transform="translate(42.96 61.585)" fill="#1c2b74"/>
              <path id="Trazado_876338" data-name="Trazado 876338" d="M51.063,52.758c-.83,8.886-.39,18.724,4.206,26.611a1,1,0,0,1-1.73,1.011C48.768,72.193,48.2,61.991,49.06,52.758c.119-1.272,2.124-1.284,2,0" transform="translate(98.198 54.629)" fill="#1c2b74"/>
              <path id="Trazado_876339" data-name="Trazado 876339" d="M80.117,63.984A581.957,581.957,0,0,0,54.467,181.97c-1,9.007-1.853,18.029-2.7,27.053-.117,1.272-2.122,1.284-2,0,3.372-36.157,8-71.961,17.1-107.187C70.2,88.917,74.013,76.125,78.186,63.452c.4-1.218,2.336-.7,1.931.532" transform="translate(71.3 66.186)" fill="#1c2b74"/>
              <path id="Trazado_876340" data-name="Trazado 876340" d="M96.29,144.617a81.231,81.231,0,0,1-34.267-17.066c-.986-.832.438-2.242,1.418-1.416a79.106,79.106,0,0,0,33.381,16.55c1.257.288.725,2.219-.532,1.931" transform="translate(29.429 132.76)" fill="#1c2b74"/>
              <path id="Trazado_876341" data-name="Trazado 876341" d="M98.774,73.493l1.054,5.967c.333,1.956.666,3.908.968,5.862.61,3.91,1.2,7.818,1.744,11.738,1.06,7.842,2.044,15.716,2.78,23.679s1.356,16,1.555,24.281c.1,4.146.119,8.352-.043,12.728a93.435,93.435,0,0,1-1.481,14.152c-.257,1.327-.567,2.716-.988,4.226a38.253,38.253,0,0,1-1.761,5.011,30.1,30.1,0,0,1-1.522,3.035,25.559,25.559,0,0,1-2.47,3.561,22.271,22.271,0,0,1-4.191,3.928,21.352,21.352,0,0,1-2.981,1.788l-.4.2-.292.129-.575.249c-.4.168-.748.294-1.124.429a26.18,26.18,0,0,1-7.39,1.438,34.107,34.107,0,0,1-5.377-.148,51.96,51.96,0,0,1-8.159-1.561,100.316,100.316,0,0,1-12.882-4.6c-3.953-1.689-7.707-3.481-11.374-5.332s-7.232-3.766-10.75-5.724-6.957-3.994-10.31-6.156-6.634-4.424-9.823-6.817q-2.4-1.791-4.717-3.7c-.777-.631-1.541-1.29-2.3-1.95-.382-.329-.764-.662-1.138-1.007l-1.163-1.064a11.259,11.259,0,0,1,11.015-19.034l.616.2c.836.267,1.773.6,2.648.931.892.333,1.79.66,2.673,1.007q2.66,1.036,5.287,2.127c3.5,1.449,6.963,2.952,10.388,4.477s6.819,3.074,10.185,4.611,6.741,2.992,10.1,4.352,6.69,2.62,9.938,3.7a70.79,70.79,0,0,0,9.151,2.463,17.7,17.7,0,0,0,3.244.366c.329-.008.542-.051.4-.082a4.382,4.382,0,0,0-1.732.314c-.15.049-.273.1-.45.166l-.249.1-.366.171a12.14,12.14,0,0,0-3.867,2.955,9.929,9.929,0,0,0-.861,1.161c-.154.226-.238.4-.273.425-.076.109-.025-.14.027-.489s.125-.863.185-1.438c.121-1.159.2-2.591.23-4.107s.033-3.144-.014-4.812c-.09-3.341-.321-6.852-.639-10.413-.657-7.132-1.584-14.467-2.667-21.824-1.109-7.36-2.307-14.771-3.643-22.175-.66-3.7-1.327-7.409-2.032-11.105L61.9,86.334l-1.07-5.412-.062-.318a19.334,19.334,0,0,1,37.934-7.5c.018.1.053.288.072.384" transform="translate(146.766 60.661)" fill="#314fa5"/>
              <path id="Trazado_876342" data-name="Trazado 876342" d="M48.638,98.777a16.268,16.268,0,0,1,2.776,15.666c-1.779,4.88-6.507,9.953-12.087,9.577-.984-.068-.992-1.609,0-1.541,5.165.347,9.433-4.648,10.859-9.194a14.69,14.69,0,0,0-2.636-13.419c-.606-.77.477-1.868,1.089-1.089" transform="translate(122.096 103.89)" fill="#1c2b74"/>
              <path id="Trazado_876343" data-name="Trazado 876343" d="M24.065,112.892q-2.743-19.407-5.488-38.812l1.931-.532,0,.025c.177,1.259-1.753,1.8-1.931.532l0-.025c-.177-1.259,1.751-1.806,1.931-.532Q23.276,92.949,26,112.36c.179,1.259-1.751,1.806-1.931.532" transform="translate(189.568 76.8)" fill="#1c2b74"/>
              <path id="Trazado_876344" data-name="Trazado 876344" d="M12.507,108.8l5.909-.216c1.036-.039,1.033,1.57,0,1.607q-2.952.108-5.909.218c-1.036.037-1.033-1.572,0-1.609" transform="translate(210.424 114.516)" fill="#1c2b74"/>
              <path id="Trazado_876345" data-name="Trazado 876345" d="M12.9,109.752a14.149,14.149,0,0,1,7.4,6.306.867.867,0,0,0,1.5-.873,16,16,0,0,0-8.436-7.1c-1.046-.388-1.5,1.284-.46,1.668" transform="translate(206.509 113.926)" fill="#1c2b74"/>
              <rect id="Rectángulo_403313" data-name="Rectángulo 403313" width="93.533" height="71.975" transform="translate(78.2 252.533) rotate(-100.76)" fill="#171612"/>
              <rect id="Rectángulo_403314" data-name="Rectángulo 403314" width="93.533" height="71.975" transform="translate(81.45 251.916) rotate(-100.76)" fill="#171612"/>
              <path id="Trazado_876346" data-name="Trazado 876346" d="M103.048,77.669S100.134,72.518,95,73.654c0,0-2-5.036-6.934-5.036a30.085,30.085,0,0,0-12.73,2.755c-3.039,1.52-2.992,6.3-2.992,6.3s-3.372.925-4.7,2.823a6.179,6.179,0,0,0-.992,4.093Z" transform="translate(13.806 72.366)" fill="#171612"/>
              <path id="Trazado_876347" data-name="Trazado 876347" d="M103.932,126.268c-3.754,5.829-11.635,7.175-17.587,3.62a31.808,31.808,0,0,0-9.94-4.2c-7.629-1.336-17.014-.8-20.676-2.562-5.406-2.605.62-4.964,1.407-5.153a89.753,89.753,0,0,1,12.287-1.685s-12.946-2.373-18-1.225-8.726-1.738-4.619-5.506,18.911-4.124,23.04-3.113c0,0-7.608-3.524-14.506-2.194s-9.548.881-12.239-.043-.3-6.117,9.375-7.725,13.791.2,18.329,1.711a51.974,51.974,0,0,0-8.6-5.48c-5.638-2.971-13.489-.8-15.74-3.873-2.3-3.146,6.848-5.25,12.414-4.152s9.71,1.424,15.759,5.424,11.693,8.036,14.74,11.3,15.405,13.452,16.092,19.854a7.937,7.937,0,0,1-1.537,5.005" transform="translate(61.788 89)" fill="#eaad8f"/>
              <path id="Trazado_876348" data-name="Trazado 876348" d="M65.111,108.448s-5.387-12.529-9.079-15.28-7.8-8.87-9.852-6.548,3.2,9.706,3.2,9.706Z" transform="translate(94.707 90.807)" fill="#eaad8f"/>
            </g>
          </g>
        </g>
      </g>
    </g>
    <g id="Grupo_1106294" data-name="Grupo 1106294" transform="translate(1131.039 7135.914)">
      <g id="Grupo_1106293" data-name="Grupo 1106293" transform="translate(0 0)" clip-path="url(#clip-path-8)">
        <path id="Trazado_876357" data-name="Trazado 876357" d="M18.478,4.985,3.15,5.038A3.159,3.159,0,0,0,0,8.211L.142,49.29a4.911,4.911,0,0,0,4.927,4.895L58.819,54a2.971,2.971,0,0,0,2.961-2.981l-.133-38.262a2.571,2.571,0,0,0-2.581-2.563L27.713,10.3Z" transform="translate(0 3.875)" fill="#b56d25"/>
        <path id="Trazado_876358" data-name="Trazado 876358" d="M61.755,42.506l-.092-26.572L.032,16.147.124,42.719a2.969,2.969,0,0,0,2.981,2.959l55.689-.192a2.97,2.97,0,0,0,2.961-2.981" transform="translate(0.025 12.387)" fill="#e59f3f"/>
        <path id="Trazado_876359" data-name="Trazado 876359" d="M1.957,17.561l.007,1.93,54.585-.19-.007-1.928a5.774,5.774,0,0,0-5.794-5.755L7.71,11.766a5.773,5.773,0,0,0-5.753,5.794" transform="translate(1.521 9.031)" fill="#fff"/>
        <path id="Trazado_876360" data-name="Trazado 876360" d="M31.109,14.387l.012,3.706-2.394.009L28.715,14.4a1.2,1.2,0,0,1,2.394-.009" transform="translate(22.323 10.257)" fill="#f0e8e0"/>
        <path id="Trazado_876361" data-name="Trazado 876361" d="M28.069,14.4l.012,3.706-2.394.009-.012-3.706a1.2,1.2,0,0,1,2.394-.009" transform="translate(19.959 10.265)" fill="#f0e8e0"/>
        <path id="Trazado_876362" data-name="Trazado 876362" d="M25.03,14.408l.012,3.706-2.394.009-.012-3.706a1.2,1.2,0,0,1,2.394-.009" transform="translate(17.597 10.273)" fill="#f0e8e0"/>
        <path id="Trazado_876363" data-name="Trazado 876363" d="M21.99,14.418,22,18.123l-2.394.009L19.6,14.427a1.2,1.2,0,0,1,2.394-.009" transform="translate(15.234 10.281)" fill="#f0e8e0"/>
        <path id="Trazado_876364" data-name="Trazado 876364" d="M18.95,14.429l.012,3.706-2.394.009-.012-3.706a1.2,1.2,0,0,1,2.394-.009" transform="translate(12.87 10.289)" fill="#f0e8e0"/>
        <path id="Trazado_876365" data-name="Trazado 876365" d="M15.911,14.439l.012,3.706-2.394.009-.012-3.706a1.2,1.2,0,0,1,2.394-.009" transform="translate(10.508 10.297)" fill="#f0e8e0"/>
        <path id="Trazado_876366" data-name="Trazado 876366" d="M12.871,14.45l.012,3.706-2.394.009-.012-3.706a1.2,1.2,0,1,1,2.394-.009" transform="translate(8.145 10.306)" fill="#f0e8e0"/>
        <path id="Trazado_876367" data-name="Trazado 876367" d="M9.831,14.46l.012,3.706-2.394.009-.012-3.706a1.2,1.2,0,0,1,2.394-.009" transform="translate(5.781 10.314)" fill="#f0e8e0"/>
        <path id="Trazado_876368" data-name="Trazado 876368" d="M6.791,14.471,6.8,18.176l-2.394.009L4.4,14.48a1.2,1.2,0,1,1,2.394-.009" transform="translate(3.418 10.322)" fill="#f0e8e0"/>
        <path id="Trazado_876369" data-name="Trazado 876369" d="M53.234,13.889A13.889,13.889,0,1,1,39.346,0,13.887,13.887,0,0,1,53.234,13.889" transform="translate(19.79 0)" fill="#314fa5"/>
        <path id="Trazado_876370" data-name="Trazado 876370" d="M33.749,17.3h0A1.348,1.348,0,0,1,32.8,16.9l-3.4-3.4A1.347,1.347,0,0,1,31.3,11.6l2.451,2.451L43.3,4.5A1.347,1.347,0,1,1,45.2,6.4L34.7,16.9a1.348,1.348,0,0,1-.953.395" transform="translate(22.543 3.189)" fill="#fff"/>
      </g>
    </g>
    <g id="Grupo_1106296" data-name="Grupo 1106296" transform="translate(1048.63 6841.089)">
      <g id="Grupo_1106295" data-name="Grupo 1106295" transform="translate(0 0)" clip-path="url(#clip-path-9)">
        <path id="Trazado_876371" data-name="Trazado 876371" d="M117.448,30.759H10.5A10.5,10.5,0,0,1,0,20.256V10.5A10.5,10.5,0,0,1,10.5,0H117.448a10.5,10.5,0,0,1,10.5,10.5v9.753a10.5,10.5,0,0,1-10.5,10.5" transform="translate(0 0)" fill="#fff"/>
        <path id="Trazado_876372" data-name="Trazado 876372" d="M25.664,13.673A10.031,10.031,0,1,1,15.633,3.642,10.031,10.031,0,0,1,25.664,13.673" transform="translate(0.963 0.626)" fill="#539380"/>
        <path id="Trazado_876373" data-name="Trazado 876373" d="M13.013,17.995l-3.47-3.469,1.451-1.451,2.019,2.019,5.9-5.9,1.451,1.45Z" transform="translate(1.64 1.579)" fill="#fff"/>
        <path id="Trazado_876374" data-name="Trazado 876374" d="M115.524,8.154H28.662a1.318,1.318,0,1,1,0-2.637h86.862a1.318,1.318,0,1,1,0,2.637" transform="translate(4.698 0.948)" fill="#f0e8e0"/>
        <path id="Trazado_876375" data-name="Trazado 876375" d="M115.524,21.149H28.662a1.318,1.318,0,1,1,0-2.637h86.862a1.318,1.318,0,1,1,0,2.637" transform="translate(4.698 3.181)" fill="#f0e8e0"/>
        <path id="Trazado_876376" data-name="Trazado 876376" d="M115.524,14.636H28.662a1.318,1.318,0,1,1,0-2.637h86.862a1.318,1.318,0,1,1,0,2.637" transform="translate(4.698 2.062)" fill="#f0e8e0"/>
        <path id="Trazado_876377" data-name="Trazado 876377" d="M8.357,23.642l6.8,14.451,6.8-14.451Z" transform="translate(1.436 4.063)" fill="#fff"/>
      </g>
    </g>
  </g>
</svg>
