<svg xmlns="http://www.w3.org/2000/svg" xmlns:xlink="http://www.w3.org/1999/xlink" width="190" height="156" viewBox="0 0 190 156">
  <defs>
    <clipPath id="clip-path">
      <rect id="Rectángulo_403721" data-name="Rectángulo 403721" width="84" height="84" transform="translate(0 -0.117)" fill="none"/>
    </clipPath>
    <clipPath id="clip-path-2">
      <rect id="Rectángulo_403723" data-name="Rectángulo 403723" width="44" height="44" fill="none"/>
    </clipPath>
  </defs>
  <g id="Grupo_1107214" data-name="Grupo 1107214" transform="translate(-1230.051 -5792)">
    <rect id="Rectángulo_403719" data-name="Rectángulo 403719" width="190" height="156" transform="translate(1230.051 5792)" fill="#febdaf"/>
    <g id="Grupo_1107134" data-name="Grupo 1107134" transform="translate(1263.051 5825.168)">
      <g id="Grupo_1107133" data-name="Grupo 1107133" transform="translate(0 -0.051)" clip-path="url(#clip-path)">
        <path id="Trazado_878770" data-name="Trazado 878770" d="M44.192,25.934H14.3V21.227a14.946,14.946,0,0,1,29.892,0Z" transform="translate(12.94 5.751)" fill="#01d2b5"/>
        <rect id="Rectángulo_403720" data-name="Rectángulo 403720" width="53.682" height="39.46" transform="translate(14.879 42.855)" fill="#f7b71b"/>
        <path id="Trazado_878771" data-name="Trazado 878771" d="M1.427,83.815A1.428,1.428,0,0,1,0,82.388V52.7a1.428,1.428,0,0,1,1.427-1.427h10.8a1.273,1.273,0,0,0,1.271-1.271v-8.1a1.43,1.43,0,0,1,1.429-1.427h5.4A1.273,1.273,0,0,0,21.59,39.21v-5.4a1.275,1.275,0,0,0-1.272-1.272h-2.7a1.428,1.428,0,1,1,0-2.855h6.408A1.271,1.271,0,0,0,25.3,28.415V27.4a16.7,16.7,0,0,1,14.1-16.4,1.265,1.265,0,0,0,1.078-1.255V1.429a1.428,1.428,0,1,1,2.855,0V9.751a1.267,1.267,0,0,0,1.078,1.255,16.7,16.7,0,0,1,14.1,16.4v1.011a1.271,1.271,0,0,0,1.271,1.271h9.107a1.428,1.428,0,1,1,0,2.855H63.5a1.275,1.275,0,0,0-1.272,1.272v5.4A1.273,1.273,0,0,0,63.5,40.481h5.4a1.43,1.43,0,0,1,1.429,1.427v8.1a1.273,1.273,0,0,0,1.271,1.271H82.387A1.43,1.43,0,0,1,83.815,52.7V82.388a1.43,1.43,0,0,1-1.429,1.427ZM71.593,54.131A1.273,1.273,0,0,0,70.323,55.4V79.689a1.271,1.271,0,0,0,1.271,1.271h8.094a1.273,1.273,0,0,0,1.272-1.271V55.4a1.274,1.274,0,0,0-1.272-1.271ZM17.62,43.336a1.273,1.273,0,0,0-1.271,1.271V79.689A1.271,1.271,0,0,0,17.62,80.96H66.195a1.271,1.271,0,0,0,1.271-1.271V44.607a1.273,1.273,0,0,0-1.271-1.271ZM4.126,54.131A1.274,1.274,0,0,0,2.855,55.4V79.689A1.273,1.273,0,0,0,4.126,80.96h8.1a1.271,1.271,0,0,0,1.271-1.271V55.4a1.273,1.273,0,0,0-1.271-1.271Zm21.59-21.59a1.273,1.273,0,0,0-1.271,1.272v5.4a1.271,1.271,0,0,0,1.271,1.271H58.1A1.271,1.271,0,0,0,59.37,39.21v-5.4A1.273,1.273,0,0,0,58.1,32.541ZM41.908,13.652A13.766,13.766,0,0,0,28.156,27.4v1.011a1.271,1.271,0,0,0,1.271,1.271H54.388a1.271,1.271,0,0,0,1.271-1.271V27.4A13.766,13.766,0,0,0,41.908,13.652" transform="translate(0 0.068)" fill="#12263f"/>
        <path id="Trazado_878772" data-name="Trazado 878772" d="M14.178,48.662a1.428,1.428,0,0,1-1.427-1.427V28.345a1.427,1.427,0,1,1,2.854,0V47.236a1.428,1.428,0,0,1-1.427,1.427" transform="translate(11.538 24.425)" fill="#003575"/>
        <path id="Trazado_878773" data-name="Trazado 878773" d="M19.846,48.662a1.43,1.43,0,0,1-1.429-1.427V28.345a1.428,1.428,0,0,1,2.855,0V47.236a1.428,1.428,0,0,1-1.427,1.427" transform="translate(16.665 24.425)" fill="#003575"/>
        <path id="Trazado_878774" data-name="Trazado 878774" d="M25.512,48.662a1.43,1.43,0,0,1-1.429-1.427V28.345a1.428,1.428,0,0,1,2.855,0V47.236a1.428,1.428,0,0,1-1.427,1.427" transform="translate(21.792 24.425)" fill="#003575"/>
        <path id="Trazado_878775" data-name="Trazado 878775" d="M31.179,48.662a1.43,1.43,0,0,1-1.429-1.427V28.345a1.428,1.428,0,0,1,2.855,0V47.236a1.428,1.428,0,0,1-1.427,1.427" transform="translate(26.921 24.425)" fill="#003575"/>
      </g>
    </g>
    <g id="Grupo_1107137" data-name="Grupo 1107137" transform="translate(1344.051 5823)">
      <rect id="Rectángulo_403722" data-name="Rectángulo 403722" width="11.158" height="5.388" transform="translate(16.545 20.182)" fill="#99ede1"/>
      <path id="Trazado_878776" data-name="Trazado 878776" d="M40.1,25.57H27.7v5.8H16.358v-5.8H4.613L.676,23.812V41.526l2.032,2H41.057l2.255-1.905V23.812Z" fill="#f7b71b"/>
      <g id="Grupo_1107136" data-name="Grupo 1107136">
        <g id="Grupo_1107135" data-name="Grupo 1107135" clip-path="url(#clip-path-2)">
          <path id="Trazado_878777" data-name="Trazado 878777" d="M2.919,44A2.922,2.922,0,0,1,0,41.081V10.843A3.743,3.743,0,0,1,3.611,7.1a.666.666,0,0,0,.639-.666V5a.75.75,0,0,1,1.5,0V6.416a.668.668,0,0,0,.667.667H9.25a.669.669,0,0,0,.667-.667V3.582A3.587,3.587,0,0,1,13.5,0h17a3.586,3.586,0,0,1,3.583,3.582V6.416a.669.669,0,0,0,.668.667h2.833a.669.669,0,0,0,.667-.667V5a.75.75,0,1,1,1.5,0V6.435a.666.666,0,0,0,.64.666A3.743,3.743,0,0,1,44,10.843V41.081A2.922,2.922,0,0,1,41.081,44ZM2.166,25.4a.668.668,0,0,0-.666.667V41.081A1.421,1.421,0,0,0,2.919,42.5H41.081a1.421,1.421,0,0,0,1.42-1.419V26.067a.666.666,0,0,0-1.031-.558,5.479,5.479,0,0,1-2.979.888H29.084a.668.668,0,0,0-.667.668v3.141a1.861,1.861,0,0,1-1.86,1.858H17.444a1.861,1.861,0,0,1-1.86-1.858V27.065a.669.669,0,0,0-.667-.668H5.509a5.47,5.47,0,0,1-2.98-.89.665.665,0,0,0-.363-.107m21.251,1a.668.668,0,0,0-.667.668V29.9a.667.667,0,0,0,.667.667H26.25a.667.667,0,0,0,.667-.667V27.065a.668.668,0,0,0-.667-.668Zm-5.667,0a.668.668,0,0,0-.667.668V29.9a.667.667,0,0,0,.667.667h2.833a.668.668,0,0,0,.668-.667V27.065a.669.669,0,0,0-.668-.668Zm8.807-7.165a1.861,1.861,0,0,1,1.86,1.859v3.14a.667.667,0,0,0,.667.667h9.407a4.014,4.014,0,0,0,4.01-4.009V10.843A2.263,2.263,0,0,0,40.24,8.582H3.76A2.263,2.263,0,0,0,1.5,10.843V20.889A4.013,4.013,0,0,0,5.509,24.9h9.408a.668.668,0,0,0,.667-.667v-3.14a1.861,1.861,0,0,1,1.86-1.859Zm-8.807,1.5a.667.667,0,0,0-.667.667v2.833a.667.667,0,0,0,.667.667h8.5a.667.667,0,0,0,.667-.667V21.4a.667.667,0,0,0-.667-.667ZM13.5,1.5a2.086,2.086,0,0,0-2.084,2.083V6.416a.669.669,0,0,0,.667.667H31.917a.668.668,0,0,0,.667-.667V3.582A2.086,2.086,0,0,0,30.5,1.5Z" fill="#12263f"/>
        </g>
      </g>
    </g>
  </g>
</svg>
