<svg xmlns="http://www.w3.org/2000/svg" xmlns:xlink="http://www.w3.org/1999/xlink" width="85" height="85" viewBox="0 0 85 85">
  <defs>
    <clipPath id="clip-path">
      <rect id="Rect치ngulo_403737" data-name="Rect치ngulo 403737" width="44" height="44" fill="none"/>
    </clipPath>
  </defs>
  <g id="Grupo_1107216" data-name="Grupo 1107216" transform="translate(-757.051 -6887)">
    <circle id="Elipse_11764" data-name="Elipse 11764" cx="42.5" cy="42.5" r="42.5" transform="translate(757.051 6887)" fill="#99ede1"/>
    <g id="Grupo_1107146" data-name="Grupo 1107146" transform="translate(778.051 6904)">
      <rect id="Rect치ngulo_403736" data-name="Rect치ngulo 403736" width="5.442" height="5.441" transform="translate(0.917 0.706)" fill="#73d7ff"/>
      <path id="Trazado_878788" data-name="Trazado 878788" d="M.917,34.1v3.649L3.75,42.976,6.7,37.747V34.1Z" fill="#73d7ff"/>
      <path id="Trazado_878789" data-name="Trazado 878789" d="M17.857,31.894h5.478v5.48H17.857Zm0-22.393h5.478v5.48H17.857ZM11.668,1.112V42.976H43.107V9.012H34.963v-7.9Z" fill="#ae9dcc"/>
      <g id="Grupo_1107145" data-name="Grupo 1107145">
        <g id="Grupo_1107144" data-name="Grupo 1107144" clip-path="url(#clip-path)">
          <path id="Trazado_878790" data-name="Trazado 878790" d="M12.083,44a.751.751,0,0,1-.75-.75V.749A.751.751,0,0,1,12.083,0H34.75a.751.751,0,0,1,.289.059.716.716,0,0,1,.24.16l8.475,8.473a.273.273,0,0,0,.057.089,1.007,1.007,0,0,1,.131.179A.765.765,0,0,1,44,9.249v34a.75.75,0,0,1-.75.75ZM13.5,1.5a.668.668,0,0,0-.667.668V41.834a.667.667,0,0,0,.667.666H41.833a.667.667,0,0,0,.667-.666V10.667A.667.667,0,0,0,41.833,10h-5.9A1.933,1.933,0,0,1,34,8.07v-5.9a.668.668,0,0,0-.667-.668Zm22.667,2a.684.684,0,0,0-.256.051.664.664,0,0,0-.411.616V7.833a.668.668,0,0,0,.667.668h3.665a.668.668,0,0,0,.472-1.14L36.639,3.7a.664.664,0,0,0-.472-.2" fill="#003575"/>
          <path id="Trazado_878791" data-name="Trazado 878791" d="M17.75,15.666a.751.751,0,0,1-.75-.75V9.249a.751.751,0,0,1,.75-.749h5.667a.751.751,0,0,1,.75.749v5.667a.751.751,0,0,1-.75.75ZM19.167,10a.668.668,0,0,0-.667.667V13.5a.668.668,0,0,0,.667.667H22a.668.668,0,0,0,.667-.667V10.666A.668.668,0,0,0,22,10Z" fill="#003575"/>
          <path id="Trazado_878792" data-name="Trazado 878792" d="M17.75,38.333a.751.751,0,0,1-.75-.75V31.916a.751.751,0,0,1,.75-.75h5.667a.751.751,0,0,1,.75.75v5.667a.751.751,0,0,1-.75.75Zm1.417-5.667a.668.668,0,0,0-.667.667v2.834a.667.667,0,0,0,.667.666H22a.667.667,0,0,0,.667-.666V33.333A.668.668,0,0,0,22,32.666Z" fill="#003575"/>
          <path id="Trazado_878793" data-name="Trazado 878793" d="M29.083,15.666a.75.75,0,1,1,0-1.5h8.5a.75.75,0,1,1,0,1.5Z" fill="#003575"/>
          <path id="Trazado_878794" data-name="Trazado 878794" d="M29.083,27a.75.75,0,0,1,0-1.5h8.5a.75.75,0,0,1,0,1.5Z" fill="#003575"/>
          <path id="Trazado_878795" data-name="Trazado 878795" d="M29.083,38.333a.75.75,0,0,1,0-1.5h8.5a.75.75,0,0,1,0,1.5Z" fill="#003575"/>
          <path id="Trazado_878796" data-name="Trazado 878796" d="M20.583,27a.78.78,0,0,1-.257-.053l-.168-.09a.532.532,0,0,0-.052-.05.84.84,0,0,0-.123-.089l-2.764-2.771a.75.75,0,0,1,.531-1.28.739.739,0,0,1,.529.219l1.68,1.68a.662.662,0,0,0,.471.195.688.688,0,0,0,.533-.268l3.27-4.359a.75.75,0,1,1,1.2.9l-4.216,5.62v0a.372.372,0,0,0-.081.08c-.006.007-.07.1-.075.1a.705.705,0,0,0-.2.1.7.7,0,0,1-.278.064" fill="#003575"/>
          <path id="Trazado_878797" data-name="Trazado 878797" d="M3.583,44a.746.746,0,0,1-.671-.415L.078,37.918A.753.753,0,0,1,0,37.583V.749A.75.75,0,0,1,.749,0H6.416a.751.751,0,0,1,.75.749V37.583a.741.741,0,0,1-.079.335L4.254,43.585A.747.747,0,0,1,3.583,44M2.166,35.035A.667.667,0,0,0,1.5,35.7v1.546a.671.671,0,0,0,.071.3L2.986,40.38a.667.667,0,0,0,1.193,0L5.6,37.547a.665.665,0,0,0,.071-.3V35.7A.668.668,0,0,0,5,35.035Zm0-27.869a.667.667,0,0,0-.667.667V32.868a.668.668,0,0,0,.667.668H5a.669.669,0,0,0,.668-.668V7.833A.668.668,0,0,0,5,7.166Zm0-5.667a.668.668,0,0,0-.667.667V5a.668.668,0,0,0,.667.667H5A.669.669,0,0,0,5.667,5V2.166A.669.669,0,0,0,5,1.5Z" fill="#003575"/>
        </g>
      </g>
    </g>
  </g>
</svg>
