<svg xmlns="http://www.w3.org/2000/svg" xmlns:xlink="http://www.w3.org/1999/xlink" width="90" height="90" viewBox="0 0 90 90">
  <defs>
    <clipPath id="clip-path">
      <rect id="Rectángulo_403584" data-name="Rectángulo 403584" width="56.949" height="56.695" fill="none"/>
    </clipPath>
    <clipPath id="clip-path-3">
      <rect id="Rectángulo_403580" data-name="Rectángulo 403580" width="13.021" height="17.631" fill="none"/>
    </clipPath>
    <clipPath id="clip-path-4">
      <rect id="Rectángulo_403581" data-name="Rectángulo 403581" width="8.515" height="12.657" fill="none"/>
    </clipPath>
    <clipPath id="clip-path-5">
      <rect id="Rectángulo_403582" data-name="Rectángulo 403582" width="5.25" height="6.247" fill="none"/>
    </clipPath>
  </defs>
  <g id="Grupo_1106847" data-name="Grupo 1106847" transform="translate(-546 -1039)">
    <rect id="Rectángulo_403565" data-name="Rectángulo 403565" width="90" height="90" rx="45" transform="translate(546 1039)" fill="#fff" opacity="0.859"/>
    <g id="Grupo_1106878" data-name="Grupo 1106878" transform="translate(563.13 1054.653)">
      <g id="Grupo_1106877" data-name="Grupo 1106877" clip-path="url(#clip-path)">
        <g id="Grupo_1106876" data-name="Grupo 1106876" transform="translate(0 0)">
          <g id="Grupo_1106875" data-name="Grupo 1106875" clip-path="url(#clip-path)">
            <path id="Trazado_878230" data-name="Trazado 878230" d="M54.6,52.934v8.424H12.577V52.934a9.205,9.205,0,0,1,9.206-9.206h5.853a2,2,0,0,0,2-2v-.211a8.49,8.49,0,0,0,3.677.871,8.318,8.318,0,0,0,4.233-1.108v.447a2,2,0,0,0,2,2H45.4A9.206,9.206,0,0,1,54.6,52.934" transform="translate(-5.116 -16.792)" fill="#ac92ea"/>
            <g id="Grupo_1106868" data-name="Grupo 1106868" transform="translate(36.469 26.933)" opacity="0.1">
              <g id="Grupo_1106867" data-name="Grupo 1106867">
                <g id="Grupo_1106866" data-name="Grupo 1106866" clip-path="url(#clip-path-3)">
                  <path id="Trazado_878231" data-name="Trazado 878231" d="M74.5,54.609v8.424H70.683V54.609A9.2,9.2,0,0,0,61.476,45.4H65.29A9.208,9.208,0,0,1,74.5,54.609" transform="translate(-61.476 -45.402)"/>
                </g>
              </g>
            </g>
            <path id="Trazado_878232" data-name="Trazado 878232" d="M54.2,61.544H12.169a.593.593,0,0,1-.593-.593V52.527a9.81,9.81,0,0,1,9.8-9.8h5.853a1.409,1.409,0,0,0,1.407-1.407v-.21a.594.594,0,0,1,.855-.533,7.856,7.856,0,0,0,3.421.81,7.728,7.728,0,0,0,3.933-1.029.593.593,0,0,1,.887.515v.447a1.409,1.409,0,0,0,1.407,1.407h5.852a9.81,9.81,0,0,1,9.8,9.8v8.424a.593.593,0,0,1-.593.593M12.762,60.358H53.6V52.527a8.622,8.622,0,0,0-8.613-8.612H39.139a2.6,2.6,0,0,1-2.547-2.1,8.872,8.872,0,0,1-3.694.762,9.05,9.05,0,0,1-3.161-.6,2.6,2.6,0,0,1-2.509,1.934H21.375a8.622,8.622,0,0,0-8.613,8.612Z" transform="translate(-4.709 -16.386)"/>
            <path id="Trazado_878233" data-name="Trazado 878233" d="M48.614,68.558H44.683l.087-1.1.836-8.188.372.372a.951.951,0,0,0,1.353,0l.363-.368Z" transform="translate(-18.176 -24.111)" fill="#eb5463"/>
            <path id="Trazado_878234" data-name="Trazado 878234" d="M48.207,68.745H44.276a.593.593,0,0,1-.591-.64l.087-1.1.838-8.2a.593.593,0,0,1,1.01-.359l.372.372a.358.358,0,0,0,.511,0l.362-.368a.593.593,0,0,1,1.013.358l.919,9.282a.594.594,0,0,1-.59.652m-3.289-1.186h2.634l-.747-7.549a1.545,1.545,0,0,1-.557.1h0a1.552,1.552,0,0,1-.568-.107Z" transform="translate(-17.769 -23.704)"/>
            <path id="Trazado_878235" data-name="Trazado 878235" d="M47.59,51.576a.59.59,0,0,1-.3-.084.606.606,0,0,1-.279-.673.586.586,0,0,1,.561-.443.618.618,0,0,1,.585.413.584.584,0,0,1-.2.664l-.018.012a.592.592,0,0,1-.343.11" transform="translate(-19.113 -20.492)"/>
            <path id="Trazado_878236" data-name="Trazado 878236" d="M48.87,54.344l-1.724,1.729-.364.368a.952.952,0,0,1-1.353,0l-.372-.373-1.725-1.72L46.1,51.4Z" transform="translate(-17.627 -20.908)" fill="#eb5463"/>
            <path id="Trazado_878237" data-name="Trazado 878237" d="M45.7,56.91h0a1.535,1.535,0,0,1-1.1-.459l-2.094-2.09a.593.593,0,0,1-.013-.826l2.771-2.951a.593.593,0,0,1,.864,0L48.9,53.531a.593.593,0,0,1-.012.825L46.8,56.451a1.536,1.536,0,0,1-1.1.459m-1.946-2.982,1.69,1.687a.358.358,0,0,0,.511,0l1.684-1.692L45.7,51.858Z" transform="translate(-17.22 -20.501)"/>
            <path id="Trazado_878238" data-name="Trazado 878238" d="M42.774,48.961,40,51.911l-.311.329a.706.706,0,0,1-1.134-.171l-3.41-6.658.131,0h2.329l5.143,3.542Z" transform="translate(-14.298 -18.47)" fill="#e4e8eb"/>
            <path id="Trazado_878239" data-name="Trazado 878239" d="M38.786,52.639a1.349,1.349,0,0,1-.195-.015,1.306,1.306,0,0,1-.966-.69l-3.411-6.661a.593.593,0,0,1,.509-.864l.131,0H37.2a.594.594,0,0,1,.336.105l5.144,3.541a.619.619,0,0,1,.264.432.6.6,0,0,1-.147.476l-3.082,3.28a1.288,1.288,0,0,1-.931.4m-3.076-7.047,2.97,5.8a.111.111,0,0,0,.085.061.113.113,0,0,0,.1-.033l2.6-2.767-4.444-3.058Z" transform="translate(-13.891 -18.064)"/>
            <path id="Trazado_878240" data-name="Trazado 878240" d="M55.624,45.411l-3.41,6.658a.706.706,0,0,1-1.134.17l-.311-.332L48,48.961l.018-.013,5.143-3.541h2.329Z" transform="translate(-19.527 -18.471)" fill="#e4e8eb"/>
            <path id="Trazado_878241" data-name="Trazado 878241" d="M51.172,52.64a1.281,1.281,0,0,1-.924-.393L47.163,48.96a.592.592,0,0,1,.089-.89l5.168-3.559a.6.6,0,0,1,.337-.1l2.479,0a.593.593,0,0,1,.509.864l-3.41,6.658a1.308,1.308,0,0,1-.968.693,1.275,1.275,0,0,1-.195.015M48.5,48.651l2.606,2.777a.1.1,0,0,0,.087.024.115.115,0,0,0,.087-.063l2.968-5.8H52.941Z" transform="translate(-19.12 -18.064)"/>
            <path id="Trazado_878242" data-name="Trazado 878242" d="M50.457,19.724v3.428a9.174,9.174,0,0,1-4.57,7.884,8.311,8.311,0,0,1-4.233,1.107,8.5,8.5,0,0,1-3.677-.871,8.678,8.678,0,0,1-4.893-7.805V19.759a.331.331,0,0,0,.582.061l1.7-2.442a1.265,1.265,0,0,1,1.256-.5c3.913.709,7.56.674,10.712-.688a1.2,1.2,0,0,1,1.637.758,27.709,27.709,0,0,0,.959,2.635.343.343,0,0,0,.525.14" transform="translate(-13.457 -6.547)" fill="#efc7a4"/>
            <path id="Trazado_878243" data-name="Trazado 878243" d="M41.339,32.331h-.1a9.05,9.05,0,0,1-3.932-.932,9.276,9.276,0,0,1-5.225-8.338V19.353a.593.593,0,0,1,.488-.584.606.606,0,0,1,.376.056l1.528-2.192a1.864,1.864,0,0,1,1.849-.744c4.2.763,7.6.551,10.371-.648a1.837,1.837,0,0,1,1.5.031,1.776,1.776,0,0,1,.938,1.106c.29.962.642,1.861.844,2.352a.594.594,0,0,1,.663.589v3.428a9.705,9.705,0,0,1-4.868,8.4,8.957,8.957,0,0,1-4.436,1.187M33.269,20.11v2.951a8.089,8.089,0,0,0,4.56,7.272,7.88,7.88,0,0,0,3.424.812,7.728,7.728,0,0,0,3.933-1.03,8.627,8.627,0,0,0,4.271-7.368V19.9a.928.928,0,0,1-.478-.492A28.444,28.444,0,0,1,48,16.715a.583.583,0,0,0-.312-.372.648.648,0,0,0-.529-.009c-2.989,1.29-6.6,1.528-11.046.724a.668.668,0,0,0-.667.259l-1.7,2.438a.884.884,0,0,1-.476.356m-.5-1.033-.009.012Z" transform="translate(-13.051 -6.141)"/>
            <path id="Trazado_878244" data-name="Trazado 878244" d="M50.906,9.227,49.843,13.4a.336.336,0,0,1-.114.185.345.345,0,0,1-.527-.141c-.281-.676-.659-1.652-.957-2.636a1.2,1.2,0,0,0-1.635-.756c-3.155,1.363-6.8,1.4-10.712.686a1.263,1.263,0,0,0-1.256.5l-1.7,2.443a.329.329,0,0,1-.58-.061.244.244,0,0,1-.026-.071L31.37,8.022A5.384,5.384,0,0,1,36.186,1.74l7.733-.712a6.592,6.592,0,0,1,6.986,8.2" transform="translate(-12.728 -0.407)" fill="#434a54"/>
            <g id="Grupo_1106871" data-name="Grupo 1106871" transform="translate(29.873 0.59)" opacity="0.1">
              <g id="Grupo_1106870" data-name="Grupo 1106870">
                <g id="Grupo_1106869" data-name="Grupo 1106869" clip-path="url(#clip-path-4)">
                  <path id="Trazado_878245" data-name="Trazado 878245" d="M58.661,9.227,57.6,13.4a.314.314,0,0,1-.119.184.339.339,0,0,1-.522-.136c-.284-.676-.658-1.655-.96-2.64a1.186,1.186,0,0,0-.867-.819l.2-.759a6.6,6.6,0,0,0-4.971-8.086l1.317-.119a6.594,6.594,0,0,1,6.988,8.2" transform="translate(-50.356 -0.995)"/>
                </g>
              </g>
            </g>
            <path id="Trazado_878246" data-name="Trazado 878246" d="M32.259,14.015a.927.927,0,0,1-.863-.586.993.993,0,0,1-.04-.109.417.417,0,0,1-.018-.076L30.38,7.717A5.977,5.977,0,0,1,35.728.742L43.46.03a7.186,7.186,0,0,1,7.615,8.936L50.012,13.14a.913.913,0,0,1-.31.493.967.967,0,0,1-.842.175.929.929,0,0,1-.611-.539c-.273-.658-.663-1.656-.979-2.7a.584.584,0,0,0-.314-.373.643.643,0,0,0-.523-.009c-2.993,1.293-6.611,1.531-11.048.723a.671.671,0,0,0-.667.261l-1.7,2.439a.9.9,0,0,1-.756.4m-.218-1.077-.009.013Zm16.82-.088,0,.012ZM44.134,1.185q-.281,0-.566.026l-7.733.712A4.79,4.79,0,0,0,31.55,7.515l.85,4.909,1.348-1.932a1.856,1.856,0,0,1,1.85-.744c4.2.765,7.594.553,10.37-.647a1.829,1.829,0,0,1,1.5.028,1.78,1.78,0,0,1,.941,1.106c.2.661.435,1.311.647,1.857l.871-3.42a6,6,0,0,0-5.792-7.488M50.5,8.819h0Z" transform="translate(-12.323 0)"/>
            <path id="Trazado_878247" data-name="Trazado 878247" d="M56.763,76.674v3.1a1.573,1.573,0,0,1-1.573,1.573H2.573A1.573,1.573,0,0,1,1,79.773v-3.1A1.573,1.573,0,0,1,2.573,75.1H55.19a1.573,1.573,0,0,1,1.573,1.573" transform="translate(-0.407 -30.55)" fill="#434a54"/>
            <g id="Grupo_1106874" data-name="Grupo 1106874" transform="translate(51.104 44.552)" opacity="0.1">
              <g id="Grupo_1106873" data-name="Grupo 1106873">
                <g id="Grupo_1106872" data-name="Grupo 1106872" clip-path="url(#clip-path-5)">
                  <path id="Trazado_878248" data-name="Trazado 878248" d="M91.4,76.674v3.1a1.571,1.571,0,0,1-1.572,1.572H86.146a1.575,1.575,0,0,0,1.573-1.572v-3.1A1.575,1.575,0,0,0,86.146,75.1h3.678A1.571,1.571,0,0,1,91.4,76.674" transform="translate(-86.146 -75.102)"/>
                </g>
              </g>
            </g>
            <path id="Trazado_878249" data-name="Trazado 878249" d="M54.783,81.533H2.165A2.168,2.168,0,0,1,0,79.367v-3.1A2.168,2.168,0,0,1,2.165,74.1H54.783a2.168,2.168,0,0,1,2.166,2.165v3.1a2.168,2.168,0,0,1-2.166,2.166M2.165,75.288a.98.98,0,0,0-.979.979v3.1a.98.98,0,0,0,.979.979H54.783a.981.981,0,0,0,.98-.979v-3.1a.981.981,0,0,0-.98-.979Z" transform="translate(0 -30.143)"/>
            <path id="Trazado_878250" data-name="Trazado 878250" d="M55.331,85.637v3.9a1.4,1.4,0,0,1-1.4,1.4H10.083a1.4,1.4,0,0,1-1.4-1.4v-3.9Z" transform="translate(-3.531 -34.836)" fill="#656d78"/>
            <path id="Trazado_878251" data-name="Trazado 878251" d="M53.521,91.124H9.676a2,2,0,0,1-2-2v-3.9a.593.593,0,0,1,.593-.593H54.924a.593.593,0,0,1,.593.593v3.9a2,2,0,0,1-2,2m-44.655-5.3v3.3a.811.811,0,0,0,.81.81H53.521a.811.811,0,0,0,.81-.81v-3.3Z" transform="translate(-3.124 -34.429)"/>
          </g>
        </g>
      </g>
    </g>
  </g>
</svg>
