<svg xmlns="http://www.w3.org/2000/svg" xmlns:xlink="http://www.w3.org/1999/xlink" width="125.392" height="120.094" viewBox="0 0 125.392 120.094">
  <defs>
    <clipPath id="clip-path">
      <rect id="Rectángulo_403766" data-name="Rectángulo 403766" width="83.171" height="84.204" fill="none"/>
    </clipPath>
  </defs>
  <g id="Grupo_1107184" data-name="Grupo 1107184" transform="translate(-438.051 -7842)">
    <g id="Grupo_1107180" data-name="Grupo 1107180" transform="translate(438.051 7842)">
      <rect id="Rectángulo_403763" data-name="Rectángulo 403763" width="125.392" height="120.094" rx="12" fill="#d6cee6"/>
    </g>
    <g id="Grupo_1107183" data-name="Grupo 1107183" transform="translate(456.889 7851.881)">
      <g id="Grupo_1107182" data-name="Grupo 1107182" transform="translate(0 0)">
        <g id="Grupo_1107181" data-name="Grupo 1107181" clip-path="url(#clip-path)">
          <path id="Trazado_878987" data-name="Trazado 878987" d="M75.19,326.806c3.3-12.219,10.657-34.623,10.657-34.623l1.638-11.754-28.676,3.087s-4.58,28.388-6.167,43.291Z" transform="translate(-36.949 -196.832)" fill="#12305c"/>
          <path id="Trazado_878988" data-name="Trazado 878988" d="M162.532,322.2c.3-11.276.94-33.271,1.447-41.1.235-3.626-3-7.234-3-7.234l-21.38,3.208s1.341,29.271,2.12,45.127Z" transform="translate(-97.982 -192.223)" fill="#12305c"/>
          <path id="Trazado_878989" data-name="Trazado 878989" d="M92.3,92.293c-27.553.069-25.6,11.8-23.051,23.958,3.149,15.01.143,31.146.681,46.367,6.159,1.488,41.642-1,42.973-.811-.785-24.9,1.87-26.224,3.114-41.51.253-13.918,1.9-28.068-23.716-28" transform="translate(-47.649 -64.781)" fill="#12305c"/>
          <path id="Trazado_878990" data-name="Trazado 878990" d="M197.183,317.358a5.449,5.449,0,0,1-3.118-.952,5.555,5.555,0,0,1-2.622-3.954c-.4-3.324,2.524-6.614,2.553-6.646a.052.052,0,1,1,.077.07c-.029.033-2.92,3.288-2.527,6.565a5.458,5.458,0,0,0,2.578,3.88,5.685,5.685,0,0,0,5.1.576.052.052,0,1,1,.041.1,5.855,5.855,0,0,1-2.078.366" transform="translate(-134.347 -214.633)" fill="#042041"/>
          <path id="Trazado_878991" data-name="Trazado 878991" d="M142.127,345.812a.052.052,0,0,1-.05-.041l-2.346-10.507a.052.052,0,1,1,.1-.023l2.346,10.507a.051.051,0,0,1-.039.062h-.011" transform="translate(-98.076 -235.277)" fill="#042041"/>
          <path id="Trazado_878992" data-name="Trazado 878992" d="M185.9,165.53s5.779,18.311,3.894,23.737c-1.948,5.607-30.506,9.249-30.506,9.249l.86-10.682,17.862-5.982-6.666-11.187Z" transform="translate(-111.803 -116.185)" fill="#f5a292"/>
          <path id="Trazado_878993" data-name="Trazado 878993" d="M192.331,104.821a38.258,38.258,0,0,1,10.414,20.254c-8.4,8.113-15.245,4.056-15.245,4.056s-6.478-11.873-6.273-18.116,8.675-8.113,11.1-6.194" transform="translate(-127.2 -73.069)" fill="#12305c"/>
          <path id="Trazado_878994" data-name="Trazado 878994" d="M213.528,162.008c-1.052,1.716-15.166,6.737-15.7,5.087a4.812,4.812,0,0,0,1.632,4.526c.7,2.3,16.106-2.36,15.41-4.658q1.071-2.372-1.341-4.955" transform="translate(-138.822 -113.713)" fill="#1e498a"/>
          <path id="Trazado_878995" data-name="Trazado 878995" d="M189.751,164.076a.136.136,0,0,0,.088-.22,22.266,22.266,0,0,1-3.327-6.251.136.136,0,1,0-.257.09,22.543,22.543,0,0,0,3.37,6.33.136.136,0,0,0,.126.05" transform="translate(-130.727 -110.559)" fill="#231f20"/>
          <path id="Trazado_878996" data-name="Trazado 878996" d="M72.593,341.674h-.01a.052.052,0,0,1-.042-.061c2.425-13.063,4.959-25.971,7.53-38.367a.052.052,0,1,1,.1.021c-2.571,12.395-5.1,25.3-7.53,38.365a.052.052,0,0,1-.051.043" transform="translate(-50.917 -212.818)"/>
          <path id="Trazado_878997" data-name="Trazado 878997" d="M164.332,344.161a.052.052,0,0,1-.052-.052c-.055-12.925.1-26.113.269-37.31a.052.052,0,0,1,.052-.051h0a.052.052,0,0,1,.051.052c-.164,11.2-.324,24.384-.269,37.308a.052.052,0,0,1-.052.052Z" transform="translate(-115.3 -215.306)"/>
          <path id="Trazado_878998" data-name="Trazado 878998" d="M115.877,277.858s1.935,5.594.686,7.513-42.029-.207-43.823-1.741c-1.141-.976-.339-6.652,1.394-6.558s38.4.509,41.744.785" transform="translate(-50.683 -194.476)" fill="#042041"/>
          <path id="Trazado_878999" data-name="Trazado 878999" d="M107.712,286.064c-4.9,0-10.993-.221-16.043-.491-8.873-.475-18.214-1.285-19.08-2.026-.8-.682-.665-3.53.019-5.24.381-.951.867-1.44,1.411-1.409.615.033,5.647.108,12.019.2,11.634.171,27.567.406,29.727.584a.052.052,0,0,1,.045.035c.079.229,1.928,5.64.68,7.559-.127.2-.6.35-1.441.471a59.826,59.826,0,0,1-7.337.316M73.976,277c-.472,0-.922.475-1.27,1.345-.673,1.68-.817,4.466-.048,5.122.722.618,8.543,1.441,19.018,2,8.271.443,19.352.754,23.359.176,1-.144,1.294-.311,1.369-.425,1.172-1.8-.526-6.977-.68-7.436-2.284-.177-18.112-.41-29.686-.581-6.373-.094-11.406-.168-12.023-.2h-.038" transform="translate(-50.566 -194.353)" fill="#042041"/>
          <path id="Trazado_879000" data-name="Trazado 879000" d="M123.594,170.13h-.007a.113.113,0,0,1-.083-.058c-.691-1.129,5.992-27.444,7.888-32.686,2.008-5.551.495-26.608.479-26.82a.052.052,0,0,1,.048-.056.051.051,0,0,1,.055.048c.016.212,1.53,21.291-.485,26.863-.949,2.624-3.055,10.3-5.009,18.26-2.383,9.706-3.164,14.2-2.881,14.347a.052.052,0,0,1-.007.1" transform="translate(-86.653 -77.566)"/>
          <path id="Trazado_879001" data-name="Trazado 879001" d="M136.64,26.7c5.173.63,7.759,15.952-1.034,16.582S128.419,25.7,136.64,26.7" transform="translate(-91.039 -18.716)" fill="#f5a292"/>
          <path id="Trazado_879002" data-name="Trazado 879002" d="M126.382,46.9c-.265-2.08-3.088-3.421-3.188-.125.315,4.4,3.435,1.715,3.188.125" transform="translate(-86.47 -31.436)" fill="#f5a292"/>
          <path id="Trazado_879003" data-name="Trazado 879003" d="M143.521,73.541c-.011-.153-9.478-.234-8.547.084.1,2.24-.179,5.968.152,7.309.6,2.448,2.123,3.871,4.351,3.871,2.8,0,3.771-2.513,4.043-4.548a39.114,39.114,0,0,0,0-6.716" transform="translate(-94.693 -51.524)" fill="#f5a292"/>
          <path id="Trazado_879004" data-name="Trazado 879004" d="M146.65,50.287c-.467,0-.737-.083-.87-.266-.2-.282-.035-.762.2-1.425a10.274,10.274,0,0,0,.556-2.074.052.052,0,0,1,.1.014,10.375,10.375,0,0,1-.561,2.1c-.224.633-.385,1.091-.212,1.329.119.163.4.233.891.221h0a.052.052,0,0,1,0,.1h-.109" transform="translate(-102.258 -32.622)"/>
          <path id="Trazado_879005" data-name="Trazado 879005" d="M153.137,43.772a.106.106,0,0,1-.048-.2l.025-.012a3.1,3.1,0,0,1,2.77-.252.106.106,0,1,1-.062.2,2.9,2.9,0,0,0-2.613.238l-.025.012a.1.1,0,0,1-.047.011" transform="translate(-107.412 -30.252)"/>
          <path id="Trazado_879006" data-name="Trazado 879006" d="M138.852,43.747a.1.1,0,0,1-.05-.013l-.024-.013a2.9,2.9,0,0,0-2.607-.3.106.106,0,0,1-.056-.2,3.1,3.1,0,0,1,2.763.32l.024.013a.106.106,0,0,1-.05.2" transform="translate(-95.484 -30.207)"/>
          <path id="Trazado_879007" data-name="Trazado 879007" d="M126.149,51.193a.053.053,0,0,1-.045-.025,2.077,2.077,0,0,1-.072-1.953.052.052,0,1,1,.093.047,1.97,1.97,0,0,0,.068,1.853.052.052,0,0,1-.018.071.051.051,0,0,1-.027.007" transform="translate(-88.315 -34.524)"/>
          <path id="Trazado_879008" data-name="Trazado 879008" d="M165.019,46.9c.265-2.08,3.088-3.421,3.188-.125-.315,4.4-3.435,1.715-3.188.125" transform="translate(-115.817 -31.436)" fill="#f5a292"/>
          <path id="Trazado_879009" data-name="Trazado 879009" d="M170.385,51.193a.05.05,0,0,1-.027-.007.052.052,0,0,1-.018-.071,1.97,1.97,0,0,0,.068-1.853.052.052,0,1,1,.093-.047,2.077,2.077,0,0,1-.072,1.953.053.053,0,0,1-.045.025" transform="translate(-119.556 -34.524)"/>
          <path id="Trazado_879010" data-name="Trazado 879010" d="M145.674,80.192a5.242,5.242,0,0,1-1.747-.352.052.052,0,0,1,.035-.1,3.482,3.482,0,0,0,3.623-.354.052.052,0,1,1,.067.079,2.95,2.95,0,0,1-1.979.726" transform="translate(-100.998 -55.714)"/>
          <path id="Trazado_879011" data-name="Trazado 879011" d="M130.326,29.3c2.3.8.43-10.057,8.347-5.862.732.885,2.2,7.333,3.437,6,.605-11.982-12.847-11.577-11.784-.14" transform="translate(-91.434 -14.451)" fill="#2b1708"/>
          <path id="Trazado_879012" data-name="Trazado 879012" d="M139.415,49.251a.4.4,0,1,1-.4-.4.4.4,0,0,1,.4.4" transform="translate(-97.287 -34.285)"/>
          <path id="Trazado_879013" data-name="Trazado 879013" d="M157.962,49.251a.4.4,0,1,1-.4-.4.4.4,0,0,1,.4.4" transform="translate(-110.306 -34.285)"/>
          <path id="Trazado_879014" data-name="Trazado 879014" d="M142.734,32.169c-.61-.47-11.177-.245-11.19.445,0,0,2.236,2.246,7.02,1.92a6.116,6.116,0,0,0,4.171-2.365" transform="translate(-92.331 -22.405)" fill="#12305c"/>
          <path id="Trazado_879015" data-name="Trazado 879015" d="M129.458,29.591,141,29.133l.189-1.54-12.2.391a3.32,3.32,0,0,0,.461,1.607" transform="translate(-90.543 -19.368)" fill="#1e498a"/>
          <path id="Trazado_879016" data-name="Trazado 879016" d="M125.046,15.268c-1.247.006-1.67-1.07,0-1.733,3.953-1.572,2.719-4.353,6.764-4.352,1.974,0,2.986,2.569,6.294,3.967,1.175.5.828,1.022.171,1.58-1.528.445-11.92.533-13.226.539" transform="translate(-86.998 -6.446)" fill="#12305c"/>
          <path id="Trazado_879017" data-name="Trazado 879017" d="M145.905,68.309a.052.052,0,0,1-.035-.014c-.3-.278-3.033-.321-4.062-.313h0a.052.052,0,0,1,0-.1c.383,0,3.75-.015,4.134.341a.052.052,0,0,1,0,.074.052.052,0,0,1-.038.017" transform="translate(-99.498 -47.643)"/>
          <path id="Trazado_879018" data-name="Trazado 879018" d="M131.824,107.31s2.766,3.445,4.21,3.437c.63,0,1.679-2.013,1.679-2.013a8.977,8.977,0,0,0,1.025,2.014c.285.142,3.457-1.607,3.7-3.408.139-1.017-5.432-.313-5.432-.313Z" transform="translate(-92.527 -74.955)" fill="#042041"/>
          <path id="Trazado_879019" data-name="Trazado 879019" d="M130.712,89.474s.822,3.556,3.122,4.315,1.974,1.193,1.974,1.193l-1.776,3.058s-3.369-1.072-4.467-3.634c-1-2.326-1.176-5.445,1.147-4.932" transform="translate(-90.451 -62.763)" fill="#1e498a"/>
          <path id="Trazado_879020" data-name="Trazado 879020" d="M155.286,90.667s.089,2.593-1.616,3.724c-1.653,1.1-1.472.838-1.9,1.166-.812.617,1.285,3.532,1.285,3.532a6.62,6.62,0,0,0,3.442-3.6c.708-2.24.639-5.39-1.207-4.826" transform="translate(-106.393 -63.593)" fill="#1e498a"/>
          <path id="Trazado_879021" data-name="Trazado 879021" d="M65.324,103.479c-2.842.7-9.463,4.765-9.749,6.486s2.6,10.754,6.369,10.728,7.785-.707,8.526-2.579,1.342-16.234-5.145-14.636" transform="translate(-38.994 -72.545)" fill="#12305c"/>
          <path id="Trazado_879022" data-name="Trazado 879022" d="M52.388,146.884s3.855,1.937,6.516.9,2.712-6.542,2.712-7.858-.867-3.862-3.362-4.324-10.32,4.145-5.865,11.277" transform="translate(-35.827 -95.159)" fill="#042041"/>
          <path id="Trazado_879023" data-name="Trazado 879023" d="M36.047,101.97c-2.993-3.559-.708-4.186-1.426-5.144-.458-.611-.892-.981-1.068-1.241-1.519-2.24-1.144-6.163-1.11-7.563-.566-2.21-1.812-5.99-1.909-7.353a1.634,1.634,0,0,1,.656-1.422,1.075,1.075,0,0,1,1.294.3l1.5,4.557c.086-.045-.338-6.019-.283-7a1.635,1.635,0,0,1,.829-1.328,1.076,1.076,0,0,1,1.246.463l1.314,6.772.016,0c0-2.788-.022-7.474.2-8.676a1.7,1.7,0,0,1,1.029-1.258,1.117,1.117,0,0,1,1.221.641l.664,9.1c.113.081,1.448-7.4,1.448-7.4a1.116,1.116,0,0,1,1.271-.536,1.7,1.7,0,0,1,.92,1.34c.138,1.385-.414,7.241-.615,9.691a1.466,1.466,0,0,0,.416.85c1.358-1.791,3.06-3.861,3.728-4.581a1.634,1.634,0,0,1,1.486-.493,1.075,1.075,0,0,1,.663,1.151l-3.812,8.24h0a21.185,21.185,0,0,1-2.541,6.075c0,.231,1.541,1.248-.787,4.354" transform="translate(-21.43 -51.282)" fill="#f5a292"/>
          <path id="Trazado_879024" data-name="Trazado 879024" d="M57.379,132.877a.053.053,0,0,1-.051-.039,7.029,7.029,0,0,1,.5-4.685,7.334,7.334,0,0,1,3.222-2.7.053.053,0,0,1,.04.1,7.223,7.223,0,0,0-3.17,2.653,6.912,6.912,0,0,0-.487,4.605.053.053,0,0,1-.037.065l-.014,0" transform="translate(-40.1 -88.053)" fill="#010001"/>
          <path id="Trazado_879025" data-name="Trazado 879025" d="M44.936,120.522a17.087,17.087,0,0,1-2.816-.235.053.053,0,0,1,.02-.1,16.909,16.909,0,0,0,3.384.222,18.54,18.54,0,0,0,4.517-1.111.053.053,0,0,1,.038.1,18.642,18.642,0,0,1-4.551,1.118c-.2.008-.4.012-.593.012" transform="translate(-29.534 -83.73)" fill="#010001"/>
          <path id="Trazado_879026" data-name="Trazado 879026" d="M51.958,150.186s2.132,3.474,1.019,5.917c-1.649,3.62-6.841,3.842-8.677,1.824-2.616-2.876-2.13-5.857-2.13-7.671" transform="translate(-29.574 -105.415)" fill="#f5a292"/>
          <path id="Trazado_879027" data-name="Trazado 879027" d="M48.014,153.926a5.859,5.859,0,0,1-3.926-1.235.053.053,0,1,1,.074-.076,5.76,5.76,0,0,0,3.853,1.2,13.029,13.029,0,0,0,4.652-.879.053.053,0,1,1,.042.1,13.139,13.139,0,0,1-4.694.888" transform="translate(-30.934 -107.11)" fill="#010001"/>
          <path id="Trazado_879028" data-name="Trazado 879028" d="M105.036,146.508c0-.072,0-.108.005-.125a5.553,5.553,0,0,1-1.421-.6,4.453,4.453,0,0,1-1.09-.9l0,0a3.98,3.98,0,0,1-.526.434,5.044,5.044,0,0,1-.855.473c-.155.068-.313.132-.476.186a5.445,5.445,0,0,1-.754.193c0,.042-.009.205-.03.745,0,.108-.01.231-.015.371q0,.105-.009.223c-.01.237-.021.514-.034.839a3.385,3.385,0,0,0,.16,1.187,3.425,3.425,0,0,0,.132.345,3.957,3.957,0,0,0,.547.884,5,5,0,0,0,.646.657,5.543,5.543,0,0,0,.732.525c.091.054.161.092.2.113a5.674,5.674,0,0,0,.764-.416,5.488,5.488,0,0,0,.452-.326c.077-.063.156-.129.233-.2a3.621,3.621,0,0,0,1.257-2.559c.053-1.3.075-1.837.084-2.053" transform="translate(-70.066 -101.693)" fill="#ffae00"/>
          <rect id="Rectángulo_403765" data-name="Rectángulo 403765" width="1.329" height="7.249" transform="translate(28.33 52.968) rotate(-86.582)" fill="#1e498a"/>
        </g>
      </g>
      <path id="Trazado_879029" data-name="Trazado 879029" d="M216.455,186.66h0c0-.069,0-.1,0-.105,0,.013,0,.105,0,.105" transform="translate(-151.93 -130.943)" fill="#d7ffff"/>
      <path id="Trazado_879030" data-name="Trazado 879030" d="M216.455,186.66h0c0-.069,0-.1,0-.105,0,.013,0,.105,0,.105" transform="translate(-151.93 -130.943)" fill="#d7ffff"/>
      <path id="Trazado_879031" data-name="Trazado 879031" d="M62.542,186.583s0-.092,0-.105c0,.007,0,.037,0,.105" transform="translate(-43.898 -130.889)" fill="#d7ffff"/>
      <path id="Trazado_879032" data-name="Trazado 879032" d="M62.542,186.583s0-.092,0-.105c0,.007,0,.037,0,.105" transform="translate(-43.898 -130.889)" fill="#d7ffff"/>
      <path id="Trazado_879033" data-name="Trazado 879033" d="M85.492,149.669c5.329,5.106,13.846,9.308,22.97,11.123,0,.541.006,3.538.028,17.353.03,18.429-19.768,27.346-22.842,28.715-2.969-1.228-22.955-10.309-22.985-28.738-.022-13.815-.027-16.812-.028-17.353,9.117-1.806,17.544-6,22.857-11.1" transform="translate(-43.964 -105.053)" fill="#340b81"/>
      <path id="Trazado_879034" data-name="Trazado 879034" d="M91.373,160.879l.046-.036c5.221,4.285,12.463,7.667,20.433,9.528l.025,15.614c.012,7.145-3.209,13.594-9.574,19.169A45.715,45.715,0,0,1,91.5,212.1l-.3-.141a45.926,45.926,0,0,1-10.52-6.814c-6.382-5.581-9.624-12.033-9.636-19.178l-.025-15.615c7.941-1.848,15.153-5.209,20.356-9.471" transform="translate(-49.847 -112.896)" fill="#fff"/>
      <path id="Trazado_879035" data-name="Trazado 879035" d="M107.829,237.393l-.055,13.831c2.652-.119,14.654.07,18.891.076l.055-13.831Zm8.047,6.216a1.374,1.374,0,1,1,1.932,1.253l-.009,2.313a.563.563,0,0,1-1.126,0l.01-2.308a1.364,1.364,0,0,1-.807-1.254" transform="translate(-75.646 -166.626)" fill="#ffa700"/>
      <path id="Trazado_879036" data-name="Trazado 879036" d="M113.48,218.233l1.912.008,0-.932a5.879,5.879,0,0,1,11.758.047l0,.931,1.912.008,0-.931a7.792,7.792,0,0,0-15.583-.062Z" transform="translate(-79.652 -147.102)" fill="#ffa700"/>
    </g>
  </g>
</svg>
