<svg xmlns="http://www.w3.org/2000/svg" xmlns:xlink="http://www.w3.org/1999/xlink" width="88" height="88" viewBox="0 0 88 88">
  <defs>
    <clipPath id="clip-path">
      <rect id="Rectángulo_403779" data-name="Rectángulo 403779" width="56.841" height="61.353" fill="none"/>
    </clipPath>
  </defs>
  <g id="Grupo_1107196" data-name="Grupo 1107196" transform="translate(-351.635 -9465.584)">
    <circle id="Elipse_11778" data-name="Elipse 11778" cx="44" cy="44" r="44" transform="translate(351.635 9465.584)" fill="#fd5a37"/>
    <g id="Grupo_1107198" data-name="Grupo 1107198" transform="translate(372.635 9479.908)">
      <g id="Grupo_1107197" data-name="Grupo 1107197" clip-path="url(#clip-path)">
        <path id="Trazado_879137" data-name="Trazado 879137" d="M41.555,42.683V55.089A2.255,2.255,0,0,1,39.3,57.344H6.595a2.255,2.255,0,0,1-2.256-2.255V6.595A2.256,2.256,0,0,1,6.595,4.339H31.969l9.586,9.586v9.586" transform="translate(-3.549 -3.549)" fill="#ae9dcc"/>
        <path id="Trazado_879138" data-name="Trazado 879138" d="M35.751,54.585H3.046A3.05,3.05,0,0,1,0,51.539V3.045A3.05,3.05,0,0,1,3.046,0H28.421a.79.79,0,0,1,.559.232l9.586,9.586a.791.791,0,0,1,.232.559v9.586a.79.79,0,1,1-1.581,0V10.7L28.093,1.58H3.046A1.467,1.467,0,0,0,1.581,3.045V51.539A1.467,1.467,0,0,0,3.046,53H35.751a1.467,1.467,0,0,0,1.465-1.465V39.134a.79.79,0,1,1,1.581,0V51.539a3.05,3.05,0,0,1-3.046,3.046" transform="translate(0 0.001)" fill="#1c2e66"/>
        <path id="Trazado_879139" data-name="Trazado 879139" d="M78.7,79.827V92.233a2.255,2.255,0,0,1-2.255,2.255H43.739a2.255,2.255,0,0,1-2.256-2.255V43.739a2.256,2.256,0,0,1,2.256-2.256H69.113L78.7,51.069v3.947" transform="translate(-33.926 -33.926)" fill="#fff"/>
        <path id="Trazado_879140" data-name="Trazado 879140" d="M72.9,91.73H40.19a3.05,3.05,0,0,1-3.046-3.046V40.19a3.05,3.05,0,0,1,3.046-3.046H65.565a.79.79,0,0,1,.559.232l9.586,9.586a.79.79,0,0,1,.232.559v3.947a.79.79,0,1,1-1.581,0v-3.62l-9.123-9.123H40.19a1.467,1.467,0,0,0-1.465,1.465V88.684a1.467,1.467,0,0,0,1.465,1.465H72.9a1.467,1.467,0,0,0,1.465-1.465V76.279a.79.79,0,0,1,1.581,0V88.684A3.05,3.05,0,0,1,72.9,91.73" transform="translate(-30.377 -30.377)" fill="#1c2e66"/>
        <path id="Trazado_879141" data-name="Trazado 879141" d="M248.873,125.91l3.548-3.548a1.361,1.361,0,0,1,1.925,0l4.841,4.841a1.361,1.361,0,0,1,0,1.925l-3.548,3.548" transform="translate(-203.536 -99.745)" fill="#f7b71b"/>
        <path id="Trazado_879142" data-name="Trazado 879142" d="M252.091,129.919a.791.791,0,0,1-.559-1.35l3.548-3.548a.571.571,0,0,0,0-.807l-4.841-4.841a.588.588,0,0,0-.807,0l-3.548,3.549a.791.791,0,0,1-1.118-1.118l3.549-3.548a2.152,2.152,0,0,1,3.043,0L256.2,123.1a2.152,2.152,0,0,1,0,3.043l-3.549,3.548a.788.788,0,0,1-.559.232" transform="translate(-199.987 -96.196)" fill="#1c2e66"/>
        <path id="Trazado_879143" data-name="Trazado 879143" d="M192.992,48.311h-1.128a3.049,3.049,0,0,1-3.046-3.046v-7.33a.791.791,0,0,1,1.349-.559l9.586,9.586a.791.791,0,0,1-1.118,1.118L190.4,39.843v5.422a1.467,1.467,0,0,0,1.465,1.465h1.128a.791.791,0,0,1,0,1.581" transform="translate(-154.421 -30.377)" fill="#1c2e66"/>
        <path id="Trazado_879144" data-name="Trazado 879144" d="M147.3,170.133h-6.767v-6.767l19.736-19.736,6.767,6.767Z" transform="translate(-114.934 -117.465)" fill="#fff"/>
        <path id="Trazado_879145" data-name="Trazado 879145" d="M143.753,167.375h-6.767a.791.791,0,0,1-.79-.791v-6.767a.791.791,0,0,1,.232-.559l19.736-19.736a.791.791,0,0,1,1.118,0l6.767,6.767a.791.791,0,0,1,0,1.118l-19.736,19.736a.79.79,0,0,1-.559.232m-5.976-1.581h5.649l18.945-18.946-5.649-5.649-18.945,18.945Z" transform="translate(-111.385 -113.917)" fill="#1c2e66"/>
        <path id="Trazado_879146" data-name="Trazado 879146" d="M143.754,255.976a.788.788,0,0,1-.559-.232l-6.767-6.767a.79.79,0,0,1,1.118-1.118l6.767,6.767a.791.791,0,0,1-.559,1.35" transform="translate(-111.386 -202.518)" fill="#1c2e66"/>
        <path id="Trazado_879147" data-name="Trazado 879147" d="M171.035,189.019a.791.791,0,0,1-.559-1.35l14.1-14.1a.791.791,0,0,1,1.118,1.118l-14.1,14.1a.788.788,0,0,1-.559.232" transform="translate(-139.231 -141.763)" fill="#1c2e66"/>
        <path id="Trazado_879148" data-name="Trazado 879148" d="M257.705,189.294a.791.791,0,0,1-.559-1.35l6.932-6.932a.57.57,0,0,0,0-.807l-2.421-2.421a.791.791,0,0,1,1.118-1.118l2.421,2.421a2.152,2.152,0,0,1,0,3.043l-6.932,6.932a.788.788,0,0,1-.559.232" transform="translate(-210.113 -144.294)" fill="#1c2e66"/>
        <path id="Trazado_879149" data-name="Trazado 879149" d="M79.164,267.369a.79.79,0,0,1-.559-.232L76.068,264.6a.791.791,0,1,1,1.118-1.118l1.978,1.979,3.67-3.67a.79.79,0,0,1,1.118,1.118l-4.229,4.229a.791.791,0,0,1-.559.232" transform="translate(-62.021 -213.91)" fill="#1c2e66"/>
        <path id="Trazado_879150" data-name="Trazado 879150" d="M84.266,203.019H79.755a1.128,1.128,0,0,1-1.128-1.128V197.38a1.128,1.128,0,0,1,1.128-1.128h4.511a1.128,1.128,0,0,1,1.128,1.128v4.511a1.128,1.128,0,0,1-1.128,1.128" transform="translate(-64.303 -160.501)" fill="#f7b71b"/>
        <path id="Trazado_879151" data-name="Trazado 879151" d="M80.718,200.26H76.207a1.92,1.92,0,0,1-1.918-1.918V193.83a1.92,1.92,0,0,1,1.918-1.918h4.511a1.92,1.92,0,0,1,1.918,1.918v4.511a1.92,1.92,0,0,1-1.918,1.918m-4.511-6.767a.338.338,0,0,0-.337.337v4.511a.338.338,0,0,0,.337.337h4.511a.338.338,0,0,0,.337-.337V193.83a.338.338,0,0,0-.337-.337Z" transform="translate(-60.756 -156.951)" fill="#1c2e66"/>
        <path id="Trazado_879152" data-name="Trazado 879152" d="M84.266,134.921H79.755a1.128,1.128,0,0,1-1.128-1.128v-4.511a1.128,1.128,0,0,1,1.128-1.128h4.511a1.128,1.128,0,0,1,1.128,1.128v4.511a1.128,1.128,0,0,1-1.128,1.128" transform="translate(-64.303 -104.808)" fill="#f7b71b"/>
        <path id="Trazado_879153" data-name="Trazado 879153" d="M80.718,132.162H76.207a1.92,1.92,0,0,1-1.918-1.918v-4.511a1.92,1.92,0,0,1,1.918-1.918h4.511a1.92,1.92,0,0,1,1.918,1.918v4.511a1.921,1.921,0,0,1-1.918,1.918M76.207,125.4a.338.338,0,0,0-.337.337v4.511a.338.338,0,0,0,.337.337h4.511a.338.338,0,0,0,.337-.337v-4.511a.338.338,0,0,0-.337-.337Z" transform="translate(-60.756 -101.259)" fill="#1c2e66"/>
        <path id="Trazado_879154" data-name="Trazado 879154" d="M148.264,125.4H136.986a.791.791,0,0,1,0-1.581h11.278a.791.791,0,0,1,0,1.581" transform="translate(-111.385 -101.259)" fill="#1c2e66"/>
        <path id="Trazado_879155" data-name="Trazado 879155" d="M146.009,162.54h-9.022a.791.791,0,0,1,0-1.581h9.022a.791.791,0,0,1,0,1.581" transform="translate(-111.386 -131.637)" fill="#1c2e66"/>
        <path id="Trazado_879156" data-name="Trazado 879156" d="M140.37,193.493h-3.383a.791.791,0,0,1,0-1.581h3.383a.791.791,0,0,1,0,1.581" transform="translate(-111.385 -156.951)" fill="#1c2e66"/>
      </g>
    </g>
  </g>
</svg>
