<svg xmlns="http://www.w3.org/2000/svg" width="57.172" height="52" viewBox="0 0 57.172 52">
  <g id="Grupo_1105560" data-name="Grupo 1105560" transform="translate(-194.73 -5774.494)">
    <rect id="Rectángulo_402557" data-name="Rectángulo 402557" width="26" height="52" rx="5" transform="translate(194.73 5774.494)" fill="#febdaf"/>
    <g id="surface1" transform="translate(199.047 5774.494)">
      <path id="Trazado_874296" data-name="Trazado 874296" d="M86.022,329.615l-4.038-.827-2.337,2.42-7.964-6.286L77,321.3l5.648-6.181a2.125,2.125,0,0,1,3.368.3l6.691,7.674a2.466,2.466,0,0,1-.6,3.74l-3.942,2.347A3.664,3.664,0,0,1,86.022,329.615Zm0,0" transform="translate(-64.283 -281.965)" fill="#ffe7cf"/>
      <path id="Trazado_874297" data-name="Trazado 874297" d="M126.1,382.111l-1.633-1.873-6.809,4.058a3.673,3.673,0,0,1-2.141.437l-3.536-.381-3.055,2.624,4.12,3.252,2.336-2.42,4.038.828a3.672,3.672,0,0,0,2.141-.437l3.942-2.348A2.467,2.467,0,0,0,126.1,382.111Zm0,0" transform="translate(-97.681 -340.984)" fill="#efd5bd"/>
      <path id="Trazado_874298" data-name="Trazado 874298" d="M165.234,293.232c-.788-1.223-1.749-.6-2.537-1.827s.172-1.842-.616-3.064-1.749-.6-2.537-1.828.172-1.842-.617-3.065c-.482-.748-1.355-2.29-1.887-2.5l-4.255,2.1,7.405,11.679a2.415,2.415,0,0,0,3.338.721l1.417-.913a.942.942,0,0,0,.3-1.292Zm0,0" transform="translate(-137.012 -251.942)" fill="#344a5d"/>
      <path id="Trazado_874299" data-name="Trazado 874299" d="M91.476,271.183l-3.343,2.062a1.349,1.349,0,0,1-1.857-.44l-1.89-3.063a1.35,1.35,0,0,1,.44-1.857l3.343-2.062a.835.835,0,0,1,1.149.272l2.43,3.938A.835.835,0,0,1,91.476,271.183Zm0,0" transform="translate(-75.494 -238.27)" fill="#344a5d"/>
      <path id="Trazado_874300" data-name="Trazado 874300" d="M107.9,64.414,101.112,68.6a1.9,1.9,0,0,0-.619,2.614l3.346,5.423a1.9,1.9,0,0,0,2.614.619l6.786-4.187L134.7,68.4l-13-21.071Zm0,0" transform="translate(-89.864 -42.442)" fill="#fed066"/>
      <path id="Trazado_874301" data-name="Trazado 874301" d="M146.183,203.344,124.832,208.2l-8.4,5.184,1.955,3.168a1.9,1.9,0,0,0,2.614.619l6.785-4.187,21.462-4.672Zm0,0" transform="translate(-104.41 -182.352)" fill="#f5b556"/>
      <path id="Trazado_874302" data-name="Trazado 874302" d="M113.238,221.492l-6.786,4.187a1.9,1.9,0,0,1-2.614-.619l-3.346-5.423a1.9,1.9,0,0,1,.619-2.614l6.786-4.187Zm0,0" transform="translate(-89.864 -190.864)" fill="#fd715c"/>
      <path id="Trazado_874303" data-name="Trazado 874303" d="M124.832,250.336l-8.4,5.184,1.955,3.168a1.9,1.9,0,0,0,2.614.619l6.785-4.187Zm0,0" transform="translate(-104.41 -224.493)" fill="#d83e3a"/>
      <path id="Trazado_874304" data-name="Trazado 874304" d="M303.792,52.742l-.926.571a1.022,1.022,0,0,1-1.406-.333L287.483,30.329a1.022,1.022,0,0,1,.333-1.406l.926-.571a1.022,1.022,0,0,1,1.406.333l13.976,22.652A1.022,1.022,0,0,1,303.792,52.742Zm0,0" transform="translate(-257.668 -25.288)" fill="#fd715c"/>
      <path id="Trazado_874305" data-name="Trazado 874305" d="M406.882,219.946l-2.3-3.727-2.665,1.644,2.3,3.727a1.022,1.022,0,0,0,1.406.333l.926-.571A1.022,1.022,0,0,0,406.882,219.946Zm0,0" transform="translate(-360.426 -193.898)" fill="#d83e3a"/>
      <path id="Trazado_874306" data-name="Trazado 874306" d="M250.744,393.08a1.754,1.754,0,0,0,2.412.582l2.557-1.563a1.754,1.754,0,0,0-1.83-2.993l-2.558,1.563A1.754,1.754,0,0,0,250.744,393.08Zm0,0" transform="translate(-224.628 -348.706)" fill="#ffe7cf"/>
      <path id="Trazado_874307" data-name="Trazado 874307" d="M256.44,390.767a1.744,1.744,0,0,0-.854-.716,1.754,1.754,0,0,1-.823,1.732l-2.557,1.563a1.751,1.751,0,0,1-1.557.133,1.753,1.753,0,0,0,2.652,1.261l2.557-1.563A1.754,1.754,0,0,0,256.44,390.767Zm0,0" transform="translate(-224.773 -349.784)" fill="#efd5bd"/>
      <path id="Trazado_874308" data-name="Trazado 874308" d="M240.1,359.535a1.78,1.78,0,0,0,2.448.591l2.512-1.535a1.781,1.781,0,0,0-1.857-3.039l-2.512,1.536A1.78,1.78,0,0,0,240.1,359.535Zm0,0" transform="translate(-215.08 -318.613)" fill="#ffe7cf"/>
      <path id="Trazado_874309" data-name="Trazado 874309" d="M245.785,357.34a1.773,1.773,0,0,0-.838-.715,1.78,1.78,0,0,1-.837,1.744L241.6,359.9a1.777,1.777,0,0,1-1.611.123,1.779,1.779,0,0,0,2.694,1.295l2.512-1.535A1.781,1.781,0,0,0,245.785,357.34Zm0,0" transform="translate(-215.213 -319.809)" fill="#efd5bd"/>
      <path id="Trazado_874310" data-name="Trazado 874310" d="M221.965,330.292a1.781,1.781,0,0,0,2.448.591l2.512-1.536a1.78,1.78,0,1,0-1.857-3.038l-2.512,1.535A1.781,1.781,0,0,0,221.965,330.292Zm0,0" transform="translate(-198.817 -292.389)" fill="#ffe7cf"/>
      <path id="Trazado_874311" data-name="Trazado 874311" d="M227.628,328.168a1.773,1.773,0,0,0-.817-.707,1.78,1.78,0,0,1-.84,1.718l-2.512,1.535a1.777,1.777,0,0,1-1.631.115,1.778,1.778,0,0,0,2.7,1.321l2.512-1.535A1.781,1.781,0,0,0,227.628,328.168Zm0,0" transform="translate(-198.928 -293.656)" fill="#efd5bd"/>
      <path id="Trazado_874312" data-name="Trazado 874312" d="M204.869,300.3a1.781,1.781,0,0,0,2.448.591l2.512-1.536a1.78,1.78,0,1,0-1.857-3.038l-2.512,1.535A1.781,1.781,0,0,0,204.869,300.3Zm0,0" transform="translate(-183.486 -265.493)" fill="#ffe7cf"/>
      <path id="Trazado_874313" data-name="Trazado 874313" d="M210.775,297.608a1.771,1.771,0,0,0-1-.772,1.78,1.78,0,0,1-.811,1.89l-2.512,1.536a1.776,1.776,0,0,1-1.451.181,1.777,1.777,0,0,0,2.668,1.148l2.512-1.535A1.781,1.781,0,0,0,210.775,297.608Zm0,0" transform="translate(-183.841 -266.192)" fill="#efd5bd"/>
      <path id="Trazado_874314" data-name="Trazado 874314" d="M135.577,299.3l-.466.285a1.535,1.535,0,0,1-2.116-.48l-.772-1.262a1.323,1.323,0,0,0-1.832-.409c-.635,4.658-7.254,4.237-7.254,4.237l4.1-6.178a3.3,3.3,0,0,1,1.117-1.15l2.315-1.436a2.357,2.357,0,0,1,3.262.727l2.182,3.561A1.536,1.536,0,0,1,135.577,299.3Zm0,0" transform="translate(-110.425 -262.342)" fill="#ffe7cf"/>
      <path id="Trazado_874315" data-name="Trazado 874315" d="M174.861,323.86l-.018-.029a1.587,1.587,0,0,1-.519.515l-.466.285a1.535,1.535,0,0,1-2.116-.48l-.772-1.262a1.324,1.324,0,0,0-1.832-.409,9.216,9.216,0,0,1-2.793,5.107,4.356,4.356,0,0,0,2.793-3.488,1.323,1.323,0,0,1,1.832.409l.772,1.262a1.535,1.535,0,0,0,2.116.48l.466-.285A1.536,1.536,0,0,0,174.861,323.86Zm0,0" transform="translate(-149.172 -289.004)" fill="#efd5bd"/>
      <path id="Trazado_874316" data-name="Trazado 874316" d="M93.4,395.1l-6.524-7.753,2.148-1.808a.161.161,0,0,1,.226.019l6.318,7.508a.16.16,0,0,1-.019.226Zm0,0" transform="translate(-77.907 -345.702)" fill="#cdd6df"/>
      <path id="Trazado_874317" data-name="Trazado 874317" d="M122.148,424.08l-3.361-3.994L116.516,422l3.464,4.117,2.149-1.808A.16.16,0,0,0,122.148,424.08Zm0,0" transform="translate(-104.488 -376.719)" fill="#96a4aa"/>
      <path id="Trazado_874318" data-name="Trazado 874318" d="M22.684,405.4l-7.052-8.272a.17.17,0,0,0-.225-.03L7.9,403.028a1.045,1.045,0,0,0-.4.82v2.412A1.045,1.045,0,0,0,8.545,407.3H20.831a1.046,1.046,0,0,0,.815-.39l1.032-1.284A.17.17,0,0,0,22.684,405.4Zm0,0" transform="translate(-6.726 -356.078)" fill="#3c5666"/>
      <path id="Trazado_874319" data-name="Trazado 874319" d="M82.778,443.7l-3.344-3.922-4.923,5.826h6.413a1.046,1.046,0,0,0,.815-.39l1.032-1.285A.17.17,0,0,0,82.778,443.7Zm0,0" transform="translate(-66.82 -394.38)" fill="#194451"/>
      <path id="Trazado_874320" data-name="Trazado 874320" d="M403.41,90a.774.774,0,0,0,1.065.254l4.2-2.582a.774.774,0,1,0-.812-1.319l-4.2,2.582A.774.774,0,0,0,403.41,90Zm0,0" transform="translate(-361.661 -77.335)"/>
      <path id="Trazado_874321" data-name="Trazado 874321" d="M444.4,167.284l-6.153-.6a.774.774,0,1,0-.15,1.541l6.152.6c.026,0,.051,0,.076,0a.774.774,0,0,0,.074-1.545Zm0,0" transform="translate(-392.244 -149.475)"/>
      <path id="Trazado_874322" data-name="Trazado 874322" d="M369.685,7.257a.772.772,0,0,0,1-.441l2.241-5.761a.774.774,0,0,0-1.443-.561l-2.241,5.761A.774.774,0,0,0,369.685,7.257Zm0,0" transform="translate(-331.078 0)"/>
      <path id="Trazado_874323" data-name="Trazado 874323" d="M33.139,21.557a1.8,1.8,0,0,0-2.471-.585l-.926.571a1.8,1.8,0,0,0-.586,2.471l.533.863L17.513,39.95l-2.571,1.586a.774.774,0,0,0,.813,1.318l2.025-1.249L21.726,48a3.164,3.164,0,0,0-1.655.346l-.027.014c-.069.037-.138.075-.206.117l-2.315,1.436a4.153,4.153,0,0,0-1.367,1.4l-.571.861-.42.632-.011,0-.019-.009c-.033-.014-.065-.031-.1-.048l-.02-.011a1.16,1.16,0,0,1-.1-.067l-.02-.015c-.029-.023-.058-.047-.085-.073l-.01-.009a1.187,1.187,0,0,1-.083-.09l-.017-.021a1.174,1.174,0,0,1-.073-.1l-3.346-5.423a1.125,1.125,0,0,1,.367-1.549l1-.618a.774.774,0,0,0-.813-1.318l-1,.618a2.675,2.675,0,0,0-1.171,3l-.745.46a2.126,2.126,0,0,0-.692,2.923l1.89,3.063a2.11,2.11,0,0,0,1.318.951,2.144,2.144,0,0,0,.494.058,2.108,2.108,0,0,0,1.111-.317l.746-.46a2.673,2.673,0,0,0,.509.365l-2.15,3.238-.507.346a.935.935,0,0,0-1.026.118L9.284,58.932a.942.942,0,0,0-1.038.016l-.044.032L.692,64.909A1.809,1.809,0,0,0,0,66.337v2.412a1.821,1.821,0,0,0,1.819,1.819H14.1a1.81,1.81,0,0,0,1.418-.68l1.019-1.267a.939.939,0,0,0,.227-.719l1.371-1.154a.929.929,0,0,0,.284-.419l3.159.648a.76.76,0,0,0,.142.016L22,67a4.117,4.117,0,0,0,2.275-.548l3.183-1.9c.053,0,.107.005.159.005a2.511,2.511,0,0,0,1.314-.372l2.557-1.563a2.526,2.526,0,0,0-.174-4.41,2.552,2.552,0,0,0-1.64-3.662,2.546,2.546,0,0,0-1.789-3,2.548,2.548,0,0,0-.29-1.975,2.589,2.589,0,0,0-.338-.437L42.6,45.8l.533.863a1.8,1.8,0,0,0,2.471.586l.926-.572a1.8,1.8,0,0,0,.585-2.472ZM12.232,52.885a.576.576,0,0,1-.792-.188l-1.89-3.063a.577.577,0,0,1,.188-.792l.657-.405,2.494,4.042Zm2.083,16.033a.268.268,0,0,1-.211.1H1.819a.271.271,0,0,1-.271-.271V66.337a.269.269,0,0,1,.1-.213L8.7,60.564l6.349,7.448Zm1.574-2.3-5.569-6.533.825-.694,5.527,6.569Zm7.589-1.5a2.822,2.822,0,0,1-1.656.327l-3.967-.813a.772.772,0,0,0-.28-.006L12.707,58.84l.441-.3h0l.022-.017c.017-.012.033-.025.048-.038l.022-.021c.016-.014.03-.029.044-.045L13.3,58.4c.017-.021.034-.042.049-.065l0-.006,0-.005,0-.006,4.095-6.167.025-.041a2.533,2.533,0,0,1,.855-.88l2.315-1.436c.043-.027.086-.05.13-.073l.06-.028.07-.03c.027-.011.054-.021.082-.03l.043-.014c.034-.01.068-.021.1-.029h0a1.644,1.644,0,0,1,.377-.046h.008c.037,0,.074,0,.111,0l.035,0c.033,0,.065.007.1.011l.058.011a1.5,1.5,0,0,1,.146.035l.056.016.073.027.057.023c.024.01.048.021.071.033l.052.027.07.04.046.03c.023.015.046.031.068.048l.04.031c.023.018.046.036.067.056a1.484,1.484,0,0,1,.274.329l.057.093.825,1.347,1.036,1.69.263.43a.678.678,0,0,1,.061.127.723.723,0,0,1,.022.419.8.8,0,0,1-.364.494l-.466.285h0a.816.816,0,0,1-.1.05l-.022.009a.8.8,0,0,1-.1.034l-.013,0a.811.811,0,0,1-.1.017l-.019,0a.893.893,0,0,1-.1,0h-.019a.8.8,0,0,1-.1-.013h0a.758.758,0,0,1-.107-.031l-.009,0a.726.726,0,0,1-.2-.116h0a.748.748,0,0,1-.083-.08l-.007-.008a.677.677,0,0,1-.066-.089l-.772-1.262a2.047,2.047,0,0,0-1.284-.928,2.116,2.116,0,0,0-1.616.265.775.775,0,0,0-.359.553c-.009.066-.02.131-.031.2-.009.047-.019.093-.029.139,0,.015-.007.031-.01.046-.014.058-.029.115-.045.172l0,.007a3.28,3.28,0,0,1-.365.823h0a3.636,3.636,0,0,1-1.23,1.177.774.774,0,1,0,.8,1.323,5.665,5.665,0,0,0,1-.77l3.233,5.1a3.209,3.209,0,0,0,2.69,1.46c.056,0,.113,0,.169-.006.022.04.045.08.069.12a2.553,2.553,0,0,0,.312.411Zm.657-5.692h0c.013.036.027.072.042.108l.005.013c.013.032.028.064.043.1l.01.022c.014.03.03.059.045.089l.014.026c.021.038.042.075.065.113.039.064.081.125.125.184l.048.062c.029.036.058.071.088.106s.042.049.065.073.035.034.052.051a2.549,2.549,0,0,0,.2.177l.021.017a2.514,2.514,0,0,0,.428.274,2.549,2.549,0,0,0-.273.843,1.644,1.644,0,0,1-1.278-.743l-3.56-5.614a4.983,4.983,0,0,0,.378-1.092.577.577,0,0,1,.166.014.512.512,0,0,1,.321.23l.772,1.262,0,.005a2.151,2.151,0,0,0,.123.179c.032.042.067.082.1.121.012.014.023.029.035.042l.005.021q.018.08.041.16l.014.046c.019.06.039.119.063.177,0,.006,0,.012.007.017.021.053.045.105.071.157.007.015.014.03.022.044.029.056.059.112.092.167a2.537,2.537,0,0,0,1.556,1.144A2.545,2.545,0,0,0,24.136,59.427Zm.494-9.215.26-.159a1.006,1.006,0,1,1,1.05,1.717l-.258.158-.765-1.249Zm5.77,9.3a.98.98,0,0,1,.281,1.788l-2.557,1.563a.972.972,0,0,1-.679.128l-.041-.008-.021,0a.974.974,0,0,1-.729-.758.06.06,0,0,0,0-.009.986.986,0,0,1,.26-.869l.018-.018.035-.032c.012-.011.024-.021.037-.031l.028-.022c.023-.017.046-.033.071-.048h0l.508-.311a2.639,2.639,0,0,0,.263-.139l1.956-1.2A.975.975,0,0,1,30.4,59.512Zm-1.781-3.394a1.006,1.006,0,0,1,.958,1.767l-.461.282a2.587,2.587,0,0,0-.265.141L26.906,59.5a1.009,1.009,0,0,1-1.05-.2h0c-.022-.02-.042-.041-.062-.063l-.015-.019c-.014-.017-.029-.034-.043-.052s-.037-.052-.054-.079-.032-.056-.046-.085l-.012-.028c-.009-.02-.018-.04-.025-.06s-.007-.021-.011-.032-.012-.039-.018-.059-.006-.022-.008-.033-.008-.04-.012-.06l0-.031c0-.021,0-.042-.006-.063s0-.02,0-.03,0-.044,0-.065,0-.019,0-.028,0-.044.006-.066,0-.019,0-.028.007-.039.011-.058a1,1,0,0,1,.323-.55l.02-.019.029-.025c.024-.014.049-.026.073-.041l2.512-1.536Q28.567,56.154,28.619,56.118Zm-1.2-3.089A1.006,1.006,0,0,1,27.8,54.8l-.077.044-1.94,1.186.019-.016c.037-.029.074-.059.109-.091s.042-.04.063-.06.063-.062.093-.094.04-.045.059-.067.055-.066.081-.1.036-.048.054-.073.048-.071.071-.108.031-.05.046-.076.042-.079.062-.119.026-.05.037-.076c.02-.045.038-.091.056-.137.008-.022.018-.044.025-.067.024-.07.045-.14.063-.213s.029-.138.04-.208c0-.022,0-.044.008-.067.006-.048.01-.095.013-.142,0-.026,0-.052,0-.077,0-.044,0-.088,0-.132,0-.026,0-.052,0-.079,0-.044-.008-.089-.014-.133,0-.025-.006-.049-.01-.073-.008-.05-.019-.1-.031-.148,0-.018-.007-.036-.012-.054-.018-.066-.038-.132-.062-.2,0-.012-.01-.025-.016-.038-.017-.044-.033-.088-.053-.13l.178-.109A1,1,0,0,1,27.416,53.029Zm18.411-7.82a.247.247,0,0,1-.111.153l-.926.572a.248.248,0,0,1-.34-.081L34.7,30.048a.774.774,0,1,0-1.317.813l8.358,13.545L23.745,48.323,18.98,40.6,30.551,26.275l.935,1.515a.774.774,0,1,0,1.318-.813L30.474,23.2a.247.247,0,0,1,.081-.34l.926-.571a.247.247,0,0,1,.34.081L45.8,45.022A.246.246,0,0,1,45.827,45.209Zm0,0" transform="translate(0 -18.568)"/>
    </g>
  </g>
</svg>
