<svg id="Grupo_1106835" data-name="Grupo 1106835" xmlns="http://www.w3.org/2000/svg" xmlns:xlink="http://www.w3.org/1999/xlink" width="343.172" height="239.014" viewBox="0 0 343.172 239.014">
  <defs>
    <clipPath id="clip-path">
      <rect id="Rectángulo_403559" data-name="Rectángulo 403559" width="343.172" height="239.014" fill="none"/>
    </clipPath>
  </defs>
  <g id="Grupo_1106834" data-name="Grupo 1106834" clip-path="url(#clip-path)">
    <path id="Trazado_877995" data-name="Trazado 877995" d="M340.307,1024.347c-6.606-8.318-20.746-10.5-32.163-11.832-50.308-5.861-102-3.169-152.593-3.3-25.5-.064-51.137-.673-76.568.678-22.425,1.192-47.772,3.325-67.063,12.84-3.716,1.833-7.259,4.022-9.587,6.932-5.131,6.413-1.339,13.523,6.85,17.031,8.05,3.449,19.034,4.241,27.988,5.143q29.651,2.989,59.437,4.925c22.235,1.483,44.846,1.2,67.054.195,14.588-.66,28.808-2.817,43.218-3.866,24.99-1.818,50.19.626,75.257-.161a303.377,303.377,0,0,0,31.947-2.334c6.531-.9,14.813-1.943,19.854-5.6,3.561-2.583,7.166-5.459,8.549-9.163a11.689,11.689,0,0,0-2.181-11.491" transform="translate(0 -818.786)" fill="#e6fbf8"/>
    <path id="Trazado_877996" data-name="Trazado 877996" d="M665.479,134.547c.189-5.36.224-10.73.054-16.092-.147-4.635-.589-9.441-2.829-13.593a10.519,10.519,0,0,0-5.255-5.139,7.793,7.793,0,0,0-6.83,1.009c-3.41,2.29-4.924,6.4-5.985,10.328-.217-1.2-.432-2.4-.652-3.6a110.653,110.653,0,0,0-2.8-12.24c-1.116-3.678-2.467-7.515-4.769-10.636a14.148,14.148,0,0,0-9.453-6.034c-4.1-.539-7.608,1.362-10.053,4.569-4.668,6.124-4.891,14.428-4.045,21.76a104.452,104.452,0,0,0,3.04,15.7,8.9,8.9,0,0,0-4.116-1.1c-3.693-.026-6.558,2.779-7.732,6.09-1.332,3.755.013,7.865,1.709,11.259,3.345,6.692,8.48,12.343,13.648,17.671a22.728,22.728,0,0,0,4.114,3.879c1.915,1.157,4.026.738,6.006.017a60.829,60.829,0,0,0,10.273-5.4,74.491,74.491,0,0,1,23.664-9.186,2.354,2.354,0,0,0,1.728-2.269q-.281-2.6-.562-5.2a2.486,2.486,0,0,0,.847-1.79" transform="translate(-489.879 -63.685)" fill="#e6fbf8"/>
    <path id="Trazado_877997" data-name="Trazado 877997" d="M582.219,669.37A72.484,72.484,0,0,0,575.8,645.5c-1.482-3.261-3.139-6.664-5.765-9.175-2.82-2.7-6.692-3.944-10.4-2.351-8.041,3.452-7.487,14.09-6.383,21.262a47.621,47.621,0,0,0,8.856,20.98,2.6,2.6,0,0,0-1.577,2.377,2.661,2.661,0,0,0,2.636,2.636,39.643,39.643,0,0,0,12.291-2.563c1.906-.742,3.9-1.519,5.221-3.155a8.414,8.414,0,0,0,1.548-6.142" transform="translate(-448.567 -514.035)" fill="#e6fbf8"/>
    <path id="Trazado_877998" data-name="Trazado 877998" d="M293.826,645.735a67.181,67.181,0,0,0-5.024-14.208,63.721,63.721,0,0,0-3.5-6.3,27.9,27.9,0,0,0-4.346-5.777c-1.894-1.737-4.457-2.923-7.038-2.042a7.064,7.064,0,0,0-4.479,6.23,18.208,18.208,0,0,0,1.351,7.461,39.827,39.827,0,0,0,2.8,6.338,38.031,38.031,0,0,0,9.835,11.549,3.143,3.143,0,0,0,2.336.714,2.79,2.79,0,0,0,2.021.28l4.2-1a2.683,2.683,0,0,0,1.841-3.243" transform="translate(-218.672 -500.919)" fill="#e6fbf8"/>
    <path id="Trazado_877999" data-name="Trazado 877999" d="M153.357,718.26l-6.694-15.426a1.848,1.848,0,0,0-.306-.479,73.148,73.148,0,0,0-15.614-28.78c-3-3.413-6.485-6.709-10.941-8.046-4.289-1.286-9.4-.486-12.433,3.027-2.7,3.136-3.509,7.365-3.33,11.409a46.518,46.518,0,0,0,2.711,12.819,77.426,77.426,0,0,0,5.564,12.383c1.618,2.922,3.39,5.748,5.262,8.51q-.393-.078-.788-.143c-4.407-.712-9.726.334-11.9,4.732-2.035,4.114-.331,9.067,1.982,12.71,4.167,6.559,11.256,10.6,17.986,14.07,2.45,1.265,4.871,1.911,7.465.605a15.035,15.035,0,0,0,2.355-1.62q1.693-1.305,3.371-2.631,5.646-4.474,11.053-9.238,1.486-1.309,2.954-2.64a13.415,13.415,0,0,0,2.589-2.718c1.766-2.871-.114-5.846-1.286-8.546" transform="translate(-84.402 -539.751)" fill="#e6fbf8"/>
    <path id="Trazado_878000" data-name="Trazado 878000" d="M258.3,882.43a27.7,27.7,0,0,1-2.525-8.148,22.715,22.715,0,0,1,.311-8.429,13.315,13.315,0,0,1,3.565-6.916,5.169,5.169,0,0,1,3.313-1.41,6.673,6.673,0,0,1,3.791,1.284,16.559,16.559,0,0,1,3.161,2.889,23.177,23.177,0,0,1,2.55,3.517q.281.476.54.965c.171.321.658.036.488-.285A24.128,24.128,0,0,0,271,862.116a19.9,19.9,0,0,0-3.136-3.19,8.647,8.647,0,0,0-3.849-1.884,5.439,5.439,0,0,0-3.786.752c-2.286,1.424-3.554,4.086-4.324,6.57a22.468,22.468,0,0,0-.834,8.759,27.855,27.855,0,0,0,2.268,8.575q.226.513.472,1.017c.159.327.646.041.488-.285" transform="translate(-206.959 -695.614)" fill="#1f262e"/>
    <path id="Trazado_878001" data-name="Trazado 878001" d="M1320.979,567.5c-2.517-3.935-6.959-5.7-11.467-6.032-4.885-.357-9.649.976-14.091,2.9q-1.375.6-2.708,1.285a.977.977,0,0,1-1.272-1.4,179.855,179.855,0,0,0,12.154-21.431c1.483-3.167,2.842-6.4,4.036-9.684a55.523,55.523,0,0,0,2.941-10.456c.97-6.353-.33-13.633-6.1-17.377-5.631-3.653-12.9-1.633-18.392,1.218a68.162,68.162,0,0,0-15.745,11.7,137.274,137.274,0,0,0-13.043,14.951c-4.191,5.431-8.2,11.008-11.951,16.751a181.693,181.693,0,0,0-18.719,36.578q-.888,2.419-1.691,4.869c-.417,1.271-6.652,14.067-3.945,14.877,1.416.424,63.8-.111,76.985.137,1.624.031,3.248.065,4.872.092a10.6,10.6,0,0,0,4.134-.526c2.721-1.085,4.212-4.109,5.677-6.464a98.9,98.9,0,0,0,8.318-16.073c1.954-5,3.087-11.1.008-15.915" transform="translate(-990.542 -408.566)" fill="#e6fbf8"/>
    <path id="Trazado_878002" data-name="Trazado 878002" d="M1682.123,1043.748a12.024,12.024,0,0,1-1.991,3.1c-.241.271.158.672.4.4a12.489,12.489,0,0,0,2.079-3.218.291.291,0,0,0-.1-.386.285.285,0,0,0-.386.1" transform="translate(-1363.729 -847.115)" fill="#1f262e"/>
    <path id="Trazado_878003" data-name="Trazado 878003" d="M1574.369,847.558l-2.871,3.185c-.243.269.155.67.4.4l2.871-3.185c.243-.269-.155-.67-.4-.4" transform="translate(-1275.548 -687.903)" fill="#1f262e"/>
    <path id="Trazado_878004" data-name="Trazado 878004" d="M1529.115,966.636a48.305,48.305,0,0,1,5.475-6.836c1-1.035,2.034-2.034,3.126-2.966a15.7,15.7,0,0,1,3.472-2.34c2.154-1.012,4.9-1.206,6.9.284,2.13,1.59,2.144,4.521,1.82,6.907a47.942,47.942,0,0,1-2.162,8.95q-.187.55-.387,1.1c-.125.342.421.489.545.15a50.96,50.96,0,0,0,2.447-9.368c.408-2.531.62-5.546-1.255-7.581-1.706-1.852-4.566-2.161-6.87-1.444-2.8.871-5.072,2.973-7.118,4.988a48.922,48.922,0,0,0-5.842,6.938q-.323.465-.635.937c-.2.3.288.587.488.285" transform="translate(-1240.772 -773.672)" fill="#1f262e"/>
    <path id="Trazado_878005" data-name="Trazado 878005" d="M178.763,924.71a53.032,53.032,0,0,1,4.248,4.211c.244.271.642-.13.4-.4a53.056,53.056,0,0,0-4.248-4.211c-.271-.24-.672.158-.4.4" transform="translate(-145.03 -750.217)" fill="#1f262e"/>
    <path id="Trazado_878006" data-name="Trazado 878006" d="M154.475,1054.21l2.306,2.886a.284.284,0,0,0,.4,0,.289.289,0,0,0,0-.4l-2.306-2.885a.284.284,0,0,0-.4,0,.289.289,0,0,0,0,.4" transform="translate(-125.325 -855.328)" fill="#1f262e"/>
    <path id="Trazado_878007" data-name="Trazado 878007" d="M493.669,100.017c-1.315-1.635-7.817-4.321-9.225-4.81a1.531,1.531,0,0,0-2.181,1.265,2.863,2.863,0,0,0,1.191,2.613.624.624,0,0,0,.052.267c.674,1.571,2.822,1.989,4.334,2.153,1.443.157,3.622.491,4.778-.609a.581.581,0,0,0,.147-.219c.442-.128,1.27-.206.9-.661" transform="translate(-391.441 -77.182)" fill="#b35c44"/>
    <path id="Trazado_878008" data-name="Trazado 878008" d="M571.785,185.758a27.435,27.435,0,0,0-3.862-6.377q-2.327-3.112-4.761-6.143c-3.25-4.048-6.077-7.9-9.6-11.709-.434-.47-5.031.16-5.655,1.523a14.333,14.333,0,0,0-.786,2.238q-.426,1.581-.791,3.178a91.122,91.122,0,0,0-2,12.945q-.3,3.673-.3,7.361a.361.361,0,0,0,.427.36.329.329,0,0,0,.03.479c3.422,3.09,6.909,6.214,10.968,8.454a23.61,23.61,0,0,0,6.363,2.473c7.867,1.7,12.383-8.568,9.975-14.783" transform="translate(-441.592 -130.99)" fill="#f7c965"/>
    <path id="Trazado_878009" data-name="Trazado 878009" d="M500.657,1021.151q-9.392-5.8-18.963-11.31a1.919,1.919,0,0,0-.236-.113,1.374,1.374,0,0,0-.905-.622,34.451,34.451,0,0,0-6.187-.523,19.166,19.166,0,0,0-5.929.671c-1.91.682-2.369,2.429-2.466,4.266-.114,2.155-.216,4.312-.325,6.468-.09,1.8-.687,4.316,1.02,5.545,1.479,1.064,3.833.727,5.553.774q6.446.174,12.9.195c4.82.016,11.119-.069,15.938-.18,1.478-.034.659-4.518-.4-5.17" transform="translate(-377.831 -818.68)" fill="#1f262e"/>
    <path id="Trazado_878010" data-name="Trazado 878010" d="M352.2,1014.721q-10.123-6.255-20.439-12.19a2.028,2.028,0,0,0-.254-.122,1.483,1.483,0,0,0-.975-.671,37.157,37.157,0,0,0-6.668-.564,20.661,20.661,0,0,0-6.391.723c-2.058.735-2.553,2.618-2.658,4.6-.123,2.323-.233,4.648-.35,6.971-.1,1.935-.741,4.652,1.1,5.976,1.594,1.147,4.131.784,5.985.834q6.948.188,13.9.21c5.2.017,11.984-.074,17.178-.194,1.593-.037.71-4.87-.427-5.572" transform="translate(-255.104 -812.667)" fill="#1f262e"/>
    <path id="Trazado_878011" data-name="Trazado 878011" d="M451.367,382.72c-.669-8.143-1.452-15.039-5.1-24.588-.07-.182-2.379.923-2.525.844a1.215,1.215,0,0,0-1.677-.727l-17.655,7.925a.88.88,0,0,0-.218,1.536c-.813-.1-1.727.673-1.185,1.5l3.587,5.5q-.374,21.211-1.212,42.412-.871,21.964-2.246,43.909-.774,12.359-1.708,24.709a1.041,1.041,0,0,0,.829.979c9.082,1.588,23.221,1.247,32.25-.574,1.41-.284-2.511-95.819-3.137-103.435" transform="translate(-342.076 -290.684)" fill="#feded7"/>
    <path id="Trazado_878012" data-name="Trazado 878012" d="M337.47,362.65a44.106,44.106,0,0,0-1.38-8.343c-.624-2.412-1.776-4.422-4.312-5.288-2.6-.887-5.763-.476-8.374.159a33.677,33.677,0,0,0-8.1,3.318,56.465,56.465,0,0,0-7.181,4.487c-1.956,1.493-3.321,6.765-3.148,6.987-1.9,20.5-11.406,108.432-11.551,109.574s-.194,3.459-.28,4.638c-.114,1.558,4.5,1.134,6.647,1.252q4.063.223,8.134.245c5.55.029,13.95-.2,19.474-.719.932-.089,4.718-101.523,5.026-103.9a16,16,0,0,1,1.954-6.2,18.854,18.854,0,0,1,1.842-2.338,5.208,5.208,0,0,0,1.25-3.875" transform="translate(-237.947 -282.889)" fill="#feded7"/>
    <path id="Trazado_878013" data-name="Trazado 878013" d="M434.077,6.148a2.321,2.321,0,0,0,.312-1.11,2.87,2.87,0,0,0-.982-2.15,4.309,4.309,0,0,0-4.206-.556A3.324,3.324,0,0,0,425.563.017a5.525,5.525,0,0,0-4.529,3.213,4.733,4.733,0,0,0-5.249,2.241,3.8,3.8,0,0,0-.049,3.436,4.441,4.441,0,0,0,1.857,1.77,2.526,2.526,0,0,0-.453,2.113c.326,1.387,1.561,1.892,2.794,2.285a.364.364,0,0,1,.253.338,19.63,19.63,0,0,0,.291,3.307.906.906,0,0,0,.415,1.3c2.167.892,4.223-.494,5.634-2.056a20.4,20.4,0,0,0,3.239-4.731c2.428.477,5.755.146,6.619-2.541a3.646,3.646,0,0,0-2.309-4.54" transform="translate(-337.145 0)" fill="#1f262e"/>
    <path id="Trazado_878014" data-name="Trazado 878014" d="M432.181,373.927c1.015-.342,2.032-.677,3.039-1.042a48.2,48.2,0,0,0,5.432-2.431c1.662-.848,3.292-1.761,4.868-2.761,1.56-.99,6.286-4.071,7.959-6.482-.338-1-.7-2.021-1.109-3.08-.07-.182-2.379.923-2.525.844a1.215,1.215,0,0,0-1.677-.727l-17.655,7.925a.88.88,0,0,0-.218,1.536c-.813-.1-1.727.673-1.185,1.5l3.071,4.713" transform="translate(-348.183 -290.684)" fill="#1f262e"/>
    <path id="Trazado_878015" data-name="Trazado 878015" d="M340.04,143.033a34.818,34.818,0,0,0-4.1-6,19.79,19.79,0,0,0-5.323-4.746c-2.249-1.221-4.763-1.22-7.254-1.181-2.721.042-25.416-1.847-28.515-1.9-2.795-.045-5.635.1-8.153,1.441-2.3,1.223-7.429,4.931-12.848,12.354-.437.6,2,.931,2.559,1.069a6.371,6.371,0,0,0,1.468,2.145A26.867,26.867,0,0,0,281.2,149.5c.926.776-.953.748.034,1.441.727,10.435,2.107,19.98,3.316,30.37q.626,5.384,1.339,10.756c-.209.527,16.535,3.685,23.036,2.324,1.261-.264,2.525-.508,3.138-1.773a19.077,19.077,0,0,0,1.021-4.505l1.711-8.6q2.494-.946,4.956-1.977,2.106-.887,4.186-1.835c1.853-.847,4.335-1.455,5.08-3.585a34.57,34.57,0,0,0,1.068-6.11q.7-4.593,1.3-9.2.349-2.67.664-5.344a65.662,65.662,0,0,0,8.618-6.834.935.935,0,0,0-.624-1.59" transform="translate(-222.244 -104.877)" fill="#f7b71b"/>
    <path id="Trazado_878016" data-name="Trazado 878016" d="M372.963,434.044a12.5,12.5,0,0,1,.2,2.672,27.908,27.908,0,0,1-.527,4.29c1.792.289,3.8.566,5.825.777a37.441,37.441,0,0,0-2.649-3.957c-.942-1.265-1.925-2.5-2.845-3.782" transform="translate(-302.471 -352.32)" fill="#1f262e"/>
    <path id="Trazado_878017" data-name="Trazado 878017" d="M433.788,84.925q2,.36,4.02.55,1.3.122,2.61.168c0-.014,0-.03,0-.044q.125-1.27.251-2.54.238-2.411.476-4.822a.654.654,0,0,0-.013-.861,10.068,10.068,0,0,0-2.414-2.3,22.271,22.271,0,0,0-3.393-1.508.918.918,0,0,0-.307-.08c-.342-.592-1.378-.689-1.543.149q-1.062,5.391-2.611,10.664,1.45.363,2.921.627" transform="translate(-349.741 -59.274)" fill="#b35c44"/>
    <path id="Trazado_878018" data-name="Trazado 878018" d="M452.966,24.84a11,11,0,0,0-3.975-3.168,1.112,1.112,0,0,0-.458-.128,3.837,3.837,0,0,0-2.693-.083,4.858,4.858,0,0,0-2.954,2.917,14.149,14.149,0,0,0-.782,4.766,24.407,24.407,0,0,0,.312,5.515c.435,2.289,3.416,3.251,5.445,3.64.978.187,2.335.6,3.2.045,1.525-.983,2.859-7.559,2.964-8.551a6.959,6.959,0,0,0-1.059-4.955" transform="translate(-358.837 -17.255)" fill="#b35c44"/>
    <path id="Trazado_878019" data-name="Trazado 878019" d="M444.853,16.279a.879.879,0,0,0-.576.058.126.126,0,0,1-.154-.05,3.941,3.941,0,0,0-2.226-1.449c-2.74-.721-10.041,1.644-10.561,6.726a.7.7,0,0,0,.692.805.122.122,0,0,1,.073.03.974.974,0,0,0,.128.093c.168.1.337.2.509.3a.128.128,0,0,1,.063.088,2.879,2.879,0,0,0,.8,1.657,1.085,1.085,0,0,0,1.642-.033,2.478,2.478,0,0,0,.4-.858.128.128,0,0,1,.107-.092,7.049,7.049,0,0,0,2.327-.811,5.648,5.648,0,0,0,2.5-2.491.128.128,0,0,1,.123-.073,4.419,4.419,0,0,0,2.488-.485.131.131,0,0,1,.2.08,2.917,2.917,0,0,0,.8,1.409,1.97,1.97,0,0,0,2.745.058c1.464-1.531-.384-4.5-2.083-4.964" transform="translate(-350.117 -11.941)" fill="#1f262e"/>
    <path id="Trazado_878020" data-name="Trazado 878020" d="M437.725,59.169c-.24-.669-.636-1.242-1.306-1.069-1.033.268-.807,1.623-.517,2.445.269.76.911,2.078,1.794,1.362a1.57,1.57,0,0,0,.328-1.511,7.322,7.322,0,0,0-.3-1.228" transform="translate(-353.631 -47.135)" fill="#b35c44"/>
    <path id="Trazado_878021" data-name="Trazado 878021" d="M444.433,84.912a5.528,5.528,0,0,0,2.263,3.714,10.839,10.839,0,0,0,4.668,1.794c.355.065.508-.479.15-.545a10.769,10.769,0,0,1-4.36-1.609A4.976,4.976,0,0,1,445,84.912c-.041-.357-.607-.361-.565,0" transform="translate(-360.752 -68.706)" fill="#75311e"/>
    <path id="Trazado_878022" data-name="Trazado 878022" d="M470.825,65.709a.473.473,0,0,0-.324-.357.7.7,0,0,0-.66.162,1.176,1.176,0,0,0-.308.5,1.062,1.062,0,0,0,.085,1.06c.311.333.837.088,1.035-.261a1.754,1.754,0,0,0,.171-1.109" transform="translate(-381.048 -53.024)" fill="#140b0d"/>
    <path id="Trazado_878023" data-name="Trazado 878023" d="M485.025,158.308a135.69,135.69,0,0,1,.635,17.654c-.142,5.876-.572,11.74-1.105,17.592-.3,3.315-.638,6.626-.974,9.937-.037.361.529.359.565,0,.6-5.88,1.192-11.763,1.6-17.66.406-5.853.629-11.723.481-17.59-.083-3.318-.287-6.632-.639-9.932-.038-.358-.6-.362-.565,0" transform="translate(-392.529 -128.282)" fill="#1f262e"/>
    <path id="Trazado_878024" data-name="Trazado 878024" d="M493.964,71.957a.444.444,0,0,0-.294-.34.612.612,0,0,0-.6.155,1.136,1.136,0,0,0-.28.482,1.054,1.054,0,0,0,.077,1.01c.282.317.76.083.94-.25a1.745,1.745,0,0,0,.156-1.057" transform="translate(-399.933 -58.111)" fill="#140b0d"/>
    <path id="Trazado_878025" data-name="Trazado 878025" d="M439.474,61.509a10.571,10.571,0,0,1,.52,1.881.285.285,0,0,0,.347.2.289.289,0,0,0,.2-.347,10.582,10.582,0,0,0-.52-1.881.29.29,0,0,0-.347-.2.285.285,0,0,0-.2.347" transform="translate(-356.717 -49.638)" fill="#75311e"/>
    <path id="Trazado_878026" data-name="Trazado 878026" d="M488.134,65.169a8.461,8.461,0,0,0-1.117.633,1.484,1.484,0,0,0-.438.98c-.157.789-.292,1.582-.454,2.369-.073.355.472.506.545.15.148-.724.275-1.451.416-2.177.032-.166.064-.333.1-.5a.643.643,0,0,1,.167-.376,3.174,3.174,0,0,1,.519-.293l.548-.3c.319-.175.034-.663-.285-.488" transform="translate(-394.59 -52.868)" fill="#75311e"/>
    <path id="Trazado_878027" data-name="Trazado 878027" d="M439.316,120.731c-.066-.778-.15-1.555-.226-2.332a.323.323,0,0,0,0-.164c-.016-.055-7.391-1.039-10.62-1.908-.241-.065-.9,1.482-1.124,2.072a2.628,2.628,0,0,0-.312,1.671c.765,2.44,5.169,4.792,5.427,4.379.328-.526.925-1.792,1.226-2.334q.666-1.2,1.236-2.451a.14.14,0,0,1,.267.044q.246,2.38.728,4.73a.277.277,0,0,0,.165.416c.663.187,1.2-.363,1.631-.761a6.106,6.106,0,0,0,1.233-1.437,3.209,3.209,0,0,0,.37-1.925" transform="translate(-346.586 -94.423)" fill="#febdaf"/>
    <path id="Trazado_878028" data-name="Trazado 878028" d="M477.639,82.807l.069.007-.075-.01a1.035,1.035,0,0,1,.256.069l-.067-.028a1.048,1.048,0,0,1,.166.089.283.283,0,0,0,.415-.319.31.31,0,0,0-.13-.169,1.3,1.3,0,0,0-.634-.2.283.283,0,0,0-.2.482l.057.044a.281.281,0,0,0,.143.039" transform="translate(-387.477 -66.757)" fill="#75311e"/>
    <path id="Trazado_878029" data-name="Trazado 878029" d="M211.871,161.048c-5.143,4.245-18.153,22.241-23.109,30.511q.055.543.126,1.082a50.9,50.9,0,0,0,1.59,7.361c.539,1.883,1.16,3.743,1.846,5.577a78.1,78.1,0,0,0,8.261,6.692c.754.542-.2,4.952.721,4.6a4.879,4.879,0,0,0,1.961-1.966c1.321-1.888,19.979-37.528,20.051-40.056.07-2.432-10.933-14.224-11.448-13.8" transform="translate(-153.221 -130.716)" fill="#f7b71b"/>
    <path id="Trazado_878030" data-name="Trazado 878030" d="M435.368,137.994a1.267,1.267,0,0,1-.346-.049.549.549,0,0,1-.369-.319.58.58,0,0,1-.013-.4c-.28-1.374-.5-2.773-.66-4.166-.328.69-.673,1.364-1.03,2.008-.116.21-.282.538-.457.885-.281.557-.571,1.133-.776,1.462a.446.446,0,0,1-.481.173c-.978-.125-4.72-2.273-5.455-4.617a.282.282,0,0,1,.539-.169c.659,2.1,4.264,4.142,4.97,4.227.191-.323.459-.855.7-1.329.178-.352.345-.685.467-.9.429-.775.842-1.593,1.227-2.432a.422.422,0,0,1,.8.133c.162,1.57.406,3.152.724,4.7a.281.281,0,0,1-.03.195c.434.123.8-.175,1.267-.607l.092-.084a5.893,5.893,0,0,0,1.178-1.368,2.913,2.913,0,0,0,.334-1.761.282.282,0,1,1,.563-.048,3.452,3.452,0,0,1-.406,2.088,6.4,6.4,0,0,1-1.288,1.506l-.089.082a2.309,2.309,0,0,1-1.463.791" transform="translate(-345.602 -107.242)" fill="#1f262e"/>
    <path id="Trazado_878031" data-name="Trazado 878031" d="M460.869,103.614a4.678,4.678,0,0,0-2.544-1.537c-4.227-.947-15.8-3.517-16.325-3.37a1.478,1.478,0,0,0-.684,2.372,2.845,2.845,0,0,0,1.737.937c.828.192,6.087,1.253,6.106,1.257a29.574,29.574,0,0,0-4.579,1.3,3.591,3.591,0,0,0-1.014,2.713,3.341,3.341,0,0,0,.431,1.733c.155.26.442.444.588.689.164.275-.761,1.623,1.36,3.566-.289,1.169.2,2.784,1.542,2.86a22.18,22.18,0,0,0,6.5-.582.458.458,0,0,1,.525.25,6.343,6.343,0,0,0,2.186,2.531,8.794,8.794,0,0,0,3.112.908c-.058-.079,1.895,1.649,2.39,2.1a96.625,96.625,0,0,0,6.768-7.86c.139-.148-5.69-7.039-8.095-9.868" transform="translate(-357.949 -80.117)" fill="#b35c44"/>
    <path id="Trazado_878032" data-name="Trazado 878032" d="M467.7,55.57a2.3,2.3,0,0,0-1.759-.607c-.464.023-1.381.183-1.577.709a.664.664,0,0,0,.448.819,2.465,2.465,0,0,0,.87-.058,3.971,3.971,0,0,1,1.613.443.569.569,0,0,0,.743-.549,1.046,1.046,0,0,0-.338-.757" transform="translate(-376.908 -44.612)" fill="#1f262e"/>
    <path id="Trazado_878033" data-name="Trazado 878033" d="M500.385,70.41c-.021-.008-.037-.006.019.008l-.009,0-.009,0" transform="translate(-406.155 -57.149)" fill="#1f262e"/>
    <path id="Trazado_878034" data-name="Trazado 878034" d="M496.112,64.112a.962.962,0,0,0-.22-.587,1.053,1.053,0,0,0-1.2-.2c-.29.114-.964.511-.7.98.134.24.321.191.551.193a1.384,1.384,0,0,1,.657.183c.165.089.335.232.534.207.325-.04.406-.461.386-.774" transform="translate(-400.927 -51.319)" fill="#1f262e"/>
    <path id="Trazado_878035" data-name="Trazado 878035" d="M476.132,90.9a.567.567,0,0,0-.288-.339c-.317-.167-2.126-.207-2.126.144a.292.292,0,0,0,.074.186c.328.385,2.539.827,2.34.009" transform="translate(-384.524 -73.406)" fill="#fff"/>
    <path id="Trazado_878036" data-name="Trazado 878036" d="M492.91,97.851c-.031.128-.068.255-.111.38q-.028.082-.06.162c-.012.031-.024.061-.037.092.025-.059-.016.036-.021.046a4.343,4.343,0,0,1-.376.667.284.284,0,0,0,.1.386.289.289,0,0,0,.386-.1A4.554,4.554,0,0,0,493.455,98a.283.283,0,1,0-.545-.15" transform="translate(-399.58 -79.26)" fill="#75311e"/>
    <path id="Trazado_878037" data-name="Trazado 878037" d="M451.933,99.263c-2.776-.638-5.575-1.167-8.377-1.678q-1.059-.193-2.119-.384c-.666-.12-1.324-.312-1.993-.4a2.1,2.1,0,0,0-1.592.306,1.709,1.709,0,0,0-.647,1.066,2.05,2.05,0,0,0,.245,1.39,2.246,2.246,0,0,0,1.319.92c.343.122.491-.424.15-.545a1.63,1.63,0,0,1-1.008-.706,1.455,1.455,0,0,1-.152-.96,1.128,1.128,0,0,1,.669-.85,2.835,2.835,0,0,1,1.672.089c1.224.3,2.481.473,3.719.7s2.5.463,3.743.708c1.411.278,2.818.572,4.219.894.354.081.5-.463.15-.545" transform="translate(-354.862 -78.544)" fill="#75311e"/>
    <path id="Trazado_878038" data-name="Trazado 878038" d="M462.583,119.806a38.671,38.671,0,0,0-5.453,1.5,6.763,6.763,0,0,0-2.187,1.148,1.068,1.068,0,0,0-.342.5.283.283,0,0,0,.545.15c.014-.056.032-.063,0-.007.015-.025.03-.052.044-.078.046-.085-.034.025.029-.038.031-.032.06-.065.092-.1s.079-.07.119-.1c.056-.047-.031.022.021-.017l.087-.063a4.579,4.579,0,0,1,.4-.249,15.809,15.809,0,0,1,3.327-1.249c1.144-.328,2.3-.6,3.465-.856.355-.077.2-.622-.15-.545" transform="translate(-368.999 -97.242)" fill="#75311e"/>
    <path id="Trazado_878039" data-name="Trazado 878039" d="M452.361,115.2c-.333-.043-.827-.128-1.218-.2q-.866-.154-1.728-.327c-1.155-.23-2.311-.47-3.451-.768-.217-.057-.434-.116-.649-.184-.077-.024-.153-.051-.228-.078l-.042-.016c-.068-.027.054.024-.006,0-.025-.011-.049-.023-.072-.036-.32-.173-.6.314-.285.488a4.31,4.31,0,0,0,.917.315c.517.142,1.04.264,1.563.382q1.823.411,3.663.741c.51.092,1.021.18,1.535.248.153.02.281-.144.282-.282a.289.289,0,0,0-.282-.282" transform="translate(-360.842 -92.177)" fill="#75311e"/>
    <path id="Trazado_878040" data-name="Trazado 878040" d="M461.321,145.5c1.868-.54,3.711-1.159,5.572-1.72q1.13-.341,2.266-.664a.283.283,0,0,0-.15-.545c-2.081.593-4.139,1.256-6.207,1.9q-.814.252-1.632.488a.283.283,0,0,0,.15.545" transform="translate(-374.178 -115.714)" fill="#75311e"/>
    <path id="Trazado_878041" data-name="Trazado 878041" d="M481.361,445.771a23.444,23.444,0,0,0-1.974,3.328,11.435,11.435,0,0,0-.647,4.077q-.16,5.315-.342,10.63-.393,11.323-.887,22.642-.509,11.753-1.106,23.5-.593,11.682-1.274,23.36-.641,10.964-1.377,21.923-.087,1.284-.175,2.569c-.025.363.54.361.565,0q.743-10.78,1.379-21.566.686-11.521,1.28-23.046.607-11.718,1.127-23.442.5-11.331.916-22.667.193-5.36.361-10.721c.053-1.682.017-3.394.214-5.067a7.944,7.944,0,0,1,1.227-3.36c.393-.63.805-1.247,1.2-1.876.194-.309-.295-.593-.488-.285" transform="translate(-384.411 -361.731)" fill="#1f262e"/>
    <path id="Trazado_878042" data-name="Trazado 878042" d="M319.891,413.93a47.543,47.543,0,0,0-4.97-3.312,1.344,1.344,0,0,0-1.414-.1c-.413-.062-5.507,9.843-5.507,9.843a12.481,12.481,0,0,0,2.33,1.8l-.421,1.632c-2.378,8.987-4.6,12.428-.8,15.949,1.032.956,2.089,1.885,3.133,2.828.777.7,1.652,1.533,2.756.913a10.968,10.968,0,0,1,1.334-1.5c1.144-1.629-.223-4.045-1.1-5.293a3.078,3.078,0,0,1-.549-1.968c.095-1.465.268-4.039.439-6.044a.893.893,0,0,0,.15-.172,5.288,5.288,0,0,0,.638,2.8,1.69,1.69,0,0,0,2.64.2c1.023-.853,1.195-2.2,1.5-3.418a55.325,55.325,0,0,0,1.476-9.461,5.23,5.23,0,0,0-1.633-4.7" transform="translate(-249.248 -333.099)" fill="#b35c44"/>
    <path id="Trazado_878043" data-name="Trazado 878043" d="M468.991,165.393c2.207-.764,4.526-1.139,6.743-1.869.344-.113.2-.659-.15-.545-2.217.73-4.537,1.105-6.743,1.869-.342.118-.195.664.15.545" transform="translate(-380.408 -132.28)" fill="#75311e"/>
    <path id="Trazado_878044" data-name="Trazado 878044" d="M548.1,183.469c-1.382-2.268-17.741-20.416-17.925-20.339a.548.548,0,0,0-.592.1,133.641,133.641,0,0,0-12.345,13.992s6.739,9.486,10.23,13.523a68.98,68.98,0,0,0,5.392,5.792A11.6,11.6,0,0,0,539,199.754c2.295.332,5.194.388,7.16-1.038,1.668-1.21,4.215-5.492,4.182-7.506a16.92,16.92,0,0,0-2.243-7.74" transform="translate(-419.847 -132.379)" fill="#f7b71b"/>
    <path id="Trazado_878045" data-name="Trazado 878045" d="M471.373,1053.56l6.361,3.059a22.271,22.271,0,0,1,2.834,1.49,3.831,3.831,0,0,1,.963.832,4.462,4.462,0,0,1,.526.971,6.417,6.417,0,0,1,.544,2.5.283.283,0,0,0,.565,0,6.676,6.676,0,0,0-.435-2.316,4.42,4.42,0,0,0-1.268-2.026,13.071,13.071,0,0,0-2.722-1.6l-3.35-1.611-3.732-1.795c-.326-.157-.613.33-.285.488" transform="translate(-382.503 -854.77)" fill="#455363"/>
    <path id="Trazado_878046" data-name="Trazado 878046" d="M190.07,284.389c-2.45.7-7.681,3.873-9.12,6.419-4.087,7.234-2.256,11.322-.538,13.677,1.8,2.463,18.918,20.206,22.14,22.23a1.425,1.425,0,0,0,1.966-.34,2.113,2.113,0,0,0,.768-.641,41.69,41.69,0,0,0,7.81-17.909,1.11,1.11,0,0,0-.519-1.149c-4.08-2.441-22.083-22.406-22.507-22.286" transform="translate(-144.874 -230.842)" fill="#f7b71b"/>
    <path id="Trazado_878047" data-name="Trazado 878047" d="M350.669,471.38l-.845,5.772c-.052.355.492.509.545.15l.845-5.772c.052-.355-.492-.509-.545-.15" transform="translate(-283.955 -382.46)" fill="#75311e"/>
    <path id="Trazado_878048" data-name="Trazado 878048" d="M324.833,511.5c-.169,1.81-.857,3.6-.647,5.435a5.737,5.737,0,0,0,.912,2.439c.51.805,1.088,1.572,1.668,2.328.662.863,1.345,1.709,2.03,2.554.229.283.626-.119.4-.4-1.175-1.452-2.36-2.9-3.4-4.456a5.753,5.753,0,0,1-1.022-2.338,8.039,8.039,0,0,1,.129-2.583c.175-.992.406-1.975.5-2.98.034-.362-.531-.359-.565,0" transform="translate(-263.115 -414.972)" fill="#75311e"/>
    <path id="Trazado_878049" data-name="Trazado 878049" d="M523.138,208.728a26.411,26.411,0,0,0-3.673,4.695,1.486,1.486,0,0,0-.209,1.327A6.646,6.646,0,0,0,520,216q.82,1.254,1.675,2.484a107.448,107.448,0,0,0,7.394,9.463q2.228,2.544,4.614,4.943a.283.283,0,0,0,.4-.4,107.009,107.009,0,0,1-7.744-8.687q-1.82-2.28-3.511-4.66-.831-1.169-1.631-2.359-.406-.6-.8-1.214c-.132-.2-.264-.4-.393-.607a1.391,1.391,0,0,1-.267-.635,1.311,1.311,0,0,1,.283-.724c.143-.228.29-.453.44-.677q.45-.67.938-1.313a27.435,27.435,0,0,1,2.142-2.486c.253-.261-.146-.661-.4-.4" transform="translate(-421.424 -169.359)" fill="#1f262e"/>
    <path id="Trazado_878050" data-name="Trazado 878050" d="M328.607,201.381a23.739,23.739,0,0,1,.065,9.88,34.757,34.757,0,0,1-1.72,4.723l-2,4.868-2.254,5.477c-.138.336.408.482.545.15l4.061-9.867a43.839,43.839,0,0,0,1.8-4.771,18.111,18.111,0,0,0,.628-4.97,33.172,33.172,0,0,0-.579-5.641c-.063-.357-.608-.206-.545.15" transform="translate(-261.919 -163.177)" fill="#1f262e"/>
    <path id="Trazado_878051" data-name="Trazado 878051" d="M255.568,314.146q4.12,2.918,8.024,6.124,1.113.914,2.206,1.851c.275.235.676-.163.4-.4q-3.872-3.316-7.974-6.35-1.176-.869-2.37-1.714c-.3-.211-.58.279-.285.488" transform="translate(-207.348 -254.559)" fill="#1f262e"/>
    <path id="Trazado_878052" data-name="Trazado 878052" d="M328.213,375.192l3.71,3.521c1.01.959,2.551,2.213,2.069,3.8-.106.349.439.5.545.15.512-1.684-.836-3.042-1.944-4.094l-3.979-3.778c-.264-.25-.664.149-.4.4" transform="translate(-266.345 -304.16)" fill="#1f262e"/>
    <path id="Trazado_878053" data-name="Trazado 878053" d="M585.209,164.27l7.737,8.34,2.2,2.371c.248.267.647-.133.4-.4l-7.747-8.351-2.19-2.361c-.248-.267-.646.133-.4.4" transform="translate(-474.96 -132.945)" fill="#1f262e"/>
    <path id="Trazado_878054" data-name="Trazado 878054" d="M495.069,19.365a1.739,1.739,0,0,1,.76,1.73,1.572,1.572,0,0,1-1.287,1.236.291.291,0,0,0-.282.282.284.284,0,0,0,.282.282,2.138,2.138,0,0,0,1.832-1.651,2.324,2.324,0,0,0-1.02-2.367c-.3-.2-.587.287-.285.488" transform="translate(-401.198 -15.284)" fill="#455363"/>
    <path id="Trazado_878055" data-name="Trazado 878055" d="M508.515,37.982a1.94,1.94,0,0,1-.1,1.637,1.216,1.216,0,0,1-.532.449.915.915,0,0,1-.644.042.283.283,0,0,0-.15.545,1.65,1.65,0,0,0,1.774-.693,2.442,2.442,0,0,0,.2-2.13.288.288,0,0,0-.347-.2.285.285,0,0,0-.2.347" transform="translate(-411.452 -30.541)" fill="#455363"/>
    <path id="Trazado_878056" data-name="Trazado 878056" d="M469.331,21.015a2.664,2.664,0,0,1,1.633,1.209,1.913,1.913,0,0,1-.063,2c-.206.3.283.583.488.285a2.479,2.479,0,0,0,.089-2.525,3.217,3.217,0,0,0-2-1.517.283.283,0,0,0-.15.545" transform="translate(-380.801 -16.607)" fill="#455363"/>
    <path id="Trazado_878057" data-name="Trazado 878057" d="M435.9,41.69a1.9,1.9,0,0,0,1.024,2.363,2.069,2.069,0,0,0,1.367.06.844.844,0,0,0,.111-.018q.011-.017-.028-.024c-.013-.018-.014-.017-.006,0-.018.014.024.175.032.207a1.06,1.06,0,0,0,.054.157,1.213,1.213,0,0,0,.473.559c.306.2.59-.291.285-.488a.626.626,0,0,1-.277-.422c-.045-.245-.111-.468-.383-.54a1.438,1.438,0,0,0-.642.079,1.3,1.3,0,0,1-.53-.016,1.333,1.333,0,0,1-.937-1.772.285.285,0,0,0-.2-.348.288.288,0,0,0-.347.2" transform="translate(-353.736 -33.672)" fill="#455363"/>
    <path id="Trazado_878058" data-name="Trazado 878058" d="M468.88,287.63a1.689,1.689,0,0,0-.317-.688l-.249-.244a1.038,1.038,0,0,0-.622-.213h-.114a.772.772,0,0,0-.475.134.933.933,0,0,0-.4.322,1.238,1.238,0,0,0-.255.5,1.438,1.438,0,0,0-.106.6l.044.415a1.686,1.686,0,0,0,.317.688l.249.244a1.039,1.039,0,0,0,.622.213h.114a.772.772,0,0,0,.475-.134.93.93,0,0,0,.4-.323,1.238,1.238,0,0,0,.255-.5,1.436,1.436,0,0,0,.106-.6Z" transform="translate(-378.54 -232.544)" fill="#1f262e"/>
    <path id="Trazado_878059" data-name="Trazado 878059" d="M469.867,205.842a1.689,1.689,0,0,0-.317-.688l-.249-.244a1.038,1.038,0,0,0-.622-.213h-.114a.771.771,0,0,0-.475.134.933.933,0,0,0-.4.322,1.238,1.238,0,0,0-.255.5,1.439,1.439,0,0,0-.106.6l.044.415a1.686,1.686,0,0,0,.317.688l.249.244a1.038,1.038,0,0,0,.622.213h.114a.772.772,0,0,0,.474-.134.93.93,0,0,0,.4-.323,1.238,1.238,0,0,0,.255-.5,1.437,1.437,0,0,0,.106-.6Z" transform="translate(-379.341 -166.155)" fill="#1f262e"/>
    <path id="Trazado_878060" data-name="Trazado 878060" d="M570.552,310.122q-.124,1.8-.249,3.608c-.025.363.54.361.565,0q.124-1.8.249-3.608c.025-.363-.54-.361-.565,0" transform="translate(-462.924 -251.511)" fill="#1f262e"/>
    <path id="Trazado_878061" data-name="Trazado 878061" d="M1152.15,1048.21a45.851,45.851,0,0,0-1.327-5.173q-.761-2.677-1.646-5.316c-.148-.443-16.385-1.478-23.772-.6a.625.625,0,0,0-.175.049c-.283-.233-2.6,8.242-2.123,12.292A1.748,1.748,0,0,0,1124.8,1051c4.558.119,18.285.46,21.291.313.866-.042,1.732-.1,2.595-.2a8.094,8.094,0,0,0,2.451-.427,2.125,2.125,0,0,0,1.014-2.486" transform="translate(-911.591 -841.57)" fill="#1f262e"/>
    <path id="Trazado_878062" data-name="Trazado 878062" d="M1396.97,1025.982c-.221-.193-.466-.369-.7-.556-1.535-1.206-14.751-9.331-15.406-9.635-.1-.178-13.372.2-19.789.191a.607.607,0,0,0-.533.305.627.627,0,0,0-1.042.469s.383,9.224.547,10.051c.227,1.144.748,2.351,1.821,2.488,1.784.227,3.63.209,5.426.293,7.394.346,25.448.611,29.62.022a.8.8,0,0,0,.728-.632,4.864,4.864,0,0,0,.063-1.913,2.136,2.136,0,0,0-.731-1.083" transform="translate(-1103.525 -824.495)" fill="#1f262e"/>
    <path id="Trazado_878063" data-name="Trazado 878063" d="M1129.816,311.8q-.456-13.979-1-27.955a.994.994,0,0,0,.269-.949c-.589-2.708.724-5.488-.287-8.168-.933-2.474-3.513-3.482-5.971-3.961-4.9-.954-6.575-1.866-10.353,1.34-.079.067-2.162,7.794-2.422,9.727-11.809,12.132-13.824,62.271-14.167,77.482-.228,10.1.181,50.478.5,52.929.551,4.247,8.3,4.9,11.534,5.367,6.073.879,18.8-.12,22.339-2.953a1.052,1.052,0,0,0,.39-.828c-.022-6.776-.292-85.347-.835-102.033" transform="translate(-889.495 -219.059)" fill="#017e6d"/>
    <path id="Trazado_878064" data-name="Trazado 878064" d="M1194.2,27.976c-1.366-1.673-4.19-1.784-6.223-2.028-2.1-.718-5.386-1.905-7.391-.36a2.4,2.4,0,0,0-.968,2.413c.005.023.013.044.019.066-1.635.251-3.4,1.038-3.161,2.927.229,1.837,1.769,2.811,3.369,3.423a1.228,1.228,0,0,0,.089.359,1.663,1.663,0,0,0,1.139.919.662.662,0,0,0,.444.509q4.929,1.755,9.734,3.828a.683.683,0,0,0,.988-.4l1.934-8.394a2.39,2.39,0,0,0,.027-3.261" transform="translate(-954.949 -20.157)" fill="#1f262e"/>
    <path id="Trazado_878065" data-name="Trazado 878065" d="M1220.19,321.586c-5.944-28.463-16.871-37.168-17.8-38.156-.3-.325-8.956-1.41-13.322-1.3l-3.227.084a14.627,14.627,0,0,0-2.894.151c-1.617.379-2.014,1.958-2.149,3.409a.7.7,0,0,0,.452.766q.317,10.156,1.479,20.258a.959.959,0,0,0,1.283.769c.02.011.039.022.06.033,3.356,1.612,4.235,6.826,4.775,10.367,4.908,32.184,15.08,105.968,15.626,106.79.8,1.2,24.721,4.612,38.821-3.81,1.027-.613-21.839-93.3-23.106-99.363" transform="translate(-958.471 -229.005)" fill="#017e6d"/>
    <path id="Trazado_878066" data-name="Trazado 878066" d="M1349.237,437.378c-.367.309-.73.624-1.072.961a3.289,3.289,0,0,0-.5.562c.867.939,1.754,1.86,2.647,2.774,1.84,1.882,3.706,3.739,5.482,5.68.145.158.288.318.431.477-.294-1.251-.495-2.127-.585-2.56-.828-3.963-1.752-7.541-2.732-10.771-.416.316-.826.64-1.243.956-.822.623-1.638,1.256-2.427,1.921" transform="translate(-1093.92 -352.691)" fill="#1f262e"/>
    <path id="Trazado_878067" data-name="Trazado 878067" d="M1232.861,478.073c.713,9.46,1.714,18.895,2.853,28.312,1.133,9.36,2.4,18.7,3.657,28.048q1.061,7.9,2.085,15.8c.046.356.611.36.565,0-1.2-9.413-2.5-18.813-3.749-28.221-1.24-9.367-2.428-18.743-3.412-28.14q-.826-7.889-1.434-15.8c-.027-.36-.592-.363-.565,0" transform="translate(-1000.731 -387.839)" fill="#1f262e"/>
    <path id="Trazado_878068" data-name="Trazado 878068" d="M1232.067,85.094q-.5-6.42-1.223-12.818a.74.74,0,0,0-1.188-.484.606.606,0,0,0-.764.112q-2.393,2.44-4.7,4.964a.629.629,0,0,0-.554.64q-.035,3.761-.07,7.523a.636.636,0,0,0,.114.384.556.556,0,0,0,.441.344,17.02,17.02,0,0,0,3.334.33c1.095-.008,2.484-.465,3.533-.168a.6.6,0,0,0,.676-.216.555.555,0,0,0,.4-.612" transform="translate(-993.19 -58.147)" fill="#fc865b"/>
    <path id="Trazado_878069" data-name="Trazado 878069" d="M1164.162,138.2a18.383,18.383,0,0,0-4.661-4.132,16.088,16.088,0,0,0-5.941-1.591c-4.853-.56-22.8-1.952-26.784-1.9-3.893.053-7.173,1.459-10.54,3.287a.645.645,0,0,0-.072,1.084c1.281,3.883,3.9,6.984,6.815,9.778a92.245,92.245,0,0,0,6.208,19.088.549.549,0,0,0,.526.344.627.627,0,0,0,.286.128c6.123,1.143,12.258,1.608,18.342.252,1.257-.28,3.045-.253,3.9-1.261,3.169-3.745,6.038-14.734,6.408-16.838,1.775-1.615,3.714-4.825,5.271-6.655a.665.665,0,0,0,.152-.585.684.684,0,0,0,.092-1" transform="translate(-905.795 -105.989)" fill="#01d2b5"/>
    <path id="Trazado_878070" data-name="Trazado 878070" d="M1268.084,224.78a1.448,1.448,0,0,0-.272-.59l-.214-.209a.889.889,0,0,0-.533-.183h-.1a.661.661,0,0,0-.407.115.8.8,0,0,0-.34.277,1.062,1.062,0,0,0-.219.43,1.234,1.234,0,0,0-.091.515l.038.356a1.446,1.446,0,0,0,.272.59l.214.209a.89.89,0,0,0,.533.183h.1a.662.662,0,0,0,.407-.115.8.8,0,0,0,.34-.277,1.057,1.057,0,0,0,.219-.43,1.233,1.233,0,0,0,.091-.515Z" transform="translate(-1027.558 -181.66)" fill="#1f262e"/>
    <path id="Trazado_878071" data-name="Trazado 878071" d="M1210.846,37.682c-1.2-2.322-2.93-4.054-5.623-3.823-3.576.307-5.428,3.282-5.251,6.451a34.973,34.973,0,0,0,.716,5.321c.255,1.2.46,2.908,1.818,3.369,2.06.7,5.488-.091,7.219-1.37,2.7-2,2.5-7.294,1.12-9.948" transform="translate(-974.027 -27.467)" fill="#fc865b"/>
    <path id="Trazado_878072" data-name="Trazado 878072" d="M1204.421,33.91a5.51,5.51,0,0,0-.66-2.886,5.483,5.483,0,0,0-2.281-1.4,13.146,13.146,0,0,0-3.291-.889.609.609,0,0,0-.717-.139,4.388,4.388,0,0,0-3.912.743,7.786,7.786,0,0,0-2.669,4.742.662.662,0,0,0,.389.769c-.034.1-.069.2-.1.3a.673.673,0,0,0,1.3.358c.551-1.882,1.99-3.632,3.971-3.827a2.184,2.184,0,0,0,1.142,1,8.463,8.463,0,0,0,4.5.374,18.781,18.781,0,0,1,.829,3.313c.1.621.941.589,1.229.161a3.906,3.906,0,0,0,.27-2.62" transform="translate(-966.65 -23.061)" fill="#1f262e"/>
    <path id="Trazado_878073" data-name="Trazado 878073" d="M1241.329,129.136a1.246,1.246,0,0,0-1.2-.294,1.463,1.463,0,0,0-.76.881c-.059,0-.118,0-.177.009a.3.3,0,0,0-.288.288.29.29,0,0,0,.288.288,3.047,3.047,0,0,1,1.221.134,1.461,1.461,0,0,0,.613.1.733.733,0,0,0,.554-.326.849.849,0,0,0-.254-1.078" transform="translate(-1005.64 -104.534)" fill="#fee1da"/>
    <path id="Trazado_878074" data-name="Trazado 878074" d="M1254.589,64.814c-.862.14-1.17,1.445-1.305,2.173a.516.516,0,0,0,.149.489c.225.212.046.745.464.986a.836.836,0,0,0,.866-.043c.848-.561,1.418-3.865-.174-3.605" transform="translate(-1017.301 -52.599)" fill="#fc865b"/>
    <path id="Trazado_878075" data-name="Trazado 878075" d="M1245.635,128.879q.6,6.327.86,12.681.26,6.327.182,12.662-.044,3.575-.2,7.147c-.015.364.55.363.565,0q.268-6.35.2-12.708-.07-6.332-.478-12.654-.23-3.568-.567-7.127c-.034-.359-.6-.362-.565,0" transform="translate(-1011.1 -104.394)" fill="#1f262e"/>
    <path id="Trazado_878076" data-name="Trazado 878076" d="M984.153,141.657c-.5-.771-2.509-6.945-3.1-6.767-8.433,2.542-27.7,12.369-30.939,14.363-1.383.851-5.062,3.081-6.087,4.367-1.551,1.947-1.727,4.68-1.392,7.054s1.221,4.536,3.721,5.277c1.612.478,12.867-.211,14.718-.812,3.761-1.219,22.849-16.437,24.972-17.956.6-.426-.865-3.954-1.892-5.527" transform="translate(-765.034 -109.49)" fill="#01d2b5"/>
    <path id="Trazado_878077" data-name="Trazado 878077" d="M1324.508,348.07a1.074,1.074,0,0,0-.274-.49,32.494,32.494,0,0,0-5.318-5.079c-1.637-1.087-3.589-1.92-4.56-3.727a1.014,1.014,0,0,0-1.678-.164,1.111,1.111,0,0,0-.594.411q-1.83,2.423-3.869,4.673a.567.567,0,0,1-.718.1,5.375,5.375,0,0,0-3.9-.695c-2.53.531-4.8,2.834-6.556,4.6-1.57,1.585-4.515,4.243-3.008,6.7a2.011,2.011,0,0,0,1.757,1.119,2.855,2.855,0,0,0,.58,3.026,3.342,3.342,0,0,0,3.253.774,3.055,3.055,0,0,0,.947,2.363,2.389,2.389,0,0,0,2.17.591,2.7,2.7,0,0,0,.587,1.259,2.541,2.541,0,0,0,3.383.389,14.33,14.33,0,0,0,2.961-2.572c.938-.92,2.215-1.943,3.594-1.41a4.28,4.28,0,0,0,1.9.526,3.441,3.441,0,0,0,1.755-.684,16.651,16.651,0,0,0,2.987-2.924,57.1,57.1,0,0,0,5.028-7.337,1,1,0,0,0-.426-1.446" transform="translate(-1050.046 -274.556)" fill="#fc865b"/>
    <path id="Trazado_878078" data-name="Trazado 878078" d="M1349.589,163c-2.183-2.545-5.23-4.175-8.117-5.781-3.406-1.895-17.2-10.6-21.087-12.5a56.465,56.465,0,0,0-5.687-2.615,26.133,26.133,0,0,0-6.38-1.437,35.287,35.287,0,0,0-1.758,8.037,47.1,47.1,0,0,0,.666,8.214.565.565,0,0,0,.791.446c.03.024.063.044.1.069a192.459,192.459,0,0,0,20.7,13.283c3.182,1.831,21.433,7.56,23.255.509.755-2.922-.56-5.988-2.476-8.222" transform="translate(-1060.553 -114.179)" fill="#01d2b5"/>
    <path id="Trazado_878079" data-name="Trazado 878079" d="M1404.521,263.178c.059-.31-12.975-2.929-18.706-2.269a.7.7,0,0,0-.365.151.617.617,0,0,0-.475.2,155.817,155.817,0,0,0-12.738,14.533.792.792,0,0,0,.073,1.044c2.466,2.437,13.555,13.163,19.2,14.662.531.141,8.005-10.535,10.757-15.405,2.217-3.923,4.62-8.679,2.255-12.913" transform="translate(-1113.735 -211.698)" fill="#01d2b5"/>
    <path id="Trazado_878080" data-name="Trazado 878080" d="M1224.142,122.446a1.4,1.4,0,0,1,.137.239c.252.548.468,1.1.756,1.634a4.644,4.644,0,0,0,3.909,2.624.321.321,0,0,0,.325-.368q-.465-3.088-1.007-6.164a.241.241,0,0,0-.339-.187.308.308,0,0,0-.108.006,26.064,26.064,0,0,1-7.932.234.233.233,0,0,0-.248.144.294.294,0,0,0-.1.2l-.6,6.084c-.012.122.4.313.5.285a6.591,6.591,0,0,0,3.113-2.1,6.818,6.818,0,0,0,.9-1.3,8.279,8.279,0,0,0,.347-.8c.029-.074.068-.138.1-.21a1.148,1.148,0,0,0,.041-.108c0-.007,0-.018.008-.028a.075.075,0,0,1,.024-.1l.017-.011c.008-.029.017-.058.025-.087.025-.093.077-.063.128,0" transform="translate(-989.431 -97.573)" fill="#1f262e"/>
    <path id="Trazado_878081" data-name="Trazado 878081" d="M1337.228,197.616a84.9,84.9,0,0,1-2.409,8.159c-.12.344.425.492.545.15a84.868,84.868,0,0,0,2.408-8.159c.085-.353-.459-.5-.545-.15" transform="translate(-1083.48 -160.245)" fill="#1f262e"/>
    <path id="Trazado_878082" data-name="Trazado 878082" d="M1146.074,184.23a40.8,40.8,0,0,1,1.42,4.725c.083.354.628.2.545-.15a40.769,40.769,0,0,0-1.42-4.725c-.124-.338-.671-.192-.545.15" transform="translate(-930.271 -149.264)" fill="#1f262e"/>
    <path id="Trazado_878083" data-name="Trazado 878083" d="M1415.52,260.13q3-3.32,6.162-6.494a.283.283,0,0,0-.4-.4q-3.158,3.172-6.162,6.494c-.243.269.155.67.4.4" transform="translate(-1148.614 -205.489)" fill="#1f262e"/>
    <path id="Trazado_878084" data-name="Trazado 878084" d="M1265.012,183.348a1.45,1.45,0,0,0-.272-.59l-.214-.209a.889.889,0,0,0-.533-.183h-.1a.661.661,0,0,0-.407.115.8.8,0,0,0-.34.276,1.063,1.063,0,0,0-.219.431,1.23,1.23,0,0,0-.091.515l.038.356a1.445,1.445,0,0,0,.272.59l.214.209a.89.89,0,0,0,.533.183h.1a.662.662,0,0,0,.407-.115.8.8,0,0,0,.34-.277,1.059,1.059,0,0,0,.219-.43,1.231,1.231,0,0,0,.091-.515Z" transform="translate(-1025.065 -148.029)" fill="#1f262e"/>
    <path id="Trazado_878085" data-name="Trazado 878085" d="M1369.634,369.624a8.453,8.453,0,0,1,.816.789,7.412,7.412,0,0,1,.674.86.282.282,0,1,0,.488-.285,8.717,8.717,0,0,0-1.578-1.764.282.282,0,0,0-.4.4" transform="translate(-1111.687 -299.64)" fill="#b8472a"/>
    <path id="Trazado_878086" data-name="Trazado 878086" d="M1306.589,395.442l4.255-4.232a10.517,10.517,0,0,1,4.2-3.021,3.968,3.968,0,0,1,2.77.114c.328.152.615-.335.285-.488a5.236,5.236,0,0,0-5.074.729,15.2,15.2,0,0,0-2.11,1.8c-.728.714-1.447,1.437-2.17,2.156l-2.56,2.546a.283.283,0,0,0,.4.4" transform="translate(-1060.187 -314.487)" fill="#b8472a"/>
    <path id="Trazado_878087" data-name="Trazado 878087" d="M1345.253,432.571a45.791,45.791,0,0,1,3.438-3.482c.606-.559,1.22-1.109,1.835-1.657a11.855,11.855,0,0,1,1.825-1.473,5.474,5.474,0,0,1,2.533-.619c.361-.017.364-.582,0-.565a6.742,6.742,0,0,0-2.34.457,7.323,7.323,0,0,0-1.923,1.361c-1.276,1.133-2.553,2.267-3.769,3.465-.691.681-1.361,1.383-2,2.114-.238.273.159.674.4.4" transform="translate(-1091.579 -344.796)" fill="#b8472a"/>
    <path id="Trazado_878088" data-name="Trazado 878088" d="M1326.052,415.727q1.861-1.933,3.9-3.686A18.222,18.222,0,0,1,1334.2,409a5.341,5.341,0,0,1,2.852-.485.293.293,0,0,0,.348-.2.284.284,0,0,0-.2-.347,7.118,7.118,0,0,0-5.011,1.552,42.175,42.175,0,0,0-4.26,3.564q-1.169,1.087-2.276,2.238c-.252.262.147.662.4.4" transform="translate(-1075.987 -331.12)" fill="#b8472a"/>
    <path id="Trazado_878089" data-name="Trazado 878089" d="M1230.6,87.138a9,9,0,0,1-.59,1.966,3.483,3.483,0,0,1-1.426,1.516,12.063,12.063,0,0,1-4.323,1.5c-.358.055-.206.6.15.545a12.158,12.158,0,0,0,4.6-1.641,3.922,3.922,0,0,0,1.489-1.633,9.575,9.575,0,0,0,.647-2.1c.078-.354-.466-.505-.545-.15" transform="translate(-993.585 -70.567)" fill="#b8472a"/>
    <path id="Trazado_878090" data-name="Trazado 878090" d="M1230.9,69.718a.679.679,0,0,0-.333-.237c-.578-.18-.91.47-.85.866a1.089,1.089,0,0,0,.7.882c.973.228.807-1.126.485-1.511" transform="translate(-998.171 -56.374)" fill="#140b0d"/>
    <path id="Trazado_878091" data-name="Trazado 878091" d="M1208.55,75.085a.6.6,0,0,0-.319-.2c-.515-.11-.689.608-.574,1.01.095.329.379.778.73.822.855.108.5-1.274.163-1.63" transform="translate(-980.247 -60.775)" fill="#140b0d"/>
    <path id="Trazado_878092" data-name="Trazado 878092" d="M1210.418,67.256a1.78,1.78,0,0,1,.485.3.874.874,0,0,1,.22.44c.1.411.113.846.175,1.264q.048.326.106.651a2.189,2.189,0,0,0,.153.62c.186.36.68.465,1.026.607a.284.284,0,0,0,.347-.2.289.289,0,0,0-.2-.347c-.184-.075-.377-.141-.555-.229s-.165-.253-.2-.424c-.083-.443-.153-.889-.207-1.337a3.514,3.514,0,0,0-.228-1.1,1.642,1.642,0,0,0-.844-.73c-.325-.159-.612.328-.285.488" transform="translate(-982.398 -54.172)" fill="#b8472a"/>
    <path id="Trazado_878093" data-name="Trazado 878093" d="M1224.058,84.466a2.165,2.165,0,0,1,.454.011l-.075-.01.038.005a.212.212,0,0,0,.113.005.209.209,0,0,0,.1-.034.282.282,0,0,0,.1-.386.272.272,0,0,0-.169-.13,2.47,2.47,0,0,0-.566-.026.3.3,0,0,0-.2.083.282.282,0,0,0,0,.4.278.278,0,0,0,.2.083" transform="translate(-993.357 -68.099)" fill="#b8472a"/>
    <path id="Trazado_878094" data-name="Trazado 878094" d="M1227.156,60.255a1.2,1.2,0,0,0-.629-.465,2.805,2.805,0,0,0-.739-.142,2.477,2.477,0,0,0-.839.066,1.9,1.9,0,0,0-.746.392.826.826,0,0,0-.332.865c.112.31.459.32.733.25a6.23,6.23,0,0,1,1.077-.3c.355-.026.7.09,1.052.084a.511.511,0,0,0,.417-.191.491.491,0,0,0,.007-.557" transform="translate(-993.409 -48.408)" fill="#1f262e"/>
    <path id="Trazado_878095" data-name="Trazado 878095" d="M1202.928,65.481a1.937,1.937,0,0,0-.873-.073,1.433,1.433,0,0,0-.866.465,1.5,1.5,0,0,0-.285.474.8.8,0,0,0-.026.572.5.5,0,0,0,.775.183,3.376,3.376,0,0,1,.664-.513c.294-.127.629-.087.872-.331a.437.437,0,0,0,.088-.347.5.5,0,0,0-.348-.43" transform="translate(-974.736 -53.076)" fill="#1f262e"/>
    <path id="Trazado_878096" data-name="Trazado 878096" d="M1222.575,87.208a4.546,4.546,0,0,1-1.086.663,3.589,3.589,0,0,1-.644.2c-.173.037-.445-.047-.591.052-.247.167-.06.482.059.667a.655.655,0,0,0,.731.284,2.47,2.47,0,0,0,1.847-1.576c.11-.258-.093-.477-.316-.3" transform="translate(-990.4 -70.734)" fill="#ad3e24"/>
    <path id="Trazado_878097" data-name="Trazado 878097" d="M1258.053,68.534l-.516,1.638a.285.285,0,0,0,.2.348.289.289,0,0,0,.348-.2l.516-1.638a.285.285,0,0,0-.2-.347.289.289,0,0,0-.347.2" transform="translate(-1020.754 -55.463)" fill="#b8472a"/>
    <path id="Trazado_878098" data-name="Trazado 878098" d="M1220.731,32.849a4.258,4.258,0,0,0-1.364-.092,2.506,2.506,0,0,0-1.17.346,1.329,1.329,0,0,0-.274,1.921.284.284,0,0,0,.4,0,.289.289,0,0,0,0-.4.752.752,0,0,1-.121-.582.737.737,0,0,1,.422-.535,2.309,2.309,0,0,1,.887-.2,3.754,3.754,0,0,1,1.071.083.289.289,0,0,0,.347-.2.285.285,0,0,0-.2-.347" transform="translate(-988.37 -26.573)" fill="#455363"/>
    <path id="Trazado_878099" data-name="Trazado 878099" d="M1185.328,51.638a1.935,1.935,0,0,0-.489,2.08,1.548,1.548,0,0,0,1.682.974,1.393,1.393,0,0,0,.943-.631c.194-.309-.3-.593-.488-.285a.855.855,0,0,1-.686.377.939.939,0,0,1-.756-.356,1.315,1.315,0,0,1,.194-1.76.283.283,0,0,0-.4-.4" transform="translate(-961.648 -41.848)" fill="#455363"/>
    <path id="Trazado_878100" data-name="Trazado 878100" d="M1252.486,51.821a2.1,2.1,0,0,0,1.235,1.36,2.062,2.062,0,0,0,1.907-.232.29.29,0,0,0,.1-.387.285.285,0,0,0-.386-.1,1.529,1.529,0,0,1-1.434.19,1.513,1.513,0,0,1-.877-.98.283.283,0,0,0-.545.15" transform="translate(-1016.652 -41.781)" fill="#455363"/>
    <path id="Trazado_878101" data-name="Trazado 878101" d="M758.421,429.475H649.647a2.115,2.115,0,0,1-2.115-2.115V273.172a2.115,2.115,0,0,1,2.115-2.115H758.421a2.115,2.115,0,0,1,2.115,2.115V427.36a2.115,2.115,0,0,1-2.115,2.115" transform="translate(-525.612 -220.021)" fill="#340b81"/>
    <path id="Trazado_878102" data-name="Trazado 878102" d="M652.284,745.736a33.735,33.735,0,0,0,3.89-6.469,28.165,28.165,0,0,0,2.187-7.26c.4-2.584-.928-8.284-1.28-10.874-6.1,6-9.549,11.9-9.549,13.971v15.851a41.253,41.253,0,0,0,4.752-5.218" transform="translate(-525.612 -585.355)" fill="#1f262e"/>
    <path id="Trazado_878103" data-name="Trazado 878103" d="M916.5,274.949a4.134,4.134,0,0,0,1.844-.052,7.529,7.529,0,0,0,3.291-2.135c.522-.521,1.011-1.075,1.484-1.641l-17.085-.063a18.359,18.359,0,0,0,8.305,2.94c.791.092,1.373.793,2.161.951" transform="translate(-735.443 -220.022)" fill="#1f262e"/>
    <path id="Trazado_878104" data-name="Trazado 878104" d="M701.73,951.7c-2.067-2.722-27.239-33.715-51.008-34.75-1.327-.058-2.134-1.585-3.19-2.392v35.2a2.115,2.115,0,0,0,2.115,2.115h52.334a1.027,1.027,0,0,1-.252-.177" transform="translate(-525.612 -742.365)" fill="#1f262e"/>
    <path id="Trazado_878105" data-name="Trazado 878105" d="M1182.62,271.7a35.027,35.027,0,0,0,12.09,17.621V273.506a2.115,2.115,0,0,0-2.115-2.115h-10.178a1.713,1.713,0,0,1,.2.306" transform="translate(-959.786 -220.292)" fill="#1f262e"/>
    <path id="Trazado_878111" data-name="Trazado 878111" d="M751.468,505.361a2.652,2.652,0,0,0-3.742,3.742,1.342,1.342,0,0,0,.211.211,2.652,2.652,0,0,0,3.742-3.742,1.349,1.349,0,0,0-.211-.211" transform="translate(-606.406 -409.674)" fill="#fff"/>
    <path id="Trazado_878112" data-name="Trazado 878112" d="M749.7,623.758a2.636,2.636,0,1,0,2.636,2.636,2.677,2.677,0,0,0-2.636-2.636" transform="translate(-606.406 -506.314)" fill="#fff"/>
    <path id="Trazado_878113" data-name="Trazado 878113" d="M872,516.832H819.4a.565.565,0,1,1,0-1.13H872a.565.565,0,1,1,0,1.13" transform="translate(-648.243 -418.603)" fill="#fff"/>
    <path id="Trazado_878114" data-name="Trazado 878114" d="M843.514,559.184H820.333a.565.565,0,0,1,0-1.13h23.181a.565.565,0,1,1,0,1.13" transform="translate(-649.176 -452.981)" fill="#fff"/>
    <path id="Trazado_878115" data-name="Trazado 878115" d="M874.576,636.371h-52.6a.565.565,0,1,1,0-1.13h52.6a.565.565,0,0,1,0,1.13" transform="translate(-650.678 -515.635)" fill="#fff"/>
    <path id="Trazado_878116" data-name="Trazado 878116" d="M874.576,678.724h-52.6a.565.565,0,0,1,0-1.13h52.6a.565.565,0,0,1,0,1.13" transform="translate(-650.917 -550.014)" fill="#fff"/>
    <path id="Trazado_878117" data-name="Trazado 878117" d="M749.7,884.818a2.636,2.636,0,1,0,2.636,2.636,2.677,2.677,0,0,0-2.636-2.636" transform="translate(-606.406 -718.22)" fill="#fff"/>
    <path id="Trazado_878118" data-name="Trazado 878118" d="M872.012,898.165h-50.04a.565.565,0,1,1,0-1.13h50.04a.565.565,0,1,1,0,1.13" transform="translate(-666.749 -728.137)" fill="#fff"/>
    <path id="Trazado_878119" data-name="Trazado 878119" d="M749.7,750.053a2.636,2.636,0,1,0,2.636,2.636,2.677,2.677,0,0,0-2.636-2.636" transform="translate(-606.406 -608.83)" fill="#fff"/>
    <path id="Trazado_878120" data-name="Trazado 878120" d="M874.576,763.4h-52.6a.565.565,0,1,1,0-1.13h52.6a.565.565,0,0,1,0,1.13" transform="translate(-666.749 -618.747)" fill="#fff"/>
    <path id="Trazado_878121" data-name="Trazado 878121" d="M844.9,806.753H822.525a.565.565,0,0,1,0-1.13H844.9a.565.565,0,1,1,0,1.13" transform="translate(-667.198 -653.937)" fill="#fff"/>
    <path id="Trazado_878122" data-name="Trazado 878122" d="M1198.373,250.954c.009-.146.013-.295.013-.444,0-1.953-.034-3.9-.169-5.849a13.741,13.741,0,0,0-.883-4.977c-1.489-3.123-5.855-3.593-8.849-4.182-3.954-.778-12.8-.947-12.835-.667a84.781,84.781,0,0,0-.747,13.121c-.125-.037-.251-.07-.375-.111-.853-.278-1.218,1.065-.37,1.341.278.09.557.168.837.24a.741.741,0,0,0,1.115.245c2.711.492,5.485.332,8.243.6,1.1.109,1.18.908,1.368,1.852.245,1.231.225,2.727,1.088,3.731a3.464,3.464,0,0,0,4.318.528c.213-.147,1.526.525,3.1-.13a2.3,2.3,0,0,0,1.258-2.095.528.528,0,0,1,.165-.354.391.391,0,0,1,.253-.173,7.4,7.4,0,0,0,.8-.177,2.416,2.416,0,0,0,1.665-2.5" transform="translate(-952.691 -190.517)" fill="#fc865b"/>
    <path id="Trazado_878123" data-name="Trazado 878123" d="M990.946,218.417c-.027-.761-.045-1.525-.1-2.284a1.533,1.533,0,0,0-.476-1.231,3.127,3.127,0,0,0-1.56-.359q-1.219-.145-2.439-.276-2.44-.263-4.886-.472-4.7-.4-9.419-.606-5.376-.232-10.759-.205a.644.644,0,0,0-.388.121.609.609,0,0,0-.392-.1,20.836,20.836,0,0,0-7.8,2.51c-2.479,1.21-9.14,2.265-9.331,2.67-1.5,3.181-.465,6.95.105,8.508a7.6,7.6,0,0,0,2.284,3.168c2.447,2.05,5.632,2.634,8.69,3.153,7.289,1.235,33.8.8,35.663.33a.69.69,0,0,0,.494-.649q.371-4.75.393-9.517.008-2.382-.076-4.763" transform="translate(-765.136 -172.88)" fill="#01d2b5"/>
    <path id="Trazado_878124" data-name="Trazado 878124" d="M1071.027,217.835c.012-.925.154-2.405-1.063-2.576-.977-.137-1.958-.253-2.94-.354-2.25-.231-4.508-.391-6.766-.517q-3.553-.2-7.11-.29-3.274-.089-6.549-.1c-1.684-.005-3.368,0-5.052.051l-.486.016c-.362.013-.364.578,0,.565,1.56-.055,3.122-.067,4.683-.068q3.11,0,6.22.073,3.472.08,6.941.248c2.243.111,4.484.253,6.721.454,1.017.091,2.033.195,3.047.319a10.073,10.073,0,0,1,1.351.183c.427.114.427.763.439,1.113.01.295,0,.59,0,.885a.283.283,0,0,0,.565,0" transform="translate(-844.824 -173.704)" fill="#1f262e"/>
    <path id="Trazado_878125" data-name="Trazado 878125" d="M1260.3,260.4q.864.1,1.717.265a5.51,5.51,0,0,1,1.34.4,2.775,2.775,0,0,1,1.46,2.061,17.229,17.229,0,0,1,.218,2.908q.068,1.768.137,3.536.076,1.954.151,3.909c.014.362.579.364.565,0q-.144-3.723-.288-7.445c-.071-1.824.082-4.256-1.728-5.333a5.093,5.093,0,0,0-1.557-.553c-.665-.141-1.34-.24-2.016-.316-.361-.04-.358.525,0,.565" transform="translate(-1022.784 -210.91)" fill="#b8472a"/>
    <path id="Trazado_878126" data-name="Trazado 878126" d="M1246.57,284.639a5.117,5.117,0,0,1,2.26.778,2.591,2.591,0,0,1,.86,1.994c.089.876.085,1.759.095,2.639q.015,1.373.029,2.746.016,1.536.032,3.072a.283.283,0,0,0,.565,0q-.031-2.932-.062-5.865a25.06,25.06,0,0,0-.124-2.854,3.029,3.029,0,0,0-.928-2.082,5.437,5.437,0,0,0-2.728-.992c-.36-.043-.357.522,0,.565" transform="translate(-1011.642 -230.585)" fill="#b8472a"/>
    <path id="Trazado_878127" data-name="Trazado 878127" d="M1474.294,455.728l.144.144a.1.1,0,0,0,.067.027.094.094,0,0,0,.094-.094.1.1,0,0,0-.028-.066l-.144-.144a.1.1,0,0,0-.067-.027.1.1,0,0,0-.067.027.094.094,0,0,0-.027.067.1.1,0,0,0,.027.066" transform="translate(-1196.685 -369.791)" fill="#fff"/>
    <path id="Trazado_878128" data-name="Trazado 878128" d="M430.489,635.033c-1.761-1.23-4.289-.969-6.3-.574a13.2,13.2,0,0,0-7.257,3.764c-2.07,2.359-2.02,5.37-2.924,8.186a6.071,6.071,0,0,1-2.678,3.551c-1.32.786-2.8,1.264-4.057,2.161-1.967,1.406-3.943,3.868-3.782,6.359-.5.252-.427,1.125.237,1.073l12.089-.957a5.971,5.971,0,0,0,2.34-.313,3.343,3.343,0,0,0,.988-1.3,17.291,17.291,0,0,1,2.562-3.791c1.207-1.174,2.94-1.46,4.3-2.427a10.108,10.108,0,0,0,2.695-2.928c1.611-2.6,2.057-5.63,2.378-8.6a3.161,3.161,0,0,0-.456-4.109c-.042-.031-.084-.062-.127-.092" transform="translate(-327.252 -514.733)" fill="#1f262e"/>
    <path id="Trazado_878129" data-name="Trazado 878129" d="M468.846,740.785c-.055-.67.36-1.41-.243-1.737-7.355-3.984-13.588-4.753-17.642-3.836-1.11.251-2.206.559-3.292.9a.286.286,0,0,0,.083.557,25.622,25.622,0,0,0,3.471,5.291.232.232,0,0,0,.312.056,9.9,9.9,0,0,0,2.044,2.287,12,12,0,0,0,6.3,2.444,21.126,21.126,0,0,0,3.489.087,8.428,8.428,0,0,0,3.211-.634c2.042-.97,2.438-3.371,2.271-5.412" transform="translate(-363.22 -596.501)" fill="#fc865b"/>
    <path id="Trazado_878130" data-name="Trazado 878130" d="M460.172,761.965a.6.6,0,0,0-.84-.66,13.335,13.335,0,0,1-14.015-1.414c-.544-.429-1.306.29-.853.746a188.539,188.539,0,0,1-6.386,31.216.633.633,0,0,0-.02.1.582.582,0,0,0,.079,1.069,26.748,26.748,0,0,0,15.4.03.52.52,0,0,0,.932,0c.053-.116.105-.232.158-.348.082-.028.165-.053.247-.083a.6.6,0,0,0,.226-.976,77.272,77.272,0,0,0,6.186-23.373c.213-2.063.674-4.778-1.112-6.308" transform="translate(-355.322 -616.708)" fill="#fff"/>
    <path id="Trazado_878131" data-name="Trazado 878131" d="M581.963,798.2c-.319-1.882-6.536-17.7-8.933-23.348-2.008-4.728-3.83-10.093-7.65-12.849-.712-.514-7.7,3.463-8.743,6.4a11.252,11.252,0,0,0-.233,5.034q.319,2.937.7,5.867c.687,5.288,3.251,20.863,3.69,22.94a26.525,26.525,0,0,0,1.474,5.6c1.42,3.112,4.787,4.284,8.02,4.014a14.706,14.706,0,0,0,8.858-3.888c2.7-2.608,3.429-6.155,2.817-9.77" transform="translate(-451.504 -618.49)" fill="#fd5a37"/>
    <path id="Trazado_878132" data-name="Trazado 878132" d="M519.971,749.206c-1.016-2.89-2.11-5.931-4.323-8.142a11.933,11.933,0,0,0-4.2-2.591c-1.67-.648-3.417-1.107-5.141-1.589-2.074-.579-7.415-2.192-7.6-2a.475.475,0,0,0,0,.666c1.751,1.52,2.008,4.027,2.133,6.2a51.172,51.172,0,0,1-.245,8.47,82.987,82.987,0,0,1-3.82,16.575c-.995,3.06-2.093,6.085-3.222,9.1a.368.368,0,0,0-.018.185.5.5,0,0,0-.129.465.48.48,0,0,0,.579.329c3.2-.659,7.458.069,9.438-2.814,5.687-8.282,7.352-17.643,8.193-19.564a30.547,30.547,0,0,0,5.676-3.214q1.023-.735,1.984-1.552a.448.448,0,0,0,.372.061.475.475,0,0,0,.329-.579" transform="translate(-400.489 -596.501)" fill="#fd5a37"/>
    <path id="Trazado_878133" data-name="Trazado 878133" d="M489.353,701.162a8.978,8.978,0,0,0-2.956-2.63,7.581,7.581,0,0,0-3.753-1.409c-.48,0-.745,1.011-.943,1.3l-4.675,6.863c-.247.362,5.125,5.633,8.382,4.133a.847.847,0,0,0,.963-.5l3.034-6.016a1.031,1.031,0,0,0,.054-.857.874.874,0,0,0-.107-.887" transform="translate(-387.203 -565.866)" fill="#fc865b"/>
    <path id="Trazado_878134" data-name="Trazado 878134" d="M499.632,656.016c-.8.781-5.227,1.435-7.006,1.435-.094,0-4.248-2.489-5.2-4.15a4.734,4.734,0,0,1-4.178-2.694,5.494,5.494,0,0,1-.781-2.913,6.343,6.343,0,0,1,2.826-4.871,10.267,10.267,0,0,1,5.622-2.487,4.752,4.752,0,0,1,4.191,1.89,16.1,16.1,0,0,1,2.433,4.084.524.524,0,0,0,.083.139c.518.638,1.617.951,1.766,1.275a1.706,1.706,0,0,1-.463,1.585.491.491,0,0,0-.077.461l.158.446c.156.437.311.874.459,1.312.188.546.371,1.1.54,1.647a2.643,2.643,0,0,1-.369,2.839" transform="translate(-391.621 -519.758)" fill="#fc865b"/>
    <path id="Trazado_878135" data-name="Trazado 878135" d="M364.484,740.4a12.8,12.8,0,0,0-2.753-7.225c-.143-.169-.295-.331-.45-.489.052-.242.371-.317.052-.242-3.445.821-7.921,1.637-11.824,3.212a16.6,16.6,0,0,0-3.692,2,18.969,18.969,0,0,0-3.785,3.359c-1.2,1.375-1.894,3.424-2.935,4.921-.1.034-1.871,6.74-2.57,10.015s-1.317,6.568-1.85,9.875a34.162,34.162,0,0,0-.153,5.857,38.523,38.523,0,0,0,18.343,4.773,8.336,8.336,0,0,0,2.424-.16c.6-.181,1.246-.623,1.171-1.327q1.684-4.081,3.06-8.278t2.436-8.515q1.062-4.323,1.794-8.718a36.456,36.456,0,0,0,.731-9.056" transform="translate(-271.488 -594.51)" fill="#fd5a37"/>
    <path id="Trazado_878136" data-name="Trazado 878136" d="M539.629,641.963A3.9,3.9,0,0,0,538.517,640a2.607,2.607,0,0,0-.987-.631c-.321-.1-.832-.106-1.015.24a.967.967,0,0,0-.022.634,2.189,2.189,0,0,0,.209.574.1.1,0,0,0,.049.093.094.094,0,0,0,.166-.006,2.543,2.543,0,0,1,2.54,1.131.1.1,0,0,0,.172-.073" transform="translate(-435.445 -518.938)" fill="#1f262e"/>
    <path id="Trazado_878137" data-name="Trazado 878137" d="M540.6,664.378a1.473,1.473,0,0,0-1.757-.021,2.316,2.316,0,0,0-1.148,1.665c.015.406.633.6.956.457.283-.125.418-.424.647-.621.4-.342,1.069-.15,1.394-.529a.685.685,0,0,0-.092-.952" transform="translate(-436.458 -539.041)" fill="#1f262e"/>
    <path id="Trazado_878138" data-name="Trazado 878138" d="M463.691,637.995a.6.6,0,0,0-.62-.221c-.1-.052-5.049.783-6.983,2.163a7.892,7.892,0,0,0-3.105,5.294c-.391,2.106-.4,4.6-1.845,6.33-.652.781-1.646,1.158-2.295,1.937-.6.724-2.973,3.218-2.135,3.366.964-.137,6.107.147,8.536-.227,8.217-1.266,9.281-9.776,9.612-12.227.3-2.2.238-4.584-1.165-6.414" transform="translate(-362.455 -517.678)" fill="#1f262e"/>
    <path id="Trazado_878139" data-name="Trazado 878139" d="M502.229,689.094a4.011,4.011,0,0,0,.918-1.719.142.142,0,0,0,0-.1c-.35-.826-1.166-1.554-1.912-1.353a1.1,1.1,0,0,0-.688,1.272,2.667,2.667,0,0,0,1.556,1.934.14.14,0,0,0,.13-.037" transform="translate(-406.286 -556.748)" fill="#fc865b"/>
    <path id="Trazado_878140" data-name="Trazado 878140" d="M456.508,636.394a4.819,4.819,0,0,0-4.059-2.448,3.166,3.166,0,0,0-3.039,2.7,3.578,3.578,0,0,0,2.729,3.664c1.849.342,3.37-.846,4.3-2.33a.745.745,0,0,0,.071-.724.706.706,0,0,0,0-.859" transform="translate(-364.785 -514.58)" fill="#1f262e"/>
    <path id="Trazado_878141" data-name="Trazado 878141" d="M547.68,675.948a2.249,2.249,0,0,0-.159-.593c-.157-.379-.521-.847-.994-.709-1.067.312-.058,2.142.74,2.063a.475.475,0,0,0,.419-.479,1.445,1.445,0,0,0-.006-.282" transform="translate(-443.249 -547.6)" fill="#140b0d"/>
    <path id="Trazado_878142" data-name="Trazado 878142" d="M550.366,678.417l-.008-.011.008.011" transform="translate(-446.734 -550.673)" fill="#140b0d"/>
    <path id="Trazado_878143" data-name="Trazado 878143" d="M563.1,827.764a51.114,51.114,0,0,1-4.459,13.56q-.9,1.822-1.943,3.569a.283.283,0,0,0,.488.285,51.624,51.624,0,0,0,5.583-13.3q.517-1.966.876-3.968c.064-.355-.48-.508-.545-.15" transform="translate(-451.843 -671.744)" fill="#1f262e"/>
    <path id="Trazado_878144" data-name="Trazado 878144" d="M687.487,826.056a44.339,44.339,0,0,0-4.238-1.766c-1.47-.54-2.96-1.026-4.455-1.492a42.255,42.255,0,0,0-4.563-1.233c-1.389-.267-3.418-.555-4.174,1.013a.3.3,0,0,0-.017.047c-.155.048,3.264,5.77,5.952,7.43a12.485,12.485,0,0,0,9.347,1.611,10.389,10.389,0,0,0,2.54-.965,4.817,4.817,0,0,0,1.869-1.564.3.3,0,0,0,.265-.266c.151-1.4-1.475-2.3-2.526-2.816" transform="translate(-543.878 -666.706)" fill="#b35c44"/>
    <path id="Trazado_878145" data-name="Trazado 878145" d="M692.515,712.272a28.709,28.709,0,0,0-2-6.22,2.75,2.75,0,0,0-2.092-.8c-2.711-.09-6.85,2.108-7.671,2.463a4.268,4.268,0,0,0-.309-1.958,1.833,1.833,0,0,0-2.241-1.042c-.872.356-1.18,1.358-1.512,2.153-1,2.4-1.984,4.96-2.784,7.49-.747,2.364-2.049,5.446-1.178,7.928a15.711,15.711,0,0,0,.951,1.873,1.194,1.194,0,0,1,.112.888l-1.812,6.864a50.656,50.656,0,0,0,9.782,1.966,17.408,17.408,0,0,1,2.718.333c.447.1,2.03-5.781,2.03-5.781,1.156-2.092,5.3-9.5,5.741-11.12a11.964,11.964,0,0,0,.262-5.037" transform="translate(-545.458 -571.94)" fill="#fc865b"/>
    <path id="Trazado_878146" data-name="Trazado 878146" d="M567.524,692.878a3.386,3.386,0,0,0-.634.812.3.3,0,0,0,.072.29.347.347,0,0,0,.226.092l.35.053c.149.021.3.043.446.066-.149-.439-.3-.876-.459-1.312" transform="translate(-460.144 -562.42)" fill="#fff"/>
    <path id="Trazado_878147" data-name="Trazado 878147" d="M637.511,831.261a.439.439,0,0,0-.479-.554c-4.656.562-14.565-3.16-18.075-6.174-.693-.595-1.063-.047-1.508.5-.1.1-7.693,15.406-12.043,22.562-.279.459,1.464,8.228,3.855,10.916,2.16,2.428,6.33,4.956,9.6,4.583a12.236,12.236,0,0,0,9.679-6.538c1.587-3.174,7.893-21.449,8.973-25.3" transform="translate(-491.394 -669.077)" fill="#fd5a37"/>
    <path id="Trazado_878148" data-name="Trazado 878148" d="M638.143,857.024q-1.536,3.6-3.321,7.085c-.165.323.322.609.488.285q1.784-3.483,3.321-7.085c.141-.331-.345-.619-.488-.285" transform="translate(-515.267 -695.539)" fill="#1f262e"/>
    <path id="Trazado_878149" data-name="Trazado 878149" d="M566.079,683.172a2.306,2.306,0,0,0-.431.559.3.3,0,0,0-.028.218.289.289,0,0,0,.13.169.285.285,0,0,0,.218.028.289.289,0,0,0,.169-.13,2.1,2.1,0,0,1,.177-.27l-.044.057a2.087,2.087,0,0,1,.21-.233.282.282,0,0,0,0-.4.284.284,0,0,0-.2-.083.3.3,0,0,0-.2.083" transform="translate(-459.114 -554.474)" fill="#b8472a"/>
    <path id="Trazado_878150" data-name="Trazado 878150" d="M450.57,904.661c-2.8-3.058-6.529-8.625-9.994-10.994a14.64,14.64,0,0,0-10.741-2.617c-4.13.651-7.866,2.841-11.246,5.1-3.447,2.3-6.8,4.735-10.09,7.242a198.252,198.252,0,0,0-19.3,16.672c-2.773,2.746-5.2,5.776-5.781,9.661a28.847,28.847,0,0,0-.078,6.183,4.544,4.544,0,0,0,2.352,4.113c3.512,2.021,20.1,1.8,26.955,1.414a5.049,5.049,0,0,0,2.96-1.162c.911-.764,2.056-1.731,2.474-2.1q2.708-2.419,5.383-4.873c5.221-4.791,10.435-9.591,15.448-14.584,2.5-2.495,11.843-13.85,11.66-14.049" transform="translate(-311.059 -723.137)" fill="#febdaf"/>
    <path id="Trazado_878151" data-name="Trazado 878151" d="M747.5,1131.576a96.569,96.569,0,0,0-10.979-5.358,1.128,1.128,0,0,0-.673-.538,53.686,53.686,0,0,0-13.286-2.352,51.126,51.126,0,0,0-6.578.106c-2.258.182-4.644.832-6.9.386a1.122,1.122,0,0,0-1.092.378,1.1,1.1,0,0,0-.59,1.478c1.16,3.261,2.249,6.568,3.463,9.807a1.823,1.823,0,0,0,1.544,1.231c5.957.425,32.215,1.315,36.377-.288.295-.114.4-.461.471-.734a1.61,1.61,0,0,0,.043-.162,3.686,3.686,0,0,0-1.8-3.953" transform="translate(-574.139 -911.774)" fill="#1f262e"/>
    <path id="Trazado_878152" data-name="Trazado 878152" d="M345.808,905.975c.047-.205-6.787-9.94-10.252-12.309a14.64,14.64,0,0,0-10.741-2.617c-4.129.651-7.866,2.841-11.246,5.1-3.447,2.3-6.8,4.735-10.09,7.242a198.23,198.23,0,0,0-19.3,16.672c-2.773,2.745-5.2,5.776-5.781,9.661a28.85,28.85,0,0,0-.078,6.183,4.544,4.544,0,0,0,2.352,4.113c3.512,2.021,20.1,1.8,26.955,1.413a5.049,5.049,0,0,0,2.96-1.162c.911-.764,2.056-1.73,2.474-2.1q2.708-2.419,5.382-4.873c5.221-4.79,10.435-9.592,15.448-14.584,2.5-2.495,14.089-9.691,11.918-12.735" transform="translate(-225.813 -723.137)" fill="#febdaf"/>
    <path id="Trazado_878153" data-name="Trazado 878153" d="M141.753,1103.228a.96.96,0,0,0-.757-.358,138.272,138.272,0,0,0-20.127,1.02,1.058,1.058,0,0,0-.738.424q-2.845.462-5.668,1.047a48.731,48.731,0,0,0-5.812,1.382c-1.735.595-2.765,2.16-3.872,3.53-.692.855-1.372,1.854-2.042,2.848a1.5,1.5,0,0,0-.257.765c0,.052.006.1.014.157.156,1.037,1.28,1.407,2.2,1.415a4.632,4.632,0,0,0,1.373-.2c.52-.157.6-.459,1-.85.033-.033.13.249.143.315.189.9,1.805.94,2.472.862a8.918,8.918,0,0,0,2.015-.542c.179-.066,1.046-.57,1.191-.487.007,0,.017,0,.019.013.274.762,1.8,1.062,3.065.833a6.282,6.282,0,0,0,2.172-.84.083.083,0,0,1,.085-.045.078.078,0,0,1,.089.048c.275.168.515.39.8.542a4.359,4.359,0,0,0,2.213.416c2.535-.053,5.08.042,7.618-.071a37.082,37.082,0,0,0,6.918-.576c2.031-.487,3.078-1.874,3.828-3.729.908-2.247,1.707-4.539,2.435-6.85a.892.892,0,0,0-.368-1.069" transform="translate(-83.185 -895.189)" fill="#fc865b"/>
    <path id="Trazado_878154" data-name="Trazado 878154" d="M645.726,1155.768a112.567,112.567,0,0,0-12.191-5.358,1.235,1.235,0,0,0-.747-.538,65.609,65.609,0,0,0-14.753-2.353,63.053,63.053,0,0,0-7.3.106c-2.507.182-5.157.832-7.662.386a1.325,1.325,0,0,0-1.213.378,1.071,1.071,0,0,0-.655,1.477c1.288,3.261,2.5,6.568,3.846,9.807a2,2,0,0,0,1.715,1.231c6.615.425,35.773,1.315,40.394-.288a.968.968,0,0,0,.523-.734,1.5,1.5,0,0,0,.047-.162,3.569,3.569,0,0,0-2-3.953" transform="translate(-487.924 -931.411)" fill="#1f262e"/>
    <path id="Trazado_878155" data-name="Trazado 878155" d="M525.5,725.034a3.076,3.076,0,0,0,1.205.651c.21.064.423.113.638.158a2.587,2.587,0,0,0,.781.081.291.291,0,0,0,.282-.282.285.285,0,0,0-.282-.282,2.046,2.046,0,0,1-.631-.06c-.2-.042-.4-.088-.6-.146a2.484,2.484,0,0,1-.994-.517.288.288,0,0,0-.4,0,.285.285,0,0,0,0,.4" transform="translate(-426.493 -588.132)" fill="#b8472a"/>
    <path id="Trazado_878156" data-name="Trazado 878156" d="M523.846,753.2a16,16,0,0,0-.94,1.718.289.289,0,0,0,.1.386.286.286,0,0,0,.387-.1,15.976,15.976,0,0,1,.94-1.718.285.285,0,0,0-.1-.386.288.288,0,0,0-.386.1" transform="translate(-424.424 -611.269)" fill="#b8472a"/>
    <path id="Trazado_878157" data-name="Trazado 878157" d="M226.941,747.458c-.433-.569-.983-2.609-1.308-2.552-8.362,1.475-11.868,6.876-13.458,8.927-7.307,9.422-23.261,38.245-26,43.224-2.079,3.775-6.38,12.022-8.39,16.039a1.348,1.348,0,0,0,.95,1.925,31.134,31.134,0,0,0,4.686.476c2.343.1,4.691.119,7.036.139,2.425.021,4.85.012,7.273-.068q1.812-.059,3.621-.177a31.925,31.925,0,0,0,3.53-.459c.7-.125,1.39-.264,2.084-.407a1.726,1.726,0,0,0,1.233-.99c3.991-8.986,18.321-41.421,19.892-47.363,1.6-6.066,2.987-13.295-1.145-18.716" transform="translate(-144.192 -604.651)" fill="#fd5a37"/>
    <path id="Trazado_878158" data-name="Trazado 878158" d="M532.491,962.322c-.807-1.329-30.928-40.375-34.838-44.439-.4-.416-19.169,5.422-23.225,13.035a1.032,1.032,0,0,0,.471,1.431,232.787,232.787,0,0,0,17.126,33.3.994.994,0,0,0,.554.443.974.974,0,0,0,.494.269,78.332,78.332,0,0,0,29.471,1.232q2.474-.362,4.922-.885a11.457,11.457,0,0,0,3.853-1.358c1.083-.7,1.952-1.746,1.171-3.031" transform="translate(-384.994 -745.043)" fill="#febdaf"/>
    <path id="Trazado_878159" data-name="Trazado 878159" d="M604.078,915.789c-.431-.376-18.767,4.9-22.258,11.785a.957.957,0,0,0,.577,1.294,227.248,227.248,0,0,0,19.595,30.109,4.066,4.066,0,0,0,1.1.644,89.313,89.313,0,0,0,19.921,1.865,86.346,86.346,0,0,0,9.642-.751,11.852,11.852,0,0,0,3.079-1.138,1.517,1.517,0,0,0,.595-2.289c-5.586-7.512-28.557-38.295-32.251-41.518" transform="translate(-472.194 -743.344)" fill="#febdaf"/>
    <path id="Trazado_878160" data-name="Trazado 878160" d="M414.252,806.586a6.469,6.469,0,0,1,.714,2,16.393,16.393,0,0,1,.308,2.593,32.1,32.1,0,0,1-.228,5.476c-.085.687-.191,1.373-.339,2.049a19.825,19.825,0,0,1-.753,2.349q-1.129,3.189-2.3,6.361c-.838,2.263-1.689,4.521-2.528,6.783-.127.341.419.489.545.15,1.536-4.14,3.1-8.27,4.578-12.431.323-.907.7-1.811.933-2.747a19.367,19.367,0,0,0,.369-2.03,33.288,33.288,0,0,0,.312-5.424,19.155,19.155,0,0,0-.3-3.022,7.258,7.258,0,0,0-.822-2.389.283.283,0,0,0-.488.285" transform="translate(-332.076 -654.378)" fill="#1f262e"/>
    <path id="Trazado_878161" data-name="Trazado 878161" d="M588.518,909.907c.138.084.27.178.4.274l.051.039.01.008.115.092q.117.1.232.195c.371.32.723.661,1.068,1.009.944.953,1.832,1.962,2.7,2.982,1.136,1.331,2.238,2.689,3.326,4.059q1.916,2.414,3.779,4.87,2.067,2.714,4.1,5.457,2.134,2.876,4.241,5.772,2.131,2.924,4.244,5.86,2.031,2.818,4.051,5.643,1.86,2.6,3.717,5.2,1.61,2.252,3.225,4.5l.693.963c.211.292.7.01.488-.285q-1.553-2.154-3.1-4.314-1.816-2.538-3.63-5.078-2-2.8-4-5.586-2.1-2.924-4.218-5.838t-4.251-5.809q-2.066-2.8-4.161-5.575-1.931-2.554-3.9-5.076c-1.136-1.447-2.285-2.884-3.465-4.3-.93-1.113-1.877-2.215-2.873-3.269a17.44,17.44,0,0,0-2.164-2.021c-.124-.093-.252-.182-.385-.263-.311-.19-.6.3-.285.488" transform="translate(-477.6 -738.155)" fill="#1f262e"/>
    <path id="Trazado_878162" data-name="Trazado 878162" d="M471.329,984.714q2.917,6.152,6.005,12.219t6.349,12.044q1.837,3.37,3.729,6.709a.283.283,0,0,0,.488-.285q-3.354-5.924-6.54-11.942t-6.2-12.122q-1.7-3.441-3.343-6.91c-.156-.328-.643-.042-.488.285" transform="translate(-382.561 -798.958)" fill="#1f262e"/>
    <path id="Trazado_878163" data-name="Trazado 878163" d="M474.792,1085.677c-.859.938-1.731,1.864-2.607,2.787-1.77,1.864-3.562,3.709-5.411,5.5-.96.928-1.934,1.844-2.954,2.706-.278.235.123.633.4.4,1.915-1.618,3.694-3.4,5.452-5.187q2.342-2.378,4.614-4.824.455-.488.906-.979c.245-.268-.153-.668-.4-.4" transform="translate(-376.414 -881.189)" fill="#1f262e"/>
    <path id="Trazado_878164" data-name="Trazado 878164" d="M184.419,1144.616a1.593,1.593,0,0,1-.178-1.361,1.754,1.754,0,0,1,.952-1.017,9.061,9.061,0,0,1,3.16-.664c1.869-.177,3.739-.328,5.61-.483q1.681-.139,3.359-.3c.359-.034.362-.6,0-.565-2.009.189-4.02.347-6.031.516-1.11.094-2.22.188-3.328.3a7.773,7.773,0,0,0-3.288.831,2.187,2.187,0,0,0-.745,3.023c.192.308.681.025.488-.285" transform="translate(-149.034 -925.541)" fill="#b8472a"/>
    <path id="Trazado_878165" data-name="Trazado 878165" d="M156.958,1134.992a21.9,21.9,0,0,1,1.861-3c.268-.366.545-.724.842-1.067.106-.123.214-.243.328-.359.039-.04.079-.079.12-.117s.079-.069.077-.067a4.789,4.789,0,0,1,1.61-.6c.586-.14,1.177-.264,1.768-.382.908-.181,1.82-.329,2.741-.422,1.186-.119,2.379-.17,3.569-.232.362-.019.364-.584,0-.565a44.852,44.852,0,0,0-6.143.612c-.586.112-1.169.237-1.75.367a7.534,7.534,0,0,0-1.83.594,5.078,5.078,0,0,0-1.509,1.541,21.955,21.955,0,0,0-2.172,3.418c-.164.323.323.61.488.285" transform="translate(-126.982 -915.757)" fill="#b8472a"/>
    <path id="Trazado_878166" data-name="Trazado 878166" d="M699.6,678.329c-4.391,11.988-6.783,18.183-11.568,30.02-.545,1.348,1.64,1.934,2.179.6,4.785-11.836,7.177-18.031,11.568-30.02.5-1.367-1.682-1.957-2.179-.6" transform="translate(-558.414 -549.986)" fill="#d6cee6"/>
    <path id="Trazado_878167" data-name="Trazado 878167" d="M126.23,1130.3a19.783,19.783,0,0,1,1.084-1.837c.471-.732.961-1.452,1.482-2.15a6.173,6.173,0,0,1,1.216-1.366,8.607,8.607,0,0,1,3.142-1.365c1.172-.272,2.372-.384,3.548-.637.355-.076.2-.621-.15-.545-1.065.229-2.151.342-3.218.564a9.594,9.594,0,0,0-3.256,1.254,5.907,5.907,0,0,0-1.5,1.453c-.539.7-1.041,1.42-1.524,2.156a21.652,21.652,0,0,0-1.311,2.186c-.162.324.325.611.488.285" transform="translate(-102.041 -911.062)" fill="#b8472a"/>
    <path id="Trazado_878168" data-name="Trazado 878168" d="M789.336,1164c1.3.649,2.573,1.375,3.836,2.1,1.592.914,3.178,1.85,4.7,2.883a9.76,9.76,0,0,1,1.582,1.231c.252.262.651-.137.4-.4a9.264,9.264,0,0,0-1.392-1.11c-.7-.493-1.431-.955-2.163-1.407-1.589-.981-3.208-1.915-4.845-2.815-.6-.333-1.211-.664-1.829-.972-.324-.161-.611.326-.285.488" transform="translate(-640.599 -944.418)" fill="#455363"/>
    <path id="Trazado_878169" data-name="Trazado 878169" d="M743.8,854.953a8.969,8.969,0,0,0,5.2.7c.358-.059.206-.6-.15-.545a8.294,8.294,0,0,1-4.766-.642c-.328-.15-.615.336-.285.488" transform="translate(-603.636 -693.559)" fill="#1f262e"/>
    <path id="Trazado_878170" data-name="Trazado 878170" d="M699.847,709.98a1.173,1.173,0,0,0-.422-.376,1.047,1.047,0,0,0-1.025-.736,11.806,11.806,0,0,0-6.084,1.917,6.374,6.374,0,0,0-2.135,1.852,17.333,17.333,0,0,0-1.454,2.9A79.579,79.579,0,0,0,684.69,728.6a1.144,1.144,0,0,0,1.66,1.276,30.5,30.5,0,0,1,5.3-2.078,15.466,15.466,0,0,1,2.831-.484c.793-.057,1.893.219,2.6-.2.914-.542,1.153-2.137,1.425-3.074a53.259,53.259,0,0,0,1.5-7.557c.275-1.989,1.1-4.705-.153-6.5" transform="translate(-555.744 -575.398)" fill="#fc865b"/>
    <path id="Trazado_878171" data-name="Trazado 878171" d="M714.67,556.117a15.582,15.582,0,1,1,15.582-15.582,15.6,15.6,0,0,1-15.582,15.582m0-29.47a13.888,13.888,0,1,0,13.888,13.888,13.9,13.9,0,0,0-13.888-13.888" transform="translate(-567.461 -426.112)" fill="#e6fbf8"/>
    <path id="Trazado_878172" data-name="Trazado 878172" d="M717.875,733.914a3.7,3.7,0,0,0-3.575-2.694c-2.04-.091-4,1.006-5.716,1.991-1.022.588-2.014,1.225-3.006,1.862-.3.2-.022.685.285.488a44.209,44.209,0,0,1,4.993-2.91c1.541-.725,3.429-1.3,5.031-.428a2.735,2.735,0,0,1,1.443,1.842c.07.356.615.205.545-.15" transform="translate(-572.623 -593.538)" fill="#b8472a"/>
    <path id="Trazado_878173" data-name="Trazado 878173" d="M702.229,723.719a5.943,5.943,0,0,0-2.723,2.86,2.783,2.783,0,0,0-.027,1.846,1.5,1.5,0,0,0,1.3,1.062.283.283,0,0,0,0-.565c-.5-.013-.764-.543-.849-.968a2.47,2.47,0,0,1,.235-1.513,5.878,5.878,0,0,1,2.345-2.235c.306-.194.023-.683-.285-.488" transform="translate(-567.66 -587.417)" fill="#b8472a"/>
    <path id="Trazado_878174" data-name="Trazado 878174" d="M696.5,753.323a3.353,3.353,0,0,0-1.937,2.211,2.417,2.417,0,0,0,1.214,2.507c.318.176.6-.311.285-.488a1.844,1.844,0,0,1-.927-2.008,2.926,2.926,0,0,1,1.65-1.736.283.283,0,0,0-.285-.488" transform="translate(-563.764 -611.452)" fill="#b8472a"/>
    <path id="Trazado_878175" data-name="Trazado 878175" d="M702.095,761.068a14.181,14.181,0,0,1,4.44-2.884,5.868,5.868,0,0,1,4.913-.083,3.521,3.521,0,0,1,1.635,1.731.284.284,0,0,0,.386.1.289.289,0,0,0,.1-.386,4.474,4.474,0,0,0-3.809-2.5,9.474,9.474,0,0,0-5.532,1.68,15.39,15.39,0,0,0-2.534,1.945c-.265.25.135.649.4.4" transform="translate(-569.506 -614.488)" fill="#b8472a"/>
    <path id="Trazado_878176" data-name="Trazado 878176" d="M696.174,776.037a3.128,3.128,0,0,0-1.189,2.114,3.627,3.627,0,0,0,1.232,2.3c.256.259.655-.14.4-.4a3.094,3.094,0,0,1-1.067-1.905,2.622,2.622,0,0,1,1.023-1.715.283.283,0,0,0-.4-.4" transform="translate(-564.13 -629.854)" fill="#b8472a"/>
    <path id="Trazado_878177" data-name="Trazado 878177" d="M702.617,786.16a15.819,15.819,0,0,1,3.791-2.113,6.374,6.374,0,0,1,4.169-.451,3.128,3.128,0,0,1,1.659,1.178c.2.3.693.016.488-.285a4.122,4.122,0,0,0-3.539-1.649,10.745,10.745,0,0,0-4.57,1.4,16.116,16.116,0,0,0-2.282,1.434c-.287.215-.006.706.285.488" transform="translate(-569.996 -635.443)" fill="#b8472a"/>
    <path id="Trazado_878178" data-name="Trazado 878178" d="M694.411,798.1a3.061,3.061,0,0,0-1.562,1.626,2.007,2.007,0,0,0,.54,1.976c.265.249.665-.15.4-.4a1.439,1.439,0,0,1-.382-1.47c.187-.594.789-.943,1.289-1.246a.283.283,0,0,0-.285-.488" transform="translate(-562.338 -647.797)" fill="#b8472a"/>
    <path id="Trazado_878179" data-name="Trazado 878179" d="M471.276,647.479a7.034,7.034,0,0,0-2.848,3.345.284.284,0,0,0,.2.347.289.289,0,0,0,.347-.2,6.4,6.4,0,0,1,2.588-3.008.283.283,0,0,0-.285-.488" transform="translate(-380.218 -525.534)" fill="#455363"/>
    <path id="Trazado_878180" data-name="Trazado 878180" d="M495.957,677.024a6.24,6.24,0,0,1-.525,3.4,6.159,6.159,0,0,1-3.669,3.236.289.289,0,0,0-.2.347.285.285,0,0,0,.347.2,6.7,6.7,0,0,0,4.608-7.18.291.291,0,0,0-.282-.282.284.284,0,0,0-.282.282" transform="translate(-399.004 -549.322)" fill="#455363"/>
    <path id="Trazado_878181" data-name="Trazado 878181" d="M400.264,1203.5c.9-1.632,1.927-3.508,3.808-4.143a3.071,3.071,0,0,1,2.6.174,3.226,3.226,0,0,1,1.313,1.863,10.474,10.474,0,0,1,.363,2.793.285.285,0,0,0,.425.244,12.373,12.373,0,0,1,4.486-2.133,4.249,4.249,0,0,1,2.267.159,3.972,3.972,0,0,1,1.744,1.354,8.022,8.022,0,0,1,1.148,2.3c.115.343.661.2.545-.15a6.339,6.339,0,0,0-2.834-3.852,5.739,5.739,0,0,0-4.95.282,18.446,18.446,0,0,0-2.692,1.553l.425.244c-.049-1.722-.207-3.824-1.693-4.961-1.705-1.3-4.046-.44-5.392.953a13.919,13.919,0,0,0-2.047,3.036c-.176.319.312.6.488.285" transform="translate(-324.474 -972.909)" fill="#1f262e"/>
    <path id="Trazado_878182" data-name="Trazado 878182" d="M1660.579,1140.518a11.726,11.726,0,0,1,3.4-3.307,9.7,9.7,0,0,1,2.219-1.084,3.232,3.232,0,0,1,2.445.017,1.784,1.784,0,0,1,1.038,1.918.283.283,0,0,0,.545.15,2.2,2.2,0,0,0-.738-2.163,3.078,3.078,0,0,0-2.517-.677,7.678,7.678,0,0,0-2.658.983,12.3,12.3,0,0,0-4.222,3.877c-.2.3.285.585.488.285" transform="translate(-1347.482 -921.571)" fill="#1f262e"/>
    <path id="Trazado_878183" data-name="Trazado 878183" d="M1172.35,1052.844a10.112,10.112,0,0,0-6.886-1.393,24.631,24.631,0,0,0-10.629,3.718c.377-4.088-.237-8.5-4.562-10.147-3.376-1.282-7.016-.15-10.164,1.729.225-1.041.415-2.09.563-3.145.533-3.812.229-8.662-3.843-10.426s-8.7.721-12.048,2.961a41.505,41.505,0,0,0-9.509,8.974,66.3,66.3,0,0,0-7.7,12.757,1.234,1.234,0,0,0,.311,1.488,2.712,2.712,0,0,0,2.457,1.8c2.3.148,4.65.031,6.954.046l13.909.092c9.243.061,43.213,1.449,43.611-2.232,0-.013-1.1,4.7-1.094,4.7.152-.182,1.373-5.142,1.4-5.426a6.155,6.155,0,0,0-2.771-5.495" transform="translate(-898.928 -838.164)" fill="#d3d7e0"/>
    <path id="Trazado_878184" data-name="Trazado 878184" d="M1291.208,1057.569l-.029,0a.282.282,0,0,1-.252-.31,5.871,5.871,0,0,0-2.654-5.236,10,10,0,0,0-6.694-1.342,24.188,24.188,0,0,0-10.507,3.676.283.283,0,0,1-.432-.265c.491-5.326-.942-8.551-4.381-9.857-2.863-1.087-6.2-.513-9.919,1.708a.282.282,0,0,1-.421-.3c.229-1.06.417-2.111.559-3.124.513-3.672.293-8.409-3.675-10.128a6.978,6.978,0,0,0-2.094-.538.282.282,0,1,1,.056-.562,7.547,7.547,0,0,1,2.263.582c3.35,1.451,4.774,5.26,4.01,10.724-.116.828-.262,1.681-.437,2.544,3.657-2.047,6.972-2.53,9.859-1.433,3.533,1.342,5.142,4.664,4.787,9.879a24.657,24.657,0,0,1,10.275-3.466,10.3,10.3,0,0,1,7.078,1.444,6.433,6.433,0,0,1,2.888,5.754.283.283,0,0,1-.281.254" transform="translate(-1015.014 -837.111)" fill="#1f262e"/>
    <path id="Trazado_878185" data-name="Trazado 878185" d="M1112.342,1128.686a27.72,27.72,0,0,0-3.36,5.9.285.285,0,0,0,.2.348.29.29,0,0,0,.347-.2,27.179,27.179,0,0,1,3.3-5.762c.218-.291-.272-.573-.488-.285" transform="translate(-900.165 -916.074)" fill="#1f262e"/>
    <path id="Trazado_878489" data-name="Trazado 878489" d="M2.054.115a.68.68,0,0,1-.515-.19.749.749,0,0,1-.183-.54V-10.64a.8.8,0,0,1,.179-.56A.605.605,0,0,1,2-11.4a.706.706,0,0,1,.414.1,1.7,1.7,0,0,1,.322.341L9.517-1.966h-.39v-8.709a.733.733,0,0,1,.182-.533.686.686,0,0,1,.515-.187.66.66,0,0,1,.507.187.754.754,0,0,1,.174.533V-.6a.79.79,0,0,1-.162.527A.548.548,0,0,1,9.9.115.762.762,0,0,1,9.477.007,1.561,1.561,0,0,1,9.13-.336L2.362-9.323h.374V-.615a.77.77,0,0,1-.174.54A.654.654,0,0,1,2.054.115ZM18.033.147a5.215,5.215,0,0,1-2.761-.714,4.764,4.764,0,0,1-1.817-2.014,6.852,6.852,0,0,1-.642-3.067,7.377,7.377,0,0,1,.364-2.4,5.158,5.158,0,0,1,1.047-1.818,4.587,4.587,0,0,1,1.646-1.158,5.537,5.537,0,0,1,2.163-.4,5.285,5.285,0,0,1,2.776.705,4.7,4.7,0,0,1,1.813,2,6.83,6.83,0,0,1,.639,3.059,7.39,7.39,0,0,1-.368,2.407,5.271,5.271,0,0,1-1.05,1.833A4.542,4.542,0,0,1,20.2-.258,5.538,5.538,0,0,1,18.033.147Zm0-1.308a3.564,3.564,0,0,0,1.981-.529,3.355,3.355,0,0,0,1.251-1.536A6.093,6.093,0,0,0,21.7-5.648a5.093,5.093,0,0,0-.954-3.3,3.3,3.3,0,0,0-2.712-1.171,3.582,3.582,0,0,0-1.97.524,3.318,3.318,0,0,0-1.256,1.527,6.066,6.066,0,0,0-.435,2.42,5.1,5.1,0,0,0,.962,3.3A3.278,3.278,0,0,0,18.033-1.161ZM26.3.115a.718.718,0,0,1-.55-.2.791.791,0,0,1-.192-.563v-9.869a.75.75,0,0,1,.2-.566.773.773,0,0,1,.558-.192h3.8a4.131,4.131,0,0,1,2.805.858A3.051,3.051,0,0,1,33.905-8a3.275,3.275,0,0,1-.446,1.743A2.843,2.843,0,0,1,32.165-5.14a4.944,4.944,0,0,1-2.047.384l.157-.22h.364a1.91,1.91,0,0,1,1.1.32,2.8,2.8,0,0,1,.843,1.021L34.05-.92a.88.88,0,0,1,.133.492.554.554,0,0,1-.174.392.654.654,0,0,1-.463.151.869.869,0,0,1-.511-.138,1.181,1.181,0,0,1-.346-.411L30.975-3.606a1.945,1.945,0,0,0-.808-.882,2.772,2.772,0,0,0-1.2-.22H27.041V-.653a.812.812,0,0,1-.184.563A.713.713,0,0,1,26.3.115Zm.742-5.976h2.844A2.957,2.957,0,0,0,31.8-6.393a1.932,1.932,0,0,0,.643-1.581A1.913,1.913,0,0,0,31.8-9.539a2.957,2.957,0,0,0-1.918-.531H27.041ZM37.034.115a.652.652,0,0,1-.5-.19A.733.733,0,0,1,36.355-.6V-10.684a.712.712,0,0,1,.184-.528.68.68,0,0,1,.5-.183.814.814,0,0,1,.465.116,1.027,1.027,0,0,1,.309.386L42.1-2.854h-.486l4.273-8.04a1.127,1.127,0,0,1,.308-.386.774.774,0,0,1,.457-.116.647.647,0,0,1,.491.183.736.736,0,0,1,.174.528V-.6a.755.755,0,0,1-.17.521.638.638,0,0,1-.5.19.65.65,0,0,1-.5-.19A.741.741,0,0,1,45.967-.6V-9.223h.365L42.48-2.033a1.023,1.023,0,0,1-.254.315.6.6,0,0,1-.372.1.624.624,0,0,1-.385-.11.976.976,0,0,1-.257-.307l-3.9-7.206h.39V-.6a.754.754,0,0,1-.17.521A.638.638,0,0,1,37.034.115ZM49.9.115a.742.742,0,0,1-.462-.13.507.507,0,0,1-.2-.354.957.957,0,0,1,.092-.5L53.7-10.747a1.156,1.156,0,0,1,.376-.5.854.854,0,0,1,.493-.151.849.849,0,0,1,.49.151,1.115,1.115,0,0,1,.37.5L59.8-.869a.921.921,0,0,1,.1.5.511.511,0,0,1-.187.354.694.694,0,0,1-.441.126.757.757,0,0,1-.519-.167,1.364,1.364,0,0,1-.329-.49L57.286-3.207l.687.39H51.129l.694-.39L50.687-.542a1.393,1.393,0,0,1-.327.5A.678.678,0,0,1,49.9.115Zm4.645-9.709-2.5,5.9-.39-.341h5.79l-.367.341-2.5-5.9ZM65.364.147A8.682,8.682,0,0,1,63.91.026a6.919,6.919,0,0,1-1.331-.359,5.039,5.039,0,0,1-1.117-.592.812.812,0,0,1-.3-.359.7.7,0,0,1-.043-.4.7.7,0,0,1,.172-.343.536.536,0,0,1,.329-.173.6.6,0,0,1,.423.124,5.237,5.237,0,0,0,1.53.713,6.66,6.66,0,0,0,1.789.225,3.411,3.411,0,0,0,2.073-.513A1.609,1.609,0,0,0,68.108-3a1.3,1.3,0,0,0-.483-1.073A3.924,3.924,0,0,0,66-4.693l-1.688-.348a4.4,4.4,0,0,1-2.254-1.05,2.649,2.649,0,0,1-.741-1.966,3.071,3.071,0,0,1,.3-1.375,3.137,3.137,0,0,1,.858-1.065,3.986,3.986,0,0,1,1.32-.689,5.592,5.592,0,0,1,1.689-.241,6.292,6.292,0,0,1,1.87.269,4.921,4.921,0,0,1,1.572.812A.686.686,0,0,1,69.2-10a.709.709,0,0,1,.02.389.624.624,0,0,1-.178.316.544.544,0,0,1-.335.146.709.709,0,0,1-.446-.14,4.431,4.431,0,0,0-1.3-.647,5.153,5.153,0,0,0-1.469-.2,3.674,3.674,0,0,0-1.421.251,2.09,2.09,0,0,0-.926.708A1.805,1.805,0,0,0,62.81-8.1a1.494,1.494,0,0,0,.45,1.143,3.079,3.079,0,0,0,1.5.634l1.678.349a5.176,5.176,0,0,1,2.383,1.026A2.365,2.365,0,0,1,69.6-3.088a2.931,2.931,0,0,1-.3,1.323,2.947,2.947,0,0,1-.847,1.023,3.983,3.983,0,0,1-1.331.659A6.206,6.206,0,0,1,65.364.147Z" transform="translate(145.273 82.113)" fill="#fff"/>
  </g>
</svg>
