<svg xmlns="http://www.w3.org/2000/svg" xmlns:xlink="http://www.w3.org/1999/xlink" width="351.68" height="265.268" viewBox="0 0 351.68 265.268">
  <defs>
    <clipPath id="clip-path">
      <rect id="Rectángulo_403627" data-name="Rectángulo 403627" width="351.68" height="265.268" transform="translate(0 0)" fill="none"/>
    </clipPath>
  </defs>
  <g id="Grupo_1106980" data-name="Grupo 1106980" transform="translate(-320.404 -2801.248)">
    <g id="Grupo_1106979" data-name="Grupo 1106979" transform="translate(320.404 2801.252)">
      <g id="Grupo_1106978" data-name="Grupo 1106978" transform="translate(0 -0.004)" clip-path="url(#clip-path)">
        <path id="Trazado_878308" data-name="Trazado 878308" d="M131.958,753.435c-.025-.034-.051-.066-.076-.1a1.867,1.867,0,0,0-.19-.526c-2.359-4.4-6.171-7.789-10-10.888-3.85-3.116-8.146-5.941-13.2-6.407a8.384,8.384,0,0,0-6.69,2.028,8.2,8.2,0,0,0-2.095,6.106c.136,4.834,2.4,9.614,5.172,13.481,3.247,4.537,7.417,8.225,11.652,11.807a1.655,1.655,0,0,0,.176,1.233,1.864,1.864,0,0,0,2.227.872c.94-.28,1.419-1.174,1.973-1.909l3.394-4.5,3.394-4.5,1.7-2.252c.319-.424.848-1.335,1.29-1.852a1.656,1.656,0,0,0,.662-.223,1.74,1.74,0,0,0,.62-2.364" transform="translate(-79.434 -585.987)" fill="#f7b71b"/>
        <path id="Trazado_878309" data-name="Trazado 878309" d="M117.24,313.058q1.626-9.471,3.455-18.906a1.761,1.761,0,0,0-.08-.99,1.737,1.737,0,0,0-.152-1.145c-4.432-9.118-8.907-18.316-15.012-26.458-5.291-7.056-12.806-15.414-22.5-14.9-4.847.257-9.694,2.737-11.786,7.3-4.105,8.949,1.71,20.563,7.19,27.674,4.888,6.342,29.367,26.642,36.315,30.822,1.744,1.049,3.344-1.349,2.158-2.646a1.353,1.353,0,0,0,.409-.748" transform="translate(-55.6 -199.694)" fill="#f7b71b"/>
        <path id="Trazado_878310" data-name="Trazado 878310" d="M297.551,300.406a1.561,1.561,0,0,0-.461-1.042,49.329,49.329,0,0,0-4.933-8.578c-1.909-2.56-4.877-5.064-8.323-4.252-3.167.746-4.285,4.069-4.343,6.979a26.233,26.233,0,0,0,1.8,9.715,28.858,28.858,0,0,0,5.623,9.167,1.785,1.785,0,0,0,3.2.486l6.362-10.244a1.554,1.554,0,0,0,.352-.148,1.714,1.714,0,0,0,.727-2.081" transform="translate(-222.681 -228.171)" fill="#f7b71b"/>
        <path id="Trazado_878311" data-name="Trazado 878311" d="M179.406,519.7a28.294,28.294,0,0,0-9.144-7.628,50.433,50.433,0,0,0-5.507-2.52,14.876,14.876,0,0,0-6.263-1.378c-4.084.255-7.171,3.36-6.664,7.557s3.935,6.8,7.362,8.767a89.642,89.642,0,0,0,14.145,6.519,1.743,1.743,0,0,0,2.125-1.207,1.624,1.624,0,0,0,2.168-1.131l1.87-7.057a1.83,1.83,0,0,0,.063-.56,1.448,1.448,0,0,0-.156-1.362" transform="translate(-120.926 -404.873)" fill="#f7b71b"/>
        <path id="Trazado_878312" data-name="Trazado 878312" d="M1589.272,680.455c-3.378-3-8.909-2.423-12.907-1.257a31.554,31.554,0,0,0-13.57,8.63,1.637,1.637,0,0,0-.127,2.2q1.074,4.158,2.5,8.211c.4,1.134.859,2.392,2.272,2.463,1.26.064,2.785-.816,3.932-1.271a92.149,92.149,0,0,0,14.808-7.062,10.419,10.419,0,0,0,4.7-5.368,6.136,6.136,0,0,0-1.609-6.548" transform="translate(-1244.767 -540.4)" fill="#f7b71b"/>
        <path id="Trazado_878313" data-name="Trazado 878313" d="M1524.684,419.82c-1.922-3.215-5.42-4.884-9.032-5.327a28.737,28.737,0,0,0-11.331,1.3,47.251,47.251,0,0,0-10.007,4.33c-7.176,4.081-13.424,9.608-19.526,15.116a1.714,1.714,0,0,0-.973,2.036l7.143,17.631a1.759,1.759,0,0,0,2.537,1.033c7.474-4.033,14.951-8.068,22.237-12.433,3.64-2.181,7.231-4.444,10.743-6.827,2.912-1.975,5.827-4.127,7.757-7.13a9.179,9.179,0,0,0,.451-9.728" transform="translate(-1174.193 -330.133)" fill="#f7b71b"/>
        <path id="Trazado_878314" data-name="Trazado 878314" d="M1374.873,168.538a12.3,12.3,0,0,0-6.667-2.215c-13.591-.556-27.4,12.079-35.436,21.745-8.754,10.528-14.924,22.828-20.525,35.24a2.243,2.243,0,0,0-.2.778,1.651,1.651,0,0,0-.4,1.088c-.118,6.038,1.639,12.484,5.578,17.162,3.775,4.483,10.2,5.709,15.8,4.965a13.133,13.133,0,0,0,7.957-3.781,1.8,1.8,0,0,0,.364-.553,1.729,1.729,0,0,0,.508-.4c7.933-9.073,15.869-18.18,22.872-28a142.9,142.9,0,0,0,9.542-15.2c2.886-5.365,5.871-11.127,6.383-17.293.446-5.376-1.7-10.655-5.78-13.532" transform="translate(-1045.054 -132.504)" fill="#f7b71b"/>
        <path id="Trazado_878315" data-name="Trazado 878315" d="M456.934,180.566a30.974,30.974,0,0,0-15.4-.238,65.482,65.482,0,0,0-8.782,3.049,102.463,102.463,0,0,0-13.5,6.816c-.509.342,15.373,3.874,20.867,4.3,4.845.372,9.7-.458,13.432-3.737a20.713,20.713,0,0,0,4.093-5.075,7.523,7.523,0,0,0,1.186-3.134c.1-1.312-.787-1.671-1.9-1.977" transform="translate(-334.034 -142.993)" fill="#ffe3c7"/>
        <path id="Trazado_878316" data-name="Trazado 878316" d="M452.358,193.995a26.354,26.354,0,0,0-4.583-2.774c-1.642-.889-3.317-1.719-5.026-2.471a45.628,45.628,0,0,0-30.5-2c-9.714,2.815-19.259,8.707-26.636,15.465-1.72,1.575-2.591,2.94-2.27,5.289.772,5.646,1.781,11.261,2.556,16.909,1.555,11.344,2.6,22.717,3.676,34.113a12.073,12.073,0,0,0,.854,3.807,19.371,19.371,0,0,0,2.288,3.522l5.546,7.542a.878.878,0,0,0,.661,1.319,156.108,156.108,0,0,0,24.01.572,74.54,74.54,0,0,0,11.562-1.568,5.019,5.019,0,0,0,3.457-2.387,52.787,52.787,0,0,0,2.428-4.939,132.838,132.838,0,0,0,11-41.946c.7-6.875,3.776-28.079.979-30.455" transform="translate(-305.375 -147.416)" fill="#fff"/>
        <path id="Trazado_878317" data-name="Trazado 878317" d="M495.023,12.571c1.2-2.447-.088-5.6-2.378-7.141a9.017,9.017,0,0,0-8.18-.9C484.2,1.648,480.45-.248,477.708.022c-3.532.348-6.06,2.94-7.335,6.077a5.9,5.9,0,0,0-5.6,1.428c-2.287,2.2-2.573,5.39-1.961,8.335-.078.035-.156.073-.231.115a4.957,4.957,0,0,0-2.183,3.815,6.445,6.445,0,0,0,3.872,6.633,6.49,6.49,0,0,0,1.094,5.7,8.525,8.525,0,0,0,6.233,3.113,8.089,8.089,0,0,0,3.99,3.431c2.38.735,5.276-.621,7.224-1.923,4.122-2.754,6.505-7.112,8.337-11.591l.047.008a10.377,10.377,0,0,0,6.046-.719,5.772,5.772,0,0,0,3-4.548c.4-3.583-2.1-6.253-5.218-7.327" transform="translate(-366.792 0.004)" fill="#280d0d"/>
        <path id="Trazado_878318" data-name="Trazado 878318" d="M608.374,183.286c-8.733-5.033-25.272-6.684-30.972-5.6-.688.131-2.193,2.309-1.462,2.764,16.14,10.041,15.66,55.947,13.751,68.318-1.094,7.089-1.96,17.431-3.351,24.467-.1.494-7.823,1.988-7.486,2.2,19.3.179,24.025-10.083,24.131-10.38,5.062-14.212,5.758-32.845,7.583-47.77q.291-2.376.562-4.755c.729-1.419,5.394-17.611,5.386-17.679.467-.321-3.114-8.669-8.142-11.566" transform="translate(-458.726 -141.319)" fill="#01a891"/>
        <path id="Trazado_878319" data-name="Trazado 878319" d="M617.268,228.579q1.745-3.834,3.289-7.755t2.868-7.893q1.33-3.983,2.448-8.033.559-2.024,1.064-4.062.124-.5.245-1c.088-.363.193-.744-.087-1.055a2.35,2.35,0,0,0-.835-.46q-.492-.217-.987-.428a74.207,74.207,0,0,0-7.965-2.864q-.5-.147-1-.286.049.371.1.743,1.857-.968,3.693-1.975.9-.494,1.8-1c.519-.292,1.2-.552,1.4-1.167a.4.4,0,0,0-.1-.4c-1.756-1.718-4.074-2.6-6.2-3.746a16.845,16.845,0,0,1-1.776-1.086.41.41,0,0,0-.556.146.416.416,0,0,0,.146.556c1.954,1.387,4.253,2.165,6.255,3.469a10.1,10.1,0,0,1,1.557,1.235l-.1-.4c-.057.175-.3.275-.451.358q-.429.243-.859.483-.86.481-1.725.954-1.729.945-3.477,1.856a.411.411,0,0,0,.1.743,73.611,73.611,0,0,1,7.76,2.652q.948.384,1.884.8l.437.194c.077.034.155.067.23.106.027.014.054.034.082.046s-.018-.011-.016-.037a6.583,6.583,0,0,1-.224.953q-.486,1.982-1.023,3.95-1.073,3.937-2.348,7.815-1.28,3.9-2.759,7.721-1.467,3.794-3.129,7.508-.211.47-.424.939a.418.418,0,0,0,.146.556.409.409,0,0,0,.556-.146" transform="translate(-489.685 -148.244)" fill="#280d0d"/>
        <path id="Trazado_878320" data-name="Trazado 878320" d="M514.506,154.884a1.055,1.055,0,0,0-.174-.609,12.924,12.924,0,0,0-7.023-5.452c-2.709-.867-6.427-1.062-8.559,1.149-.012.013-.022.026-.034.039a1.094,1.094,0,0,0-.583.662q-1.754,5.106-3.925,10.052c-.311.706,3.864,5.983,6.426,7.013,3.23,1.3,11.484-.062,11.654-.881l2.322-11.2a1.108,1.108,0,0,0-.1-.772" transform="translate(-393.749 -118.09)" fill="#ad522f"/>
        <path id="Trazado_878321" data-name="Trazado 878321" d="M510.234,194.369a1.021,1.021,0,0,0-1.493-.607c-5.251,3.564-16.723,1.589-16.933-6.122a1.072,1.072,0,0,0-.065-.348.519.519,0,0,0-.872-.159c-.683.764-2.054,2.337-2.156,2.436a11.712,11.712,0,0,0,.742,7.016,10.678,10.678,0,0,0,6.964,5.445c3.118.663,6.375-.211,9.265-1.386,2.667-1.084,5-3.148,4.548-6.275" transform="translate(-389.202 -148.959)" fill="#fff"/>
        <path id="Trazado_878322" data-name="Trazado 878322" d="M628.765,276.284a2.846,2.846,0,0,0-2.486-1.873c-2.2-.266-4.422,1.308-6.163,2.467a43.064,43.064,0,0,0-9.9,9.36,33.44,33.44,0,0,0-4.346,6.436c-1.187,2.607-.382,4.8,1.242,6.969a1.353,1.353,0,0,0,2.14-.014,17.944,17.944,0,0,0,4.752-3.609q2.587-2.43,4.961-5.074a85.788,85.788,0,0,0,8.744-11.557c.573-.908,1.372-1.961,1.052-3.105" transform="translate(-482.28 -218.613)" fill="#ffe3c7"/>
        <path id="Trazado_878323" data-name="Trazado 878323" d="M329.917,211.942a54.712,54.712,0,0,0-7.176-15.607.413.413,0,0,0-.5-.153c-.684.277-2.287.928-2.669,1.092-7.046,3.037-15.833,7.495-20.655,11.469a53.013,53.013,0,0,0-8.461,8.695c-4.408,5.773-9.7,22.156-11.451,27.291-.24.7,8.334,12.529,12.923,17.584-.495,5.649-1.444,14.523-1.939,20.173a4.176,4.176,0,0,0,.132,2.5,5.223,5.223,0,0,0,2.258,1.484,49.633,49.633,0,0,0,29.4,4.7.8.8,0,0,0,.67-.477c.257-.1.309-.951.546-.67,4.308,5.109,8.843-47.537,9.185-53.849a73.974,73.974,0,0,0-2.263-24.231" transform="translate(-222.294 -156.283)" fill="#01a891"/>
        <path id="Trazado_878324" data-name="Trazado 878324" d="M738.548,255.275c-3.947-11.587-19.934-45.843-33.844-53.009-.96-.429-.638.463-1.2,1.35-2.2,3.456-4.256,7.061-4.936,11.076-.957,5.655.933,11.362,2.8,16.786L713.6,267.09c1.808,5.263,3.7,10.666,7.328,14.882a13.07,13.07,0,0,0,6.346,4.342c3.837,1.011,8.075-.652,10.725-3.605a17.081,17.081,0,0,0,3.957-10.967,38.37,38.37,0,0,0-1.9-11.7q-.7-2.4-1.509-4.765" transform="translate(-556.379 -161.066)" fill="#01a891"/>
        <path id="Trazado_878325" data-name="Trazado 878325" d="M452.5,205.551c-1.367,1.7-2.761,3.39-4.1,5.115a.758.758,0,0,0-.187.693.662.662,0,0,0,.54.433c.53.111,1.069.189,1.6.273q1.622.255,3.256.433,1.579.171,3.164.268.387.023.773.042l.387.018.232.01a.951.951,0,0,0,.138,0c.1.014.05.007.134.054-.067-.037.04.057-.007-.007a.418.418,0,0,1,.041.066c-.037-.082.034.151.017.055,0,.009,0,.135,0,.047,0,.017-.042.115-.011.052,0,0-.065.093-.037.06s-.057.045-.014.013a3.143,3.143,0,0,1-.31.181l-.744.429-1.421.819-2.774,1.6-1.421.819-.677.39a2.785,2.785,0,0,0-.7.443.649.649,0,0,0-.1.722,2.661,2.661,0,0,0,.468.533q.451.474.891.96,1.832,2.02,3.473,4.2a65.021,65.021,0,0,1,5.976,9.563,52.407,52.407,0,0,1,4,10.237q.168.629.316,1.262c.12.509.9.293.784-.216a50.2,50.2,0,0,0-3.216-9.249,63.567,63.567,0,0,0-4.892-8.8,62.914,62.914,0,0,0-6.1-7.831q-.388-.422-.784-.836c-.014-.014-.222-.224-.219-.228l.021.084a.113.113,0,0,1-.05.173s.119-.068.135-.078l.677-.39,2.5-1.443,2.5-1.443,1.286-.741a3.258,3.258,0,0,0,1.059-.716,1.015,1.015,0,0,0-.552-1.555,3.091,3.091,0,0,0-.63-.049q-.387-.016-.774-.038-.715-.039-1.43-.094-2.862-.219-5.7-.687-.325-.054-.649-.111l-.343-.061a.742.742,0,0,0-.123-.023l-.047-.012q.1.079.028,0l.1.179c.022.055-.059.085.027,0,.035-.036.063-.079.095-.118l.27-.336.515-.642,1.054-1.314,2.108-2.629a.419.419,0,0,0,0-.575.409.409,0,0,0-.575,0" transform="translate(-357.089 -163.678)" fill="#280d0d"/>
        <path id="Trazado_878326" data-name="Trazado 878326" d="M535.664,161.95a5.507,5.507,0,0,0-1.233-2c-4.276-5.961-9.342-11.744-12.057-18.65-1.074-2.732-.784-14.2-.776-15.8a.971.971,0,0,0-.559-.882c-4.611-2.163-6.1,4.141-6.817,10.447-.186,1.628,0,3.6-1.14,4.919-1.287,1.486-3.685,1.275-5.461,1.369q-3.412.182-6.816.506-3.34.319-6.665.773c-1.673.227-3.783.27-5.1,1.493a2.528,2.528,0,0,0,.132,3.859c1.476,1.239,3.674.831,5.44.751.907-.041,1.814-.087,2.721-.133.54,1.131.889,3.312,1.792,4.277a5.016,5.016,0,0,0,.522.474,4.375,4.375,0,0,0,2.5,5.207,6.18,6.18,0,0,0,.728.335,6.49,6.49,0,0,0,.706,2.508,5.348,5.348,0,0,0,3.219,2.413,20.586,20.586,0,0,0,4.6.665c1.381.1,2.764.136,4.147.119,2.166,2.108,6.449,8.639,7.419,8.133.1-.053.2-.111.306-.165a1.162,1.162,0,0,0,.683-.369,87.517,87.517,0,0,0,10.919-8.469,2.069,2.069,0,0,0,.792-1.777" transform="translate(-388.979 -98.94)" fill="#ad522f"/>
        <path id="Trazado_878327" data-name="Trazado 878327" d="M274.763,303.511c-.512-7.184-16.731-26.2-17.96-25.26-10.169,7.767-15.483,30.658-17.7,39.629-3.265,13.227-6.118,27.584-7.123,41.2-.258,3.494-.583,7.792,1.337,10.9,1.839,2.971,5.456,4.424,8.7,5.225a28.348,28.348,0,0,0,10.837.382c3.469-.5,7.163-1.4,9.893-3.725,2.5-2.122,3.722-5.316,4.62-8.376,1.127-3.842,8.806-40.152,7.394-59.973" transform="translate(-184.676 -221.669)" fill="#01a891"/>
        <path id="Trazado_878328" data-name="Trazado 878328" d="M522.973,56.031c-.779-4.732-3.5-9.31-8.271-10.844a13.279,13.279,0,0,0-14.187,4.228c-3.4,4.38-1.872,16.16,1.927,21.709,2.559,3.738,5.84,7.089,10.6,7.453,2.971.227,7.052.009,9.067-2.315,1.281-1.477,1.422-4.667,1.518-6.619a62.98,62.98,0,0,0-.655-13.612" transform="translate(-397.282 -35.525)" fill="#ad522f"/>
        <path id="Trazado_878329" data-name="Trazado 878329" d="M508.845,34.04a15.717,15.717,0,0,0-2.572-4.455c-.13-.15-.263-.3-.4-.434A10.522,10.522,0,0,0,499.27,26a.253.253,0,0,1-.147-.064,10.856,10.856,0,0,0-1.532-1.148,1.037,1.037,0,0,0-1.526.477.258.258,0,0,1-.3.14C490,23.759,484.077,27.076,481.15,32.23a19.21,19.21,0,0,0-2.529,9.625c.052,3.105,1.109,6.549,3.74,8.43,1.445,1.033,3.239,1.084,3.91-.809a10.722,10.722,0,0,0,.423-4.589.259.259,0,0,1,.226-.284,9.073,9.073,0,0,0,5.961-2.887,6.917,6.917,0,0,0,1.207-2.141.258.258,0,0,1,.215-.173,9.586,9.586,0,0,0,5.761-2.479.258.258,0,0,1,.4.057,6.433,6.433,0,0,0,1.451,1.761,4.255,4.255,0,0,0,4.654.708l.7.32a1.14,1.14,0,0,0,2.207.124,8.67,8.67,0,0,0-.638-5.85" transform="translate(-381.34 -19.613)" fill="#280d0d"/>
        <path id="Trazado_878330" data-name="Trazado 878330" d="M505.205,137.635a5.961,5.961,0,0,0-1.365-2.613c-.746-.752-1.981-1.016-2.564.025-.694,1.24.415,2.965.993,4.119a4.1,4.1,0,0,0,1.562,1.887,1.27,1.27,0,0,0,1.727-.806,4.656,4.656,0,0,0-.233-2.157c-.037-.15-.076-.3-.12-.456" transform="translate(-399.216 -107.05)" fill="#ad522f"/>
        <path id="Trazado_878331" data-name="Trazado 878331" d="M553.833,139.237a1.112,1.112,0,0,0-1.553.6,2.307,2.307,0,0,0,.2,2.142,1.045,1.045,0,0,0,.55.49.892.892,0,0,0,.72-.124,2.147,2.147,0,0,0,.727-2.31,1.306,1.306,0,0,0-.641-.8" transform="translate(-439.886 -110.836)" fill="#170501"/>
        <path id="Trazado_878332" data-name="Trazado 878332" d="M599.742,134.044a.959.959,0,0,0-1.491.374,2.671,2.671,0,0,0-.165,2.216,1.027,1.027,0,0,0,.415.586.728.728,0,0,0,.667-.014,2.37,2.37,0,0,0,1.021-2.244,1.358,1.358,0,0,0-.447-.918" transform="translate(-476.397 -106.623)" fill="#170501"/>
        <path id="Trazado_878333" data-name="Trazado 878333" d="M588.321,122.453a2.943,2.943,0,0,0-1.383,2.8c.06.652.185,1.3.284,1.948l.144.944a5.177,5.177,0,0,1,.09.851,1.354,1.354,0,0,1-.046.4,1.858,1.858,0,0,1-.066.2c.006-.016.03-.063,0,.01-.017.035-.034.07-.052.1a1.875,1.875,0,0,1-.113.181c-.01.014-.062.079-.018.026-.025.03-.05.059-.076.088a1.23,1.23,0,0,1-.275.234.407.407,0,1,0,.41.7,2.291,2.291,0,0,0,.979-1.332,4.756,4.756,0,0,0-.078-1.91q-.145-.956-.291-1.912a5.5,5.5,0,0,1-.089-.852c0-.064,0-.128.006-.192,0-.032.006-.064.008-.1,0-.072-.018.094,0-.025a2.67,2.67,0,0,1,.092-.371c.008-.024.016-.048.025-.072,0,0,.048-.118.016-.045.028-.064.059-.127.093-.189s.069-.122.108-.181l.043-.064c.008-.012.07-.095.028-.041a2.4,2.4,0,0,1,.288-.306l.058-.05c.012-.01.093-.072.038-.031.062-.045.126-.087.191-.127a.407.407,0,0,0-.41-.7" transform="translate(-467.376 -97.52)" fill="#692915"/>
        <path id="Trazado_878334" data-name="Trazado 878334" d="M576.207,159.874l.04-.032-.082.064a2.411,2.411,0,0,1,.527-.306l-.1.041a2.451,2.451,0,0,1,.421-.132.407.407,0,0,0-.216-.784,2.761,2.761,0,0,0-1.166.574.406.406,0,0,0-.119.288.407.407,0,0,0,.407.406l.108-.015a.407.407,0,0,0,.179-.1" transform="translate(-458.541 -126.455)" fill="#692915"/>
        <path id="Trazado_878335" data-name="Trazado 878335" d="M536.387,150.072c-.062,1.664-.116,3.329-.19,4.993-.016.37-.032.739-.062,1.108a8.04,8.04,0,0,1-.136,1.036,5.618,5.618,0,0,1-.31,1.057c.025-.061-.032.073-.029.066-.019.041-.037.081-.057.121-.031.064-.064.127-.1.19q-.094.175-.2.345a7.261,7.261,0,0,1-.414.613c-.012.016-.074.094-.007.01l-.054.068c-.036.045-.072.089-.109.133q-.119.141-.245.275a6.691,6.691,0,0,1-.5.482c-.083.072-.169.141-.255.209.094-.074-.047.034-.07.052l-.155.111a7.033,7.033,0,0,1-1.184.658.74.74,0,0,1-.075.032c.107-.033.02-.009,0,0l-.152.06c-.11.042-.222.082-.334.119q-.326.108-.659.189t-.68.137l-.166.025c-.028,0-.112.03,0,0a.634.634,0,0,1-.083.011c-.121.015-.243.027-.365.038a11.056,11.056,0,0,1-1.431.027q-.364-.016-.726-.054c-.117-.012-.233-.026-.35-.041-.1-.013.093.014-.008,0l-.087-.013-.2-.032a14.351,14.351,0,0,1-1.452-.315q-.722-.2-1.421-.462-.167-.063-.333-.131l-.165-.068c.1.042.005,0-.013-.005l-.109-.047q-.339-.148-.671-.313-.653-.324-1.272-.711-.3-.189-.595-.394-.138-.1-.274-.2l-.134-.1c-.017-.013-.093-.073-.006,0l-.087-.068a12.254,12.254,0,0,1-2.047-2.1l-.03-.038-.07-.092-.141-.187q-.155-.208-.307-.419-.3-.416-.578-.844a19.577,19.577,0,0,1-1.005-1.7c-.127-.245-.247-.493-.355-.747a.408.408,0,0,0-.556-.146.42.42,0,0,0-.146.556,17.9,17.9,0,0,0,2.008,3.387,14.781,14.781,0,0,0,2.188,2.513,13.723,13.723,0,0,0,2.411,1.682,15.912,15.912,0,0,0,2.846,1.224,14.665,14.665,0,0,0,3.037.628,11.3,11.3,0,0,0,2.986-.1,8.256,8.256,0,0,0,2.7-.941,7.266,7.266,0,0,0,2.207-1.956,6.868,6.868,0,0,0,.859-1.488,7.509,7.509,0,0,0,.485-2.261c.067-.78.088-1.566.122-2.349.036-.859.064-1.718.093-2.577q.021-.632.045-1.263a.41.41,0,0,0-.407-.406.415.415,0,0,0-.406.406" transform="translate(-410.464 -119.245)" fill="#692915"/>
        <path id="Trazado_878336" data-name="Trazado 878336" d="M505.98,141.788a1.836,1.836,0,0,1,.209.047c.031.009.062.019.092.03,0,0,.117.049.046.017a2.116,2.116,0,0,1,.353.205c.018.013.07.055.027.02.03.025.061.05.09.076.049.044.1.089.143.137s.1.106.147.162l.063.076c-.044-.056.031.042.032.044a12.842,12.842,0,0,1,.917,1.732.409.409,0,0,0,.556.146.416.416,0,0,0,.146-.556,11.426,11.426,0,0,0-.988-1.827A2.682,2.682,0,0,0,506.2,141a.416.416,0,0,0-.5.284.412.412,0,0,0,.284.5" transform="translate(-402.906 -112.338)" fill="#692915"/>
        <path id="Trazado_878337" data-name="Trazado 878337" d="M579.681,172.376a1.591,1.591,0,0,0-1.229.1c-1.4.567-1.639.953-1.309,1.085a3.371,3.371,0,0,0,1.474.175,1.608,1.608,0,0,0,1.218-.451.581.581,0,0,0-.154-.908" transform="translate(-459.735 -137.269)" fill="#fff"/>
        <path id="Trazado_878338" data-name="Trazado 878338" d="M596.739,115.267a2.565,2.565,0,0,0-2.512-.447,4.317,4.317,0,0,0-1.455.7c-.33.252-1.1.886-.935,1.406a.86.86,0,0,0,.248.561c.427.419.973.216,1.417-.039a2.428,2.428,0,0,1,1.131-.326,10.927,10.927,0,0,1,1.314.2,1.117,1.117,0,0,0,1.174-.723,1.331,1.331,0,0,0-.381-1.339" transform="translate(-471.528 -91.375)" fill="#280d0d"/>
        <path id="Trazado_878339" data-name="Trazado 878339" d="M540.925,124.242a1.348,1.348,0,0,0,1.565.252,13.919,13.919,0,0,1,1.366-.724,3.087,3.087,0,0,1,1.367-.126c.584.077,1.261.062,1.572-.525.409-.772-.3-1.523-1.016-1.744-1.525-.47-4.133-.14-4.943,1.385a1.319,1.319,0,0,0,.09,1.484" transform="translate(-430.765 -96.547)" fill="#280d0d"/>
        <path id="Trazado_878340" data-name="Trazado 878340" d="M516.417,208.865a59.437,59.437,0,0,0-8.269.759q-1.153.187-2.3.421a.409.409,0,0,0-.284.5.417.417,0,0,0,.5.284,57.473,57.473,0,0,1,8.042-1.057q1.154-.07,2.309-.094a.406.406,0,1,0,0-.813" transform="translate(-402.798 -166.412)" fill="#692915"/>
        <path id="Trazado_878341" data-name="Trazado 878341" d="M533.262,241.2l5.446-.342,1.677-.105a.406.406,0,1,0,0-.813l-5.446.342-1.677.105a.406.406,0,0,0,0,.813" transform="translate(-424.554 -191.167)" fill="#692915"/>
        <path id="Trazado_878342" data-name="Trazado 878342" d="M545.585,268.143a18.68,18.68,0,0,0,4.741-.064.408.408,0,0,0,.284-.5.42.42,0,0,0-.5-.284,17.979,17.979,0,0,1-2.231.159,18.287,18.287,0,0,1-2.293-.124.407.407,0,0,0-.406.406.418.418,0,0,0,.406.406" transform="translate(-434.372 -212.962)" fill="#692915"/>
        <path id="Trazado_878343" data-name="Trazado 878343" d="M561.527,293.2a21.13,21.13,0,0,0,3.6-.124.417.417,0,0,0,.406-.406c-.009-.2-.18-.434-.406-.406a21.133,21.133,0,0,1-3.6.124.409.409,0,0,0-.406.406.416.416,0,0,0,.406.406" transform="translate(-447.074 -232.861)" fill="#692915"/>
        <path id="Trazado_878344" data-name="Trazado 878344" d="M584.311,40.453a5.418,5.418,0,0,1,.605.612l.064.077s.082.1.035.044c.041.053.08.107.118.162q.127.18.239.37.1.173.192.352.045.09.086.181c.014.03.028.061.041.092s.011.025,0,0l.03.074a5.535,5.535,0,0,1,.249.8c.029.13.053.262.074.394s-.007-.079.007.051c0,.033.008.066.011.1.007.073.013.146.017.22a5.223,5.223,0,0,1-.026.894c0,.027-.006.054-.01.081.011-.083-.008.05-.009.053q-.016.1-.036.2-.044.22-.106.436c-.037.131-.08.26-.126.388-.024.064-.048.127-.074.19-.05.123.033-.068-.023.053-.017.037-.034.075-.051.112a5.515,5.515,0,0,1-.493.845l-.048.066-.049.065-.011.014c-.051.064-.1.127-.156.188-.107.123-.22.241-.338.354a.41.41,0,0,0,0,.575.415.415,0,0,0,.575,0,5.835,5.835,0,0,0,1.1-6.98,5.772,5.772,0,0,0-1.308-1.639.406.406,0,1,0-.575.575" transform="translate(-465.458 -31.679)" fill="#692915"/>
        <path id="Trazado_878345" data-name="Trazado 878345" d="M620.986,69.074a2.028,2.028,0,0,1,.207.2c.01.011.047.061,0,0l.042.059c.027.04.052.08.076.122s.046.085.067.128l.03.066c-.03-.068,0-.01,0,0,.035.1.068.2.093.3s.04.183.056.275,0,.021,0,0c0,.025.006.05.009.075.006.056.011.113.015.17a5.7,5.7,0,0,1,0,.639,4.437,4.437,0,0,1-.23,1.321,2.538,2.538,0,0,1-.267.567c-.027.043-.055.086-.084.128l-.045.062c.01-.014.044-.053-.007.009a2.734,2.734,0,0,1-.22.24q-.062.06-.128.115l-.059.048c.045-.035,0,0-.025.016a2.259,2.259,0,0,1-.292.175l-.068.032c-.062.029.087-.031-.024.01-.053.019-.106.038-.16.053s-.109.029-.165.039l-.074.013c.073-.01-.019,0-.043,0a.406.406,0,1,0,0,.813A2.814,2.814,0,0,0,622.01,73a5.134,5.134,0,0,0,.378-1.637,5.391,5.391,0,0,0-.067-1.476,2.42,2.42,0,0,0-.76-1.389.406.406,0,0,0-.575.575" transform="translate(-493.423 -54.484)" fill="#692915"/>
        <path id="Trazado_878346" data-name="Trazado 878346" d="M546.549,60.468l.012.01.062.05q.062.051.122.1.135.118.262.245a5.4,5.4,0,0,1,.414.468,5.891,5.891,0,0,1,.356.538q.08.138.151.281.036.071.069.144l.033.073c.009.021.036.083.014.031a5.128,5.128,0,0,1,.217.641q.042.158.074.318c.011.057.022.114.031.172,0,.029.009.057.013.086-.008-.055,0,.025.005.043a5.159,5.159,0,0,1,.032.718q0,.174-.02.348a2.834,2.834,0,0,1-.042.324,5.283,5.283,0,0,1-.2.8q-.032.093-.067.185l-.032.081c-.011.026-.011.027,0,0l-.017.04c-.059.133-.123.263-.192.391a.407.407,0,0,0,.7.41,5.667,5.667,0,0,0-.368-5.97,5.9,5.9,0,0,0-1.215-1.238.407.407,0,0,0-.556.146.419.419,0,0,0,.146.556" transform="translate(-435.306 -47.57)" fill="#692915"/>
        <path id="Trazado_878347" data-name="Trazado 878347" d="M484.121,104.707a6.348,6.348,0,0,0,.47,1.649,3.4,3.4,0,0,0,1.042,1.277,4.536,4.536,0,0,0,3.143.8,8.853,8.853,0,0,0,2.076-.468.407.407,0,1,0-.216-.784c-.274.094-.551.18-.831.252q-.21.054-.423.1l-.189.035-.095.016-.082.013a5.37,5.37,0,0,1-.861.047c-.132,0-.263-.012-.394-.026-.018,0-.1-.013-.029,0l-.078-.012q-.1-.016-.194-.036a4.26,4.26,0,0,1-.68-.2c-.01,0-.071-.031-.012,0l-.072-.032q-.071-.033-.141-.069a3.51,3.51,0,0,1-.32-.188,2.567,2.567,0,0,1-.865-.968c-.033-.063-.063-.127-.093-.192s.018.045-.01-.021c-.016-.039-.032-.079-.047-.12-.05-.135-.094-.271-.132-.41a8.338,8.338,0,0,1-.183-.866.408.408,0,0,0-.5-.284.418.418,0,0,0-.284.5" transform="translate(-385.718 -83.014)" fill="#692915"/>
        <path id="Trazado_878348" data-name="Trazado 878348" d="M375.243,321.152a34.987,34.987,0,0,1,4.417,5.424,33.637,33.637,0,0,1,3.355,6.717,51.538,51.538,0,0,1,2.327,8.882,100.818,100.818,0,0,1,1.287,11.675c.3,5.155.356,10.323.3,15.486q-.012,1.106-.032,2.212a.407.407,0,0,0,.813,0c.092-5.358.079-10.721-.181-16.074a112.132,112.132,0,0,0-1.2-12.287,55.244,55.244,0,0,0-2.219-9.226,33.739,33.739,0,0,0-7.686-12.749q-.3-.32-.61-.634c-.367-.374-.942.2-.575.575" transform="translate(-298.882 -255.323)" fill="#280d0d"/>
        <path id="Trazado_878349" data-name="Trazado 878349" d="M737.811,291.259q-.352,3.945-.943,7.863t-1.421,7.79q-.828,3.872-1.888,7.69-1.064,3.833-2.359,7.6-1.289,3.744-2.8,7.406-.184.445-.371.888a.42.42,0,0,0,.146.556.409.409,0,0,0,.556-.146q1.562-3.7,2.9-7.48,1.331-3.769,2.431-7.613t1.964-7.747q.864-3.9,1.49-7.852.628-3.965,1.015-7.963.048-.495.092-.99a.41.41,0,0,0-.406-.406.415.415,0,0,0-.406.406" transform="translate(-580.019 -231.737)" fill="#280d0d"/>
        <path id="Trazado_878350" data-name="Trazado 878350" d="M594.138,610.671a67.237,67.237,0,0,0-.829-9.574c-.438-2.782-.793-6.395-3.947-7.365a1.337,1.337,0,0,0-.827-.007,1.276,1.276,0,0,0-1.616.975,65.5,65.5,0,0,0-.789,26.625,20.718,20.718,0,0,0,2.713,7.719,1.435,1.435,0,0,0,2.234.288,9.258,9.258,0,0,0,1.629-4.141c.331-1.569.6-3.149.816-4.738a66.125,66.125,0,0,0,.616-9.783" transform="translate(-466.203 -473.002)" fill="#ffe3c7"/>
        <path id="Trazado_878351" data-name="Trazado 878351" d="M663.431,308.731c-3.28-5.324-31.345-30.156-32.73-31.244a1.04,1.04,0,0,0-1.507.423c-9.3,14.483-19.4,18.913-19.414,20.466-.052,4.964,6.2,11.667,8.866,15.517a109.99,109.99,0,0,0,31.823,30.738c5.111,3.162,10.54,2.4,14.624-2.13,9.928-11.015,5.063-22.854-1.662-33.77" transform="translate(-485.843 -220.939)" fill="#01a891"/>
        <path id="Trazado_878352" data-name="Trazado 878352" d="M617.411,562.275c-.529-.22-1.064-.423-1.6-.616a7.747,7.747,0,0,0,2.243-.539c1.817-.763,2.734-2.791,1.217-4.361-1.4-1.45-3.8-1.543-5.658-1.849q-3.434-.567-6.9-.941a47.153,47.153,0,0,0-6.943-.437,16.592,16.592,0,0,0-6.265,1.593,95.082,95.082,0,0,0-13.34,7.8,1.45,1.45,0,0,0-.506.565,80.06,80.06,0,0,1-11.883.711,1.354,1.354,0,0,0-1.356,1.643,48.014,48.014,0,0,0-2.135,10.6c-.163,1.883,2.351,8.079,2.682,7.226,6.029-.106,13.463,1.842,19.488,1.382,9.127-.7,12.381-3.835,14.115-6.209.5-.69,2.781-1.286,3.635-1.317,2.457-.09,4.915-.11,7.39-.152,1.618-.028,3.783-.3,4.459-2.031a2.641,2.641,0,0,0-.437-2.694c1.5-.286,2.921-.911,3.259-2.6a3.5,3.5,0,0,1,.982-4.984c.08-1.558-1.21-2.27-2.449-2.785" transform="translate(-449.59 -441.012)" fill="#ad522f"/>
        <path id="Trazado_878353" data-name="Trazado 878353" d="M607.357,357.483a1.676,1.676,0,0,0,1.614.413,5.345,5.345,0,0,0,1.573-.662,13.619,13.619,0,0,0,2.919-2.2,13.906,13.906,0,0,0,1.362-1.576.408.408,0,0,0-.146-.556.418.418,0,0,0-.556.146c-.1.134-.122.163-.22.285s-.177.218-.269.325q-.274.32-.568.623a13.269,13.269,0,0,1-1.25,1.13c-.107.085-.155.122-.286.218q-.169.125-.343.245-.347.24-.708.457t-.736.41c-.112.057-.224.115-.338.167l-.083.036c.068-.029.009,0,0,0-.069.025-.138.052-.208.075a3.314,3.314,0,0,1-.391.1c-.078.015-.015,0,0,0q-.062.008-.123.012a1.7,1.7,0,0,1-.19,0c-.028,0-.056-.006-.084-.007l.025,0-.065-.013a1.142,1.142,0,0,1-.156-.048c.093.035,0-.005-.02-.014s-.055-.036-.083-.052c.062.036.021.019,0,0-.033-.032-.066-.063-.1-.1a.409.409,0,0,0-.575,0,.416.416,0,0,0,0,.575" transform="translate(-483.821 -281.133)" fill="#280d0d"/>
        <path id="Trazado_878354" data-name="Trazado 878354" d="M621.669,333.614a11.192,11.192,0,0,0-1.7,1.965.409.409,0,0,0,.146.556.416.416,0,0,0,.556-.146q.172-.251.357-.493c-.051.066,0,0,.009-.011l.042-.053.1-.118q.1-.124.208-.245a10.764,10.764,0,0,1,.864-.88.409.409,0,0,0,0-.575.415.415,0,0,0-.575,0" transform="translate(-493.914 -265.715)" fill="#280d0d"/>
        <path id="Trazado_878355" data-name="Trazado 878355" d="M701.36,275.092a1.706,1.706,0,0,1,1.252-.262,1.939,1.939,0,0,1,.623.182c.046.028.089.061.133.092l.091.069c.076.057-.039-.03-.024-.019l.06.047c.489.383.963.786,1.437,1.187q1.154.977,2.292,1.973,1.491,1.3,2.967,2.615,1.728,1.538,3.44,3.094,1.861,1.691,3.7,3.4,1.906,1.77,3.788,3.566,1.862,1.778,3.694,3.588,1.709,1.693,3.378,3.427c.984,1.027,1.954,2.068,2.895,3.135q.3.346.6.7a.41.41,0,0,0,.575,0,.415.415,0,0,0,0-.575c-.9-1.045-1.825-2.061-2.769-3.062q-1.633-1.731-3.32-3.41-1.817-1.817-3.672-3.6-1.9-1.826-3.825-3.622-1.872-1.748-3.765-3.474-1.76-1.605-3.536-3.192-1.539-1.376-3.092-2.736-1.215-1.063-2.442-2.113c-.533-.454-1.067-.907-1.613-1.345-.166-.134-.333-.268-.507-.391a2.54,2.54,0,0,0-1.395-.37,2.425,2.425,0,0,0-1.549.519.409.409,0,0,0,0,.575.417.417,0,0,0,.575,0" transform="translate(-558.258 -218.308)" fill="#280d0d"/>
        <path id="Trazado_878356" data-name="Trazado 878356" d="M651.448,455.948c.949,1.411,1.908,2.817,2.89,4.206q1.222,1.729,2.505,3.414,1.223,1.6,2.514,3.135c.894,1.064,1.812,2.108,2.743,3.14,1.109,1.23,2.236,2.445,3.367,3.655l.476.509a.41.41,0,0,0,.575,0,.415.415,0,0,0,0-.575c-1.159-1.237-2.314-2.478-3.454-3.733-.95-1.046-1.888-2.1-2.8-3.18q-1.267-1.492-2.469-3.039l-.081-.1-.027-.035-.161-.21-.3-.4q-.307-.406-.61-.815-.637-.859-1.257-1.732c-.958-1.344-1.891-2.7-2.815-4.071l-.39-.578a.407.407,0,0,0-.7.41" transform="translate(-518.997 -362.788)" fill="#280d0d"/>
        <path id="Trazado_878357" data-name="Trazado 878357" d="M308.376,602c0-.036-.01-.072-.018-.109-2.341-10.773-4.325-22.085-1.473-32.962a.993.993,0,0,0-.009-.57c.414-.544,1.618-1.21-.485-1.534-8.183-1.263-32.862-4.644-36.994-5.229a100.755,100.755,0,0,0-11.673-1.228c-3.823-.091-23.442,9.389-25.73,16-1.153,3.33-1.3,10.628-.924,14.15a10.518,10.518,0,0,0,5.412,8.214c6.406,3.313,14.051,4.228,21.141,4.776,7.775.6,41.317,1.145,50.2-.067.794-.108.89-.891.549-1.437" transform="translate(-183.96 -446.469)" fill="#01a891"/>
        <path id="Trazado_878358" data-name="Trazado 878358" d="M383.222,568.556q-6.057-.822-12.148-1.352-6.035-.522-12.091-.75-3.394-.128-6.79-.163a.407.407,0,0,0,0,.813q6.057.063,12.107.419,6.017.355,12.011,1,3.353.362,6.695.814a.421.421,0,0,0,.5-.284.409.409,0,0,0-.284-.5" transform="translate(-280.297 -451.193)" fill="#280d0d"/>
        <path id="Trazado_878359" data-name="Trazado 878359" d="M607.063,593.647a3.721,3.721,0,0,1,.638.587l-.063-.082a2.613,2.613,0,0,1,.308.539.407.407,0,0,0,.243.187.415.415,0,0,0,.313-.041.411.411,0,0,0,.187-.243l.014-.108a.4.4,0,0,0-.056-.205,2.714,2.714,0,0,0-.461-.728,4.51,4.51,0,0,0-.548-.48.44.44,0,0,0-.287-.119.414.414,0,0,0-.287.119.409.409,0,0,0-.119.287.393.393,0,0,0,.119.287" transform="translate(-483.584 -472.436)" fill="#280d0d"/>
        <path id="Trazado_878360" data-name="Trazado 878360" d="M599.7,704.8q.269,2.43.675,4.843c.261,1.547.55,3.1.916,4.623a3.939,3.939,0,0,0,1,2.015.407.407,0,1,0,.575-.575,2.3,2.3,0,0,1-.165-.171s-.082-.1-.035-.04c-.024-.031-.046-.063-.068-.1a2.888,2.888,0,0,1-.229-.413s-.052-.123-.022-.049c-.013-.031-.025-.062-.036-.093-.026-.069-.05-.139-.073-.209-.05-.154-.093-.31-.133-.467-.182-.725-.328-1.462-.475-2.194q-.461-2.295-.793-4.613c-.121-.843-.227-1.693-.323-2.56a.416.416,0,0,0-.406-.406.411.411,0,0,0-.406.406" transform="translate(-477.811 -561.224)" fill="#280d0d"/>
        <path id="Trazado_878361" data-name="Trazado 878361" d="M604.39,593.216a4.847,4.847,0,0,0-.627,1.566.407.407,0,0,0,.784.216,4.5,4.5,0,0,1,.223-.749c.01-.025.062-.134.009-.023.011-.023.021-.048.031-.072.029-.063.059-.126.09-.188.059-.116.123-.23.192-.34a.41.41,0,0,0-.146-.556.415.415,0,0,0-.556.146" transform="translate(-481.042 -472.488)" fill="#280d0d"/>
        <path id="Trazado_878362" data-name="Trazado 878362" d="M763.032,587.81q-4.9-.474-9.813-.811-1.385-.095-2.771-.179a.409.409,0,0,0-.407.406.416.416,0,0,0,.407.406q4.914.3,9.819.734,1.383.123,2.765.257a.408.408,0,0,0,.406-.406.417.417,0,0,0-.406-.406" transform="translate(-597.596 -467.549)" fill="#692915"/>
        <path id="Trazado_878363" data-name="Trazado 878363" d="M766.62,615.736q-2.952-.271-5.91-.473t-5.919-.333q-1.664-.074-3.328-.126a.41.41,0,0,0-.406.406.415.415,0,0,0,.406.406q2.963.092,5.923.255t5.916.395q1.66.131,3.318.283a.408.408,0,0,0,.406-.407.417.417,0,0,0-.406-.406" transform="translate(-598.406 -489.845)" fill="#692915"/>
        <path id="Trazado_878364" data-name="Trazado 878364" d="M765.608,643.893a91.274,91.274,0,0,0-9.433-.321q-1.338.024-2.675.087a.406.406,0,0,0,0,.813,91.31,91.31,0,0,1,9.439.044q1.336.076,2.669.19a.408.408,0,0,0,.406-.406.417.417,0,0,0-.406-.406" transform="translate(-600.029 -512.755)" fill="#692915"/>
        <path id="Trazado_878365" data-name="Trazado 878365" d="M961.14,414a2.389,2.389,0,0,1-.024-.664,11.776,11.776,0,0,1,.209-1.483,3.611,3.611,0,0,1,.108-.435c-.02-.02-.036-.041-.057-.061-.983-.9-3.078-.872-4.341-.876a37.453,37.453,0,0,0-8.995,1.405,56.139,56.139,0,0,0-8.363,2.832,54.7,54.7,0,0,0-8.747,4.7c-2.429,1.609-5.149,3.381-5.533,6.507a.867.867,0,0,0,.492.961c2.367,4.983,10.135,3.439,14.388,2.247a45.092,45.092,0,0,0,15.293-8.1,18.22,18.22,0,0,0,5.506-6.021c.107-.218.224-.453.336-.7a.463.463,0,0,1-.273-.313" transform="translate(-737.305 -327.049)" fill="#b1bbd4"/>
        <path id="Trazado_878366" data-name="Trazado 878366" d="M1047.452,435.183a22.338,22.338,0,0,0-9.2,6.67,92.727,92.727,0,0,0-6.121,9.431c-3.929,6.613-15.686,30.827-17.616,35.767q-1.421,3.637-2.75,7.31a32.27,32.27,0,0,0-1.83,6.826c-.571,4.472,3.009,10.337,6.709,12.987,3.666,2.626,10.689,4.161,14.645,2.114,16.844-8.717,24.5-43.515,25.609-48.334.651-2.831-9.214-32.846-9.441-32.772" transform="translate(-804.616 -346.732)" fill="#340b81"/>
        <path id="Trazado_878367" data-name="Trazado 878367" d="M938.992,294.3a9.01,9.01,0,0,0-2.28-4.059c-.593-.674-1.216-1.325-1.854-1.96a44.607,44.607,0,0,0-4.744-11.866c-2.953-4.941-8.036.628-10.531,3.059q-.624.608-1.242,1.226a6.422,6.422,0,0,0-4.572-.17,4.09,4.09,0,0,0-2.664,4.431,6.329,6.329,0,0,0-3.342.542,4.106,4.106,0,0,0-2.236,4.629c.034.222.076.443.125.664a5.849,5.849,0,0,0-2.607,3c-.7,2.1.462,4.218,1.657,5.877a17.193,17.193,0,0,0,4.391,4.369,10.415,10.415,0,0,0,1.359.809,13.342,13.342,0,0,0,2.429,8.217c.2.49,1.612,5.3,2.272,5.139A75.48,75.48,0,0,0,935.74,310.4c-.46.256,1.251-2.471,2.947-11.064a12.846,12.846,0,0,0,.3-5.04" transform="translate(-719.335 -218.654)" fill="#ff9659"/>
        <path id="Trazado_878368" data-name="Trazado 878368" d="M1341.758,735.955c-1.1-4.848-2.14-9.717-3.338-14.542a47.02,47.02,0,0,0-4.832-12.749,1.059,1.059,0,0,0-1.474-.388,1.188,1.188,0,0,0-.408-.1,34.832,34.832,0,0,0-9.683.931c-3.361.684-6.712,1.353-10.122,1.759a95.517,95.517,0,0,1-20.025.27c-1.554-.143-3.3-.476-4.729.359a3.255,3.255,0,0,0-1.587,2.273,1.157,1.157,0,0,0-.273.446,125.155,125.155,0,0,0-5.934,25.976.937.937,0,0,0,.158.691,3.845,3.845,0,0,0,.352,4.378c1.319,1.693,3.605,1.995,5.6,2.161,5.247.438,10.552.33,15.813.323,10.191-.014,20.48-.371,30.446-2.686,2.5-.581,5.343-1.111,7.435-2.7a5.565,5.565,0,0,0,2.316-5.366,1.068,1.068,0,0,0,.286-1.033" transform="translate(-1019.03 -564.184)" fill="#280d0d"/>
        <path id="Trazado_878369" data-name="Trazado 878369" d="M971.478,480.573c-.208-7.027-9.083-62.385-10.046-66.273a1.069,1.069,0,0,0-1.659-.613,1.106,1.106,0,0,0-.713.48c-5.985,8.725-21.937,14.664-32.415,13.092a1.187,1.187,0,0,0-1.251.652,1.015,1.015,0,0,0-.319.793c.144,9.314,4.683,41.541,8,53.581,2.056,7.453,7.507,16.106,15.611,18.3a22.373,22.373,0,0,0,11.542-.211c3.413-.929,6.771-2.79,8.53-5.979,2.251-4.082,2.86-8.871,2.714-13.828" transform="translate(-737.056 -329.459)" fill="#340b81"/>
        <path id="Trazado_878370" data-name="Trazado 878370" d="M915.479,357.017a35.01,35.01,0,0,0,2.607,8.04,6.946,6.946,0,0,0,2.365,3.035,3.845,3.845,0,0,0,1.819.619,3.459,3.459,0,0,0,1.857-.442,7.687,7.687,0,0,0,2.807-3.365.407.407,0,1,0-.7-.41,15.954,15.954,0,0,1-1,1.673,5.589,5.589,0,0,1-.561.672q-.143.146-.3.28a2.626,2.626,0,0,1-.308.236,3.922,3.922,0,0,1-.348.213q-.089.048-.181.092c-.037.017-.073.034-.111.05.065-.027-.04.014-.053.019a3.094,3.094,0,0,1-.405.121c-.072.016-.145.031-.218.041.018,0,.07-.007-.012,0-.047,0-.095.008-.142.011a3.421,3.421,0,0,1-.425-.011c-.012,0-.08-.009-.012,0-.04-.005-.08-.012-.119-.02q-.119-.022-.236-.053a3.573,3.573,0,0,1-.385-.128c-.121-.048.036.017-.034-.015l-.093-.043q-.111-.053-.218-.113a3.629,3.629,0,0,1-.653-.462,5.132,5.132,0,0,1-.609-.65,8.784,8.784,0,0,1-.928-1.561,30.849,30.849,0,0,1-1.454-3.637,35.455,35.455,0,0,1-1.165-4.407.409.409,0,0,0-.5-.284.417.417,0,0,0-.284.5" transform="translate(-729.402 -284.042)" fill="#ba5830"/>
        <path id="Trazado_878371" data-name="Trazado 878371" d="M941.927,414.267a2.367,2.367,0,0,1,.07.243c-.031-.1-.008-.068,0-.025q0,.031,0,.063a1.171,1.171,0,0,1,0,.126c0,.035-.023.1.005-.024,0,.02-.007.042-.011.062-.008.038-.017.076-.028.113s-.028.08-.042.12.047-.1.007-.019c-.01.019-.019.038-.029.057-.018.034-.038.068-.059.1l-.036.053c-.043.064.059-.069.012-.015a1.718,1.718,0,0,1-.178.179c-.059.051.082-.055.016-.013l-.052.035a1.122,1.122,0,0,1-.11.061c-.035.017-.086.016.02-.008-.016,0-.033.013-.049.018a1.115,1.115,0,0,1-.133.035.409.409,0,0,0-.284.5.417.417,0,0,0,.5.284,1.671,1.671,0,0,0,1.169-2.162.448.448,0,0,0-.187-.243.415.415,0,0,0-.313-.041.411.411,0,0,0-.284.5" transform="translate(-749.765 -329.657)" fill="#ba5830"/>
        <path id="Trazado_878372" data-name="Trazado 878372" d="M1217.934,440.147c-5.424-6.723-14.508-11.713-22.319-15.1a66.718,66.718,0,0,0-33.947-5.5c-5.541.636-11.154,1.389-16.121,4.111-4.142,2.269-7.735,5.91-9.16,10.454a.9.9,0,0,0-.06.188c-.143.478-.029,2.5.442,2.591a69.075,69.075,0,0,0,8.8,20.586,229.827,229.827,0,0,0,14.574,20.618c3.034,3.931,10.749,11.395,11.076,11.155,9.143,3.5,33.3,8.094,49.326-4.582,1.016-.8.707-2.584.921-3.839q.352-2.063.629-4.138c.813-6.048.408-30.891-4.155-36.546" transform="translate(-905.325 -333.972)" fill="#340b81"/>
        <path id="Trazado_878373" data-name="Trazado 878373" d="M973.313,468.724a36.83,36.83,0,0,1-5.224,5.542,38.847,38.847,0,0,1-6.228,4.388,39.8,39.8,0,0,1-6.959,3.117,39.148,39.148,0,0,1-7.416,1.73,37.45,37.45,0,0,1-7.636.216q-.478-.036-.954-.085a.409.409,0,0,0-.406.406.415.415,0,0,0,.406.406,37.3,37.3,0,0,0,7.746-.031,39.937,39.937,0,0,0,7.641-1.588,40.936,40.936,0,0,0,7.2-3.032,40.134,40.134,0,0,0,6.473-4.353,37.473,37.473,0,0,0,5.442-5.511q.315-.394.62-.8a.409.409,0,0,0-.146-.556.417.417,0,0,0-.556.146" transform="translate(-747.743 -373.296)" fill="#280d0d"/>
        <path id="Trazado_878374" data-name="Trazado 878374" d="M1221.064,267.748c-.3-2.463-2.2-3.9-4.372-4.585a5.536,5.536,0,0,0-.908-4.83c-2.086-2.763-5.855-3.619-9.11-2.857a8.671,8.671,0,0,1-1.213-.571,11.062,11.062,0,0,0-1.514-.364c-4-.721-8.6.983-9.71,5.22-2.621-.192-3.558.366-5.024,2.353a5.759,5.759,0,0,0,1.475,8.156,1.081,1.081,0,0,0,.419.188,16.947,16.947,0,0,0,4.045,3.991,27.309,27.309,0,0,1,2.387,2c.853.833,1.563,1.793,2.358,2.679a12.688,12.688,0,0,0,11.4,4.011,1.109,1.109,0,0,0,.587-.15,17.363,17.363,0,0,0,5.4-4.679,5.478,5.478,0,0,0,1.468-3.148,2.986,2.986,0,0,0-.611-1.71,5.941,5.941,0,0,0,2.929-5.7" transform="translate(-946.631 -202.677)" fill="#732e11"/>
        <path id="Trazado_878375" data-name="Trazado 878375" d="M1254.487,371.644a15.276,15.276,0,0,0,7.594-3.863,14.854,14.854,0,0,0,3.675-5.021,91.892,91.892,0,0,1-4.574-14.017c-.276-1.156-12.854,16.852-12.562,17.173q.757,2.73,1.664,5.416a8.736,8.736,0,0,0,4.2.311" transform="translate(-994.837 -277.818)" fill="#ff9659"/>
        <path id="Trazado_878376" data-name="Trazado 878376" d="M1007.4,316.573q-1.9-1.441-3.869-2.8-.973-.671-1.96-1.321a11.332,11.332,0,0,0-1.939-1.087,3.321,3.321,0,0,0-3.849.659,4.276,4.276,0,0,0-.574,3.922,8.581,8.581,0,0,0,2.2,3.454c1.052,1.056,2.259,1.942,3.316,2.994.113.112.225.225.33.345.076.086-.036-.063.025.034.02.03.04.06.059.09s.036.062.053.093c.008.015.066.15.033.064a1.767,1.767,0,0,1,.1.371c-.015-.1,0,.015,0,.03q0,.052,0,.1c0,.035,0,.069,0,.1,0,.02-.021.165,0,.064a1.838,1.838,0,0,1-.045.2q-.014.051-.032.1c0,.012-.051.116-.012.033-.025.053-.051.106-.081.157q-.027.046-.057.091l-.042.059c.027-.034.025-.033,0,0-.2.221-.418.43-.616.658a11.283,11.283,0,0,0-1.955,3.229,11.129,11.129,0,0,0-.379,7.246q.131.434.3.855a.417.417,0,0,0,.5.284.411.411,0,0,0,.284-.5,9.709,9.709,0,0,1-.521-1.732q-.041-.2-.073-.408-.009-.056-.017-.112c0-.01-.019-.134-.006-.041-.01-.075-.019-.15-.027-.224q-.049-.449-.059-.9t.018-.9q.013-.207.034-.414.011-.113.025-.225c0-.038.009-.075.014-.113-.012.089.005-.034.006-.042a11.171,11.171,0,0,1,.405-1.768q.131-.415.294-.818l.043-.105a.225.225,0,0,1,.018-.042c.03-.069.061-.138.092-.207q.094-.206.2-.409a10.716,10.716,0,0,1,.928-1.508l.067-.091s.079-.1.028-.037q.069-.089.141-.177.142-.175.293-.344c.213-.24.457-.455.651-.712a2.1,2.1,0,0,0,.339-1.772,3.542,3.542,0,0,0-1.205-1.6c-.542-.5-1.11-.977-1.669-1.462a18.328,18.328,0,0,1-1.532-1.449q-.156-.171-.3-.348-.081-.1-.16-.2s-.082-.107-.04-.051q-.052-.067-.1-.136a8.426,8.426,0,0,1-.529-.811q-.124-.217-.233-.443-.045-.093-.087-.188s-.054-.124-.024-.054c-.021-.05-.041-.1-.061-.152a5.4,5.4,0,0,1-.269-.931c-.012-.065-.023-.131-.033-.2.013.086-.005-.044-.006-.05q-.007-.059-.012-.119a4.231,4.231,0,0,1-.013-.476q0-.119.014-.238c0-.04.008-.079.013-.119-.01.085.007-.045.008-.051a3.844,3.844,0,0,1,.108-.475q.034-.116.076-.23l.029-.076c.048-.121-.034.065.023-.052a3.312,3.312,0,0,1,.26-.455c.016-.022.031-.044.048-.065-.046.06.036-.042.037-.043a2.333,2.333,0,0,1,.167-.174c.029-.028.06-.053.09-.08.094-.084-.059.037.043-.034.064-.045.13-.088.2-.127a2.234,2.234,0,0,1,.209-.1c-.076.033.043-.015.048-.017q.055-.02.111-.038.094-.029.189-.051l.115-.024c.015,0,.169-.025.087-.016a3.2,3.2,0,0,1,.437-.021q.12,0,.239.013l.119.013c-.079-.01.054.009.07.012a5.235,5.235,0,0,1,1.864.776c.638.386,1.254.81,1.872,1.228q1.937,1.31,3.817,2.7.455.337.906.679a.407.407,0,0,0,.556-.146.419.419,0,0,0-.146-.556" transform="translate(-792.758 -247.827)" fill="#ba5830"/>
        <path id="Trazado_878377" data-name="Trazado 878377" d="M1067.064,414.742c-.1-.129-.026-.021,0,.015.035.054-.031-.1-.017-.041,0,.02.013.039.018.059s.005.034.01.049c-.006-.018-.008-.116-.007-.037,0,.042,0,.082,0,.124s-.031.085.006-.036c-.006.019-.007.04-.011.06-.01.048-.022.095-.036.141s-.031.094-.049.14c-.033.087.009-.019.006-.012-.015.028-.026.059-.04.087a4.42,4.42,0,0,1-.395.652q-.058.082-.119.162l-.015.02q-.031.041,0,0c.028-.005.018-.023-.008.01l-.074.094q-.153.189-.315.371a16.245,16.245,0,0,1-1.564,1.523q-.216.186-.436.366l-.223.179-.106.083-.053.041-.04.031.016-.012c-.306.23-.614.458-.93.674a12.786,12.786,0,0,1-2.021,1.155.408.408,0,0,0-.146.556.419.419,0,0,0,.556.146,16.155,16.155,0,0,0,3.831-2.535,16.777,16.777,0,0,0,1.643-1.577,6.831,6.831,0,0,0,1.088-1.5,2.272,2.272,0,0,0,.249-.817,1.051,1.051,0,0,0-.238-.746.407.407,0,0,0-.575,0,.419.419,0,0,0,0,.575" transform="translate(-844.919 -329.893)" fill="#280d0d"/>
        <path id="Trazado_878378" data-name="Trazado 878378" d="M1218.693,279.932a12.693,12.693,0,0,0-13.816-.94,13.748,13.748,0,0,0-7.354,10.092,50.981,50.981,0,0,0-.141,13.666c.471,3.918,1.1,8.613,5.417,9.767,3.236.866,12.295-1.368,15.54-7.552a8.97,8.97,0,0,0,.742-3.534,37.1,37.1,0,0,1,.564-5.076,20.27,20.27,0,0,0,2.532-8.089,9.827,9.827,0,0,0-3.485-8.336" transform="translate(-953.705 -221.01)" fill="#ff9659"/>
        <path id="Trazado_878379" data-name="Trazado 878379" d="M1209.947,276.988c-1.884-5.624-7.666-7.971-13.147-7a1,1,0,0,0-1.321-.178c-.239.147-.478.305-.716.471a12.7,12.7,0,0,0-2.9.185.627.627,0,0,0-.368.193c-3.659.649-8.824,1.514-10.632,5.231a5.692,5.692,0,0,0,3.172,7.82c.18-.41.377-.812.573-1.211a9.5,9.5,0,0,1,3.149-3.766,6.879,6.879,0,0,1,1.092-.6,1.871,1.871,0,0,1,1.1-.216c.751.162.592,1.112.868,1.665,1.37,2.741,5.317,2.581,7.875,2.243a5.064,5.064,0,0,0,.982,2.241,6.3,6.3,0,0,0,4.721,2.389q0,2.468.186,4.931a1.135,1.135,0,0,0,1.415,1.078c1.4-.329,2.169-1.746,2.791-2.925a16.325,16.325,0,0,0,1.483-3.966,16.037,16.037,0,0,0-.322-8.583" transform="translate(-940.396 -214.829)" fill="#732e11"/>
        <path id="Trazado_878380" data-name="Trazado 878380" d="M1307.8,356.432c-2.415-1.487-5.091,4.793-3.125,6.617,1.324,1.229,2.691-.868,3.262-2.116s1.283-3.627-.137-4.5" transform="translate(-1038.961 -283.808)" fill="#ff9659"/>
        <path id="Trazado_878381" data-name="Trazado 878381" d="M1269.3,405.192c-.149-.456-1.152-2.428-1.777-3.64-.174-.337-.64-.565-.633-.187a11.062,11.062,0,0,1-4.215,8.452c-3.472,2.626-8.79,2.9-10.519,2.012a.363.363,0,0,0-.524.326,47.245,47.245,0,0,0,1.484,7.541,4.1,4.1,0,0,0,.818,1.336c.289.3.794.592,1.1.154a2.133,2.133,0,0,0,.268-.7c.136-.546.826-3.389,1.189-4.886a.34.34,0,0,1,.644-.086c.891,1.763,2.913,5.709,3.2,5.908a1.152,1.152,0,0,0,1.288-.11,12.808,12.808,0,0,0,2.251-1.711,19.493,19.493,0,0,0,5.388-10.457,7.816,7.816,0,0,0,.037-3.955" transform="translate(-997.243 -319.631)" fill="#b1bbd4"/>
        <path id="Trazado_878382" data-name="Trazado 878382" d="M1249.532,368.832a1.04,1.04,0,0,0-.8-.558c-.95-.073-1.192,1.056-1.1,1.815a1.887,1.887,0,0,0,.852,1.607c1.63.758,1.561-2.022,1.052-2.864" transform="translate(-994.037 -293.419)" fill="#170501"/>
        <path id="Trazado_878383" data-name="Trazado 878383" d="M1216.856,352.323c.1.068-.054-.053.034.025.027.024.054.047.08.073s.05.051.074.077c.007.008.081.1.027.028a1.866,1.866,0,0,1,.232.406c-.035-.083.01.031.013.039q.019.052.036.105.034.107.061.216c.018.073.034.147.047.221q.01.056.019.112c0,.025.008.05.011.074q-.009-.069,0,0a12.771,12.771,0,0,1,0,2.349c-.064.815-.177,1.625-.282,2.435-.052.405-.12.814-.143,1.222a1.388,1.388,0,0,0,.329.974,2.963,2.963,0,0,0,.735.636,1.487,1.487,0,0,0,.7.283.41.41,0,0,0,.406-.406.415.415,0,0,0-.406-.406c-.054,0,.118.034.064.009a.4.4,0,0,0-.043-.012.27.27,0,0,0-.051-.018c.077,0,.073.035.02.007a3.278,3.278,0,0,1-.306-.174c-.048-.032-.1-.065-.142-.1-.018-.013-.076-.059-.009-.005l-.077-.063a2.307,2.307,0,0,1-.3-.3c.063.077,0,0-.01-.017s-.032-.05-.047-.076-.026-.051-.039-.077c.048.1.01.019,0-.006a.581.581,0,0,1-.02-.087c.01.071,0-.074,0-.07a2.947,2.947,0,0,1,.025-.319c.044-.4.095-.795.147-1.192a17.973,17.973,0,0,0,.229-4.768,2.665,2.665,0,0,0-1.012-1.9.408.408,0,0,0-.556.146.417.417,0,0,0,.146.556" transform="translate(-969.375 -280.108)" fill="#ba5830"/>
        <path id="Trazado_878384" data-name="Trazado 878384" d="M1211.609,366.127a.966.966,0,0,0-.746-.534c-.883-.07-1.108,1.01-1.023,1.736a1.819,1.819,0,0,0,.792,1.538c1.515.726,1.452-1.935.978-2.74" transform="translate(-963.93 -291.284)" fill="#170501"/>
        <path id="Trazado_878385" data-name="Trazado 878385" d="M1245.786,348.39c-1.471-.988-4.865-1.448-5.811.494-.289.593-.346,1.5.392,1.754a2.056,2.056,0,0,0,.921.033,6.4,6.4,0,0,1,2.2-.038,10.422,10.422,0,0,0,1.946.638,1.228,1.228,0,0,0,1.244-1.233,1.826,1.826,0,0,0-.9-1.648" transform="translate(-987.794 -276.901)" fill="#732e11"/>
        <path id="Trazado_878386" data-name="Trazado 878386" d="M1199.082,346.142c-.065.653.2,1.226.626,1.31s.854-.258,1.284-.3a2.408,2.408,0,0,1,1.142.263c.4.168.884.375,1.162-.113a1.9,1.9,0,0,0,.087-1.234,2.168,2.168,0,0,0-1.861-1.64,2.018,2.018,0,0,0-2.44,1.714" transform="translate(-955.363 -274.4)" fill="#732e11"/>
        <path id="Trazado_878387" data-name="Trazado 878387" d="M1229.121,393.032c.062-.017.125-.032.189-.044l.082-.015.055-.008c-.062.008-.071.01-.026,0a3.208,3.208,0,0,1,.359-.014c.06,0,.12.005.18.011.03,0,.129.028.016,0,.026.006.055.008.082.013a2.639,2.639,0,0,1,.375.1.41.41,0,0,0,.5-.284.416.416,0,0,0-.284-.5,3.048,3.048,0,0,0-1.743-.044.407.407,0,0,0,.216.784" transform="translate(-978.893 -312.439)" fill="#ba5830"/>
        <path id="Trazado_878388" data-name="Trazado 878388" d="M1227.314,406.735a2.2,2.2,0,0,0-.917-.373,8.29,8.29,0,0,0-2.31-.289,1.3,1.3,0,0,0-1.047.391c-.15.247.127.6.392.788a2.075,2.075,0,0,0,.911.291,8.294,8.294,0,0,0,1.708-.016,4.166,4.166,0,0,0,1.044-.183c.344-.136.432-.4.218-.609" transform="translate(-974.426 -323.536)" fill="#fff"/>
        <path id="Trazado_878389" data-name="Trazado 878389" d="M1263.059,401.86a8.676,8.676,0,0,1-.352,1.276q-.052.143-.108.285c0,.011-.062.152-.037.091-.024.056-.048.112-.073.168q-.133.3-.287.585a10.413,10.413,0,0,1-.7,1.129q-.089.126-.182.248l-.05.065c-.041.055.031-.039-.011.015s-.076.1-.115.144q-.206.256-.427.5a12.244,12.244,0,0,1-.948.938q-.246.219-.5.424c-.107.086-.122.1-.208.162s-.184.137-.277.2a16.392,16.392,0,0,1-2.206,1.31c-.93.466-1.9.874-2.82,1.258a.418.418,0,0,0-.284.5.411.411,0,0,0,.5.284,27.291,27.291,0,0,0,4.99-2.489,12.416,12.416,0,0,0,3.784-4,9.448,9.448,0,0,0,1.1-2.885.407.407,0,0,0-.784-.216" transform="translate(-998.691 -319.948)" fill="#ba5830"/>
        <path id="Trazado_878390" data-name="Trazado 878390" d="M1312.23,361.821a4.255,4.255,0,0,0-1.292,2.807.409.409,0,0,0,.406.406.416.416,0,0,0,.406-.406c0-.054.007-.108.013-.162,0-.027.006-.054.009-.081-.009.07,0-.02.006-.033q.027-.16.067-.318t.1-.33c.018-.051.037-.1.057-.152.008-.02.024-.055.006-.015.014-.031.028-.062.042-.092a3.839,3.839,0,0,1,.338-.579l.048-.066c.011-.016.037-.048.01-.015q.051-.064.1-.125c.08-.092.165-.18.253-.264a.41.41,0,0,0,0-.575.415.415,0,0,0-.575,0" transform="translate(-1044.493 -288.189)" fill="#ba5830"/>
        <path id="Trazado_878391" data-name="Trazado 878391" d="M1310.24,386.945l-.037.052c-.029.044.051-.062.017-.022s-.048.059-.074.087a2.035,2.035,0,0,1-.162.161l-.048.041c-.01.008-.058.045-.008.008s-.008.006-.02.014l-.042.029a2.105,2.105,0,0,1-.207.125c-.033.018-.068.035-.1.051-.015.007-.032.013-.046.021.032-.017.073-.03.015-.007a2.073,2.073,0,0,1-.218.07c-.037.01-.074.018-.111.026l-.05.009c-.009,0-.094.014-.021,0s0,0-.009,0l-.063.005c-.042,0-.085,0-.127,0a.406.406,0,1,0,0,.813,2.5,2.5,0,0,0,2.015-1.082.409.409,0,0,0-.146-.556.417.417,0,0,0-.556.146" transform="translate(-1042.566 -308.14)" fill="#ba5830"/>
        <path id="Trazado_878392" data-name="Trazado 878392" d="M952.723,306.8q-1.752,1.594-3.352,3.344a20.163,20.163,0,0,0-1.488,1.758,4.588,4.588,0,0,0-.874,1.972,2.66,2.66,0,0,0,1.962,3.161,4.886,4.886,0,0,0,3.921-.865c.74-.466,1.446-.988,2.163-1.49l2.281-1.6a.407.407,0,1,0-.41-.7c-1.283.9-2.559,1.8-3.849,2.692-.294.2-.591.4-.9.579a6.957,6.957,0,0,1-.852.427,4.549,4.549,0,0,1-.95.261c-.069.011.1-.008-.016,0l-.107.01q-.108.008-.215.01a3.921,3.921,0,0,1-.431-.021c-.118-.011.082.016-.034,0l-.106-.018c-.058-.011-.117-.024-.174-.039a2.927,2.927,0,0,1-.4-.132c.086.035-.02-.011-.031-.016-.032-.015-.063-.03-.094-.047q-.092-.048-.18-.1c-.049-.031-.1-.064-.142-.1.074.054-.016-.014-.026-.022-.035-.03-.069-.06-.1-.092s-.089-.09-.131-.138c-.019-.022-.038-.044-.056-.067.057.072-.013-.021-.019-.03a2,2,0,0,1-.119-.2c-.019-.036-.037-.073-.055-.11-.035-.073.006.03-.022-.054a2.61,2.61,0,0,1-.12-.474c0,.019.006.069,0-.014,0-.041-.007-.082-.009-.123a2.8,2.8,0,0,1,0-.29q.005-.1.017-.208c-.009.08.009-.055.01-.057.007-.041.015-.082.023-.123a3.427,3.427,0,0,1,.139-.481,4.646,4.646,0,0,1,.466-.873,14.167,14.167,0,0,1,1.3-1.581q1.69-1.875,3.561-3.575a.409.409,0,0,0,0-.575.415.415,0,0,0-.575,0" transform="translate(-754.499 -244.349)" fill="#ba5830"/>
        <path id="Trazado_878393" data-name="Trazado 878393" d="M942.731,327.8q.608,3.39,1.55,6.709.474,1.668,1.032,3.311a9.072,9.072,0,0,0,1.1,2.392,3.864,3.864,0,0,0,.932.949,2.7,2.7,0,0,0,1.269.457,4.02,4.02,0,0,0,2.851-1.152,22.022,22.022,0,0,0,1.678-1.593,21.478,21.478,0,0,0,1.66-1.887,10.389,10.389,0,0,0,1.322-2.128,4.724,4.724,0,0,0,.475-2.271,3.637,3.637,0,0,0-.095-.586.411.411,0,0,0-.5-.284.415.415,0,0,0-.284.5c.021.081.036.162.052.245.019.1-.005-.068.006.037,0,.044.009.088.012.132a3.255,3.255,0,0,1-.005.5c0,.045-.011.09-.014.135s.013-.076,0-.018c0,.02-.006.04-.009.06q-.021.129-.051.257a4.93,4.93,0,0,1-.155.532q-.043.123-.092.244l-.025.061c-.022.056.028-.06,0-.006s-.045.1-.068.152c-.081.176-.169.348-.263.517a10.71,10.71,0,0,1-.646,1.015q-.089.125-.18.248l-.087.115-.044.058c.035-.046,0-.006-.014.018q-.195.249-.4.49c-.258.306-.526.6-.8.9-.478.508-.977,1-1.483,1.474-.169.16-.34.316-.518.466a5.35,5.35,0,0,1-.543.408,3.089,3.089,0,0,1-1.24.536l-.08.013c.067-.009,0,0-.013,0-.061,0-.122.009-.183.01s-.109,0-.164,0l-.083-.006c-.022,0-.093-.014-.037,0a2.369,2.369,0,0,1-.29-.067c-.043-.013-.085-.028-.127-.043-.012,0-.078-.029-.029-.01s-.032-.014-.042-.019a2.34,2.34,0,0,1-.245-.133q-.056-.035-.11-.072c-.018-.013-.035-.027-.053-.038-.041-.025.049.042-.009-.007a3.4,3.4,0,0,1-.419-.41c-.03-.035-.058-.071-.087-.105s.036.05,0,0l-.041-.056q-.093-.127-.177-.26c-.108-.171-.206-.348-.3-.528q-.065-.129-.125-.26-.034-.074-.066-.148l-.028-.066c.023.054,0,.01-.008-.019-.076-.186-.147-.375-.214-.565-.366-1.036-.695-2.086-1-3.14q-.935-3.187-1.561-6.455-.078-.408-.151-.816a.408.408,0,0,0-.5-.284.418.418,0,0,0-.284.5" transform="translate(-751.116 -260.765)" fill="#ba5830"/>
        <path id="Trazado_878394" data-name="Trazado 878394" d="M985.575,343.674l.607,2.6a.41.41,0,0,0,.5.284.415.415,0,0,0,.284-.5l-.607-2.6a.41.41,0,0,0-.5-.284.415.415,0,0,0-.284.5" transform="translate(-785.249 -273.411)" fill="#ba5830"/>
        <path id="Trazado_878395" data-name="Trazado 878395" d="M1119.109,515.746q.947,6.232,1.32,12.534t.175,12.648q-.113,3.559-.408,7.109a.41.41,0,0,0,.406.406.415.415,0,0,0,.406-.406q.526-6.337.473-12.7t-.69-12.694q-.358-3.566-.9-7.109a.409.409,0,0,0-.5-.284.417.417,0,0,0-.284.5" transform="translate(-891.647 -410.513)" fill="#280d0d"/>
        <path id="Trazado_878396" data-name="Trazado 878396" d="M1151.129,531.792q.966,2.778,2.085,5.5,1.13,2.746,2.41,5.428,1.273,2.665,2.7,5.255,1.41,2.568,2.96,5.055,1.563,2.506,3.265,4.921.207.294.417.587a.418.418,0,0,0,.556.146.41.41,0,0,0,.146-.556q-1.7-2.383-3.273-4.858t-3.009-5.054q-1.427-2.558-2.711-5.193c-.848-1.74-1.669-3.548-2.406-5.3q-1.133-2.7-2.113-5.463-.12-.34-.239-.68a.416.416,0,0,0-.5-.284.41.41,0,0,0-.284.5" transform="translate(-917.15 -423.296)" fill="#280d0d"/>
        <path id="Trazado_878397" data-name="Trazado 878397" d="M1251.132,430.827a20.9,20.9,0,0,0,.485,4.984,13.589,13.589,0,0,0,.716,2.265,10.257,10.257,0,0,0,.522,1.078c.09.158.184.315.283.468a.6.6,0,0,0,.78.249,1.286,1.286,0,0,0,.515-.65l.459-.874,1.327-2.526c.285-.542.6-1.078.857-1.631l.014-.026h-.7q.685,1.326,1.425,2.623.37.648.753,1.288c.2.336.4.681.628,1a2.106,2.106,0,0,0,1.846,1.03,2.577,2.577,0,0,0,1.28-.474,7.581,7.581,0,0,0,.969-.884,17.834,17.834,0,0,0,2.887-3.976,26.492,26.492,0,0,0,1.905-4.577,45.035,45.035,0,0,0,1.212-4.813q.059-.3.116-.595a.407.407,0,1,0-.784-.216c-.3,1.577-.654,3.146-1.108,4.688-.226.766-.476,1.525-.759,2.273q-.1.274-.213.546-.056.141-.115.28c-.007.017-.053.125-.029.07l-.063.148q-.235.544-.5,1.076a20.128,20.128,0,0,1-1.16,2.048q-.319.492-.67.963l-.1.127-.036.047-.009.012c-.062.078-.123.157-.186.234q-.188.233-.385.458-.389.446-.811.861a3.531,3.531,0,0,1-.907.729,1.176,1.176,0,0,1-.22.089,2.027,2.027,0,0,1-.316.075c.07-.011-.013,0-.039,0-.047,0-.094,0-.14,0-.017,0-.134-.008-.079,0s0,0-.01,0l-.078-.016c-.036-.009-.071-.018-.105-.03l-.058-.02c-.009,0-.055-.025-.008,0s-.047-.024-.061-.032q-.053-.029-.1-.061c-.034-.022-.067-.046-.1-.07.064.047,0,0-.024-.023a2.224,2.224,0,0,1-.165-.162c-.05-.054-.1-.111-.142-.167.064.076-.02-.027-.032-.044-.025-.034-.049-.068-.073-.1-.088-.128-.17-.26-.251-.392q-.376-.616-.739-1.24-.733-1.258-1.414-2.545-.166-.313-.328-.629a.409.409,0,0,0-.7,0l-.673,1.282-1.29,2.456c-.271.516-.54,1.034-.814,1.55l-.013.024-.026.046c-.006.01-.05.069-.021.033s-.012.012-.015.014c.021-.018.057-.019,0,0a.218.218,0,0,1,.2,0c-.009,0,.11.029.11.066,0-.027-.056-.092-.072-.116a8.968,8.968,0,0,1-.518-.94q-.058-.122-.113-.246l-.054-.125c.027.062-.029-.069-.035-.084q-.105-.258-.2-.521c-.129-.366-.241-.738-.339-1.113s-.183-.761-.254-1.145q-.056-.3-.1-.607c-.014-.091-.027-.182-.04-.274-.01-.071.007.052,0-.019l-.008-.063c-.007-.056-.014-.113-.021-.169a21.726,21.726,0,0,1-.15-2.4q0-.288,0-.576a.41.41,0,0,0-.406-.406.415.415,0,0,0-.406.406" transform="translate(-996.839 -338.041)" fill="#280d0d"/>
        <path id="Trazado_878398" data-name="Trazado 878398" d="M1273.569,460.07l1,2.745a.407.407,0,0,0,.784-.216l-1-2.745a.407.407,0,1,0-.784.216" transform="translate(-1014.703 -366.148)" fill="#280d0d"/>
        <path id="Trazado_878399" data-name="Trazado 878399" d="M1276.227,471.179a82.624,82.624,0,0,0-.006,11.845c.138,2.015.349,4.026.671,6.02a47.982,47.982,0,0,0,1.365,5.8,114,114,0,0,0,4.61,12.749c1.737,4.069,3.678,8.047,5.7,11.983,2.078,4.051,4.235,8.061,6.349,12.093q.413.788.825,1.578c.242.464.943.054.7-.41-2.11-4.053-4.276-8.077-6.38-12.134-2.023-3.9-3.985-7.832-5.764-11.85a116.484,116.484,0,0,1-4.748-12.546,57.768,57.768,0,0,1-1.613-6.033,55.317,55.317,0,0,1-.791-5.845,84.106,84.106,0,0,1-.187-11.985q.036-.634.084-1.268c.039-.522-.774-.519-.813,0" transform="translate(-1016.665 -375.101)" fill="#280d0d"/>
        <path id="Trazado_878400" data-name="Trazado 878400" d="M1223.8,278.687a4.729,4.729,0,0,1-.124-.564c0-.016-.01-.08,0,0,0-.024-.006-.048-.009-.071,0-.042-.008-.084-.012-.125-.008-.1-.013-.2-.014-.3a4.7,4.7,0,0,1,.026-.556c0-.027.016-.132.005-.053q.01-.071.022-.142.024-.142.056-.283a5.126,5.126,0,0,1,.161-.555c.03-.086.063-.17.1-.254.023-.059-.025.055,0,0l.03-.066c.022-.05.045-.1.069-.148a5.324,5.324,0,0,1,.274-.491q.073-.115.151-.226c.028-.04.057-.078.085-.117.008-.011.047-.061,0,0l.056-.071a5.067,5.067,0,0,1,.377-.416q.1-.1.212-.2l.1-.082c.015-.012.136-.108.074-.06a4.727,4.727,0,0,1,.5-.33q.128-.074.261-.14l.125-.06.072-.033s.1-.042.06-.026l.043-.017.073-.028.13-.047q.158-.055.32-.1a5.448,5.448,0,0,1,.6-.131c.015,0,.167-.024.088-.014l.157-.018q.158-.016.316-.022a5.838,5.838,0,0,1,.634.008c.112.007.224.018.336.032.067.008-.057-.009.01,0l.1.015.176.031a5.858,5.858,0,0,1,.673.172q.17.055.337.119l.074.029c.066.026-.008,0,.031.013q.082.036.163.074a5.622,5.622,0,0,1,.624.346.41.41,0,0,0,.556-.146.416.416,0,0,0-.146-.556,6.181,6.181,0,0,0-5.279-.63,5.485,5.485,0,0,0-3.422,3.655,5.1,5.1,0,0,0-.022,2.81.407.407,0,1,0,.784-.216" transform="translate(-974.291 -216.804)" fill="#3b1606"/>
        <path id="Trazado_878401" data-name="Trazado 878401" d="M1270.576,312.9c0-.035,0-.071.008-.106s0-.047.008-.07c-.006.044-.007.051,0,.021.015-.069.026-.138.043-.207s.04-.147.066-.219c.012-.033.024-.066.037-.1.031-.082-.028.053.014-.032a3.437,3.437,0,0,1,.205-.37c.02-.029.04-.059.06-.087s.065-.086.021-.03c.048-.06.1-.118.15-.174a2.751,2.751,0,0,1,.325-.3c-.056.043.011-.007.031-.021l.088-.059q.089-.058.182-.108c.062-.034.125-.064.189-.093-.08.037.015-.006.033-.013l.1-.035a2.507,2.507,0,0,1,.446-.1.407.407,0,0,0,.284-.5.419.419,0,0,0-.5-.284,3.145,3.145,0,0,0-2.6,2.89.409.409,0,0,0,.406.406.416.416,0,0,0,.406-.406" transform="translate(-1011.686 -246.994)" fill="#3b1606"/>
        <path id="Trazado_878402" data-name="Trazado 878402" d="M1302.388,310.786a4.649,4.649,0,0,0,3.673-.485,4.5,4.5,0,0,0,2.07-3.009,4.6,4.6,0,0,0-.094-2.15l-.187.459a3.185,3.185,0,0,0,1.247-2.072,4.218,4.218,0,0,0-.449-2.574,6.14,6.14,0,0,0-.848-1.235.409.409,0,0,0-.575,0,.417.417,0,0,0,0,.575,4.41,4.41,0,0,1,.328.417,5.4,5.4,0,0,1,.3.485q.066.12.126.244c.021.044.042.089.062.134.009.019.017.038.025.058-.016-.04,0,0,.007.02a4.345,4.345,0,0,1,.177.56q.031.133.053.268c0,.021.007.041.01.062,0-.019-.007-.067,0,.017,0,.047.009.094.012.141a3.239,3.239,0,0,1-.009.532c0,.018-.014.114-.009.078s-.005.029-.007.04-.007.038-.01.056c-.016.087-.036.174-.06.26s-.047.158-.075.235c-.007.019-.049.126-.022.061-.02.046-.041.092-.063.137q-.063.127-.137.247c-.027.042-.054.084-.083.125-.012.017-.081.1-.038.052a2.671,2.671,0,0,1-.2.221c-.032.031-.064.06-.1.089l-.057.048c-.053.044.074-.054-.023.017a.422.422,0,0,0-.187.459,4.017,4.017,0,0,1,.1.41c.006.031.011.063.016.094s.015.1,0,.025c.01.076.017.152.022.228a4.143,4.143,0,0,1,.008.421c0,.064-.005.128-.01.191,0,.032-.005.064-.009.1,0,.017-.018.149-.006.063a4.251,4.251,0,0,1-.2.819c-.021.061-.044.12-.067.18-.045.117.033-.07-.018.044l-.032.07a4.134,4.134,0,0,1-.206.389c-.069.115-.144.225-.223.334s.049-.057-.03.039l-.048.059q-.074.088-.153.172a3.819,3.819,0,0,1-.306.291l-.059.049s-.1.08-.038.031q-.092.069-.187.133a4.144,4.144,0,0,1-.362.216q-.084.045-.171.086l-.069.032-.07.031q.057-.024-.009,0a4.712,4.712,0,0,1-.81.234l-.075.013c-.015,0-.17.023-.082.013-.076.009-.152.016-.229.022a4.182,4.182,0,0,1-.46.006q-.115,0-.229-.016l-.114-.013c.087.012-.037-.007-.043-.008a4.009,4.009,0,0,1-.485-.113.407.407,0,0,0-.216.784" transform="translate(-1037.445 -238.708)" fill="#3b1606"/>
        <path id="Trazado_878403" data-name="Trazado 878403" d="M1187.689,313.564a2.558,2.558,0,0,0,3.3,1.644.417.417,0,0,0,.284-.5.41.41,0,0,0-.5-.284,2.125,2.125,0,0,1-.4.118c-.1.021.087-.006-.019,0l-.1.008a2.051,2.051,0,0,1-.209,0l-.112-.009c-.088-.007.074.016-.02,0-.064-.013-.127-.024-.19-.04s-.135-.039-.2-.062c-.019-.007-.13-.053-.039-.013l-.089-.041c-.123-.06-.229-.144-.348-.209-.024-.017-.018-.012.017.015l-.05-.041c-.025-.021-.049-.042-.073-.064-.048-.044-.094-.089-.137-.137-.022-.024-.042-.049-.064-.073-.053-.059.033.053-.025-.032-.039-.058-.078-.115-.112-.176a1.888,1.888,0,0,1-.086-.173c.038.089,0,0-.006-.023-.014-.041-.027-.083-.038-.124a.407.407,0,0,0-.784.216" transform="translate(-946.282 -249.42)" fill="#3b1606"/>
        <path id="Trazado_878404" data-name="Trazado 878404" d="M780.978,508.934H712.413a2.25,2.25,0,0,1-2.25-2.25v-97.64a2.25,2.25,0,0,1,2.25-2.25h68.565a2.25,2.25,0,0,1,2.25,2.25q0,46.44,0,92.88v4.76a2.25,2.25,0,0,1-2.25,2.25" transform="translate(-565.824 -324.112)" fill="#521616"/>
        <path id="Trazado_878405" data-name="Trazado 878405" d="M787.9,510.37H723.733a2.065,2.065,0,0,1-2.106-2.021v-87.7a2.065,2.065,0,0,1,2.106-2.021H787.9a2.065,2.065,0,0,1,2.106,2.021q0,41.713,0,83.426v4.276a2.065,2.065,0,0,1-2.106,2.021" transform="translate(-574.958 -333.54)" fill="#6974fa"/>
        <path id="Trazado_878411" data-name="Trazado 878411" d="M784.419,547.6a1.729,1.729,0,0,0,0,3.455,1.729,1.729,0,0,0,0-3.455" transform="translate(-623.658 -436.301)" fill="#fff"/>
        <path id="Trazado_878412" data-name="Trazado 878412" d="M784.419,630.527a1.729,1.729,0,0,0,0,3.455,1.729,1.729,0,0,0,0-3.455" transform="translate(-623.658 -502.373)" fill="#fff"/>
        <path id="Trazado_878413" data-name="Trazado 878413" d="M784.419,699.35a1.729,1.729,0,0,0,0,3.455,1.729,1.729,0,0,0,0-3.455" transform="translate(-623.658 -557.208)" fill="#fff"/>
        <path id="Trazado_878414" data-name="Trazado 878414" d="M854.364,554.961H818.692a.508.508,0,0,1,0-1.016h35.672a.508.508,0,0,1,0,1.016" transform="translate(-651.89 -441.356)" fill="#fff"/>
        <path id="Trazado_878415" data-name="Trazado 878415" d="M841.166,579.1H819.218a.508.508,0,0,1,0-1.016h21.948a.508.508,0,0,1,0,1.016" transform="translate(-652.309 -460.586)" fill="#fff"/>
        <path id="Trazado_878416" data-name="Trazado 878416" d="M854.653,706.8H819.464a.508.508,0,0,1,0-1.016h35.189a.508.508,0,0,1,0,1.016" transform="translate(-652.505 -562.333)" fill="#fff"/>
        <path id="Trazado_878417" data-name="Trazado 878417" d="M842.832,730.934H820.188a.508.508,0,0,1,0-1.016h22.643a.508.508,0,1,1,0,1.016" transform="translate(-653.082 -581.563)" fill="#fff"/>
        <path id="Trazado_878418" data-name="Trazado 878418" d="M853.194,638.661H817.522a.508.508,0,0,1,0-1.016h35.672a.508.508,0,0,1,0,1.016" transform="translate(-650.958 -508.044)" fill="#fff"/>
        <path id="Trazado_878419" data-name="Trazado 878419" d="M968.264,839.155q-2.638-11.412-4.741-22.937a.964.964,0,0,0-1.357-.74,1.066,1.066,0,0,0-.517-.061q-2.479.272-4.968.4a1.439,1.439,0,0,1-1.318-.74c-1.676-2.952-5.156-4.255-8.484-4.657-4.848-.586-9.79-.69-14.662-1-2.513-.162-9.31-1.244-8.73,3.306.227,1.779,1.969,2.813,3.5,3.376a37.635,37.635,0,0,0,6.8,1.637c2.169.357,6.984,1.213,5.453,4.838-.656,1.552-3.335,2.1-4.742,2.535a68.742,68.742,0,0,1-14.109,2.646c-2.109.187-11.755.7-9.7,4.839.9,1.8,3.328,1.926,5.067,2.063.609.048,1.219.077,1.829.092a11.492,11.492,0,0,0,6.152,3.756,63.23,63.23,0,0,0,9.808,1.66c3.316.392,6.644.662,9.978.836,3.788.2,7.617.487,11.417.4,3.856-.086,13.061-.638,13.118-1.284a1.1,1.1,0,0,0,.2-.959" transform="translate(-725.37 -644.718)" fill="#ff9659"/>
        <path id="Trazado_878420" data-name="Trazado 878420" d="M1469.282,577.135a324.488,324.488,0,0,0-11.394-53.887,99.961,99.961,0,0,0-4.4-12.914,28.023,28.023,0,0,0-8.389-9.84c-.154-.118-7.542,4.578-9.58,7.246-3.208,4.2-4.64,9.374-5.461,14.517a282.847,282.847,0,0,0-3.045,35.882q-.28,9.171-.061,18.346c-.3.186,13.769,28.69,14.3,28.674,8.1-.235,17.125-.695,23.284-6.691,5.73-5.579,5.639-13.956,4.743-21.335" transform="translate(-1136.852 -398.768)" fill="#340b81"/>
        <path id="Trazado_878421" data-name="Trazado 878421" d="M1232.151,821.307c-4.142-8.889-22.186-17.667-22.346-17.145-20.068-1.821-63.227,3.463-71.005,4.6a2.965,2.965,0,0,0-2.784,2.674c-.246,1.752-.34,3.54-.422,5.306a68.615,68.615,0,0,0,.027,10.058,101.746,101.746,0,0,0,5.218,23.616c-.2.509,58.837,7.976,87.483-7.317,7-3.738,7.024-14.932,3.829-21.788" transform="translate(-904.649 -640.416)" fill="#340b81"/>
        <path id="Trazado_878422" data-name="Trazado 878422" d="M952.143,931.462q3.32-.084,6.639-.215t6.635-.309q1.873-.1,3.746-.216a.406.406,0,1,0,0-.813q-3.315.2-6.633.362t-6.637.268q-1.875.062-3.751.11a.407.407,0,0,0,0,.813" transform="translate(-758.298 -740.906)" fill="#ba5830"/>
        <path id="Trazado_878423" data-name="Trazado 878423" d="M1005.761,956.559l6.227-.094a.406.406,0,0,0,0-.813l-6.227.094a.406.406,0,1,0,0,.813" transform="translate(-801.018 -761.417)" fill="#ba5830"/>
        <path id="Trazado_878424" data-name="Trazado 878424" d="M1437.581,552.466a25.6,25.6,0,0,0-4.91,6.818,37.077,37.077,0,0,0-2.907,8.149,73.178,73.178,0,0,0-1.505,9.711c-.325,3.3-.574,6.614-.849,9.921q-.421,5.059-.843,10.118-.053.635-.106,1.271c-.043.521.77.518.813,0q.417-5.014.835-10.027c.274-3.293.532-6.587.83-9.878a83.62,83.62,0,0,1,1.322-9.612,38.622,38.622,0,0,1,2.635-8.252,25.957,25.957,0,0,1,4.52-6.887q.361-.387.74-.756c.375-.366-.2-.941-.575-.575" transform="translate(-1136.535 -440.084)" fill="#280d0d"/>
        <path id="Trazado_878425" data-name="Trazado 878425" d="M1431.637,803.9q4.2.026,8.4.248t8.381.642q2.354.236,4.7.534a.407.407,0,0,0,.406-.406.419.419,0,0,0-.406-.406q-4.17-.529-8.361-.863t-8.392-.47q-2.365-.077-4.731-.091a.406.406,0,0,0,0,.813" transform="translate(-1140.336 -639.858)" fill="#280d0d"/>
        <path id="Trazado_878426" data-name="Trazado 878426" d="M1196.126,828.066a13.151,13.151,0,0,0-.293,2.457c-.049,1.1-.031,2.213.014,3.317.116,2.872.41,5.738.766,8.589q.621,4.975,1.514,9.911c.572,3.19,1.216,6.368,1.973,9.52a69.487,69.487,0,0,0,2.128,7.421q.125.347.259.691a.419.419,0,0,0,.5.284.41.41,0,0,0,.284-.5,58.476,58.476,0,0,1-2.128-7.055c-.767-3.069-1.415-6.168-1.994-9.278-.606-3.255-1.139-6.548-1.571-9.816-.388-2.933-.712-5.879-.873-8.834-.063-1.16-.1-2.323-.082-3.484.008-.476.027-.952.063-1.426.016-.21.036-.42.06-.629,0-.042.01-.084.015-.126,0-.025.006-.049.01-.074-.016.127-.005.038,0,.011.014-.093.027-.186.043-.279.028-.162.06-.324.1-.484.121-.508-.662-.726-.784-.216" transform="translate(-952.759 -659.531)" fill="#280d0d"/>
        <path id="Trazado_878427" data-name="Trazado 878427" d="M344.84,605.941c-.875-2.141-3.862-2.97-5.888-3.4-6.547-1.379-15.554.935-18.306,7.682-2.163,5.3-.658,10.7,4.51,17.686.452.611,6.11-2.4,6.96-3.12a48.653,48.653,0,0,0,5.7-5.777c3.015-3.557,6.5-7.558,7.008-12.372a.736.736,0,0,0,.012-.7" transform="translate(-254.713 -479.774)" fill="#fff"/>
        <path id="Trazado_878428" data-name="Trazado 878428" d="M281.354,585.7c-1.917-2.525-4.8-4.353-7.83-3.865-4.881.786-6.841,6.605-5.095,10.794,1.188,2.851,4.574,3.867,7.442,3.7a11.323,11.323,0,0,0,4.9-1.443c1.349-.772,3.061-2.053,2.867-3.813a11.272,11.272,0,0,0-2.282-5.371" transform="translate(-213.372 -463.515)" fill="#fff"/>
        <path id="Trazado_878429" data-name="Trazado 878429" d="M409.383,809.349c-5.685-7.149-11.41-15.5-18.808-20.9-3.829-2.8-8.185-5.909-12.585-7.619-.273-1.759-3.718,7.528-3.471,11.379.319,4.975.908,9.927,1.617,14.858,1.425,9.909,7.132,34.9,9.259,38.961,5.958,11.365,15.766,22.838,24.435,22.81,6.018-.019,11.243-.334,15.647-4.022a19.411,19.411,0,0,0,6.956-14.431c.276-6.732-17.361-33.877-23.051-41.033" transform="translate(-298.388 -621.949)" fill="#fd5a37"/>
        <path id="Trazado_878430" data-name="Trazado 878430" d="M200.41,784.089c-2.48-5.309-5.306-10.444-8.164-15.557.146-.224-12.471-7.422-12.747-7.337-6.689,2.067-13.517,4.194-19.464,7.989a65.324,65.324,0,0,0-10.585,9.19c-2.7,3.06-14.092,18.467-13.979,18.673,0,.006-1.7,37.55.829,39.426,4.518,3.348,36.338,11.414,38.124,11.62,1.871.216,16.694-.586,16.974-.914a.66.66,0,0,0,.4-.539c6.646-8.961,13.452-18.392,15.489-29.6,2.056-11.321-2.147-22.813-6.881-32.947" transform="translate(-107.491 -606.482)" fill="#fd5a37"/>
        <path id="Trazado_878431" data-name="Trazado 878431" d="M337.622,675.643a2.03,2.03,0,0,1,.216,1.407,82.623,82.623,0,0,1-2.811,9.53,13.578,13.578,0,0,0,2.382,3.875,12.49,12.49,0,0,0,7.372,4.171,11.233,11.233,0,0,0,5.922-.739c.272-1.325,2.137-9.665,3.217-9.512.358.051-4.395-9.9-7.969-12.739-1.66-1.321-3.662-2.948-5.8-3.194-1.8-.207-4.955,3.445-4.508,4.021a30.855,30.855,0,0,1,1.981,3.181" transform="translate(-266.934 -532.574)" fill="#ff9659"/>
        <path id="Trazado_878432" data-name="Trazado 878432" d="M383.261,630.222c-.02-.073-.039-.148-.059-.222-.211-.793-.431-1.591-.661-2.39-.073-.258-.148-.514-.226-.772a1.022,1.022,0,0,1,.236-1c.785-.809,1.457-1.919.681-2.715-.482-.5-1.378-.555-1.963-.937a4.775,4.775,0,0,1-.494-.374,1.3,1.3,0,0,1-.35-.5,42.6,42.6,0,0,0-1.791-3.953,9.769,9.769,0,0,0-4.3-4.557,15.568,15.568,0,0,0-6.843-.994.689.689,0,0,0-.4.124c-7.39-.138-10.059,10.116-6.553,15.687a.586.586,0,0,0,.118.51q2.091,2.814,4.335,5.512a24.637,24.637,0,0,0,4.447,4.575c1.778,1.252,9.638,1.528,11.416.915,3.864-1.331,3.236-5.782,2.408-8.906" transform="translate(-286.04 -487.453)" fill="#ff9659"/>
        <path id="Trazado_878433" data-name="Trazado 878433" d="M425.981,640.286a2,2,0,0,0-1.157-1.084,4.1,4.1,0,0,0-4.1,1.38c-.407.461-1.039,1.277-.753,1.954.317.754,1.211.561,1.732.176a4.381,4.381,0,0,1,2.262-.986c.577-.054,1.672-.022,2-.672a.939.939,0,0,0,.025-.768" transform="translate(-334.552 -509.174)" fill="#fff"/>
        <path id="Trazado_878434" data-name="Trazado 878434" d="M351.246,610.816c-.317-.257-7.055-1.078-10.3-.155a14.129,14.129,0,0,0-7.26,5.65,16.463,16.463,0,0,0-3.041,8.419c-.106,1.668-1.9,2.772-1.23,4.3a12.717,12.717,0,0,0,2.383,3.553c.321.384.546,1.51.79,1.174,1.365-1.878,3.745-3.59,4.7-5.691a.527.527,0,0,1,.713-.255,1.85,1.85,0,0,0,2.146-.091c1.034-.592.869-.71.983-1.955,2.669-.7,4.959-2.014,7.127-5.6,1.776-2.941,6.58-6.426,2.987-9.342" transform="translate(-262.341 -486.204)" fill="#fff"/>
        <path id="Trazado_878435" data-name="Trazado 878435" d="M440.181,660.353a3.626,3.626,0,0,0-.191-.857,2.813,2.813,0,0,0-.632-1.141.955.955,0,0,0-1.482.134,1.273,1.273,0,0,0-.182.657,3.143,3.143,0,0,0,.438,1.507c.224.43.591,1.016,1.12,1.092a.766.766,0,0,0,.719-.355,1.6,1.6,0,0,0,.21-1.037" transform="translate(-348.731 -524.314)" fill="#170501"/>
        <path id="Trazado_878436" data-name="Trazado 878436" d="M389.7,713.745c.707,1.078,1.416,2.167,2.2,3.192a6.573,6.573,0,0,0,1.324,1.348,6.8,6.8,0,0,0,1.54.817,15.416,15.416,0,0,0,1.831.567.407.407,0,0,0,.216-.784A9.324,9.324,0,0,1,393.8,717.7a5.446,5.446,0,0,1-1.171-1.134c-.058-.074-.147-.192-.224-.3-.089-.122-.176-.246-.263-.37q-.269-.383-.535-.768-.615-.892-1.209-1.8a.407.407,0,0,0-.7.41" transform="translate(-310.446 -568.189)" fill="#ba5830"/>
        <path id="Trazado_878437" data-name="Trazado 878437" d="M466.319,675.159a2.153,2.153,0,0,0-.945.51.407.407,0,0,0,0,.575.409.409,0,0,0,.288.119.44.44,0,0,0,.287-.119c.035-.032.071-.062.108-.092l-.082.064a1.762,1.762,0,0,1,.388-.227l-.1.041a1.766,1.766,0,0,1,.269-.088.406.406,0,0,0,.284-.5.41.41,0,0,0-.187-.243.434.434,0,0,0-.313-.041" transform="translate(-370.693 -537.923)" fill="#ba5830"/>
        <path id="Trazado_878438" data-name="Trazado 878438" d="M754.129,800.223a4.757,4.757,0,0,0-.625-2.544,1.149,1.149,0,0,0,.18-.212c1.7-2.578-.12-5.867-2.686-6.979a12.988,12.988,0,0,0-5.186-.662,46.177,46.177,0,0,0-17.362,3.117c-3.507,1.342-15.927,19.1-15.309,19.828,4.163,4.907,14.575,16.083,14.26,15.079a18.2,18.2,0,0,0,3.982-1.225,33.619,33.619,0,0,0,4.957-2.434,14.127,14.127,0,0,0,5.356-5.648c2.431-.405,4.749-1.388,5.289-4.1a5.372,5.372,0,0,0-.224-2.913A9.146,9.146,0,0,0,751.6,809.6a4.408,4.408,0,0,0,1.324-4.81,3.52,3.52,0,0,0-.158-.344,1.156,1.156,0,0,0,.171-.15,5.674,5.674,0,0,0,1.192-4.072" transform="translate(-568.179 -629.294)" fill="#ff9659"/>
        <path id="Trazado_878439" data-name="Trazado 878439" d="M895.194,663.411A14.109,14.109,0,1,1,909.3,649.3a14.125,14.125,0,0,1-14.109,14.109m0-26.186A12.077,12.077,0,1,0,907.271,649.3a12.09,12.09,0,0,0-12.077-12.077" transform="translate(-702.006 -506.09)" fill="#280d0d"/>
        <path id="Trazado_878440" data-name="Trazado 878440" d="M825.816,856.911a1.012,1.012,0,0,0-.656.4l-2.328,3.136a1.016,1.016,0,0,0,1.632,1.212l1.553-2.092a10.777,10.777,0,0,1-.2-2.652" transform="translate(-655.432 -682.745)" fill="#280d0d"/>
        <path id="Trazado_878441" data-name="Trazado 878441" d="M881.339,764.247a1.016,1.016,0,0,1-.805-1.635l6.075-7.912a1.016,1.016,0,1,1,1.612,1.238l-6.075,7.912a1.015,1.015,0,0,1-.807.4" transform="translate(-701.4 -600.992)" fill="#280d0d"/>
        <path id="Trazado_878442" data-name="Trazado 878442" d="M334.686,760c-.088-2.23-1.145-7.147-1.405-7.2a.9.9,0,0,0-1.467-.035c-1.827,2.611-6.1,1.549-8.424.3a14.986,14.986,0,0,1-6.12-6.535.8.8,0,0,0-1.423.055,52.033,52.033,0,0,0-4.529,5.23.631.631,0,0,0-.055.763c1.038,5.8,5.691,9.832,10.3,13.143,1.076.773,2.261,1.74,3.679,1.7,1.273-.032,3.617-6.012,4.6-9.126a.282.282,0,0,1,.537.009c.652,2.349,1.926,6.035,2.779,8.512a.378.378,0,0,0,.728-.061,54.543,54.543,0,0,0,.8-6.759" transform="translate(-247.917 -594.467)" fill="#fff"/>
        <path id="Trazado_878443" data-name="Trazado 878443" d="M731.614,800.8c-3.13,1.383-11.8,13.6-13.885,17a1.18,1.18,0,0,0-.139.327.914.914,0,0,0,.057,1.065c3.006,4.284,8.29,14.748,8.933,14.926.641,1.249,2.5.182,1.955-1.07,2.28-2.009,4.628-3.983,6.733-6.165,2.144-2.223,4.612-6.1,2.061-16.248-.764-3.038,5.527-2.42,8.066-3.056a11.819,11.819,0,0,0,6.555-4.042,5.018,5.018,0,0,0,1.171-2.689c.16-1.111-.438-2.762-1.554-2.644-4.662.494-18.64,2.013-19.953,2.593" transform="translate(-571.627 -635.968)" fill="#ff9659"/>
        <path id="Trazado_878444" data-name="Trazado 878444" d="M708.972,870.62c-.6-.292-.861-.708-1.552-.582-.711.129-4.309,3.945-5.376,5.356-.059.078,6.039,9.542,8.7,13.756,2.768,4.387,5.9,8.366,10.276,11.251a.991.991,0,0,0,1.467-.376l3.569-4.493a1.158,1.158,0,0,0,.26-.679c-2.164-13.678-14.5-22.848-17.341-24.233" transform="translate(-559.354 -693.186)" fill="#ffe3c7"/>
        <path id="Trazado_878445" data-name="Trazado 878445" d="M469.594,689.584a5.941,5.941,0,0,0-.856.951,5.181,5.181,0,0,0-.38.6.472.472,0,0,0,.1.665,1.237,1.237,0,0,0,.626.118l.829.043.346.018c-.211-.793-.431-1.591-.661-2.39" transform="translate(-373.092 -549.427)" fill="#ba5830"/>
        <path id="Trazado_878446" data-name="Trazado 878446" d="M344.416,975.656c-1.289-1.11-9.46-2.147-9.389.054a1.412,1.412,0,0,0,2.195,1.153,1.175,1.175,0,0,0,.844.422,36.022,36.022,0,0,0,5.372.279c1.252-.033,1.792-1.207.978-1.908" transform="translate(-266.933 -776.367)" fill="#fff"/>
        <path id="Trazado_878447" data-name="Trazado 878447" d="M291.551,1100.719a2.32,2.32,0,0,0-2.208-1.838,1.133,1.133,0,0,0-1.118,1.118,1.192,1.192,0,0,0,.636,1.008,2.1,2.1,0,0,0,.075.406,1.162,1.162,0,0,0,.514.668,1.142,1.142,0,0,0,.861.113c.048-.016.1-.035.143-.056a.956.956,0,0,0,.316-.045,1.139,1.139,0,0,0,.781-1.375" transform="translate(-229.642 -875.534)" fill="#ffe3c7"/>
        <path id="Trazado_878448" data-name="Trazado 878448" d="M265.251,981.161c-.411-1.608-2.526-1.372-3.784-1.456,0,0-24.725-1.944-29.183-1.944,0,0-12.407,37.093-11.889,37.98.358.612,33.3,10.8,36.273,0,3.47-12.6,8.3-31.209,8.414-32.073a7.129,7.129,0,0,0,.17-2.506" transform="translate(-175.587 -779.032)" fill="#fff"/>
        <path id="Trazado_878449" data-name="Trazado 878449" d="M295.67,1192.835c-.078-1.071-.1-2.386-.926-3.192a1.54,1.54,0,0,0-2.39.245,7.92,7.92,0,0,0-.823,3.429c-.332,2.7.938,9.926,1.926,9.807,2.284-.275,2.025-4.019,2.2-6.208a26.828,26.828,0,0,0,.013-4.082" transform="translate(-232.235 -947.484)" fill="#ffe3c7"/>
        <path id="Trazado_878450" data-name="Trazado 878450" d="M305.966,1045.315a7.048,7.048,0,0,0-2.536-6.968,1.163,1.163,0,0,0-.767-.264c-1.184.031-1.354.046-1.711,1.221a7.484,7.484,0,0,1-4.009,5,13.125,13.125,0,0,1-4.157,1.195.635.635,0,0,1-.554-1.055c1.348-1.445,3.784-2.011,5.387-3.294a4.738,4.738,0,0,0,1.924-3.312,2.718,2.718,0,0,0-2.192-2.913c-2.763-.5-6.77,1.883-9.193,3.025-4.8,2.26-10.283,4.694-11.624,10.265a2.267,2.267,0,0,1-1.851,1.7q-1.122.178-2.248.331a.867.867,0,0,0-.752.532,1.019,1.019,0,0,0-.274.475,57.477,57.477,0,0,0-1.961,18.534.994.994,0,0,0,.875,1.615c6.837-.621,26.647-3.73,29.212-5.321a6.49,6.49,0,0,0,3.307-5.246,7.119,7.119,0,0,0,2.142-5.756c2.505-2.664,2.087-6.553.982-9.763" transform="translate(-214.529 -824.521)" fill="#ff9659"/>
        <path id="Trazado_878451" data-name="Trazado 878451" d="M266.762,1240.36c.058.015.116.026.174.039.455.021.907.087,1.363.092.03,0,.059,0,.088,0a4.14,4.14,0,0,0,1.26-.328c1.754-1.074,2.031-3.953,2.149-5.109.536-5.276.259-7.924-.314-9.312-.463-1.123-1.681-2.261-2.951-1.487-1.223.745-1.089,2.741-1.206,3.957-.344,3.555-.853,12.058-.563,12.15" transform="translate(-212.474 -975.223)" fill="#ad522f"/>
        <path id="Trazado_878452" data-name="Trazado 878452" d="M534.973,911.8c-4.3-11.392-12.173-24.284-22.493-31.308a1.116,1.116,0,0,0-1.294.019c-14.851,11-51.229,54.811-50.846,55.269,5.9,7.033,9.263,10.567,12.609,12.7,4.733,3.012,11.135,4.249,16.044,1.351,26.139-15.427,45.777-36.959,45.723-37.193a.657.657,0,0,0,.256-.835" transform="translate(-366.775 -701.378)" fill="#fd5a37"/>
        <path id="Trazado_878453" data-name="Trazado 878453" d="M255.56,1127.851q-.531-2.723-.9-5.475a94.631,94.631,0,0,1-.281-22.174c.083-.8-.777-1.17-1.415-1.078l-6.263.908a.865.865,0,0,0-.794.72.885.885,0,0,0-.881.808c-1.455,9.086-3.067,29.582-1.641,29.7,1.924.16,3.852.26,5.783.288q1.5.021,3-.013a11.579,11.579,0,0,0,2.549-.14c1.762-.455,1.093-2.294.848-3.546" transform="translate(-193.476 -875.719)" fill="#ffe3c7"/>
        <path id="Trazado_878454" data-name="Trazado 878454" d="M46.52,825.722C35.8,834.7,10.424,867.776,5.172,879.082,2.115,885.665-.723,892.757.755,900.089a17.483,17.483,0,0,0,4.366,8.647,18.445,18.445,0,0,0,8.7,4.843c3.442.9,7.459,1.4,10.619-.593a18.484,18.484,0,0,0,3.728-3.371q1.991-2.2,3.94-4.439c5.292-6.063,26.759-31.951,33.154-54.057,4.005-13.845-17.813-26.169-18.736-25.4" transform="translate(-0.28 -657.867)" fill="#fd5a37"/>
        <path id="Trazado_878455" data-name="Trazado 878455" d="M54.21,1132.98c.026.007.053.012.079.019l.439.054c.365.028.729.072,1.1.076.038,0,.076,0,.114,0a4.267,4.267,0,0,0,.544-.094.936.936,0,0,0,.384-1.01c-3.4-13.291-3.061-37.086.033-40.421.7-.75-.884-1.6-1.587-1.339l-.049-.006c-7.725-.5-15.462-.842-23.2-.917-7.37-.071-15.276-.576-22.344,1.89-6.45,2.25-7.42,2.556-8.941,8.772-1.252,5.116-.857,11.305.262,14.208,1.054,2.734,2.493,5.583,5,7.123,10.544,6.481,38.484,10.441,47.979,11.632a.5.5,0,0,1,.2.016" transform="translate(0 -867.861)" fill="#fd5a37"/>
        <path id="Trazado_878456" data-name="Trazado 878456" d="M403.549,1081.9a11.387,11.387,0,0,1-3.245,3.692,12.422,12.422,0,0,1-2.2,1.281l-.139.062-.077.034q-.149.063-.3.121-.292.114-.59.212a12,12,0,0,1-1.226.336q-.352.077-.709.131l-.169.025c.075-.011.01,0,0,0l-.113.014q-.17.02-.34.035a11.211,11.211,0,0,1-1.442.033.409.409,0,0,0-.406.406.415.415,0,0,0,.406.406,12.05,12.05,0,0,0,5.143-.952,12.735,12.735,0,0,0,4.359-3.014,11.823,11.823,0,0,0,1.75-2.413.407.407,0,0,0-.7-.41" transform="translate(-312.799 -861.847)" fill="#ba5830"/>
        <path id="Trazado_878457" data-name="Trazado 878457" d="M406.845,1131.133l-.1.078c-.1.083.03-.022-.032.025s-.121.091-.183.135q-.183.133-.373.256-.361.234-.741.436a10.153,10.153,0,0,1-1.56.674,18.756,18.756,0,0,1-3.5.8l-.125.017-.059.008-.25.032q-.25.031-.5.059c-.346.038-.692.072-1.039.1a.415.415,0,0,0-.406.406.411.411,0,0,0,.406.406,19.851,19.851,0,0,0,7.256-1.712,10.055,10.055,0,0,0,1.773-1.151.408.408,0,0,0,0-.575.418.418,0,0,0-.575,0" transform="translate(-317.095 -901.141)" fill="#ba5830"/>
        <path id="Trazado_878458" data-name="Trazado 878458" d="M409.911,1160.491a13.077,13.077,0,0,1-5,1.158.406.406,0,0,0,0,.813,13.975,13.975,0,0,0,5.413-1.269.408.408,0,0,0,.146-.556.418.418,0,0,0-.556-.146" transform="translate(-322.288 -924.584)" fill="#ba5830"/>
        <path id="Trazado_878459" data-name="Trazado 878459" d="M777.271,801.148q.114-.11.235-.212l.061-.05c.008-.007.06-.048.01-.009.041-.032.083-.062.126-.093a4.986,4.986,0,0,1,.531-.327q.138-.074.28-.14l.143-.064.012,0,.073-.03c.2-.081.409-.151.618-.214a16.634,16.634,0,0,1,2.528-.493l6.452-.889,6.457-.89,1.608-.221c.258-.036.442-.064.711-.09a5,5,0,0,1,.784-.025,1.8,1.8,0,0,1,.289.034,2.422,2.422,0,0,1,.356.1l.068.026c-.006,0-.056-.026-.014-.006s.087.04.13.063a2.328,2.328,0,0,1,.261.16l.058.042c-.013-.01-.056-.047,0,0,.032.027.064.055.1.083a2.523,2.523,0,0,1,.213.221l.046.056c-.01-.012-.043-.06,0,0,.025.034.049.069.073.1a2.579,2.579,0,0,1,.154.266c.022.043.042.087.061.131-.03-.071.01.032.018.054a2.407,2.407,0,0,1,.084.294c.01.047.018.094.026.142-.015-.087,0,.049.006.071a2.171,2.171,0,0,1,0,.289c0,.018-.016.159-.006.087-.007.052-.017.1-.028.156a2.624,2.624,0,0,1-.084.3q-.026.075-.055.148c.027-.067-.033.072-.039.084-.046.1-.1.189-.152.28s-.115.181-.177.268l-.048.065-.011.014c-.034.043-.068.085-.1.126a5.968,5.968,0,0,1-.45.474c-.162.154-.332.3-.506.442l-.112.09-.078.062c-.091.07-.184.139-.277.207a15.484,15.484,0,0,1-2.223,1.328,24.688,24.688,0,0,1-2.361,1.012c-1.65.625-3.337,1.149-4.979,1.8q-.653.257-1.295.541a5.39,5.39,0,0,0-1.2.626,1.029,1.029,0,0,0-.373.677,2.16,2.16,0,0,0,.077.765q.084.37.153.744.031.17.058.341c.008.053.017.106.025.16l.013.091s.017.126.011.075a12.067,12.067,0,0,1,.048,2.934c-.022.191-.058.424-.1.658s-.1.475-.17.709-.143.466-.231.694c-.018.047-.037.092-.055.139,0,.012-.03.072,0,.006l-.03.069q-.06.137-.126.272a7.217,7.217,0,0,1-.628,1.046l-.078.106-.046.06c.042-.054,0,0-.006.007-.067.083-.134.165-.2.245q-.2.226-.412.434t-.447.394l-.058.046c-.051.039.045-.034-.006,0l-.1.077q-.127.092-.26.177a5.8,5.8,0,0,1-.51.294q-.131.067-.265.127l-.05.022c.067-.029.009,0,0,0l-.154.06a5.166,5.166,0,0,1-.544.169q-.143.036-.288.064l-.128.022-.073.011c-.072.012.1-.012-.021,0a.417.417,0,0,0-.406.406c.009.2.18.435.406.406a6.387,6.387,0,0,0,4.272-2.607,8.841,8.841,0,0,0,1.614-5.357,14.859,14.859,0,0,0-.345-3.058c-.025-.118-.052-.235-.078-.353-.012-.055-.024-.111-.034-.167s0,.052,0-.018c0-.035-.006-.069-.006-.1s0-.055,0-.082c0,.02-.018.065,0-.012a.5.5,0,0,1,.024-.077c-.017.037-.008.008.013-.01-.056.049.05-.05.061-.06s.061-.042.009-.007q.04-.027.082-.052a10.667,10.667,0,0,1,1.2-.567l.151-.065.076-.032.017-.007.343-.141q.306-.124.615-.242c.425-.163.853-.319,1.282-.472.858-.305,1.721-.6,2.578-.905a24.451,24.451,0,0,0,4.9-2.255,10.541,10.541,0,0,0,2.141-1.716,3.569,3.569,0,0,0,1.076-2.495,2.923,2.923,0,0,0-1.247-2.228,4.046,4.046,0,0,0-2.984-.37l-6.583.907-6.608.911c-.976.135-1.958.247-2.926.43a8.5,8.5,0,0,0-2.544.849,5.088,5.088,0,0,0-1.059.781.41.41,0,0,0,0,.575.415.415,0,0,0,.575,0" transform="translate(-618.741 -634.681)" fill="#ba5830"/>
        <path id="Trazado_878460" data-name="Trazado 878460" d="M858.321,829.488a18.153,18.153,0,0,1-4.6,3.563,7.991,7.991,0,0,1-1.284.5c-.229.067-.461.124-.695.17a5.076,5.076,0,0,1-.642.09,6.347,6.347,0,0,1-.711.02q-.144,0-.288-.016l-.153-.014-.076-.009c-.122-.014.044.008-.026,0a6.193,6.193,0,0,1-1.193-.31l-.072-.028c-.024-.01-.081-.033-.027-.011-.053-.023-.106-.046-.158-.071q-.156-.073-.308-.157a5.025,5.025,0,0,1-.577-.373c-.052-.039.043.034-.008-.006l-.074-.06q-.066-.055-.13-.112-.128-.114-.246-.237t-.227-.257c-.006-.008-.056-.069-.027-.034s-.032-.043-.037-.05q-.057-.077-.11-.157a.407.407,0,1,0-.7.41,5.556,5.556,0,0,0,4.682,2.309,9.567,9.567,0,0,0,5.615-2.225,31,31,0,0,0,2.644-2.355.406.406,0,0,0-.575-.575" transform="translate(-673.97 -660.804)" fill="#ba5830"/>
        <path id="Trazado_878461" data-name="Trazado 878461" d="M849.78,847.407a11.661,11.661,0,0,1-1.591,1.139,19.691,19.691,0,0,1-1.749.929q-.458.217-.924.42c-.306.135-.605.263-.883.377a16,16,0,0,1-1.926.674,6.648,6.648,0,0,1-1.95.269,3.927,3.927,0,0,1-.905-.107,4.421,4.421,0,0,1-.454-.13c-.069-.024-.136-.049-.2-.076-.111-.044.043.02-.023-.01l-.118-.055a4.359,4.359,0,0,1-.7-.425c-.1-.073.058.05-.035-.028l-.086-.071q-.071-.06-.139-.123-.157-.145-.3-.305-.068-.076-.133-.156s-.072-.091-.037-.046-.039-.052-.035-.048a4.368,4.368,0,0,1-.245-.373q-.094-.16-.174-.328c-.016-.034-.031-.068-.047-.1-.052-.11.028.074-.017-.04-.027-.069-.054-.138-.078-.209a4.551,4.551,0,0,1-.161-2.146c-.006.043.006-.036.006-.035.01-.064.02-.127.031-.191q.025-.143.055-.286c.043-.207.092-.412.145-.616.1-.392.221-.781.34-1.168a.41.41,0,0,0-.284-.5.415.415,0,0,0-.5.284,8.624,8.624,0,0,0-.529,4.481,4.788,4.788,0,0,0,2.09,2.9c2.534,1.608,5.661.219,8.1-.881a16.5,16.5,0,0,0,4.036-2.441.408.408,0,0,0,0-.575.417.417,0,0,0-.575,0" transform="translate(-666.087 -672.166)" fill="#ba5830"/>
        <path id="Trazado_878462" data-name="Trazado 878462" d="M836.517,872.5a16.957,16.957,0,0,0-.35,2.873,4.039,4.039,0,0,0,.428,2.348,2.666,2.666,0,0,0,2.152,1.074,10.1,10.1,0,0,0,2.756-.227,28.955,28.955,0,0,0,3.038-.844.407.407,0,1,0-.216-.784c-.84.267-1.682.534-2.541.736a10.621,10.621,0,0,1-2.539.324c-.192,0-.385-.007-.576-.025l-.118-.013c-.068-.008.057.009-.01,0l-.059-.009c-.091-.015-.181-.034-.27-.057s-.163-.045-.243-.074c-.018-.007-.127-.052-.064-.024-.041-.019-.081-.038-.121-.059a1.981,1.981,0,0,1-.212-.131c.056.039-.038-.032-.053-.045q-.051-.045-.1-.095l-.051-.057s-.042-.05-.016-.018-.012-.017-.014-.019l-.042-.062a2.062,2.062,0,0,1-.127-.231c-.032-.068.008.028-.017-.042-.015-.042-.03-.084-.044-.126-.027-.086-.049-.173-.068-.261-.008-.038-.015-.076-.022-.115,0-.02-.02-.138-.011-.066q-.017-.137-.025-.275c-.011-.176-.013-.353-.01-.53a15.363,15.363,0,0,1,.329-2.948.407.407,0,1,0-.784-.216" transform="translate(-666.211 -694.934)" fill="#ba5830"/>
        <path id="Trazado_878463" data-name="Trazado 878463" d="M838.528,898.625a8.5,8.5,0,0,0-.129,3.038,4.275,4.275,0,0,0,1.077,2.213,3.322,3.322,0,0,0,1.176.793.408.408,0,0,0,.5-.284.419.419,0,0,0-.284-.5c.069.028-.037-.017-.057-.026-.039-.018-.077-.038-.116-.059-.076-.041-.15-.085-.221-.133-.036-.024-.071-.049-.106-.074s0,0,.009.008l-.057-.046q-.1-.083-.192-.174t-.178-.19c-.029-.033-.056-.067-.083-.1s0,0,.006.009l-.055-.076a3.722,3.722,0,0,1-.274-.449c-.038-.073-.073-.146-.106-.221s-.01-.023,0-.007l-.021-.052q-.027-.07-.052-.141a4.24,4.24,0,0,1-.149-.542,5.368,5.368,0,0,1-.087-1.3,9.528,9.528,0,0,1,.186-1.471.407.407,0,1,0-.784-.216" transform="translate(-667.927 -715.746)" fill="#ba5830"/>
        <path id="Trazado_878464" data-name="Trazado 878464" d="M458.69,903.707a44.836,44.836,0,0,1,3.307,8.4,38.351,38.351,0,0,1,1.42,8.831,31.992,31.992,0,0,1-.869,8.882,33.439,33.439,0,0,1-2.164,6.515A55.143,55.143,0,0,1,457,942.02l-.589.924c-.281.443.422.851.7.41,1.264-1.987,2.611-3.943,3.692-6.039A30.329,30.329,0,0,0,463.088,931a36.4,36.4,0,0,0,.9-4.475,32.952,32.952,0,0,0,.27-4.514,38.489,38.489,0,0,0-1.2-9.073,45.16,45.16,0,0,0-3.169-8.641q-.243-.5-.5-1c-.239-.466-.941-.055-.7.41" transform="translate(-363.591 -719.54)" fill="#280d0d"/>
        <path id="Trazado_878465" data-name="Trazado 878465" d="M315.357,926.668a51.658,51.658,0,0,1-2.19,8.009q-.4,1.107-.852,2.195a.407.407,0,0,0,.284.5.419.419,0,0,0,.5-.284,51.67,51.67,0,0,0,2.553-7.9q.271-1.146.489-2.3a.407.407,0,1,0-.784-.216" transform="translate(-248.821 -738.089)" fill="#280d0d"/>
        <path id="Trazado_878466" data-name="Trazado 878466" d="M142.761,1088.356q-4.791-.293-9.593-.36-4.775-.066-9.549.092-2.676.089-5.35.248a.406.406,0,1,0,0,.813q4.792-.285,9.594-.344,4.775-.058,9.549.107,2.676.093,5.35.257a.409.409,0,0,0,.406-.407.416.416,0,0,0-.406-.406" transform="translate(-93.907 -866.847)" fill="#280d0d"/>
        <path id="Trazado_878467" data-name="Trazado 878467" d="M150.9,1041.378l.009,0,.084.036.126.054.294.127q.284.124.565.251.563.255,1.12.525,1.114.539,2.2,1.134a48.434,48.434,0,0,1,4.21,2.6q.566.391,1.12.8c.367.269.758.564,1.087.821a.417.417,0,0,0,.575,0,.41.41,0,0,0,0-.575,49.463,49.463,0,0,0-4.152-2.917,48.4,48.4,0,0,0-4.382-2.441q-1.3-.639-2.641-1.2a.407.407,0,0,0-.5.284.419.419,0,0,0,.284.5" transform="translate(-119.994 -829.078)" fill="#280d0d"/>
        <path id="Trazado_878468" data-name="Trazado 878468" d="M272,1264.3c.161.89.316,1.78.484,2.668a12.249,12.249,0,0,0,.613,2.3,6.307,6.307,0,0,0,.653,1.25.407.407,0,0,0,.7-.41,6.286,6.286,0,0,1-.9-2.081c-.209-.792-.34-1.6-.486-2.409l-.277-1.535a.408.408,0,0,0-.5-.284.418.418,0,0,0-.284.5" transform="translate(-216.71 -1006.924)" fill="#280d0d"/>
        <path id="Trazado_878469" data-name="Trazado 878469" d="M299.3,1214.75a17.468,17.468,0,0,0,.626,5q.191.688.438,1.357a.407.407,0,1,0,.784-.216,16.68,16.68,0,0,1-1.008-4.737q-.043-.7-.028-1.4a.406.406,0,0,0-.813,0" transform="translate(-238.464 -967.53)" fill="#280d0d"/>
        <path id="Trazado_878470" data-name="Trazado 878470" d="M553.364,995.452q-2.019,1.967-3.96,4.013t-3.8,4.167q-1.052,1.2-2.077,2.427a.407.407,0,0,0,.575.575q1.809-2.162,3.7-4.252t3.868-4.1q1.119-1.14,2.263-2.254a.406.406,0,0,0-.575-.575" transform="translate(-432.967 -793.035)" fill="#280d0d"/>
        <path id="Trazado_878471" data-name="Trazado 878471" d="M325.755,618.961a9.6,9.6,0,0,0-3.156,4.285,8.953,8.953,0,0,0-.392,1.411.407.407,0,0,0,.784.216,8.927,8.927,0,0,1,.318-1.2q.052-.152.109-.3.025-.066.051-.131l.03-.074c0-.011.039-.092.013-.033q.123-.286.265-.563a9.157,9.157,0,0,1,.642-1.066q.086-.124.176-.244l.048-.064c-.011.014-.04.051.01-.013l.1-.126q.2-.242.409-.469.24-.257.5-.494.133-.122.272-.239l.124-.1.063-.05c.01-.008.1-.077.044-.035a.418.418,0,0,0,.146-.556.41.41,0,0,0-.556-.146" transform="translate(-256.712 -493.109)" fill="#e0b992"/>
        <path id="Trazado_878472" data-name="Trazado 878472" d="M379.676,649a11.776,11.776,0,0,0-2.352,4.584c-.142.463-.273.928-.4,1.394a.407.407,0,1,0,.784.216,17.165,17.165,0,0,1,1.751-4.56q.18-.29.383-.565l.05-.066.013-.016.1-.129c.079-.1.162-.191.246-.283a.406.406,0,1,0-.575-.575" transform="translate(-300.302 -517)" fill="#e0b992"/>
        <path id="Trazado_878473" data-name="Trazado 878473" d="M281.982,617.016c-.034.083.015-.026.02-.035.017-.032.035-.063.054-.094s.039-.06.061-.089c-.052.071.02-.021.027-.029a1.669,1.669,0,0,1,.127-.127c.027-.024.054-.048.083-.07-.068.052.053-.034.066-.042a2.033,2.033,0,0,1,.191-.109c.033-.016.066-.032.1-.047-.067.028-.007,0,.006,0a2.715,2.715,0,0,1,.465-.12c-.1.015.045,0,.049,0l.1-.006c.1,0,.19,0,.286,0a2.881,2.881,0,0,1,.506.066,9.2,9.2,0,0,1,1.08.31,14.927,14.927,0,0,1,1.729.69,10.473,10.473,0,0,1,1.68.991c.132.1.209.156.361.285q.2.169.387.351t.361.378q.094.105.183.215c.077.094.062.076.135.174a.416.416,0,0,0,.556.146.411.411,0,0,0,.146-.556,8.838,8.838,0,0,0-3.288-2.633,16.781,16.781,0,0,0-1.976-.806,5.368,5.368,0,0,0-2.416-.4A2.276,2.276,0,0,0,281.2,616.8a.407.407,0,0,0,.284.5.419.419,0,0,0,.5-.284" transform="translate(-224.028 -490.346)" fill="#e0b992"/>
        <path id="Trazado_878474" data-name="Trazado 878474" d="M365.068,675.681c-1.212-1.687-3.017-3.076-4.474-1.569-1.506,1.557.118,4.12,1.407,5.311a3.478,3.478,0,0,0,2.824,1.171,1.863,1.863,0,0,0,1.6-1.9,6.7,6.7,0,0,0-1.355-3.008" transform="translate(-286.822 -536.586)" fill="#ff9659"/>
        <path id="Trazado_878475" data-name="Trazado 878475" d="M367.913,681.965a2.575,2.575,0,0,1,.4.1l.116.042c.018.007.056.025.017.007q.094.042.185.091a3.238,3.238,0,0,1,.351.218,2.6,2.6,0,0,1,.288.237,6.506,6.506,0,0,1,1.09,1.394.407.407,0,1,0,.7-.41,4.724,4.724,0,0,0-2.931-2.462.416.416,0,0,0-.5.284.411.411,0,0,0,.284.5" transform="translate(-292.901 -542.726)" fill="#ba5830"/>
        <path id="Trazado_878476" data-name="Trazado 878476" d="M367.618,700.12a3.224,3.224,0,0,0,3.529,1.354.407.407,0,1,0-.216-.784c-.069.02-.139.037-.209.051l-.106.019c.073-.013,0,0-.034,0a2.675,2.675,0,0,1-.393.01c-.072,0-.143-.01-.214-.019.1.012-.023-.005-.034-.007l-.105-.021a2.86,2.86,0,0,1-.4-.116l-.084-.032c.079.032-.018-.009-.035-.017q-.1-.046-.191-.1t-.184-.112l-.074-.051-.043-.032.011.009a2.665,2.665,0,0,1-.3-.279c-.024-.026-.048-.053-.071-.081s-.077-.1-.026-.029c-.044-.057-.084-.117-.122-.177a.407.407,0,0,0-.7.41" transform="translate(-292.855 -557.333)" fill="#ba5830"/>
        <path id="Trazado_878477" data-name="Trazado 878477" d="M338.354,982.423c2.05.233,4.123.215,6.18.334.534.031,1.067.069,1.6.129a.408.408,0,0,0,.407-.406.419.419,0,0,0-.407-.407c-2.05-.233-4.123-.215-6.18-.334-.534-.031-1.067-.069-1.6-.129a.407.407,0,0,0-.407.406.418.418,0,0,0,.407.406" transform="translate(-269.26 -782.098)" fill="#280d0d"/>
        <path id="Trazado_878478" data-name="Trazado 878478" d="M418.269,776.3a13.9,13.9,0,0,1,1.1,3.831.407.407,0,0,0,.5.284.42.42,0,0,0,.284-.5,14.382,14.382,0,0,0-1.178-4.025.408.408,0,0,0-.556-.146.418.418,0,0,0-.146.556" transform="translate(-333.218 -618.03)" fill="#280d0d"/>
        <path id="Trazado_878479" data-name="Trazado 878479" d="M996.162,194.479l-.44,1.907-1.2,5.189-1.763,7.645-2.157,9.356-2.363,10.249-2.378,10.311-2.224,9.646-1.879,8.15-1.347,5.841c-.213.925-.439,1.848-.64,2.776-.008.039-.018.079-.027.118-.118.509.666.727.784.216l.44-1.907,1.2-5.189,1.763-7.645,2.158-9.357,2.363-10.249,2.378-10.311,2.224-9.646,1.879-8.149,1.347-5.841c.213-.925.439-1.848.64-2.776.009-.039.018-.079.027-.118.117-.509-.666-.726-.784-.216" transform="translate(-780.606 -154.719)" fill="#280d0d"/>
        <path id="Trazado_878480" data-name="Trazado 878480" d="M1097.45,118.575h-57.28c-.99,0-1.793-1.155-1.793-2.579q0-8.925,0-17.85c0-1.425.8-2.58,1.793-2.58h57.28c.99,0,1.793,1.155,1.793,2.58q0,8.925,0,17.849c0,1.425-.8,2.58-1.793,2.58" transform="translate(-827.329 -76.142)" fill="#ffca57"/>
        <path id="Trazado_878481" data-name="Trazado 878481" d="M1085.469,129.75h40.513a.508.508,0,0,0,0-1.016h-40.513a.508.508,0,0,0,0,1.016" transform="translate(-864.459 -102.568)" fill="#fff"/>
        <path id="Trazado_878482" data-name="Trazado 878482" d="M1085.616,155.687h13.866a.508.508,0,1,0,0-1.016h-13.866a.508.508,0,0,0,0,1.016" transform="translate(-864.562 -123.234)" fill="#fff"/>
        <path id="Trazado_878483" data-name="Trazado 878483" d="M665.206,514.812a.405.405,0,0,1-.292-.124l-28.126-29.1a.406.406,0,1,1,.585-.565l28.126,29.1a.406.406,0,0,1-.292.689" transform="translate(-507.271 -386.346)" fill="#280d0d"/>
        <path id="Trazado_878484" data-name="Trazado 878484" d="M428.628,413.556h-57.28c-.99,0-1.793-1.155-1.793-2.579q0-8.925,0-17.85c0-1.425.8-2.58,1.793-2.58h57.28c.99,0,1.793,1.155,1.793,2.58q0,8.924,0,17.849c0,1.425-.8,2.58-1.793,2.58" transform="translate(-294.443 -311.168)" fill="#d93253"/>
        <path id="Trazado_878485" data-name="Trazado 878485" d="M413.239,433.425H453.2a.508.508,0,0,0,0-1.016H413.239a.508.508,0,0,0,0,1.016" transform="translate(-328.858 -344.522)" fill="#fff"/>
        <path id="Trazado_878486" data-name="Trazado 878486" d="M1000.156,844.238a.407.407,0,0,1-.364-.224l-31.6-62.86a.407.407,0,0,1,.727-.365l31.6,62.86a.406.406,0,0,1-.363.589" transform="translate(-771.375 -621.916)" fill="#280d0d"/>
        <path id="Trazado_878487" data-name="Trazado 878487" d="M1029.347,1099.4h-57.28c-.99,0-1.793-1.155-1.793-2.579q0-8.925,0-17.85c0-1.425.8-2.58,1.793-2.58h57.28c.99,0,1.793,1.155,1.793,2.58q0,8.925,0,17.85c0,1.425-.8,2.58-1.793,2.58" transform="translate(-773.067 -857.617)" fill="#ffca57"/>
        <path id="Trazado_878488" data-name="Trazado 878488" d="M1017.365,1123.292h40.513a.508.508,0,0,0,0-1.016h-40.513a.508.508,0,0,0,0,1.016" transform="translate(-810.197 -894.175)" fill="#fff"/>
      </g>
    </g>
    <path id="Trazado_878490" data-name="Trazado 878490" d="M1.973-1.234A.6.6,0,0,1,1.518-1.4a.661.661,0,0,1-.161-.476v-8.853a.706.706,0,0,1,.158-.495.535.535,0,0,1,.413-.172.623.623,0,0,1,.366.088,1.5,1.5,0,0,1,.284.3L8.563-3.072H8.219v-7.69a.647.647,0,0,1,.161-.471.606.606,0,0,1,.455-.165.582.582,0,0,1,.448.165.665.665,0,0,1,.154.471v8.895a.7.7,0,0,1-.143.465.484.484,0,0,1-.389.168.673.673,0,0,1-.377-.1,1.378,1.378,0,0,1-.307-.3L2.245-9.569h.33v7.69a.68.68,0,0,1-.154.476A.577.577,0,0,1,1.973-1.234Zm14.111.028a4.605,4.605,0,0,1-2.438-.63,4.207,4.207,0,0,1-1.6-1.779,6.051,6.051,0,0,1-.567-2.709,6.515,6.515,0,0,1,.322-2.118,4.555,4.555,0,0,1,.924-1.605,4.051,4.051,0,0,1,1.454-1.023,4.89,4.89,0,0,1,1.91-.357,4.667,4.667,0,0,1,2.451.623,4.154,4.154,0,0,1,1.6,1.765,6.032,6.032,0,0,1,.565,2.7,6.526,6.526,0,0,1-.325,2.125,4.655,4.655,0,0,1-.927,1.619,4.011,4.011,0,0,1-1.454,1.03A4.891,4.891,0,0,1,16.084-1.206Zm0-1.155a3.148,3.148,0,0,0,1.749-.467,2.962,2.962,0,0,0,1.1-1.357,5.38,5.38,0,0,0,.384-2.139,4.5,4.5,0,0,0-.843-2.915,2.914,2.914,0,0,0-2.4-1.034,3.163,3.163,0,0,0-1.739.463,2.93,2.93,0,0,0-1.109,1.348,5.357,5.357,0,0,0-.384,2.137,4.507,4.507,0,0,0,.85,2.915A2.9,2.9,0,0,0,16.084-2.361Zm7.3,1.127a.634.634,0,0,1-.486-.181.7.7,0,0,1-.169-.5v-8.715a.662.662,0,0,1,.177-.5A.683.683,0,0,1,23.4-11.3h3.359a3.649,3.649,0,0,1,2.477.758A2.694,2.694,0,0,1,30.1-8.4a2.892,2.892,0,0,1-.394,1.539,2.511,2.511,0,0,1-1.143.983,4.366,4.366,0,0,1-1.808.339l.139-.195h.322a1.687,1.687,0,0,1,.975.283,2.473,2.473,0,0,1,.744.9l1.291,2.4a.777.777,0,0,1,.118.435.489.489,0,0,1-.154.346.577.577,0,0,1-.409.133.768.768,0,0,1-.451-.122,1.043,1.043,0,0,1-.305-.363l-1.514-2.8A1.717,1.717,0,0,0,26.8-5.3a2.448,2.448,0,0,0-1.06-.194h-1.7v3.582a.717.717,0,0,1-.162.5A.629.629,0,0,1,23.383-1.234Zm.655-5.278h2.511a2.611,2.611,0,0,0,1.694-.469,1.706,1.706,0,0,0,.568-1.4,1.689,1.689,0,0,0-.568-1.382,2.611,2.611,0,0,0-1.694-.469H24.038Zm8.825,5.278A.576.576,0,0,1,32.42-1.4a.647.647,0,0,1-.157-.46v-8.909a.629.629,0,0,1,.162-.467.6.6,0,0,1,.442-.161.718.718,0,0,1,.41.1.907.907,0,0,1,.273.341l3.785,7.1h-.429l3.773-7.1a1,1,0,0,1,.272-.341.684.684,0,0,1,.4-.1.572.572,0,0,1,.434.161.65.65,0,0,1,.154.467v8.909a.666.666,0,0,1-.15.46.563.563,0,0,1-.444.168.574.574,0,0,1-.446-.168.655.655,0,0,1-.154-.46V-9.481h.323l-3.4,6.349a.9.9,0,0,1-.224.278.531.531,0,0,1-.328.09.551.551,0,0,1-.34-.1.862.862,0,0,1-.227-.271L33.112-9.5h.345v7.633a.666.666,0,0,1-.15.46A.564.564,0,0,1,32.863-1.234Zm11.359,0a.655.655,0,0,1-.408-.115.448.448,0,0,1-.175-.313.845.845,0,0,1,.081-.442l3.858-8.723a1.021,1.021,0,0,1,.332-.439.754.754,0,0,1,.436-.133.75.75,0,0,1,.433.133.985.985,0,0,1,.326.439L52.972-2.1a.814.814,0,0,1,.09.446.451.451,0,0,1-.165.313.613.613,0,0,1-.39.111.668.668,0,0,1-.458-.147,1.2,1.2,0,0,1-.29-.433L50.747-4.168l.607.344H45.31l.613-.344-1,2.353a1.23,1.23,0,0,1-.289.443A.6.6,0,0,1,44.222-1.234Zm4.1-8.574L46.12-4.6l-.344-.3h5.113l-.324.3L48.352-9.808Z" transform="translate(476.644 2907)" fill="#fff"/>
  </g>
</svg>
