<svg xmlns="http://www.w3.org/2000/svg" xmlns:xlink="http://www.w3.org/1999/xlink" width="78" height="78" viewBox="0 0 78 78">
  <defs>
    <clipPath id="clip-path">
      <rect id="Rectángulo_403638" data-name="Rectángulo 403638" width="47.405" height="47.212" fill="none"/>
    </clipPath>
    <clipPath id="clip-path-3">
      <rect id="Rectángulo_403631" data-name="Rectángulo 403631" width="6.953" height="24.176" fill="none"/>
    </clipPath>
    <clipPath id="clip-path-4">
      <rect id="Rectángulo_403632" data-name="Rectángulo 403632" width="7.091" height="9.432" fill="none"/>
    </clipPath>
    <clipPath id="clip-path-5">
      <rect id="Rectángulo_403633" data-name="Rectángulo 403633" width="3.98" height="2.528" fill="none"/>
    </clipPath>
    <clipPath id="clip-path-7">
      <rect id="Rectángulo_403635" data-name="Rectángulo 403635" width="3.42" height="14.399" fill="none"/>
    </clipPath>
    <clipPath id="clip-path-8">
      <rect id="Rectángulo_403636" data-name="Rectángulo 403636" width="7.269" height="7.214" fill="none"/>
    </clipPath>
  </defs>
  <g id="Grupo_1106656" data-name="Grupo 1106656" transform="translate(-306.051 -3672)">
    <circle id="Elipse_11629" data-name="Elipse 11629" cx="39" cy="39" r="39" transform="translate(306.051 3672)" fill="#fd5a37"/>
    <g id="Grupo_1107004" data-name="Grupo 1107004" transform="translate(322.595 3687.394)">
      <g id="Grupo_1107003" data-name="Grupo 1107003" clip-path="url(#clip-path)">
        <g id="Grupo_1107002" data-name="Grupo 1107002" transform="translate(0 0)">
          <g id="Grupo_1107001" data-name="Grupo 1107001" clip-path="url(#clip-path)">
            <path id="Trazado_878494" data-name="Trazado 878494" d="M59.882,48.732V66.749A3.084,3.084,0,0,1,56.8,69.828H28.709a3.08,3.08,0,0,1-3.084-3.079V48.732a3.08,3.08,0,0,1,3.084-3.079H56.8a3.084,3.084,0,0,1,3.084,3.079" transform="translate(-12.971 -23.11)" fill="#656d78"/>
            <g id="Grupo_1106985" data-name="Grupo 1106985" transform="translate(39.958 22.542)" opacity="0.1">
              <g id="Grupo_1106984" data-name="Grupo 1106984">
                <g id="Grupo_1106983" data-name="Grupo 1106983" clip-path="url(#clip-path-3)">
                  <path id="Trazado_878495" data-name="Trazado 878495" d="M87.873,48.731V66.745a3.083,3.083,0,0,1-3.086,3.081H80.92a3.083,3.083,0,0,0,3.086-3.081V48.731A3.083,3.083,0,0,0,80.92,45.65h3.866a3.083,3.083,0,0,1,3.086,3.081" transform="translate(-80.92 -45.65)"/>
                </g>
              </g>
            </g>
            <path id="Trazado_878496" data-name="Trazado 878496" d="M56.292,69.815H28.2a3.58,3.58,0,0,1-3.578-3.573V48.225A3.58,3.58,0,0,1,28.2,44.652H56.292a3.58,3.58,0,0,1,3.578,3.573V66.242a3.58,3.58,0,0,1-3.578,3.573M28.2,45.64a2.591,2.591,0,0,0-2.59,2.585V66.242a2.591,2.591,0,0,0,2.59,2.585H56.292a2.591,2.591,0,0,0,2.59-2.585V48.225a2.591,2.591,0,0,0-2.59-2.585Z" transform="translate(-12.465 -22.603)"/>
            <path id="Trazado_878497" data-name="Trazado 878497" d="M59.882,48.732V50.62a4.466,4.466,0,0,1-4.462,4.462H52.791V53.452a.9.9,0,0,0-.9-.9H49.675a.894.894,0,0,0-.9.9v1.631H36.729V53.452a.9.9,0,0,0-.9-.9H33.612a.894.894,0,0,0-.9.9v1.631H30.088a4.466,4.466,0,0,1-4.463-4.462V48.732a3.08,3.08,0,0,1,3.084-3.079H56.8a3.079,3.079,0,0,1,3.079,3.079" transform="translate(-12.971 -23.11)" fill="#e4e8eb"/>
            <g id="Grupo_1106988" data-name="Grupo 1106988" transform="translate(39.82 22.542)" opacity="0.1">
              <g id="Grupo_1106987" data-name="Grupo 1106987">
                <g id="Grupo_1106986" data-name="Grupo 1106986" clip-path="url(#clip-path-4)">
                  <path id="Trazado_878498" data-name="Trazado 878498" d="M87.731,48.731v1.886a4.466,4.466,0,0,1-4.464,4.464H80.64v-.2a4.462,4.462,0,0,0,3.141-4.261V48.731A3.079,3.079,0,0,0,80.7,45.65h3.95a3.079,3.079,0,0,1,3.081,3.081" transform="translate(-80.64 -45.65)"/>
                </g>
              </g>
            </g>
            <g id="Grupo_1106991" data-name="Grupo 1106991" transform="translate(19.777 29.445)" opacity="0.1">
              <g id="Grupo_1106990" data-name="Grupo 1106990">
                <g id="Grupo_1106989" data-name="Grupo 1106989" clip-path="url(#clip-path-5)">
                  <path id="Trazado_878499" data-name="Trazado 878499" d="M44.03,60.529v1.63H40.08v-1.63a.8.8,0,0,0-.03-.217.886.886,0,0,1,.864-.681h2.222a.9.9,0,0,1,.894.9" transform="translate(-40.05 -59.63)"/>
                </g>
              </g>
            </g>
            <g id="Grupo_1106994" data-name="Grupo 1106994" transform="translate(35.84 29.445)" opacity="0.1">
              <g id="Grupo_1106993" data-name="Grupo 1106993">
                <g id="Grupo_1106992" data-name="Grupo 1106992" clip-path="url(#clip-path-5)">
                  <path id="Trazado_878500" data-name="Trazado 878500" d="M76.56,60.529v1.427a4.338,4.338,0,0,1-1.323.2H72.61v-1.63a.859.859,0,0,0-.03-.222.886.886,0,0,1,.864-.677h2.222a.9.9,0,0,1,.894.9" transform="translate(-72.58 -59.63)"/>
                </g>
              </g>
            </g>
            <path id="Trazado_878501" data-name="Trazado 878501" d="M54.914,55.07H52.286a.494.494,0,0,1-.494-.494V52.945a.4.4,0,0,0-.4-.4H49.169a.4.4,0,0,0-.4.4v1.631a.494.494,0,0,1-.494.494H36.223a.493.493,0,0,1-.494-.494V52.945a.4.4,0,0,0-.4-.4H33.107a.4.4,0,0,0-.4.4v1.631a.494.494,0,0,1-.494.494H29.582a4.962,4.962,0,0,1-4.956-4.957V48.225A3.579,3.579,0,0,1,28.2,44.652H56.3a3.577,3.577,0,0,1,3.573,3.573v1.888a4.962,4.962,0,0,1-4.956,4.957m-2.135-.988h2.135a3.973,3.973,0,0,0,3.969-3.969V48.225A2.588,2.588,0,0,0,56.3,45.64H28.2a2.591,2.591,0,0,0-2.59,2.586v1.888a3.973,3.973,0,0,0,3.969,3.969h2.135V52.945a1.391,1.391,0,0,1,1.39-1.389h2.221a1.391,1.391,0,0,1,1.39,1.389v1.137H47.78V52.945a1.391,1.391,0,0,1,1.39-1.389H51.39a1.391,1.391,0,0,1,1.39,1.389Z" transform="translate(-12.466 -22.603)"/>
            <path id="Trazado_878502" data-name="Trazado 878502" d="M44,60.529v3.4a.9.9,0,0,1-.9.9H40.881a.894.894,0,0,1-.9-.9v-3.4a.894.894,0,0,1,.9-.9H43.1a.9.9,0,0,1,.9.9" transform="translate(-20.24 -30.186)" fill="#fdcd56"/>
            <path id="Trazado_878503" data-name="Trazado 878503" d="M42.6,64.807H40.375a1.391,1.391,0,0,1-1.39-1.39v-3.4a1.391,1.391,0,0,1,1.39-1.389H42.6a1.391,1.391,0,0,1,1.39,1.389v3.4a1.391,1.391,0,0,1-1.39,1.39m-2.221-5.187a.4.4,0,0,0-.4.4v3.4a.4.4,0,0,0,.4.4H42.6a.4.4,0,0,0,.4-.4v-3.4a.4.4,0,0,0-.4-.4Z" transform="translate(-19.734 -29.68)"/>
            <path id="Trazado_878504" data-name="Trazado 878504" d="M76.527,60.529v3.4a.9.9,0,0,1-.9.9H73.411a.894.894,0,0,1-.9-.9v-3.4a.894.894,0,0,1,.9-.9h2.221a.9.9,0,0,1,.9.9" transform="translate(-36.707 -30.186)" fill="#fdcd56"/>
            <path id="Trazado_878505" data-name="Trazado 878505" d="M75.125,64.807H72.9a1.391,1.391,0,0,1-1.39-1.39v-3.4a1.391,1.391,0,0,1,1.39-1.389h2.221a1.391,1.391,0,0,1,1.39,1.389v3.4a1.391,1.391,0,0,1-1.39,1.39M72.9,59.621a.4.4,0,0,0-.4.4v3.4a.4.4,0,0,0,.4.4h2.221a.4.4,0,0,0,.4-.4v-3.4a.4.4,0,0,0-.4-.4Z" transform="translate(-36.201 -29.68)"/>
            <path id="Trazado_878506" data-name="Trazado 878506" d="M59.634,40.911H45.948a.494.494,0,0,1-.494-.494V38.031a2.723,2.723,0,0,1,2.72-2.72h9.235a2.723,2.723,0,0,1,2.72,2.72v2.387a.493.493,0,0,1-.494.494m-13.193-.988h12.7V38.031A1.734,1.734,0,0,0,57.408,36.3H48.174a1.734,1.734,0,0,0-1.732,1.732Z" transform="translate(-23.009 -17.875)"/>
            <path id="Trazado_878507" data-name="Trazado 878507" d="M22.37,18.07h8.806v4.024H22.335a29.856,29.856,0,0,0,.035-4.024" transform="translate(-11.306 -9.147)" fill="#aab2bd"/>
            <path id="Trazado_878508" data-name="Trazado 878508" d="M30.67,22.082H21.829a.494.494,0,0,1-.492-.531,29.462,29.462,0,0,0,.034-3.958.493.493,0,0,1,.493-.522H30.67a.494.494,0,0,1,.494.494v4.024a.494.494,0,0,1-.494.494m-8.313-.988h7.819V18.058H22.382c.042,1.015.034,2.032-.025,3.036" transform="translate(-10.8 -8.641)"/>
            <path id="Trazado_878509" data-name="Trazado 878509" d="M2.133,7.575H10.89a27.884,27.884,0,0,1,.82,5.186,30.106,30.106,0,0,1-.034,4.023,33.65,33.65,0,0,1-.786,5.186H2.133a30.816,30.816,0,0,1,0-14.4" transform="translate(-0.649 -3.835)" fill="#fdcd56"/>
            <g id="Grupo_1106997" data-name="Grupo 1106997" transform="translate(7.694 3.738)" opacity="0.1">
              <g id="Grupo_1106996" data-name="Grupo 1106996">
                <g id="Grupo_1106995" data-name="Grupo 1106995" clip-path="url(#clip-path-7)">
                  <path id="Trazado_878510" data-name="Trazado 878510" d="M18.913,16.779a33.852,33.852,0,0,1-.785,5.19H15.58a33.853,33.853,0,0,0,.785-5.19,29.561,29.561,0,0,0,.035-4.02,27.849,27.849,0,0,0-.82-5.19h2.548a27.849,27.849,0,0,1,.82,5.19,29.561,29.561,0,0,1-.035,4.02" transform="translate(-15.58 -7.57)"/>
                </g>
              </g>
            </g>
            <path id="Trazado_878511" data-name="Trazado 878511" d="M10.388,21.958H1.631a.493.493,0,0,1-.481-.382,31.464,31.464,0,0,1,0-14.623.493.493,0,0,1,.48-.378h8.757a.493.493,0,0,1,.478.371,28.561,28.561,0,0,1,.835,5.277,30.812,30.812,0,0,1-.035,4.092,34.352,34.352,0,0,1-.8,5.259.494.494,0,0,1-.481.383M2.025,20.97H9.992a33.214,33.214,0,0,0,.689-4.726,29.864,29.864,0,0,0,.034-3.961A27.528,27.528,0,0,0,10,7.563H2.023a30.454,30.454,0,0,0,0,13.408" transform="translate(-0.146 -3.328)"/>
            <path id="Trazado_878512" data-name="Trazado 878512" d="M2.623,1h7.51a1.623,1.623,0,0,1,0,3.246H2.623A1.623,1.623,0,0,1,2.623,1" transform="translate(-0.506 -0.506)" fill="#656d78"/>
            <path id="Trazado_878513" data-name="Trazado 878513" d="M9.627,4.234H2.117A2.117,2.117,0,0,1,2.117,0h7.51a2.117,2.117,0,0,1,0,4.234M2.117.988a1.129,1.129,0,1,0,0,2.259h7.51a1.129,1.129,0,0,0,0-2.259Z" transform="translate(0 0)"/>
            <path id="Trazado_878514" data-name="Trazado 878514" d="M2.623,36.727h7.51a1.623,1.623,0,0,1,0,3.246H2.623a1.623,1.623,0,1,1,0-3.246" transform="translate(-0.506 -18.591)" fill="#656d78"/>
            <path id="Trazado_878515" data-name="Trazado 878515" d="M9.627,39.961H2.117a2.117,2.117,0,1,1,0-4.234h7.51a2.117,2.117,0,1,1,0,4.234m-7.51-3.246a1.129,1.129,0,1,0,0,2.259h7.51a1.129,1.129,0,1,0,0-2.259Z" transform="translate(0 -18.085)"/>
            <path id="Trazado_878516" data-name="Trazado 878516" d="M41.437,14.842h8.644a3.606,3.606,0,1,1,0,7.212H41.437a1.194,1.194,0,0,1-1.2-1.19V16.032a1.194,1.194,0,0,1,1.2-1.19" transform="translate(-20.369 -7.513)" fill="#656d78"/>
            <g id="Grupo_1107000" data-name="Grupo 1107000" transform="translate(26.053 7.328)" opacity="0.1">
              <g id="Grupo_1106999" data-name="Grupo 1106999">
                <g id="Grupo_1106998" data-name="Grupo 1106998" clip-path="url(#clip-path-8)">
                  <path id="Trazado_878517" data-name="Trazado 878517" d="M60.029,18.45a3.607,3.607,0,0,1-3.61,3.6H52.76a3.607,3.607,0,1,0,0-7.214h3.659a3.614,3.614,0,0,1,3.61,3.61" transform="translate(-52.76 -14.84)"/>
                </g>
              </g>
            </g>
            <path id="Trazado_878518" data-name="Trazado 878518" d="M49.575,22.042H40.931a1.689,1.689,0,0,1-1.692-1.683V15.526a1.69,1.69,0,0,1,1.692-1.684h8.644a4.1,4.1,0,1,1,0,8.2M40.931,14.83a.7.7,0,0,0-.7.7v4.832a.7.7,0,0,0,.7.7h8.644a3.112,3.112,0,1,0,0-6.224Z" transform="translate(-19.863 -7.007)"/>
          </g>
        </g>
      </g>
    </g>
  </g>
</svg>
