<svg xmlns="http://www.w3.org/2000/svg" xmlns:xlink="http://www.w3.org/1999/xlink" width="105" height="90" viewBox="0 0 105 90">
  <defs>
    <clipPath id="clip-path">
      <rect id="Rect치ngulo_403562" data-name="Rect치ngulo 403562" width="50.87" height="62.221" fill="none"/>
    </clipPath>
  </defs>
  <g id="Grupo_1107220" data-name="Grupo 1107220" transform="translate(-351.051 -828)">
    <rect id="Rect치ngulo_403561" data-name="Rect치ngulo 403561" width="105" height="90" transform="translate(351.051 828)" fill="#01d2b5"/>
    <g id="Grupo_1106837" data-name="Grupo 1106837" transform="translate(378.051 842)">
      <g id="Grupo_1106836" data-name="Grupo 1106836" clip-path="url(#clip-path)">
        <path id="Trazado_878186" data-name="Trazado 878186" d="M19.733,61.968,16.2,58.38l-3.532,3.588a.713.713,0,0,1-1.257-.461V56.562H5.562A5.575,5.575,0,0,1,0,51V5.562A5.577,5.577,0,0,1,5.562,0H47.941A2.933,2.933,0,0,1,50.87,2.928V55.85a.712.712,0,0,1-.712.712H20.99v4.945A.714.714,0,0,1,19.733,61.968Z"/>
        <path id="Trazado_878187" data-name="Trazado 878187" d="M71.52,9.164V53.176h38.319V10.667a1.507,1.507,0,0,0-1.5-1.5ZM77,44.089v-1.7a1.911,1.911,0,0,1,1.908-1.91h6.742a1.913,1.913,0,0,1,1.91,1.91v1.7a2.514,2.514,0,0,1,1.518,2.3v1.987a.712.712,0,0,1-.712.714H76.2a.712.712,0,0,1-.712-.714V46.394A2.514,2.514,0,0,1,77,44.089ZM89.261,26.634l18.368,9.822a1.9,1.9,0,0,1,.919,2.617l-1.438,2.49a1.9,1.9,0,0,1-2.7.477L86.723,31.048q-.409.866-.771,1.768A2.372,2.372,0,0,1,86.3,35.7l-1.113,1.927a.711.711,0,0,1-.97.262h0l-6.8-3.927a.709.709,0,0,1-.235-1.008l1.113-1.928a2.367,2.367,0,0,1,2.648-1.108,30.656,30.656,0,0,0,4.47-7.728,2.37,2.37,0,0,1-.371-2.852l1.136-1.967a.711.711,0,0,1,.972-.26l6.8,3.928a.712.712,0,0,1,.259.972L93.067,23.98a2.366,2.366,0,0,1-2.654,1.1q-.6.754-1.152,1.551ZM78.208,37.252a.712.712,0,0,1,1.376-.367l.4,1.5a.712.712,0,0,1-1.376.367Zm-3.283,2.321a.712.712,0,0,1,1.007-1.007l1.094,1.1a.712.712,0,0,1-1.006,1.008Zm-1.681,3.651a.711.711,0,0,1,.367-1.374l1.5.4a.711.711,0,0,1-.367,1.374Z" transform="translate(-60.395 -7.739)" fill="#ae9dcc"/>
        <path id="Trazado_878188" data-name="Trazado 878188" d="M17.438,53.176V9.164H13.3A4.151,4.151,0,0,0,9.164,13.3V55.03A5.556,5.556,0,0,1,13.3,53.176Z" transform="translate(-7.739 -7.739)" fill="#d6cee6"/>
        <path id="Trazado_878189" data-name="Trazado 878189" d="M19.14,309.546v-3.425H14.718a.712.712,0,0,1,0-1.424H43.449a.712.712,0,0,1,0,1.424H28.718v3.425H57.173v-8.274H13.291a4.137,4.137,0,0,0,0,8.274Zm28.99-3.425a.712.712,0,0,1,0-1.424h5.25a.712.712,0,0,1,0,1.424Z" transform="translate(-7.729 -254.409)" fill="#e0e0d1"/>
        <path id="Trazado_878190" data-name="Trazado 878190" d="M82.524,340.5l2.866-2.91a.711.711,0,0,1,1,.008l2.857,2.9v-8.06H82.524Z" transform="translate(-69.687 -280.733)" fill="#ef6262"/>
        <path id="Trazado_878191" data-name="Trazado 878191" d="M165.987,73.118l3.976,2.3a.96.96,0,0,0,1.227-.337l.8-1.385-5.57-3.216-.782,1.353A.952.952,0,0,0,165.987,73.118Z" transform="translate(-139.769 -59.513)" fill="#935429"/>
        <path id="Trazado_878192" data-name="Trazado 878192" d="M120.032,151.4a.953.953,0,0,0-1.334.319l-.781,1.353,5.573,3.218.78-1.353a.953.953,0,0,0-.347-1.291Z" transform="translate(-99.574 -127.717)" fill="#935429"/>
        <path id="Trazado_878193" data-name="Trazado 878193" d="M173.356,131.074l17.8,11.063c.221.136.611.217.723.023.163-.282,1.483-2.509,1.487-2.614a.69.69,0,0,0-.406-.532l-18.484-9.885Z" transform="translate(-146.391 -109.043)" fill="#935429"/>
        <path id="Trazado_878194" data-name="Trazado 878194" d="M143.936,104.795l.933-1.737a31.032,31.032,0,0,1,2.41-3.578l-2.5-1.444a32.269,32.269,0,0,1-4.385,7.585l2.51,1.45Q143.384,105.9,143.936,104.795Z" transform="translate(-118.555 -82.787)" fill="#aa6030"/>
        <path id="Trazado_878195" data-name="Trazado 878195" d="M115.82,241.543l-8.751.014a1.089,1.089,0,0,0-.915,1.069V243.9H116.9v-1.275A1.085,1.085,0,0,0,115.82,241.543Z" transform="translate(-89.643 -203.971)" fill="#935429"/>
        <path id="Trazado_878196" data-name="Trazado 878196" d="M123.627,221.626v-1.5a.486.486,0,0,0-.484-.485H116.4a.486.486,0,0,0-.484.485v1.5Z" transform="translate(-97.885 -185.478)" fill="#aa6030"/>
      </g>
    </g>
  </g>
</svg>
