<svg xmlns="http://www.w3.org/2000/svg" xmlns:xlink="http://www.w3.org/1999/xlink" width="90" height="90" viewBox="0 0 90 90">
  <defs>
    <clipPath id="clip-path">
      <rect id="Rectángulo_403600" data-name="Rectángulo 403600" width="55.176" height="56.024" fill="none"/>
    </clipPath>
    <clipPath id="clip-path-3">
      <rect id="Rectángulo_403593" data-name="Rectángulo 403593" width="7.744" height="6.95" fill="none"/>
    </clipPath>
    <clipPath id="clip-path-4">
      <rect id="Rectángulo_403594" data-name="Rectángulo 403594" width="5.281" height="5.906" fill="none"/>
    </clipPath>
    <clipPath id="clip-path-5">
      <rect id="Rectángulo_403595" data-name="Rectángulo 403595" width="17.846" height="17.442" fill="none"/>
    </clipPath>
    <clipPath id="clip-path-6">
      <rect id="Rectángulo_403596" data-name="Rectángulo 403596" width="12.489" height="12.565" fill="none"/>
    </clipPath>
    <clipPath id="clip-path-7">
      <rect id="Rectángulo_403597" data-name="Rectángulo 403597" width="2.941" height="2.941" fill="none"/>
    </clipPath>
    <clipPath id="clip-path-8">
      <rect id="Rectángulo_403598" data-name="Rectángulo 403598" width="16.543" height="13.859" fill="none"/>
    </clipPath>
  </defs>
  <g id="Grupo_1106839" data-name="Grupo 1106839" transform="translate(-546 -1039)">
    <rect id="Rectángulo_403565" data-name="Rectángulo 403565" width="90" height="90" rx="45" transform="translate(546 1039)" fill="#fff" opacity="0.859"/>
    <g id="Grupo_1106916" data-name="Grupo 1106916" transform="translate(562.962 1054.976)">
      <g id="Grupo_1106915" data-name="Grupo 1106915" clip-path="url(#clip-path)">
        <g id="Grupo_1106914" data-name="Grupo 1106914">
          <g id="Grupo_1106913" data-name="Grupo 1106913" clip-path="url(#clip-path)">
            <path id="Trazado_878267" data-name="Trazado 878267" d="M68.77,87.764V88.4a1.642,1.642,0,0,1-1.639,1.64H35.686a1.636,1.636,0,0,1-1.639-1.64v-.637a4.669,4.669,0,0,1,4.674-4.674H64.1a4.676,4.676,0,0,1,4.674,4.674" transform="translate(-14.178 -34.6)" fill="#aab2bd"/>
            <g id="Grupo_1106897" data-name="Grupo 1106897" transform="translate(46.849 48.489)" opacity="0.1">
              <g id="Grupo_1106896" data-name="Grupo 1106896">
                <g id="Grupo_1106895" data-name="Grupo 1106895" clip-path="url(#clip-path-3)">
                  <path id="Trazado_878268" data-name="Trazado 878268" d="M88.023,87.763V88.4a1.641,1.641,0,0,1-1.64,1.64h-3.07a1.641,1.641,0,0,0,1.64-1.64v-.636a4.674,4.674,0,0,0-4.674-4.674h3.07a4.677,4.677,0,0,1,4.674,4.674" transform="translate(-80.279 -83.089)"/>
                </g>
              </g>
            </g>
            <path id="Trazado_878269" data-name="Trazado 878269" d="M66.714,90.208H35.269a2.225,2.225,0,0,1-2.223-2.222v-.637A5.264,5.264,0,0,1,38.3,82.09H63.679a5.264,5.264,0,0,1,5.258,5.258v.637a2.225,2.225,0,0,1-2.223,2.222M38.3,83.257a4.1,4.1,0,0,0-4.091,4.091v.637a1.057,1.057,0,0,0,1.056,1.055H66.714a1.057,1.057,0,0,0,1.056-1.055v-.637a4.1,4.1,0,0,0-4.091-4.091Z" transform="translate(-13.761 -34.184)"/>
            <path id="Trazado_878270" data-name="Trazado 878270" d="M67.567,75.549v3.326H41.24V75.549a2.586,2.586,0,0,1,2.581-2.581H64.986a2.586,2.586,0,0,1,2.581,2.581" transform="translate(-17.173 -30.385)" fill="#ccd1d9"/>
            <g id="Grupo_1106900" data-name="Grupo 1106900" transform="translate(45.11 42.584)" opacity="0.1">
              <g id="Grupo_1106899" data-name="Grupo 1106899">
                <g id="Grupo_1106898" data-name="Grupo 1106898" clip-path="url(#clip-path-4)">
                  <path id="Trazado_878271" data-name="Trazado 878271" d="M82.58,75.548v3.326h-2.7V75.548A2.584,2.584,0,0,0,77.3,72.969H80a2.584,2.584,0,0,1,2.579,2.579" transform="translate(-77.299 -72.969)"/>
                </g>
              </g>
            </g>
            <path id="Trazado_878272" data-name="Trazado 878272" d="M67.151,79.042H40.824a.583.583,0,0,1-.584-.584V75.133A3.168,3.168,0,0,1,43.4,71.968H64.569a3.169,3.169,0,0,1,3.165,3.165v3.326a.583.583,0,0,1-.584.584M41.407,77.875h25.16V75.133a2,2,0,0,0-2-2H43.4a2,2,0,0,0-2,2Z" transform="translate(-16.757 -29.969)"/>
            <path id="Trazado_878273" data-name="Trazado 878273" d="M35.462,6.688,24.194,17.956a3.332,3.332,0,1,1-4.712-4.712L30.75,1.976a3.332,3.332,0,1,1,4.712,4.712" transform="translate(-7.706 -0.417)" fill="#aab2bd"/>
            <path id="Trazado_878274" data-name="Trazado 878274" d="M21.417,19.1a3.918,3.918,0,0,1-2.764-6.687L29.921,1.147a3.916,3.916,0,1,1,5.538,5.538L24.19,17.952A3.9,3.9,0,0,1,21.422,19.1ZM32.692,1.167a2.732,2.732,0,0,0-1.946.8L19.478,13.239a2.749,2.749,0,0,0,1.939,4.695h0a2.739,2.739,0,0,0,1.944-.807L34.633,5.859a2.757,2.757,0,0,0,.81-1.945,2.749,2.749,0,0,0-2.751-2.747m2.354,5.1h0Z" transform="translate(-7.29 0)"/>
            <path id="Trazado_878275" data-name="Trazado 878275" d="M67.944,39.17,56.676,50.438a3.332,3.332,0,1,1-4.712-4.712L63.232,34.458a3.332,3.332,0,1,1,4.712,4.712" transform="translate(-21.232 -13.943)" fill="#aab2bd"/>
            <g id="Grupo_1106903" data-name="Grupo 1106903" transform="translate(29.844 20.034)" opacity="0.1">
              <g id="Grupo_1106902" data-name="Grupo 1106902">
                <g id="Grupo_1106901" data-name="Grupo 1106901" clip-path="url(#clip-path-5)">
                  <path id="Trazado_878276" data-name="Trazado 878276" d="M68.985,37.172A3.3,3.3,0,0,1,68,39.523L56.741,50.793a3.335,3.335,0,0,1-4.715.005,3.2,3.2,0,0,1-.887-1.61,3.338,3.338,0,0,0,4.108-.484L66.511,37.44a3.355,3.355,0,0,0,.986-2.358,2.985,2.985,0,0,0-.093-.752,3.368,3.368,0,0,1,.607.479,3.32,3.32,0,0,1,.975,2.363" transform="translate(-51.139 -34.33)"/>
                </g>
              </g>
            </g>
            <path id="Trazado_878277" data-name="Trazado 878277" d="M53.9,51.583a3.883,3.883,0,0,1-2.764-1.144,3.924,3.924,0,0,1,0-5.543L62.4,33.629a3.916,3.916,0,1,1,5.539,5.538h0L56.673,50.434A3.9,3.9,0,0,1,53.9,51.583ZM65.174,33.649a2.735,2.735,0,0,0-1.946.8L51.96,45.721a2.749,2.749,0,0,0,1.939,4.7h0a2.74,2.74,0,0,0,1.945-.808L67.115,38.341a2.745,2.745,0,0,0-1.941-4.692m2.354,5.1h0Z" transform="translate(-20.816 -13.526)"/>
            <path id="Trazado_878278" data-name="Trazado 878278" d="M53.727,25.2,42.706,36.222a34.96,34.96,0,0,0-4.355-6.161l-.156-.18a36.71,36.71,0,0,0-3.407-3.374l-.177-.152a42.939,42.939,0,0,0-6.149-4.376L39.488,10.962A42.265,42.265,0,0,0,53.727,25.2" transform="translate(-11.853 -4.565)" fill="#efc7a4"/>
            <g id="Grupo_1106906" data-name="Grupo 1106906" transform="translate(29.388 19.094)" opacity="0.1">
              <g id="Grupo_1106905" data-name="Grupo 1106905">
                <g id="Grupo_1106904" data-name="Grupo 1106904" clip-path="url(#clip-path-6)">
                  <path id="Trazado_878279" data-name="Trazado 878279" d="M62.848,34.26,51.824,45.284c-.461-.823-.945-1.628-1.465-2.41L60.513,32.719c.753.537,1.535,1.05,2.334,1.541" transform="translate(-50.359 -32.719)"/>
                </g>
              </g>
            </g>
            <path id="Trazado_878280" data-name="Trazado 878280" d="M42.29,36.39a.533.533,0,0,1-.081-.005.584.584,0,0,1-.43-.294A34.535,34.535,0,0,0,37.5,30.032l-.159-.184a36.175,36.175,0,0,0-3.35-3.317l-.172-.148a42.563,42.563,0,0,0-6.067-4.318.584.584,0,0,1-.116-.915L38.66,10.133a.592.592,0,0,1,.483-.167.584.584,0,0,1,.429.278A41.893,41.893,0,0,0,53.618,24.288a.584.584,0,0,1,.106.91L42.7,36.219a.586.586,0,0,1-.413.17m-13.3-14.942A43.291,43.291,0,0,1,34.576,25.5l.142.123a37.7,37.7,0,0,1,3.5,3.46l.159.185a35.606,35.606,0,0,1,4.042,5.59l9.963-9.963A43,43,0,0,1,38.962,11.48Z" transform="translate(-11.436 -4.149)"/>
            <path id="Trazado_878281" data-name="Trazado 878281" d="M35.891,41.044l-9.613,9.613-3.723-3.723,9.6-9.6.177.152a36.85,36.85,0,0,1,3.407,3.374l.156.181" transform="translate(-9.392 -15.548)" fill="#aab2bd"/>
            <path id="Trazado_878282" data-name="Trazado 878282" d="M25.861,50.825h0a.586.586,0,0,1-.413-.171l-3.723-3.723a.583.583,0,0,1,0-.825l9.6-9.6a.584.584,0,0,1,.791-.032l.145.125a37.552,37.552,0,0,1,3.5,3.46l.159.184a.583.583,0,0,1-.028.794l-9.614,9.613a.584.584,0,0,1-.413.171m-2.9-4.307,2.9,2.9L34.675,40.6a36.481,36.481,0,0,0-2.912-2.883Z" transform="translate(-8.976 -15.132)"/>
            <path id="Trazado_878283" data-name="Trazado 878283" d="M17.758,59.183,8.784,68.156a4.56,4.56,0,1,1-6.448-6.449l8.973-8.973a1.283,1.283,0,0,1,1.814,0l4.634,4.634a1.284,1.284,0,0,1,0,1.814" transform="translate(-0.417 -21.803)" fill="#efc7a4"/>
            <g id="Grupo_1106909" data-name="Grupo 1106909" transform="translate(12.663 30.889)" opacity="0.1">
              <g id="Grupo_1106908" data-name="Grupo 1106908">
                <g id="Grupo_1106907" data-name="Grupo 1106907" clip-path="url(#clip-path-7)">
                  <path id="Trazado_878284" data-name="Trazado 878284" d="M21.746,52.971l2.895,2.9L21.7,52.93a.292.292,0,0,1,.047.041" transform="translate(-21.699 -52.93)"/>
                </g>
              </g>
            </g>
            <g id="Grupo_1106912" data-name="Grupo 1106912" transform="translate(1.172 33.83)" opacity="0.1">
              <g id="Grupo_1106911" data-name="Grupo 1106911">
                <g id="Grupo_1106910" data-name="Grupo 1106910" clip-path="url(#clip-path-8)">
                  <path id="Trazado_878285" data-name="Trazado 878285" d="M18.18,61.517,9.2,70.493a4.555,4.555,0,0,1-7.2-.986,4.567,4.567,0,0,0,5.456-.753l8.975-8.97a1.282,1.282,0,0,0,0-1.815L18.18,59.7a1.293,1.293,0,0,1,0,1.815" transform="translate(-2.009 -57.969)"/>
                </g>
              </g>
            </g>
            <path id="Trazado_878286" data-name="Trazado 878286" d="M5.14,69.669a5.142,5.142,0,0,1-3.633-8.779l8.973-8.973a1.911,1.911,0,0,1,2.64,0l4.634,4.634a1.865,1.865,0,0,1,0,2.639L8.781,68.164A5.135,5.135,0,0,1,5.14,69.669M11.8,52.538a.7.7,0,0,0-.495.2L2.333,61.716a3.976,3.976,0,1,0,5.623,5.623l8.973-8.973a.7.7,0,0,0,0-.989l-4.635-4.634a.692.692,0,0,0-.494-.2" transform="translate(0 -21.399)"/>
          </g>
        </g>
      </g>
    </g>
  </g>
</svg>
