<svg xmlns="http://www.w3.org/2000/svg" xmlns:xlink="http://www.w3.org/1999/xlink" width="90.914" height="90.914" viewBox="0 0 90.914 90.914">
  <defs>
    <clipPath id="clip-path">
      <rect id="Rectángulo_403673" data-name="Rectángulo 403673" width="62.139" height="55.808" fill="none"/>
    </clipPath>
  </defs>
  <g id="Grupo_1107058" data-name="Grupo 1107058" transform="translate(4082.379 7115.028)">
    <g id="Grupo_1107023" data-name="Grupo 1107023" transform="translate(-4469.43 -14039.028)">
      <g id="Grupo_1106143" data-name="Grupo 1106143" transform="translate(387.051 6924)">
        <rect id="Rectángulo_400898" data-name="Rectángulo 400898" width="90.914" height="90.914" rx="45.457" transform="translate(0.001)" fill="#febdaf" opacity="0.859"/>
        <rect id="Rectángulo_400907" data-name="Rectángulo 400907" width="90.914" height="90.914" rx="45.457" transform="translate(0)" fill="none"/>
      </g>
      <g id="Grupo_1107047" data-name="Grupo 1107047" transform="translate(405.226 6942.553)">
        <rect id="Rectángulo_403669" data-name="Rectángulo 403669" width="26.223" height="1.345" transform="translate(11.322 42.394)"/>
        <g id="Grupo_1107035" data-name="Grupo 1107035">
          <g id="Grupo_1107034" data-name="Grupo 1107034" clip-path="url(#clip-path)">
            <path id="Trazado_878703" data-name="Trazado 878703" d="M58.218,71.231H29.032A4.735,4.735,0,0,1,24.3,66.5V29.217a4.355,4.355,0,0,1,4.349-4.349h3.293v1.344H28.652a3.009,3.009,0,0,0-3.005,3.005V66.5a3.389,3.389,0,0,0,3.385,3.385H58.218a3.008,3.008,0,0,0,3.005-3V29.442a3.008,3.008,0,0,0-3.005-3H54.965V25.093h3.253a4.355,4.355,0,0,1,4.349,4.349V66.881a4.355,4.355,0,0,1-4.349,4.349" transform="translate(-19.756 -20.215)"/>
            <path id="Trazado_878704" data-name="Trazado 878704" d="M94.976,25.64h-13.5L79.4,20.95l1.229-.544,1.72,3.889H94.1l1.72-3.889,1.229.544Z" transform="translate(-64.547 -16.588)"/>
            <path id="Trazado_878705" data-name="Trazado 878705" d="M39.33,55.808H8.623A8.633,8.633,0,0,1,0,47.185V8.623A8.633,8.633,0,0,1,8.623,0H38.9a8.633,8.633,0,0,1,8.623,8.623v6.343H46.181V8.623A7.287,7.287,0,0,0,38.9,1.345H8.623A7.287,7.287,0,0,0,1.344,8.623V47.185a7.287,7.287,0,0,0,7.279,7.279H39.33a6.859,6.859,0,0,0,6.851-6.851V43.4h1.344v4.209a8.2,8.2,0,0,1-8.2,8.2"/>
            <rect id="Rectángulo_403670" data-name="Rectángulo 403670" width="16.389" height="1.345" transform="translate(11.322 33.133)"/>
            <rect id="Rectángulo_403671" data-name="Rectángulo 403671" width="16.389" height="1.345" transform="translate(11.322 23.722)"/>
            <rect id="Rectángulo_403672" data-name="Rectángulo 403672" width="27.563" height="1.345" transform="translate(11.322 14.312)"/>
            <path id="Trazado_878706" data-name="Trazado 878706" d="M171.677,88.977a16.008,16.008,0,1,0-16.008,16.008,16.008,16.008,0,0,0,16.008-16.008" transform="translate(-113.529 -59.316)" fill="#f1cbc3"/>
            <path id="Trazado_878707" data-name="Trazado 878707" d="M180.286,118.62q-.145,0-.291-.011a4,4,0,0,1-2.917-1.6l-5.071-6.812a.617.617,0,0,0-.825-.138,13.748,13.748,0,1,1,2.843-2.325l-.982-.918a12.388,12.388,0,0,0-8.027-20.806,12.3,12.3,0,0,0-9.369,3.192,12.432,12.432,0,0,0-4.042,9,12.391,12.391,0,0,0,18.872,10.708,1.954,1.954,0,0,1,2.608.48l5.071,6.812a2.654,2.654,0,1,0,3.746-3.689l-5.551-4.266.819-1.066,5.551,4.266a4,4,0,0,1-2.436,7.169" transform="translate(-122.144 -68.791)"/>
            <path id="Trazado_878708" data-name="Trazado 878708" d="M192.8,143.413l-5.019-5.019.951-.951,4.068,4.068,7.894-7.894.951.951Z" transform="translate(-152.643 -108.616)"/>
          </g>
        </g>
      </g>
    </g>
  </g>
</svg>
