<svg xmlns="http://www.w3.org/2000/svg" xmlns:xlink="http://www.w3.org/1999/xlink" width="85" height="85" viewBox="0 0 85 85">
  <defs>
    <clipPath id="clip-path">
      <rect id="Rectángulo_403735" data-name="Rectángulo 403735" width="48" height="48" transform="translate(0.307 0.307)" fill="none"/>
    </clipPath>
  </defs>
  <g id="Grupo_1107215" data-name="Grupo 1107215" transform="translate(-442.051 -6887)">
    <circle id="Elipse_11763" data-name="Elipse 11763" cx="42.5" cy="42.5" r="42.5" transform="translate(442.051 6887)" fill="#99ede1"/>
    <g id="Grupo_1107143" data-name="Grupo 1107143" transform="translate(460.744 6905.693)">
      <g id="Grupo_1107142" data-name="Grupo 1107142" clip-path="url(#clip-path)">
        <path id="Trazado_878783" data-name="Trazado 878783" d="M47.43,17.441H.937v.3H9.4l-2.52,5.241L.937,26.023V38.262l4.229,1.5L6.7,41.022,8.376,43.6v1.861L.937,45.7v.33H47.43V45.7h-7.8l1.68-4.619L44.67,38.8l2.76-.54V26.023l-5.76-3.037-2.279-5.241H47.43ZM24.208,44.321A12.537,12.537,0,1,1,36.745,31.784,12.536,12.536,0,0,1,24.208,44.321" transform="translate(0.098 1.829)" fill="#f7b71b"/>
        <path id="Trazado_878784" data-name="Trazado 878784" d="M22.376,39.976a.83.83,0,0,1-.829-.829v-.224a.736.736,0,0,0-.518-.7,3.987,3.987,0,0,1-2.559-2.35.833.833,0,0,1,.774-1.124.836.836,0,0,1,.776.536,2.574,2.574,0,0,0,3.959.833,2.048,2.048,0,0,0,.7-1.537c0-1.271-1.632-2.1-2.605-2.485-3.181-1.252-3.655-3.06-3.655-4.027A3.7,3.7,0,0,1,19.664,25.3a4.059,4.059,0,0,1,1.391-.813.74.74,0,0,0,.492-.695v-.3a.828.828,0,0,1,1.656,0v.225a.734.734,0,0,0,.519.7,3.988,3.988,0,0,1,2.559,2.349.831.831,0,0,1-.483,1.071.829.829,0,0,1-1.067-.483,2.577,2.577,0,0,0-3.954-.836,2.069,2.069,0,0,0-.7,1.541c0,1.271,1.633,2.1,2.606,2.485,3.18,1.251,3.655,3.06,3.655,4.027a3.7,3.7,0,0,1-1.245,2.767,4.1,4.1,0,0,1-1.394.813.74.74,0,0,0-.492.695v.295a.829.829,0,0,1-.828.829" transform="translate(1.931 2.377)" fill="#003575"/>
        <path id="Trazado_878785" data-name="Trazado 878785" d="M.828,46.831A.829.829,0,0,1,0,46V17.828A.828.828,0,0,1,.828,17H47.785a.829.829,0,0,1,.829.828V46a.83.83,0,0,1-.829.829ZM46.219,39.2a.745.745,0,0,0-.183.023,7,7,0,0,0-5.027,5.027.739.739,0,0,0,.714.921h4.5a.738.738,0,0,0,.737-.738v-4.5a.738.738,0,0,0-.737-.737M30.73,18.656a.737.737,0,0,0-.337,1.391,13.326,13.326,0,0,1,0,23.734.738.738,0,0,0,.337,1.393h7.8a.738.738,0,0,0,.727-.615,8.645,8.645,0,0,1,7.08-7.081.734.734,0,0,0,.614-.727V27.077a.735.735,0,0,0-.613-.726,8.644,8.644,0,0,1-7.081-7.081.737.737,0,0,0-.727-.614Zm-20.653,0a.734.734,0,0,0-.726.614A8.645,8.645,0,0,1,2.27,26.351a.736.736,0,0,0-.614.726v9.674a.734.734,0,0,0,.614.727,8.648,8.648,0,0,1,7.081,7.081.736.736,0,0,0,.726.615h7.8a.738.738,0,0,0,.338-1.393,13.326,13.326,0,0,1,0-23.734.737.737,0,0,0-.338-1.391ZM2.393,39.2a.738.738,0,0,0-.737.737v4.5a.738.738,0,0,0,.737.738h4.5a.738.738,0,0,0,.714-.921,7,7,0,0,0-5.026-5.026.7.7,0,0,0-.185-.024M24.307,20.222A11.693,11.693,0,1,0,36,31.915,11.707,11.707,0,0,0,24.307,20.222m17.416-1.566a.738.738,0,0,0-.714.921A7,7,0,0,0,46.036,24.6a.7.7,0,0,0,.183.024.75.75,0,0,0,.452-.155.736.736,0,0,0,.285-.583v-4.5a.738.738,0,0,0-.737-.737Zm-39.329,0a.738.738,0,0,0-.737.737v4.5a.734.734,0,0,0,.285.582.746.746,0,0,0,.452.156.7.7,0,0,0,.185-.024A7,7,0,0,0,7.6,19.578a.737.737,0,0,0-.714-.921Z" transform="translate(0 1.782)" fill="#003575"/>
        <path id="Trazado_878786" data-name="Trazado 878786" d="M32.854,14.854a.829.829,0,0,1-.678-.352,9.651,9.651,0,0,0-7.869-4.345A9.643,9.643,0,0,0,16.44,14.5a.828.828,0,1,1-1.356-.95,12.9,12.9,0,0,1,1.853-2.112.733.733,0,0,0,.19-.81.744.744,0,0,0-.687-.471H2.393a.738.738,0,0,0-.736.738v3.13a.829.829,0,0,1-1.657,0v-4.7A.83.83,0,0,1,.829,8.5H47.785a.83.83,0,0,1,.829.829v4.7a.828.828,0,1,1-1.656,0v-3.13a.739.739,0,0,0-.738-.738H32.175a.737.737,0,0,0-.5,1.281,13.013,13.013,0,0,1,1.853,2.11.83.83,0,0,1-.677,1.307" transform="translate(0 0.891)" fill="#003575"/>
        <path id="Trazado_878787" data-name="Trazado 878787" d="M47.785,6.353a.829.829,0,0,1-.828-.829V2.394a.739.739,0,0,0-.738-.738H32.175a.737.737,0,0,0-.5,1.281,13.066,13.066,0,0,1,1.853,2.11.833.833,0,0,1-.2,1.157.822.822,0,0,1-.474.148A.833.833,0,0,1,32.174,6a9.647,9.647,0,0,0-7.868-4.344A9.643,9.643,0,0,0,16.44,6a.828.828,0,1,1-1.356-.95,12.944,12.944,0,0,1,1.852-2.112.729.729,0,0,0,.19-.81.741.741,0,0,0-.686-.471H2.393a.739.739,0,0,0-.737.738v3.13A.828.828,0,1,1,0,5.524V.829A.829.829,0,0,1,.828,0H47.785a.83.83,0,0,1,.829.829v4.7a.83.83,0,0,1-.829.829" fill="#003575"/>
      </g>
    </g>
  </g>
</svg>
