<svg xmlns="http://www.w3.org/2000/svg" xmlns:xlink="http://www.w3.org/1999/xlink" width="85" height="85" viewBox="0 0 85 85">
  <defs>
    <clipPath id="clip-path">
      <rect id="Rectángulo_403738" data-name="Rectángulo 403738" width="47.542" height="47.53" fill="none"/>
    </clipPath>
  </defs>
  <g id="Grupo_1107217" data-name="Grupo 1107217" transform="translate(-1072.051 -6887)">
    <circle id="Elipse_11765" data-name="Elipse 11765" cx="42.5" cy="42.5" r="42.5" transform="translate(1072.051 6887)" fill="#99ede1"/>
    <g id="Grupo_1107148" data-name="Grupo 1107148" transform="translate(1091.5 6903.96)">
      <g id="Grupo_1107147" data-name="Grupo 1107147" transform="translate(0 0)" clip-path="url(#clip-path)">
        <path id="Trazado_878798" data-name="Trazado 878798" d="M23.134,12.581c0,2.735-1.625,4.953-3.633,4.953s-3.632-2.218-3.632-4.953S17.494,7.628,19.5,7.628s3.633,2.218,3.633,4.953" transform="translate(1.281 0.616)" fill="#fd5a37"/>
        <path id="Trazado_878799" data-name="Trazado 878799" d="M29.753,34.99l4.85-4.85,4.349,4.349L34.436,39Z" transform="translate(2.402 2.433)" fill="#fd5a37"/>
        <path id="Trazado_878800" data-name="Trazado 878800" d="M43.207,47.53a3.935,3.935,0,0,1-2.831-1.167l-7.943-7.943a.7.7,0,0,0-.508-.216.7.7,0,0,0-.378.108,20.7,20.7,0,1,1,6.787-6.776.721.721,0,0,0,.108.886l7.943,7.943a3.968,3.968,0,0,1,1.156,2.907,4.359,4.359,0,0,1-4.226,4.258h-.108Zm-1.7-9.456A.686.686,0,0,0,41,38.29l-2.7,2.7a.717.717,0,0,0,0,1.016l3.21,3.21a2.438,2.438,0,0,0,1.708.692,2.748,2.748,0,0,0,1.891-.8,2.548,2.548,0,0,0,.119-3.6L42.007,38.29a.749.749,0,0,0-.508-.216Zm-4.4-4.366a.713.713,0,0,0-.519.259c-.259.313-.54.605-.843.929l-.195.216c-.076.086-.14.162-.205.227q-.648.648-1.362,1.232a.721.721,0,0,0-.054,1.059l2.2,2.2a.7.7,0,0,0,.508.216.686.686,0,0,0,.508-.216l2.7-2.7a.7.7,0,0,0,.216-.508.686.686,0,0,0-.216-.508l-2.2-2.2a.7.7,0,0,0-.508-.216h-.032ZM20.707,1.6A19.076,19.076,0,0,0,1.621,20.685,19.1,19.1,0,0,0,31.092,36.7l.573-.4c.454-.313.875-.638,1.308-.994.443-.378.821-.713,1.156-1.037l.086-.076s.1-.1.13-.14c.378-.389.681-.724.962-1.059.357-.421.681-.865,1.027-1.34l.389-.551A19.074,19.074,0,0,0,20.728,1.621Z" transform="translate(0 0)" fill="#003575"/>
        <path id="Trazado_878801" data-name="Trazado 878801" d="M19.554,18.547c-2.442,0-4.344-2.831-4.344-6.441,0-3.2,1.589-5.036,4.344-5.036S23.9,8.907,23.9,12.106c0,3.61-1.913,6.441-4.344,6.441m0-9.856c-.67,0-2.723,0-2.723,3.415,0,2.886,1.416,4.82,2.723,4.82s2.723-1.934,2.723-4.82c0-3.415-2.053-3.415-2.723-3.415" transform="translate(1.228 0.571)" fill="#003575"/>
        <path id="Trazado_878802" data-name="Trazado 878802" d="M10.826,29.756a.811.811,0,0,1-.811-.735c-.616-6.722,3.058-9.51,5.079-10.04a.632.632,0,0,1,.205-.022.808.808,0,0,1,.216,1.589c-.162.054-3.9,1.232-3.955,6.863a.765.765,0,0,0,.205.519.7.7,0,0,0,.508.216h15.26a.686.686,0,0,0,.508-.216.759.759,0,0,0,.205-.508c-.054-5.631-3.783-6.819-3.945-6.863a.809.809,0,0,1,.205-1.589.665.665,0,0,1,.205.022c2.032.53,5.7,3.318,5.079,10.04a.811.811,0,0,1-.811.735H10.793Z" transform="translate(0.803 1.53)" fill="#003575"/>
      </g>
    </g>
  </g>
</svg>
