<svg id="Grupo_1107156" data-name="Grupo 1107156" xmlns="http://www.w3.org/2000/svg" xmlns:xlink="http://www.w3.org/1999/xlink" width="244.374" height="265.315" viewBox="0 0 244.374 265.315">
  <defs>
    <clipPath id="clip-path">
      <rect id="Rectángulo_403741" data-name="Rectángulo 403741" width="244.374" height="265.315" fill="none"/>
    </clipPath>
    <clipPath id="clip-path-2">
      <path id="Trazado_878863" data-name="Trazado 878863" d="M233.55,86.064a49.5,49.5,0,1,0,49.5-49.5,49.5,49.5,0,0,0-49.5,49.5" transform="translate(-233.55 -36.56)" fill="none"/>
    </clipPath>
  </defs>
  <g id="Grupo_1107151" data-name="Grupo 1107151">
    <g id="Grupo_1107150" data-name="Grupo 1107150" clip-path="url(#clip-path)">
      <path id="Trazado_878803" data-name="Trazado 878803" d="M79.126,448.972c1.065,2.805-3.574,4.538-5.876,4.872-15.506,2.248-31.265,1.689-46.924,1.126-6.658-.24-13.288-.466-19.909-1.107a3.4,3.4,0,0,1-1.658-.463,2.379,2.379,0,0,1-.14-3.343,6.436,6.436,0,0,1,3.252-1.77c12.712-3.826,26.25-3.5,39.521-3.142l24.65.667c2.219.06,4.688.227,6.209,1.843a4.079,4.079,0,0,1,.876,1.317" transform="translate(-1.712 -190.157)" fill="#99ede1"/>
      <path id="Trazado_878804" data-name="Trazado 878804" d="M77.45,136.22c-6.049-1.615-10.616-5.154-8.812-13.345.722-3.276,3.038-5.963,5.526-8.213,5.039-4.557,11.033-7.9,16.969-11.2C106.58,94.868,128,77.2,145.393,91.339a13.246,13.246,0,0,1,4.131,5.162,13.489,13.489,0,0,1,.582,6.642c-.918,7.515-5.03,14.4-10.482,19.651s-12.185,9-19.135,12c-7.851,3.392-18.562,3.673-26.955,3.08-4.286-.3-10.76-.234-16.084-1.656" transform="translate(-29.164 -36.771)" fill="#99ede1"/>
      <path id="Trazado_878805" data-name="Trazado 878805" d="M78.43,284.035c-14.285-2.418-28.24-6.413-41.089-13.019-6.491-3.337-12.741-7.4-17.5-12.934-17.118-19.938-17.189-53.3-1.582-74.2,8.846-11.848,23.246-18.342,37.659-21.641s29.313-3.88,43.855-6.563a154.417,154.417,0,0,0,66.92-30.183c9.6-7.529,18.813-16.47,30.644-19.466a34.489,34.489,0,0,1,23.315,2.394c10.654,5.181,17.957,15.645,22.032,26.77,7.122,19.442,5.48,41.4-1.749,60.8s-19.713,36.477-33.9,51.556c-8.429,8.958-17.589,17.364-28.143,23.679-29.956,17.922-67.106,18.456-100.462,12.809" transform="translate(-2.896 -44.874)" fill="#99ede1"/>
      <path id="Trazado_878806" data-name="Trazado 878806" d="M65.03,161.545c.112-.446.211-.9.294-1.349a12.276,12.276,0,0,0-.291-6.249,5.984,5.984,0,0,0-1.1-1.985,5.627,5.627,0,0,0-2.452-1.558,7.641,7.641,0,0,0-7.336,1.467,12.913,12.913,0,0,0-3.208,5.207c-1.583,4.089-2.644,8.544-5.533,11.841-1.431,1.634-3.243,2.895-4.713,4.493a29.535,29.535,0,0,0-4.083,6.33,9.829,9.829,0,0,0-1.363,3.714c-.3,3.771,4.546,4.844,7.413,5.312a35.816,35.816,0,0,0,9.724-.036,11.287,11.287,0,0,0,4.192-1.059,3.838,3.838,0,0,0,2.175-3.35,36.179,36.179,0,0,1,1.207-5.782q1.541-6.212,3.6-12.28c.529-1.562,1.084-3.12,1.483-4.717" transform="translate(-15.055 -64.118)" fill="#222221"/>
      <path id="Trazado_878807" data-name="Trazado 878807" d="M125.726,204.633a9.687,9.687,0,0,0-.886-1.314,27.957,27.957,0,0,0-5.682-5.037c-2.585-1.847-5.2-3.654-7.739-5.566-2.2-1.655-4.544-3.769-7.143-4.791-1.472-.579-3.236-1.573-4.819-.987a6.542,6.542,0,0,0-3.414,3.215,10.231,10.231,0,0,0-.906,4.69,7.27,7.27,0,0,0,.813,3.555A8.685,8.685,0,0,0,100,201.521c2,.944,3.927,1.959,5.978,2.862a31.568,31.568,0,0,1,7.134,4.349c1.511,1.222,2.987,2.627,4.868,3.113a4.261,4.261,0,0,0,4.111-1.186c1.017-.976,2.177-.981,3.314-1.86a2.736,2.736,0,0,0,.813-.9,2.438,2.438,0,0,0,.154-1.473,5.561,5.561,0,0,0-.644-1.8" transform="translate(-40.659 -79.816)" fill="#eb9d83"/>
      <path id="Trazado_878808" data-name="Trazado 878808" d="M21.838,431.366c-.022.287.55.49.673.731.241.47.9.522,1.475.525l6.363.04c1.216-4.822,4.167-10.172,4.761-15.011-2.1.084-10.3-1.243-11.632,1.082-.777,1.357-1.641,12.633-1.641,12.633" transform="translate(-9.333 -178.364)" fill="#eb9d83"/>
      <path id="Trazado_878809" data-name="Trazado 878809" d="M101.623,425.518c-.328,1.547-.651,1.523-2.413,1.535q-2.567.018-5.135.033c-.032,0-.921-9.83-.969-10.717-.139-2.525-.982-6.738,1.853-8.078a5.018,5.018,0,0,1,5.4.819,18.055,18.055,0,0,0,1.827,1.818,7.108,7.108,0,0,1,.9.6c.813.759.68,2.06.484,3.156-.624,3.492-1.215,6.993-1.873,10.48-.023.125-.047.242-.07.352" transform="translate(-39.695 -174.302)" fill="#eb9d83"/>
      <path id="Trazado_878810" data-name="Trazado 878810" d="M85.609,242.505q.72,4.157,1.439,8.315a.612.612,0,0,1-.1.58.6.6,0,0,1-.311.109l-24.712,3.777a4.494,4.494,0,0,1-1.667.044.667.667,0,0,1-.378-.2.894.894,0,0,1-.05-.728c.389-2.171-1.345-3.989-1.678-6.044-.241-1.487.366-4.113,1.837-4.92a5.969,5.969,0,0,1,2.765-.347q2.2-.03,4.4-.07,4.347-.079,8.694-.2,4.883-.136,9.765-.322" transform="translate(-24.831 -103.64)" fill="#7abfb7"/>
      <path id="Trazado_878811" data-name="Trazado 878811" d="M81.69,150.8a6.519,6.519,0,0,0-.153.816,19.238,19.238,0,0,0-.01,3.109c.071,1.882.4,4.48-.626,6.121a15.33,15.33,0,0,1-3.817,4.133,9.193,9.193,0,0,0-2.338,3.1c-.873,1.457-1.47,3.112-.608,4.737a5.073,5.073,0,0,0,4.469,2.315,25.783,25.783,0,0,0,5.206-.816c1.428-.27,2.88-.407,4.294-.742a3.539,3.539,0,0,0,1.632-.735,3.978,3.978,0,0,0,.826-1.315,5.938,5.938,0,0,0,.769-2.953c-.1-1.006-.7-1.9-.837-2.9-.083-.609.011-1.234-.091-1.84-.241-1.427-1.493-2.459-2.044-3.8-.651-1.579-.261-3.4-.685-5.056-.383-1.5-1.411-2.773-1.759-4.278-.211-.912-.272-2.044-1.106-2.468a1.862,1.862,0,0,0-2.067.577,4.419,4.419,0,0,0-1.054,2" transform="translate(-31.505 -63.292)" fill="#222221"/>
      <path id="Trazado_878812" data-name="Trazado 878812" d="M25.657,287.891c-.757,3.441-1.584,6.867-2.333,10.31-.94,4.316-1.76,8.658-2.528,13.008-.665,3.765-1.65,7.669-1.8,11.49-.128,3.328-.387,7.164-1.943,10.2-.581,1.134-1.4,2.131-2.037,3.234a23.677,23.677,0,0,0-2.185,6.172.728.728,0,0,0,.685,1.062c5.411,1.359,10.773,2.4,16.271,3.352a6.748,6.748,0,0,0,3.738-.066c1.863-.779,2.608-2.975,3.143-4.922q3.93-14.292,7.859-28.583c2.015-7.328,4.034-14.667,5.467-22.135.671-3.494.956-6.9,2.253-10.216a72.8,72.8,0,0,0,3.46-9.986,41.41,41.41,0,0,0,.736-12.4c-.134-1.809-.163-3.809-.479-5.573-.271-1.513-1-2.889-1.189-4.434a5.914,5.914,0,0,0-3.077-4.829c-1.8-.837-4.865-.808-5.432-2.695.365,1.214-3.854,4.343-4.59,5.1a44.788,44.788,0,0,0-5.344,6.688,60.292,60.292,0,0,0-7.245,15.992c-1.365,4.6-1.487,9.4-2.375,14.112-.324,1.714-.681,3.42-1.056,5.123" transform="translate(-5.457 -102.946)" fill="#7abfb7"/>
      <path id="Trazado_878813" data-name="Trazado 878813" d="M83.092,297.187a61.491,61.491,0,0,1,.417,8.722c.021,5.861-.1,11.566.411,17.363a64.9,64.9,0,0,1-1.177,19.133,38.178,38.178,0,0,0,6.377,1.159,50.949,50.949,0,0,0,9.931-.053,13.53,13.53,0,0,1,3.03-.389q1.654-.264,3.29-.629c1.629-5.766,1.322-11.95,1.081-17.972q-.759-18.943-.279-37.908c.111-4.375-1.572-7.913-1.594-12.2a58.852,58.852,0,0,0-1.864-15.1,60.227,60.227,0,0,0-5.573-13.693c-1.208-2.155-1.91-3.263-4.17-4.221-1.358-.575-3.653-1.746-5.157-1.1a7.889,7.889,0,0,0-4.094,4.883c-.566,1.717-2.3,2.912-2.706,4.666-.338,1.47.327,3.781.33,5.334.009,5.1-.555,10.277-.83,15.375-.3,5.583-.6,11.227.4,16.728.607,3.328,1.684,6.562,2.175,9.908" transform="translate(-34.286 -102.615)" fill="#7abfb7"/>
      <path id="Trazado_878814" data-name="Trazado 878814" d="M86.279,170.932c-.432-.613-1.543-.385-2.187-.494a16.992,16.992,0,0,1-3.288-.9,2.094,2.094,0,0,1-1.067-.714,2.221,2.221,0,0,1-.265-.977q-.149-1.332-.3-2.665a2.1,2.1,0,0,1,.9-2.263,5.532,5.532,0,0,0,1.421-4.01,26.731,26.731,0,0,0-.557-6.822,5.013,5.013,0,0,0-.7-1.882,4.027,4.027,0,0,0-4.4-1.3c-3.152.933-6.8,3.433-7.093,6.987a18.447,18.447,0,0,0,.551,4.885,14.725,14.725,0,0,1,.174,6.155,6.025,6.025,0,0,1-3.853,4.5,6.72,6.72,0,0,0-1.826.581c-.776.5-.569.963-.363,1.6.254.786.379,1.639.632,2.462.024.083.052.164.08.246.007.022.014.045.022.066a6.107,6.107,0,0,0,1.881,2.758,10.2,10.2,0,0,0,7.338,2.466c.1-.006.2-.019.3-.027l.12,0c5.068.07,10.336-2.617,11.767-7.752,0-.013.006-.026.009-.039.468-1.067,1.16-2.222.707-2.867" transform="translate(-27.025 -63.562)" fill="#eb9d83"/>
      <path id="Trazado_878815" data-name="Trazado 878815" d="M83.344,186.485c-1.01,1.29-.324,3.657-1.532,4.94-1.064,1.128-3.133,3.523-9.272,3.092-4.031-.283-7.9-5.084-9.319-7.042a22.029,22.029,0,0,0-3.06,1.036c-.427.774.114,9.656-.227,13.712-.486,5.773.052,11.29-.48,17.372l26.833.459c0-2.4.217-4.8.36-7.2.163-2.727-.043-5.347.715-7.959a14.111,14.111,0,0,0,3.349.618,91.617,91.617,0,0,1,4.959-10.842c.287-.554,1.233-1.742,1.152-2.379-.1-.794-1.2-1.269-1.8-1.688q-2.511-1.752-5.134-3.337c-1.527-.921-4.586-2.471-6.256-1.083a1.924,1.924,0,0,0-.29.3" transform="translate(-25.408 -79.335)" fill="#c85a43"/>
      <path id="Trazado_878816" data-name="Trazado 878816" d="M4.562,445.118c-.535.336-1.04.638-1.491.9A8.142,8.142,0,0,0,.6,447.9a2.437,2.437,0,0,0-.2,2.894,2.616,2.616,0,0,0,2.364.764,31.028,31.028,0,0,0,5.679-1.594c3.072-.985,6.042-2.281,9.141-3.177a6.175,6.175,0,0,0,3.14-1.551,5.7,5.7,0,0,0,1.019-3,32.256,32.256,0,0,1,.719-4.562,30.741,30.741,0,0,1-5.3.223c-.419-.019-4.859-.6-4.853-.62-.819,3.1-4.756,5.975-7.741,7.846" transform="translate(0 -186.879)" fill="#222221"/>
      <path id="Trazado_878817" data-name="Trazado 878817" d="M112.424,440.434q.726.236,1.466.427a8.256,8.256,0,0,1,2.67.969c2.753,1.879-.066,3.824-2.248,3.767-3.869-.1-7.732-.551-11.6-.423-1.406.046-8.774.729-8.761-1.673a39.8,39.8,0,0,1,.469-7.2c1.425.182,2.78.534,4.264.636a3.5,3.5,0,0,0,2.839-.813c.852-.915,1.022-1.107,2.06-.514.956.547,1.949,1.327,2.9,1.955a24.54,24.54,0,0,0,5.942,2.867" transform="translate(-40.153 -186.024)" fill="#222221"/>
      <path id="Trazado_878818" data-name="Trazado 878818" d="M56.763,227.653a8.224,8.224,0,0,1-1.842,2c-2.959.555-2.341.142-2.647.117C47.093,225.44,41.412,212.148,40.36,206.2c-.405-2.293.163-4.667.665-6.941a13.251,13.251,0,0,1,4.41-6.172,16.54,16.54,0,0,1,6.958-2.391,21.278,21.278,0,0,1,1.382,3.537,20.044,20.044,0,0,1,1.611,6.046A6.755,6.755,0,0,1,54.653,204c-.288.5-1.056.986-1.253,1.462-.32.772.19,1.653.529,2.412A42.844,42.844,0,0,1,57.447,221.4a13.93,13.93,0,0,1-.684,6.257" transform="translate(-17.19 -81.498)" fill="#eb9d83"/>
      <path id="Trazado_878819" data-name="Trazado 878819" d="M56.313,227.406a6.194,6.194,0,0,0,.816,7.714,7.279,7.279,0,0,0,2.514,1.748,2.155,2.155,0,0,0,.835.192,2.077,2.077,0,0,0,.95-.366,29.95,29.95,0,0,0,10.6-11.678c2.521-4.685,4.531-10.6,6.377-15.3a23.1,23.1,0,0,0-4.4-3.525s-2.682,3.313-4.06,4.855c-4.1,4.587-9.727,9.841-13.539,16.209-.032.053-.062.1-.093.152" transform="translate(-23.648 -88.12)" fill="#eb9d83"/>
      <path id="Trazado_878820" data-name="Trazado 878820" d="M121.612,218.248a12.016,12.016,0,0,0-1.169,1.326c-2.99,3.938-7.085,7.111-10.7,10.472a1.284,1.284,0,0,0-.353.444c-.462,1.182,1.4,5.582,3,5.2,4.04-.96,8.009-3.629,11.378-5.946a35.654,35.654,0,0,0,5.933-4.71c1.538-1.631,3.218-4.323,2.741-6.665-.672-3.3-4.856-3.658-7.4-2.488a12.241,12.241,0,0,0-3.428,2.365" transform="translate(-46.72 -92.002)" fill="#eb9d83"/>
      <path id="Trazado_878821" data-name="Trazado 878821" d="M92.366,193.327a5.423,5.423,0,0,0-2.031,5.081c.205.953,1.708.718,1.5-.241a3.878,3.878,0,0,1,1.5-3.665c.717-.66-.243-1.84-.966-1.175" transform="translate(-38.565 -82.539)" fill="#eb9d83"/>
      <path id="Trazado_878822" data-name="Trazado 878822" d="M100.789,200.252H95.368a1.029,1.029,0,0,1-1.03-1.029V186.066a1.03,1.03,0,0,1,1.03-1.03h5.856a.594.594,0,0,1,.594.595v13.592a1.029,1.029,0,0,1-1.029,1.029" transform="translate(-40.318 -79.08)" fill="#4b98b8"/>
      <path id="Trazado_878823" data-name="Trazado 878823" d="M99.43,192.68a14.319,14.319,0,0,0-6.364,2.729c-1.269,1.018-.05,1.948.8,1.374a17.419,17.419,0,0,1,5.983-2.569c1-.222.577-1.757-.423-1.535" transform="translate(-39.54 -82.337)" fill="#eb9d83"/>
      <path id="Trazado_878824" data-name="Trazado 878824" d="M101.612,195.383a40.317,40.317,0,0,0-7.447,2.961c-.924.442-.117,1.815.8,1.374a38.211,38.211,0,0,1,7.067-2.8.8.8,0,0,0-.423-1.535" transform="translate(-40.069 -83.49)" fill="#eb9d83"/>
      <path id="Trazado_878825" data-name="Trazado 878825" d="M102.2,199.214a3,3,0,0,0-1.474.238q-.886.263-1.746.609a21.287,21.287,0,0,0-3.227,1.631c-.87.537-.072,1.915.8,1.374a19.347,19.347,0,0,1,2.68-1.4c.45-.189.907-.358,1.37-.51q.338-.111.68-.21a2.37,2.37,0,0,0,.529-.163.756.756,0,0,0,.714-.212l.023-.026a.8.8,0,0,0-.351-1.33" transform="translate(-40.762 -85.125)" fill="#eb9d83"/>
      <path id="Trazado_878826" data-name="Trazado 878826" d="M101.625,203.04a20.454,20.454,0,0,0-4.741,2.214.8.8,0,0,0,.8,1.374,18.821,18.821,0,0,1,4.361-2.053c.977-.3.561-1.834-.423-1.535" transform="translate(-41.243 -86.758)" fill="#eb9d83"/>
      <path id="Trazado_878827" data-name="Trazado 878827" d="M94.033,202.753a1.074,1.074,0,0,1,.153.73,1.8,1.8,0,0,1-.4.871,6.04,6.04,0,0,1-2.814,2.451,3.536,3.536,0,0,1-3.229-.551c-.9-.7-1.5-.724-1.416-1.858a13.261,13.261,0,0,1,.749-2.321c.462-1.153,2.1-4.369,3.592-4.651,1.107-.209,1.788,3.283,3.361,5.331" transform="translate(-36.893 -84.369)" fill="#eb9d83"/>
      <path id="Trazado_878828" data-name="Trazado 878828" d="M101.466,188.524a.492.492,0,1,1-.492-.492.492.492,0,0,1,.492.492" transform="translate(-42.943 -80.36)" fill="#222221"/>
      <path id="Trazado_878829" data-name="Trazado 878829" d="M40.108,208.753c2.348-.437,4.73-.543,7.1-.854,2.958-.388,5.887-.9,8.859-1.182a.758.758,0,0,0,.07-.066,1.5,1.5,0,0,0,.246-.746c.753-5.518-.589-11.309-1.318-16.775a.47.47,0,0,0-.667-.488c-2.968.5-6.031,1.036-8.557,2.673-.251.163-.478.354-.714.535a17.087,17.087,0,0,0-3.439,4.394c-2.063,3.939-1.972,8.225-1.682,12.516l.1-.008" transform="translate(-17.034 -80.61)" fill="#c85a43"/>
      <path id="Trazado_878830" data-name="Trazado 878830" d="M145.591,219.447a1.44,1.44,0,0,1,.97,2.331" transform="translate(-62.222 -93.786)" fill="none" stroke="#222221" stroke-miterlimit="10" stroke-width="1"/>
      <path id="Trazado_878831" data-name="Trazado 878831" d="M60.228,254.775a1.9,1.9,0,0,0,2.91.974" transform="translate(-25.74 -108.884)" fill="none" stroke="#222221" stroke-miterlimit="10" stroke-width="1"/>
      <path id="Trazado_878832" data-name="Trazado 878832" d="M88.952,173.516a6.3,6.3,0,0,1-1.039.459c-.457.09-.936-.094-1.392,0-.42.09-.787.412-1.216.392a4.972,4.972,0,0,1-.7-.178.535.535,0,0,0-.618.242.471.471,0,0,0,.016.334,1.185,1.185,0,0,0,.8.64c.338.1.7.125,1.036.22a10.16,10.16,0,0,1,1.287.563,2.2,2.2,0,0,0,3.1-1.02c.317-.8-.163-2.037-1.2-1.682l-.075.027" transform="translate(-35.885 -74.118)" fill="#222221"/>
      <path id="Trazado_878833" data-name="Trazado 878833" d="M66.491,162.783c.053-1.163-.12-2.328-.058-3.491.048-.91.045-2.141.941-2.665,1.223-.714,2.228.034,2.912-1.686.219-.551.31-1.149.562-1.686a3.129,3.129,0,0,1,2.276-1.729c.857-.144,1.74.078,2.6-.043a6.6,6.6,0,0,0,2-.75,3.673,3.673,0,0,0,1.42-1.034,3.231,3.231,0,0,0,.258-2.541,2.88,2.88,0,0,0-1.089-1.95c-1.032-.634-2.325.04-3.493.359-1.859.507-3.759.317-5.607.928a18.871,18.871,0,0,0-5.454,2.284c-2.316,1.684-3.642,4.4-4.563,7.114s-1.539,5.548-2.867,8.084c-.519.991-1.16,2.132-.707,3.155a2.45,2.45,0,0,0,2.227,1.241,17.508,17.508,0,0,0,2.664-.346,16.781,16.781,0,0,0,2.833-.35c2.154-.656,3.048-2.816,3.141-4.893" transform="translate(-23.707 -61.946)" fill="#222221"/>
      <path id="Trazado_878834" data-name="Trazado 878834" d="M76.184,165.566a2.767,2.767,0,0,1-2.277-.264,1.958,1.958,0,0,1-.748-.774,1.871,1.871,0,0,1-.072-1.37,2.474,2.474,0,0,1,2.718-1.648c.869.16,1.1.67,1.43,1.491s-.575,1.822-1.051,2.565" transform="translate(-31.195 -69.01)" fill="#eb9d83"/>
      <path id="Trazado_878835" data-name="Trazado 878835" d="M88.046,245.532a58.019,58.019,0,0,1,.1,8.816,10.733,10.733,0,0,1-.717,3.675,4.14,4.14,0,0,1-2.68,2.45" transform="translate(-36.219 -104.934)" fill="none" stroke="#222221" stroke-miterlimit="10" stroke-width="1"/>
      <path id="Trazado_878836" data-name="Trazado 878836" d="M107.472,241.488a3.451,3.451,0,0,0-.362-.052,6.134,6.134,0,0,0-1.587.144l-1.612.289c-.608.109-1.571.226-1.96.771a3.2,3.2,0,0,0-.112,2.259,8,8,0,0,0,.994,2.962,2.44,2.44,0,0,0,3.365.948q1.746-.831,3.416-1.811a2.235,2.235,0,0,0,.622-.474,1.859,1.859,0,0,0,.346-.931,3.68,3.68,0,0,0-.629-2.883,5.407,5.407,0,0,0-2.481-1.223" transform="translate(-43.459 -103.179)" fill="#eb9d83"/>
      <path id="Trazado_878837" data-name="Trazado 878837" d="M103.015,251.749a17.961,17.961,0,0,1-6.332,1.373.754.754,0,0,0-.407-.018l-.312.074a.781.781,0,0,0,.206,1.527,19.056,19.056,0,0,0,7.258-1.457c.911-.378.511-1.882-.413-1.5" transform="translate(-40.776 -107.564)" fill="#eb9d83"/>
      <path id="Trazado_878838" data-name="Trazado 878838" d="M99.188,245.776q-3.906.832-7.87,1.29c-.982.112-.993,1.668,0,1.554q4.175-.476,8.284-1.345c.977-.208.563-1.706-.413-1.5" transform="translate(-38.71 -105.03)" fill="#eb9d83"/>
      <path id="Trazado_878839" data-name="Trazado 878839" d="M100.1,249.291a27.639,27.639,0,0,1-6.031.781.778.778,0,0,0,0,1.554,29.6,29.6,0,0,0,6.444-.836c.972-.236.56-1.735-.413-1.5" transform="translate(-39.882 -106.53)" fill="#eb9d83"/>
      <path id="Trazado_878840" data-name="Trazado 878840" d="M99.9,242.324l-7.417,1.032c-.987.138-.567,1.635.413,1.5l7.417-1.033c.987-.137.567-1.635-.413-1.5" transform="translate(-39.283 -103.559)" fill="#eb9d83"/>
      <path id="Trazado_878841" data-name="Trazado 878841" d="M80.4,305.03c1.669-4.467,3.435-9.746,4.745-14.331" transform="translate(-34.362 -124.237)" fill="none" stroke="#222221" stroke-miterlimit="10" stroke-width="1"/>
      <path id="Trazado_878842" data-name="Trazado 878842" d="M45.351,337.1a14.819,14.819,0,0,0,5.464,1.291" transform="translate(-19.382 -144.069)" fill="none" stroke="#222221" stroke-miterlimit="10" stroke-width="1"/>
      <path id="Trazado_878843" data-name="Trazado 878843" d="M103.954,341.011a7.952,7.952,0,0,0,4.65-.621" transform="translate(-44.427 -145.474)" fill="none" stroke="#222221" stroke-miterlimit="10" stroke-width="1"/>
      <path id="Trazado_878844" data-name="Trazado 878844" d="M75.286,163.488a1.228,1.228,0,0,1,1.518,1.732" transform="translate(-32.175 -69.838)" fill="none" stroke="#222221" stroke-miterlimit="10" stroke-width="0.75"/>
      <path id="Trazado_878845" data-name="Trazado 878845" d="M87.948,168.029a2.672,2.672,0,0,0,2.379-.227" transform="translate(-37.587 -71.714)" fill="none" stroke="#222221" stroke-miterlimit="10" stroke-width="0.75"/>
      <path id="Trazado_878846" data-name="Trazado 878846" d="M64.016,212.937l.815-.068a23.939,23.939,0,0,1-1.11-9.843" transform="translate(-27.185 -86.768)" fill="none" stroke="#222221" stroke-miterlimit="10" stroke-width="1"/>
      <path id="Trazado_878847" data-name="Trazado 878847" d="M126.721,223.4a16.287,16.287,0,0,1,4.184-3.075" transform="translate(-54.157 -94.163)" fill="none" stroke="#222221" stroke-miterlimit="10" stroke-width="1"/>
      <path id="Trazado_878848" data-name="Trazado 878848" d="M67.06,228.391a48.039,48.039,0,0,1-1.3,4.734" transform="translate(-28.103 -97.608)" fill="none" stroke="#222221" stroke-miterlimit="10" stroke-width="1"/>
      <path id="Trazado_878849" data-name="Trazado 878849" d="M182.03,383.658v7.365a5.683,5.683,0,0,0,5.683,5.683h23.724" transform="translate(-77.795 -163.965)" fill="none" stroke="#222221" stroke-linecap="round" stroke-linejoin="round" stroke-width="1"/>
      <path id="Trazado_878850" data-name="Trazado 878850" d="M228.8,381.409a2.392,2.392,0,1,1-2.392-2.392,2.392,2.392,0,0,1,2.392,2.392" transform="translate(-95.739 -161.982)" fill="#222221"/>
      <path id="Trazado_878851" data-name="Trazado 878851" d="M228.8,404.7a2.392,2.392,0,1,1-2.392-2.392A2.392,2.392,0,0,1,228.8,404.7" transform="translate(-95.739 -171.936)" fill="#222221"/>
      <path id="Trazado_878852" data-name="Trazado 878852" d="M201.58,406.444v6.606a6.441,6.441,0,0,0,6.441,6.441h11.77" transform="translate(-86.15 -173.704)" fill="none" stroke="#222221" stroke-linecap="round" stroke-linejoin="round" stroke-width="1"/>
      <path id="Trazado_878853" data-name="Trazado 878853" d="M228.8,427.486a2.392,2.392,0,1,1-2.392-2.392,2.392,2.392,0,0,1,2.392,2.392" transform="translate(-95.739 -181.674)" fill="#222221"/>
      <path id="Trazado_878854" data-name="Trazado 878854" d="M110.6,201.231c1.062-.266,12.336-.207,20.957-.121a10.023,10.023,0,0,1,9.922,10.026v84.45A10.026,10.026,0,0,0,151.5,305.611h24.067" transform="translate(-47.265 -85.918)" fill="none" stroke="#222221" stroke-linecap="round" stroke-linejoin="round" stroke-width="1"/>
      <path id="Trazado_878855" data-name="Trazado 878855" d="M167.049,81.406a11.3,11.3,0,0,0-2.1.63,1.873,1.873,0,1,1-3.148,1.949,11.385,11.385,0,0,0-1.509,1.6,1.813,1.813,0,0,1,.194.08,1.873,1.873,0,1,1-1.953,3.173,11.27,11.27,0,0,0-.512,2.155,1.931,1.931,0,0,1,.232-.031,1.872,1.872,0,0,1,.132,3.741,1.943,1.943,0,0,1-.266-.017,11.3,11.3,0,0,0,.637,2.144,1.9,1.9,0,0,1,.21-.163,1.872,1.872,0,1,1,1.985,3.173,1.81,1.81,0,0,1-.259.128,11.4,11.4,0,0,0,1.637,1.547,1.8,1.8,0,0,1,.108-.265A1.872,1.872,0,0,1,165.746,103a1.8,1.8,0,0,1-.17.255,11.319,11.319,0,0,0,2.2.517,1.982,1.982,0,0,1-.04-.294,1.872,1.872,0,0,1,3.741-.132,1.834,1.834,0,0,1-.02.309,11.255,11.255,0,0,0,2.165-.657,1.83,1.83,0,0,1-.181-.234,1.872,1.872,0,1,1,3.173-1.985,1.829,1.829,0,0,1,.132.267,11.43,11.43,0,0,0,1.535-1.648,1.868,1.868,0,1,1,1.5-3.411,1.941,1.941,0,0,1,.23.154,11.274,11.274,0,0,0,.5-2.179,1.893,1.893,0,0,1-.25.034,1.872,1.872,0,1,1-.133-3.741,1.956,1.956,0,0,1,.247.016,11.258,11.258,0,0,0-.649-2.119,1.867,1.867,0,1,1-2.165-3.034,1.794,1.794,0,0,1,.2-.1,11.394,11.394,0,0,0-1.609-1.5,1.834,1.834,0,0,1-.077.188,1.873,1.873,0,1,1-3.191-1.929,11.258,11.258,0,0,0-2.132-.494,1.867,1.867,0,1,1-3.715.322,1.85,1.85,0,0,1,.013-.2m1.934,3.5A7.627,7.627,0,1,1,161.63,92.8a7.627,7.627,0,0,1,7.353-7.893" transform="translate(-67.535 -34.74)" fill="#222221"/>
      <path id="Trazado_878856" data-name="Trazado 878856" d="M169.459,102.949a8.668,8.668,0,1,0-6.779-10.213,8.677,8.677,0,0,0,6.779,10.213M165.468,93.3a5.823,5.823,0,1,1,4.555,6.861,5.83,5.83,0,0,1-4.555-6.861" transform="translate(-69.451 -36.662)" fill="#222221"/>
      <path id="Trazado_878857" data-name="Trazado 878857" d="M112.5,65.744a16.663,16.663,0,0,0-3.105.932,2.624,2.624,0,0,1,.179.23,2.771,2.771,0,0,1-4.7,2.939,2.835,2.835,0,0,1-.14-.284,16.892,16.892,0,0,0-2.234,2.366,2.674,2.674,0,0,1,.287.117,2.771,2.771,0,1,1-2.6,4.894,2.73,2.73,0,0,1-.292-.2,16.643,16.643,0,0,0-.759,3.191,2.624,2.624,0,0,1,.344-.047,2.772,2.772,0,1,1-.2,5.512,16.66,16.66,0,0,0,.944,3.174,2.693,2.693,0,0,1,.311-.241,2.77,2.77,0,0,1,2.939,4.7,2.834,2.834,0,0,1-.383.19,16.938,16.938,0,0,0,2.423,2.289,2.7,2.7,0,0,1,.16-.391,2.771,2.771,0,1,1,4.641,2.977,16.711,16.711,0,0,0,3.26.764,2.766,2.766,0,1,1,5.478-.631,2.746,2.746,0,0,1-.03.458,16.68,16.68,0,0,0,3.2-.973,2.713,2.713,0,0,1-.268-.346,2.771,2.771,0,1,1,4.893-2.544,16.877,16.877,0,0,0,2.273-2.439,2.714,2.714,0,0,1-.381-.156,2.771,2.771,0,1,1,2.939-4.666,16.7,16.7,0,0,0,.738-3.226,2.729,2.729,0,0,1-.371.05,2.772,2.772,0,1,1,.169-5.514,16.675,16.675,0,0,0-.961-3.136,2.68,2.68,0,0,1-.265.206,2.771,2.771,0,1,1-2.939-4.7,2.72,2.72,0,0,1,.3-.145,16.874,16.874,0,0,0-2.382-2.22,2.715,2.715,0,0,1-.114.279,2.773,2.773,0,1,1-4.723-2.855,16.648,16.648,0,0,0-3.157-.731,2.626,2.626,0,0,1,.038.279,2.77,2.77,0,0,1-5.537.2,2.617,2.617,0,0,1,.019-.3m2.863,5.186a11.29,11.29,0,1,1-10.884,11.683A11.29,11.29,0,0,1,115.361,70.93" transform="translate(-42.369 -28.022)" fill="#7abfb7"/>
      <path id="Trazado_878858" data-name="Trazado 878858" d="M116.068,97.632a12.83,12.83,0,1,0-10.036-15.117A12.844,12.844,0,0,0,116.068,97.632ZM110.16,83.349A8.619,8.619,0,1,1,116.9,93.505,8.629,8.629,0,0,1,110.16,83.349Z" transform="translate(-45.206 -30.867)" fill="none" stroke="#2d2d2d" stroke-linecap="round" stroke-miterlimit="10" stroke-width="1"/>
      <circle id="Elipse_11766" data-name="Elipse 11766" cx="51.96" cy="51.96" r="51.96" transform="translate(131.28 18.478)" fill="none" stroke="#222221" stroke-linecap="round" stroke-linejoin="round" stroke-width="0.75"/>
      <path id="Trazado_878859" data-name="Trazado 878859" d="M233.55,86.064a49.5,49.5,0,1,0,49.5-49.5,49.5,49.5,0,0,0-49.5,49.5" transform="translate(-99.813 -15.625)" fill="#8ad9d0"/>
      <line id="Línea_696" data-name="Línea 696" y2="99.518" transform="translate(183.24 20.935)" fill="none" stroke="#fff" stroke-linecap="round" stroke-linejoin="round" stroke-width="0.75"/>
      <line id="Línea_697" data-name="Línea 697" x1="99.007" transform="translate(133.737 70.439)" fill="none" stroke="#fff" stroke-linecap="round" stroke-linejoin="round" stroke-width="0.75"/>
    </g>
  </g>
  <g id="Grupo_1107153" data-name="Grupo 1107153" transform="translate(133.737 20.935)">
    <g id="Grupo_1107152" data-name="Grupo 1107152" clip-path="url(#clip-path-2)">
      <path id="Trazado_878860" data-name="Trazado 878860" d="M260.977,78.54c0,32.907,15.132,59.584,33.8,59.584s33.8-26.677,33.8-59.584-15.132-59.584-33.8-59.584S260.977,45.633,260.977,78.54Z" transform="translate(-245.272 -29.037)" fill="none" stroke="#fff" stroke-linecap="round" stroke-linejoin="round" stroke-width="0.75"/>
      <ellipse id="Elipse_11767" data-name="Elipse 11767" cx="17.177" cy="59.584" rx="17.177" ry="59.584" transform="translate(32.326 -10.081)" fill="none" stroke="#fff" stroke-linecap="round" stroke-linejoin="round" stroke-width="0.75"/>
      <path id="Trazado_878861" data-name="Trazado 878861" d="M337.746,168.392c0,11.477-22.515,20.781-50.289,20.781s-50.288-9.3-50.288-20.781,22.514-20.78,50.288-20.78S337.746,156.915,337.746,168.392Z" transform="translate(-235.097 -84.021)" fill="none" stroke="#fff" stroke-linecap="round" stroke-linejoin="round" stroke-width="0.75"/>
      <ellipse id="Elipse_11768" data-name="Elipse 11768" cx="42.829" cy="17.698" rx="42.829" ry="17.698" transform="translate(9.254 83.852)" fill="none" stroke="#fff" stroke-linecap="round" stroke-linejoin="round" stroke-width="0.75"/>
      <path id="Trazado_878862" data-name="Trazado 878862" d="M332.76,45.772c0-11.477-22.515-20.78-50.289-20.78s-50.288,9.3-50.288,20.78S254.7,66.553,282.471,66.553,332.76,57.249,332.76,45.772Z" transform="translate(-232.966 -31.616)" fill="none" stroke="#fff" stroke-linecap="round" stroke-linejoin="round" stroke-width="0.75"/>
      <ellipse id="Elipse_11769" data-name="Elipse 11769" cx="42.829" cy="17.698" rx="42.829" ry="17.698" transform="translate(6.399 -20.721)" fill="none" stroke="#fff" stroke-linecap="round" stroke-linejoin="round" stroke-width="0.75"/>
    </g>
  </g>
  <g id="Grupo_1107155" data-name="Grupo 1107155">
    <g id="Grupo_1107154" data-name="Grupo 1107154" clip-path="url(#clip-path)">
      <circle id="Elipse_11770" data-name="Elipse 11770" cx="47.347" cy="47.347" r="47.347" transform="translate(116.281 70.439) rotate(-45)" fill="none" stroke="#222221" stroke-linecap="round" stroke-linejoin="round" stroke-width="0.75"/>
      <path id="Trazado_878864" data-name="Trazado 878864" d="M114.067,145.566a22.905,22.905,0,0,1,22.906,22.906" transform="translate(-48.749 -62.211)" fill="none" stroke="#222221" stroke-miterlimit="10" stroke-width="4"/>
      <path id="Trazado_878865" data-name="Trazado 878865" d="M114.067,160.76a14.2,14.2,0,0,1,14.205,14.206" transform="translate(-48.749 -68.705)" fill="none" stroke="#222221" stroke-miterlimit="10" stroke-width="4"/>
      <path id="Trazado_878866" data-name="Trazado 878866" d="M114.067,173.982a6.634,6.634,0,0,1,6.634,6.634" transform="translate(-48.749 -74.355)" fill="none" stroke="#222221" stroke-miterlimit="10" stroke-width="4"/>
      <line id="Línea_698" data-name="Línea 698" x1="41.634" transform="translate(179.933 194.782)" fill="none" stroke="#222221" stroke-linecap="round" stroke-linejoin="round" stroke-width="1"/>
      <path id="Trazado_878867" data-name="Trazado 878867" d="M336.333,360.873v7.357a6.125,6.125,0,0,1-6.125,6.125H305.454" transform="translate(-130.543 -154.228)" fill="none" stroke="#222221" stroke-linecap="round" stroke-linejoin="round" stroke-width="1"/>
      <path id="Trazado_878868" data-name="Trazado 878868" d="M321.967,359.467a2.392,2.392,0,1,1-2.392-2.392,2.392,2.392,0,0,1,2.392,2.392" transform="translate(-135.556 -152.605)" fill="#222221"/>
      <path id="Trazado_878869" data-name="Trazado 878869" d="M321.967,382.759a2.392,2.392,0,1,1-2.392-2.392,2.392,2.392,0,0,1,2.392,2.392" transform="translate(-135.556 -162.559)" fill="#222221"/>
      <path id="Trazado_878870" data-name="Trazado 878870" d="M321.967,339.509a2.392,2.392,0,1,1-2.392-2.392,2.392,2.392,0,0,1,2.392,2.392" transform="translate(-135.556 -144.075)" fill="#222221"/>
      <path id="Trazado_878871" data-name="Trazado 878871" d="M357.689,162.077V268.713a7.2,7.2,0,0,1-7.2,7.2H318.337" transform="translate(-136.049 -69.267)" fill="none" stroke="#222221" stroke-linecap="round" stroke-linejoin="round" stroke-width="1"/>
      <path id="Trazado_878872" data-name="Trazado 878872" d="M365.726,195.457h-19a9.58,9.58,0,0,1-9.58-9.58V124.432" transform="translate(-144.086 -53.179)" fill="none" stroke="#222221" stroke-linecap="round" stroke-linejoin="round" stroke-width="1"/>
      <path id="Trazado_878873" data-name="Trazado 878873" d="M296.676,178.906v18.345c0,7.342,2.776,8.438,6.2,8.438h16.851" transform="translate(-126.792 -76.46)" fill="none" stroke="#222221" stroke-linecap="round" stroke-linejoin="round" stroke-width="1"/>
      <path id="Trazado_878874" data-name="Trazado 878874" d="M315.664,60.1v68.574a7.536,7.536,0,0,0,7.536,7.536h4.488" transform="translate(-134.907 -25.687)" fill="none" stroke="#222221" stroke-linecap="round" stroke-linejoin="round" stroke-width="1"/>
      <path id="Trazado_878875" data-name="Trazado 878875" d="M251.1,108.714v7.157a7.2,7.2,0,0,0,7.2,7.2h29.773" transform="translate(-107.316 -46.462)" fill="none" stroke="#222221" stroke-linecap="round" stroke-linejoin="round" stroke-width="1"/>
      <path id="Trazado_878876" data-name="Trazado 878876" d="M389.425,131.695c-.077,3.518-5.779,12.769-7.342,15.241a.442.442,0,0,1-.757-.017c-1.453-2.539-6.741-12.032-6.664-15.55a7.383,7.383,0,1,1,14.763.325" transform="translate(-160.121 -53.058)" fill="#c85a43"/>
      <path id="Trazado_878877" data-name="Trazado 878877" d="M388.677,133.83a4.435,4.435,0,1,1-4.337-4.532,4.435,4.435,0,0,1,4.337,4.532" transform="translate(-162.32 -55.258)" fill="#222221"/>
      <path id="Trazado_878878" data-name="Trazado 878878" d="M298.818,158.808c-.073,3.329-5.47,12.086-6.949,14.426a.419.419,0,0,1-.717-.016c-1.375-2.4-6.381-11.388-6.307-14.718a6.989,6.989,0,0,1,13.974.308" transform="translate(-121.735 -64.818)" fill="#c85a43"/>
      <path id="Trazado_878879" data-name="Trazado 878879" d="M298.111,160.83a4.2,4.2,0,1,1-4.1-4.29,4.2,4.2,0,0,1,4.1,4.29" transform="translate(-123.817 -66.901)" fill="#222221"/>
      <path id="Trazado_878880" data-name="Trazado 878880" d="M253.468,84.223c-.08,3.6-5.92,13.081-7.521,15.614a.453.453,0,0,1-.776-.017c-1.488-2.6-6.906-12.326-6.827-15.93a7.564,7.564,0,0,1,15.124.333" transform="translate(-101.861 -32.691)" fill="#c85a43"/>
      <path id="Trazado_878881" data-name="Trazado 878881" d="M252.7,86.411a4.544,4.544,0,1,1-4.442-4.643,4.544,4.544,0,0,1,4.442,4.643" transform="translate(-104.114 -34.945)" fill="#222221"/>
      <path id="Trazado_878882" data-name="Trazado 878882" d="M339.623,99.36c-.073,3.329-5.47,12.086-6.949,14.426a.418.418,0,0,1-.717-.015c-1.375-2.4-6.381-11.388-6.307-14.718a6.989,6.989,0,0,1,13.974.308" transform="translate(-139.174 -39.412)" fill="#c85a43"/>
      <path id="Trazado_878883" data-name="Trazado 878883" d="M338.915,101.382a4.2,4.2,0,1,1-4.1-4.29,4.2,4.2,0,0,1,4.1,4.29" transform="translate(-141.256 -41.494)" fill="#222221"/>
      <path id="Trazado_878884" data-name="Trazado 878884" d="M318.473,33.346c-.08,3.628-5.96,13.168-7.571,15.717a.456.456,0,0,1-.781-.017c-1.5-2.618-6.952-12.408-6.872-16.036a7.614,7.614,0,0,1,15.224.336" transform="translate(-129.6 -10.926)" fill="#c85a43"/>
      <path id="Trazado_878885" data-name="Trazado 878885" d="M317.7,35.548a4.574,4.574,0,1,1-4.472-4.674,4.574,4.574,0,0,1,4.472,4.674" transform="translate(-131.868 -13.194)" fill="#222221"/>
      <path id="Trazado_878886" data-name="Trazado 878886" d="M280.422,341.027H228.29a.993.993,0,0,1-.993-.993v-10.5a.993.993,0,0,1,.993-.993h52.132a.994.994,0,0,1,.994.993v10.5a.994.994,0,0,1-.994.993" transform="translate(-97.141 -140.408)" fill="#f5c45b"/>
      <rect id="Rectángulo_403742" data-name="Rectángulo 403742" width="10.362" height="7.169" transform="translate(132.747 190.489)" fill="none" stroke="#222221" stroke-linecap="round" stroke-linejoin="round" stroke-width="0.75"/>
      <circle id="Elipse_11771" data-name="Elipse 11771" cx="1.342" cy="1.342" r="1.342" transform="translate(147.365 190.811)" fill="none" stroke="#222221" stroke-linecap="round" stroke-linejoin="round" stroke-width="0.75"/>
      <path id="Trazado_878887" data-name="Trazado 878887" d="M266.98,334.564a1.342,1.342,0,1,1-1.342-1.342,1.342,1.342,0,0,1,1.342,1.342" transform="translate(-112.954 -142.41)" fill="#c06244"/>
      <path id="Trazado_878888" data-name="Trazado 878888" d="M284.843,340.81h0a1.157,1.157,0,0,1-1.157-1.157v-5.921a1.157,1.157,0,0,1,2.313,0v5.921a1.157,1.157,0,0,1-1.157,1.157" transform="translate(-121.24 -142.134)" fill="#5c9cb5"/>
      <path id="Trazado_878889" data-name="Trazado 878889" d="M291.467,340.81h0a1.157,1.157,0,0,1-1.157-1.157v-5.921a1.157,1.157,0,0,1,2.313,0v5.921a1.156,1.156,0,0,1-1.157,1.157" transform="translate(-124.071 -142.134)" fill="#5c9cb5"/>
      <path id="Trazado_878890" data-name="Trazado 878890" d="M298.092,340.81h0a1.157,1.157,0,0,1-1.157-1.157v-5.921a1.157,1.157,0,0,1,2.313,0v5.921a1.156,1.156,0,0,1-1.157,1.157" transform="translate(-126.902 -142.134)" fill="#c06244"/>
      <path id="Trazado_878891" data-name="Trazado 878891" d="M304.716,340.81h0a1.157,1.157,0,0,1-1.156-1.157v-5.921a1.156,1.156,0,1,1,2.313,0v5.921a1.156,1.156,0,0,1-1.157,1.157" transform="translate(-129.734 -142.134)"/>
      <path id="Trazado_878892" data-name="Trazado 878892" d="M311.341,340.81h0a1.157,1.157,0,0,1-1.157-1.157v-5.921a1.157,1.157,0,0,1,2.313,0v5.921a1.156,1.156,0,0,1-1.157,1.157" transform="translate(-132.565 -142.134)" fill="#c06244"/>
      <path id="Trazado_878893" data-name="Trazado 878893" d="M280.422,362.734H228.29a.993.993,0,0,1-.993-.993v-10.5a.993.993,0,0,1,.993-.993h52.132a.994.994,0,0,1,.994.993v10.5a.994.994,0,0,1-.994.994" transform="translate(-97.141 -149.685)" fill="#f5c45b"/>
      <rect id="Rectángulo_403743" data-name="Rectángulo 403743" width="10.362" height="7.169" transform="translate(132.747 202.92)" fill="none" stroke="#222221" stroke-linecap="round" stroke-linejoin="round" stroke-width="0.75"/>
      <path id="Trazado_878894" data-name="Trazado 878894" d="M260.032,356.271a1.342,1.342,0,1,1-1.342-1.342,1.342,1.342,0,0,1,1.342,1.342" transform="translate(-109.984 -151.687)" fill="#5c9cb5"/>
      <path id="Trazado_878895" data-name="Trazado 878895" d="M266.98,356.271a1.342,1.342,0,1,1-1.342-1.342,1.342,1.342,0,0,1,1.342,1.342" transform="translate(-112.954 -151.687)" fill="#c06244"/>
      <path id="Trazado_878896" data-name="Trazado 878896" d="M284.843,362.517h0a1.157,1.157,0,0,1-1.157-1.157v-5.922a1.157,1.157,0,0,1,2.313,0v5.922a1.157,1.157,0,0,1-1.157,1.157" transform="translate(-121.24 -151.411)"/>
      <path id="Trazado_878897" data-name="Trazado 878897" d="M291.467,362.517h0a1.157,1.157,0,0,1-1.157-1.157v-5.922a1.157,1.157,0,0,1,2.313,0v5.922a1.156,1.156,0,0,1-1.157,1.157" transform="translate(-124.071 -151.411)"/>
      <path id="Trazado_878898" data-name="Trazado 878898" d="M298.092,362.517h0a1.157,1.157,0,0,1-1.157-1.157v-5.922a1.157,1.157,0,0,1,2.313,0v5.922a1.156,1.156,0,0,1-1.157,1.157" transform="translate(-126.902 -151.411)" fill="#c06244"/>
      <path id="Trazado_878899" data-name="Trazado 878899" d="M304.716,362.517h0a1.157,1.157,0,0,1-1.156-1.157v-5.922a1.156,1.156,0,0,1,2.313,0v5.922a1.156,1.156,0,0,1-1.157,1.157" transform="translate(-129.734 -151.411)" fill="#c06244"/>
      <path id="Trazado_878900" data-name="Trazado 878900" d="M311.341,362.517h0a1.157,1.157,0,0,1-1.157-1.157v-5.922a1.157,1.157,0,0,1,2.313,0v5.922a1.156,1.156,0,0,1-1.157,1.157" transform="translate(-132.565 -151.411)" fill="#c06244"/>
      <path id="Trazado_878901" data-name="Trazado 878901" d="M280.422,384.442H228.29a.993.993,0,0,1-.993-.993v-10.5a.993.993,0,0,1,.993-.994h52.132a.993.993,0,0,1,.993.994v10.5a.993.993,0,0,1-.993.993" transform="translate(-97.141 -158.962)" fill="#f5c45b"/>
      <rect id="Rectángulo_403744" data-name="Rectángulo 403744" width="10.362" height="7.169" transform="translate(132.747 215.35)" fill="none" stroke="#222221" stroke-linecap="round" stroke-linejoin="round" stroke-width="0.75"/>
      <path id="Trazado_878902" data-name="Trazado 878902" d="M260.032,377.979a1.342,1.342,0,1,1-1.342-1.342,1.342,1.342,0,0,1,1.342,1.342" transform="translate(-109.984 -160.965)" fill="#5c9cb5"/>
      <path id="Trazado_878903" data-name="Trazado 878903" d="M266.98,377.979a1.342,1.342,0,1,1-1.342-1.342,1.342,1.342,0,0,1,1.342,1.342" transform="translate(-112.954 -160.965)" fill="#c06244"/>
      <path id="Trazado_878904" data-name="Trazado 878904" d="M284.843,384.225h0a1.157,1.157,0,0,1-1.157-1.157v-5.921a1.157,1.157,0,0,1,2.313,0v5.921a1.157,1.157,0,0,1-1.157,1.157" transform="translate(-121.24 -160.689)" fill="#5c9cb5"/>
      <path id="Trazado_878905" data-name="Trazado 878905" d="M291.467,384.225h0a1.157,1.157,0,0,1-1.157-1.157v-5.921a1.157,1.157,0,0,1,2.313,0v5.921a1.156,1.156,0,0,1-1.157,1.157" transform="translate(-124.071 -160.689)" fill="#5c9cb5"/>
      <path id="Trazado_878906" data-name="Trazado 878906" d="M298.092,384.225h0a1.157,1.157,0,0,1-1.157-1.157v-5.921a1.157,1.157,0,0,1,2.313,0v5.921a1.156,1.156,0,0,1-1.157,1.157" transform="translate(-126.902 -160.689)" fill="#c06244"/>
      <path id="Trazado_878907" data-name="Trazado 878907" d="M304.716,384.225h0a1.157,1.157,0,0,1-1.156-1.157v-5.921a1.156,1.156,0,1,1,2.313,0v5.921a1.156,1.156,0,0,1-1.157,1.157" transform="translate(-129.734 -160.689)"/>
      <path id="Trazado_878908" data-name="Trazado 878908" d="M311.341,384.225h0a1.157,1.157,0,0,1-1.157-1.157v-5.921a1.157,1.157,0,0,1,2.313,0v5.921a1.156,1.156,0,0,1-1.157,1.157" transform="translate(-132.565 -160.689)" fill="#c06244"/>
      <path id="Trazado_878909" data-name="Trazado 878909" d="M280.422,406.15H228.29a.993.993,0,0,1-.993-.993v-10.5a.993.993,0,0,1,.993-.994h52.132a.994.994,0,0,1,.994.994v10.5a.994.994,0,0,1-.994.993" transform="translate(-97.141 -168.24)" fill="#f5c45b"/>
      <rect id="Rectángulo_403745" data-name="Rectángulo 403745" width="10.362" height="7.169" transform="translate(132.747 227.78)" fill="none" stroke="#222221" stroke-linecap="round" stroke-linejoin="round" stroke-width="0.75"/>
      <circle id="Elipse_11772" data-name="Elipse 11772" cx="1.342" cy="1.342" r="1.342" transform="matrix(0.045, -0.999, 0.999, 0.045, 147.305, 230.724)" fill="none" stroke="#222221" stroke-linecap="round" stroke-linejoin="round" stroke-width="0.75"/>
      <path id="Trazado_878910" data-name="Trazado 878910" d="M266.98,399.686a1.342,1.342,0,1,1-1.342-1.342,1.342,1.342,0,0,1,1.342,1.342" transform="translate(-112.954 -170.242)" fill="#c06244"/>
      <path id="Trazado_878911" data-name="Trazado 878911" d="M284.843,405.932h0a1.157,1.157,0,0,1-1.157-1.157v-5.921a1.157,1.157,0,1,1,2.313,0v5.921a1.157,1.157,0,0,1-1.157,1.157" transform="translate(-121.24 -169.966)" fill="#5c9cb5"/>
      <path id="Trazado_878912" data-name="Trazado 878912" d="M291.467,405.932h0a1.157,1.157,0,0,1-1.157-1.157v-5.921a1.157,1.157,0,0,1,2.313,0v5.921a1.156,1.156,0,0,1-1.157,1.157" transform="translate(-124.071 -169.966)"/>
      <path id="Trazado_878913" data-name="Trazado 878913" d="M298.092,405.932h0a1.157,1.157,0,0,1-1.157-1.157v-5.921a1.157,1.157,0,1,1,2.313,0v5.921a1.156,1.156,0,0,1-1.157,1.157" transform="translate(-126.902 -169.966)" fill="#c06244"/>
      <path id="Trazado_878914" data-name="Trazado 878914" d="M304.716,405.932h0a1.157,1.157,0,0,1-1.156-1.157v-5.921a1.156,1.156,0,1,1,2.313,0v5.921a1.156,1.156,0,0,1-1.157,1.157" transform="translate(-129.734 -169.966)" fill="#c06244"/>
      <path id="Trazado_878915" data-name="Trazado 878915" d="M311.341,405.932h0a1.157,1.157,0,0,1-1.157-1.157v-5.921a1.157,1.157,0,0,1,2.313,0v5.921a1.156,1.156,0,0,1-1.157,1.157" transform="translate(-132.565 -169.966)"/>
      <path id="Trazado_878916" data-name="Trazado 878916" d="M280.422,427.857H228.29a.993.993,0,0,1-.993-.993v-10.5a.993.993,0,0,1,.993-.994h52.132a.994.994,0,0,1,.994.994v10.5a.994.994,0,0,1-.994.994" transform="translate(-97.141 -177.517)" fill="#f5c45b"/>
      <rect id="Rectángulo_403746" data-name="Rectángulo 403746" width="10.362" height="7.169" transform="translate(132.747 240.211)" fill="none" stroke="#222221" stroke-linecap="round" stroke-linejoin="round" stroke-width="0.75"/>
      <path id="Trazado_878917" data-name="Trazado 878917" d="M260.032,421.394a1.342,1.342,0,1,1-1.342-1.342,1.342,1.342,0,0,1,1.342,1.342" transform="translate(-109.984 -179.519)" fill="#5c9cb5"/>
      <circle id="Elipse_11773" data-name="Elipse 11773" cx="1.342" cy="1.342" r="1.342" transform="translate(151.343 240.533)" fill="none" stroke="#222221" stroke-linecap="round" stroke-linejoin="round" stroke-width="0.75"/>
      <path id="Trazado_878918" data-name="Trazado 878918" d="M284.843,427.64h0a1.157,1.157,0,0,1-1.157-1.157v-5.922a1.157,1.157,0,0,1,2.313,0v5.922a1.157,1.157,0,0,1-1.157,1.157" transform="translate(-121.24 -179.243)" fill="#5c9cb5"/>
      <path id="Trazado_878919" data-name="Trazado 878919" d="M291.467,427.64h0a1.157,1.157,0,0,1-1.157-1.157v-5.922a1.157,1.157,0,0,1,2.313,0v5.922a1.156,1.156,0,0,1-1.157,1.157" transform="translate(-124.071 -179.243)" fill="#5c9cb5"/>
      <path id="Trazado_878920" data-name="Trazado 878920" d="M298.092,427.64h0a1.157,1.157,0,0,1-1.157-1.157v-5.922a1.157,1.157,0,0,1,2.313,0v5.922a1.156,1.156,0,0,1-1.157,1.157" transform="translate(-126.902 -179.243)" fill="#c06244"/>
      <path id="Trazado_878921" data-name="Trazado 878921" d="M304.716,427.64h0a1.157,1.157,0,0,1-1.156-1.157v-5.922a1.156,1.156,0,0,1,2.313,0v5.922a1.156,1.156,0,0,1-1.157,1.157" transform="translate(-129.734 -179.243)"/>
      <path id="Trazado_878922" data-name="Trazado 878922" d="M311.341,427.64h0a1.157,1.157,0,0,1-1.157-1.157v-5.922a1.157,1.157,0,0,1,2.313,0v5.922a1.156,1.156,0,0,1-1.157,1.157" transform="translate(-132.565 -179.243)" fill="#c06244"/>
      <path id="Trazado_878923" data-name="Trazado 878923" d="M280.422,449.565H228.29a.993.993,0,0,1-.993-.993v-10.5a.993.993,0,0,1,.993-.994h52.132a.993.993,0,0,1,.993.994v10.5a.993.993,0,0,1-.993.993" transform="translate(-97.141 -186.794)" fill="#f5c45b"/>
      <rect id="Rectángulo_403747" data-name="Rectángulo 403747" width="10.362" height="7.169" transform="translate(132.747 252.641)" fill="none" stroke="#222221" stroke-linecap="round" stroke-linejoin="round" stroke-width="0.75"/>
      <path id="Trazado_878924" data-name="Trazado 878924" d="M260.032,443.1a1.342,1.342,0,1,1-1.342-1.342,1.342,1.342,0,0,1,1.342,1.342" transform="translate(-109.984 -188.797)" fill="#5c9cb5"/>
      <path id="Trazado_878925" data-name="Trazado 878925" d="M266.98,443.1a1.342,1.342,0,1,1-1.342-1.342,1.342,1.342,0,0,1,1.342,1.342" transform="translate(-112.954 -188.797)" fill="#c06244"/>
      <path id="Trazado_878926" data-name="Trazado 878926" d="M284.843,449.348h0a1.157,1.157,0,0,1-1.157-1.157v-5.921a1.157,1.157,0,1,1,2.313,0v5.921a1.157,1.157,0,0,1-1.157,1.157" transform="translate(-121.24 -188.521)" fill="#5c9cb5"/>
      <path id="Trazado_878927" data-name="Trazado 878927" d="M291.467,449.348h0a1.157,1.157,0,0,1-1.157-1.157v-5.921a1.157,1.157,0,0,1,2.313,0v5.921a1.156,1.156,0,0,1-1.157,1.157" transform="translate(-124.071 -188.521)" fill="#5c9cb5"/>
      <path id="Trazado_878928" data-name="Trazado 878928" d="M298.092,449.348h0a1.157,1.157,0,0,1-1.157-1.157v-5.921a1.157,1.157,0,1,1,2.313,0v5.921a1.156,1.156,0,0,1-1.157,1.157" transform="translate(-126.902 -188.521)" fill="#c06244"/>
      <path id="Trazado_878929" data-name="Trazado 878929" d="M304.716,449.348h0a1.157,1.157,0,0,1-1.156-1.157v-5.921a1.156,1.156,0,1,1,2.313,0v5.921a1.156,1.156,0,0,1-1.157,1.157" transform="translate(-129.734 -188.521)" fill="#c06244"/>
      <path id="Trazado_878930" data-name="Trazado 878930" d="M311.341,449.348h0a1.157,1.157,0,0,1-1.157-1.157v-5.921a1.157,1.157,0,0,1,2.313,0v5.921a1.156,1.156,0,0,1-1.157,1.157" transform="translate(-132.565 -188.521)"/>
      <line id="Línea_699" data-name="Línea 699" x2="50.709" transform="translate(131.86 250.28)" fill="none" stroke="#222221" stroke-linecap="round" stroke-linejoin="round" stroke-width="0.75"/>
      <line id="Línea_700" data-name="Línea 700" x2="50.709" transform="translate(131.86 237.909)" fill="none" stroke="#222221" stroke-linecap="round" stroke-linejoin="round" stroke-width="0.75"/>
      <line id="Línea_701" data-name="Línea 701" x2="50.709" transform="translate(131.86 225.538)" fill="none" stroke="#222221" stroke-linecap="round" stroke-linejoin="round" stroke-width="0.75"/>
      <line id="Línea_702" data-name="Línea 702" x2="50.709" transform="translate(131.86 213.167)" fill="none" stroke="#222221" stroke-linecap="round" stroke-linejoin="round" stroke-width="0.75"/>
      <line id="Línea_703" data-name="Línea 703" x2="50.709" transform="translate(131.86 200.796)" fill="none" stroke="#222221" stroke-linecap="round" stroke-linejoin="round" stroke-width="0.75"/>
      <circle id="Elipse_11774" data-name="Elipse 11774" cx="2.572" cy="2.572" r="2.572" transform="translate(198.264 170.795)" fill="none" stroke="#222540" stroke-miterlimit="10" stroke-width="0.75"/>
      <rect id="Rectángulo_403748" data-name="Rectángulo 403748" width="11.77" height="11.77" transform="translate(111.896 120.979)" fill="#8ad9d0"/>
      <path id="Trazado_878931" data-name="Trazado 878931" d="M201.189,214.35l3.188,3.433c1.966-3.8,4.359-7.551,7.709-10.208" transform="translate(-85.983 -88.712)" fill="none" stroke="#222221" stroke-linecap="round" stroke-linejoin="round" stroke-width="0.75"/>
      <rect id="Rectángulo_403749" data-name="Rectángulo 403749" width="11.77" height="11.77" transform="translate(111.896 139.37)" fill="#8ad9d0"/>
      <path id="Trazado_878932" data-name="Trazado 878932" d="M201.189,245.611l3.188,3.433c1.966-3.8,4.359-7.551,7.709-10.208" transform="translate(-85.983 -102.072)" fill="none" stroke="#222221" stroke-linecap="round" stroke-linejoin="round" stroke-width="0.75"/>
      <rect id="Rectángulo_403750" data-name="Rectángulo 403750" width="11.77" height="11.77" transform="translate(111.896 157.762)" fill="#8ad9d0"/>
      <path id="Trazado_878933" data-name="Trazado 878933" d="M201.189,276.872l3.188,3.433c1.966-3.8,4.359-7.551,7.709-10.208" transform="translate(-85.983 -115.432)" fill="none" stroke="#222221" stroke-linecap="round" stroke-linejoin="round" stroke-width="0.75"/>
      <path id="Trazado_878934" data-name="Trazado 878934" d="M4.39,306.372a1.45,1.45,0,1,1,2.9,0" transform="translate(-1.876 -130.316)" fill="none" stroke="#222540" stroke-miterlimit="10" stroke-width="0.75"/>
      <circle id="Elipse_11775" data-name="Elipse 11775" cx="1.745" cy="1.745" r="1.745" transform="translate(8.675 171.272)" fill="none" stroke="#222540" stroke-miterlimit="10" stroke-width="0.75"/>
      <path id="Trazado_878935" data-name="Trazado 878935" d="M16.9,312.631a2.9,2.9,0,1,1-2.9-2.9A2.9,2.9,0,0,1,16.9,312.631Z" transform="translate(-4.743 -132.371)" fill="none" stroke="#222540" stroke-miterlimit="10" stroke-width="0.75"/>
      <circle id="Elipse_11776" data-name="Elipse 11776" cx="1.74" cy="1.74" r="1.74" transform="translate(108.996 95.596)" fill="none" stroke="#222540" stroke-miterlimit="10" stroke-width="0.75"/>
      <path id="Trazado_878936" data-name="Trazado 878936" d="M144.055,410.577a2.319,2.319,0,1,1,0-4.639" transform="translate(-60.574 -173.487)" fill="none" stroke="#222540" stroke-miterlimit="10" stroke-width="0.75"/>
      <path id="Trazado_878937" data-name="Trazado 878937" d="M156.718,397.225a2.175,2.175,0,1,1-2.175-2.175A2.175,2.175,0,0,1,156.718,397.225Z" transform="translate(-65.119 -168.834)" fill="none" stroke="#222540" stroke-miterlimit="10" stroke-width="0.75"/>
      <circle id="Elipse_11777" data-name="Elipse 11777" cx="0.87" cy="0.87" r="0.87" transform="translate(87.54 235.64)" fill="none" stroke="#222540" stroke-miterlimit="10" stroke-width="0.75"/>
      <path id="Trazado_878938" data-name="Trazado 878938" d="M195.7,345.324a1.16,1.16,0,1,1-1.16-1.16A1.159,1.159,0,0,1,195.7,345.324Z" transform="translate(-82.646 -147.087)" fill="none" stroke="#222540" stroke-miterlimit="10" stroke-width="0.75"/>
      <line id="Línea_704" data-name="Línea 704" y1="9.568" x2="10.728" transform="translate(101.458 186.929)" fill="none" stroke="#222540" stroke-miterlimit="10" stroke-width="0.75"/>
      <line id="Línea_705" data-name="Línea 705" y1="9.568" x2="10.728" transform="translate(101.168 190.118)" fill="none" stroke="#222540" stroke-miterlimit="10" stroke-width="0.75"/>
      <line id="Línea_706" data-name="Línea 706" y1="9.568" x2="10.728" transform="translate(20.708 75.3)" fill="none" stroke="#222540" stroke-miterlimit="10" stroke-width="0.75"/>
      <path id="Trazado_878939" data-name="Trazado 878939" d="M42,144.114l6.7-5.889" transform="translate(-17.951 -59.074)" fill="none" stroke="#222540" stroke-miterlimit="10" stroke-width="0.75"/>
      <path id="Trazado_878940" data-name="Trazado 878940" d="M32.652,154.266l3.76-3.307" transform="translate(-13.955 -64.516)" fill="none" stroke="#222540" stroke-miterlimit="10" stroke-width="0.75"/>
      <line id="Línea_707" data-name="Línea 707" y1="9.568" x2="10.728" transform="translate(228.164 117.487)" fill="none" stroke="#222540" stroke-miterlimit="10" stroke-width="0.75"/>
      <line id="Línea_708" data-name="Línea 708" y1="6.041" x2="6.959" transform="translate(231.643 121.015)" fill="none" stroke="#222540" stroke-miterlimit="10" stroke-width="0.75"/>
      <path id="Trazado_878941" data-name="Trazado 878941" d="M240.594,238.988c6.27-.845,15.6-5.852,18.238-9.993a.562.562,0,0,1,.979.018c2.573,4.138,11.372,9.059,18.219,9.966a1.26,1.26,0,0,1,1.042,1.136c.24,1.945.374,5.094.391,6.762.19,19.031-15.287,26.556-19.52,28.256a1.648,1.648,0,0,1-1.242,0c-4.233-1.7-19.71-9.219-19.521-28.251.017-1.667.151-4.815.391-6.76a1.254,1.254,0,0,1,1.025-1.133" transform="translate(-102.218 -97.748)" fill="#ae9dcc"/>
      <path id="Trazado_878942" data-name="Trazado 878942" d="M244.016,242.065c5.634-.76,14.023-5.26,16.39-8.981a.5.5,0,0,1,.88.017c2.312,3.719,10.22,8.142,16.373,8.956a1.132,1.132,0,0,1,.936,1.02c.216,1.748.336,4.578.351,6.076.171,17.1-13.738,23.865-17.542,25.393a1.482,1.482,0,0,1-1.116,0c-3.8-1.527-17.713-8.285-17.542-25.388.015-1.5.135-4.327.351-6.074A1.126,1.126,0,0,1,244.016,242.065Z" transform="translate(-103.742 -99.507)" fill="none" stroke="#222221" stroke-linecap="round" stroke-linejoin="round" stroke-width="0.75"/>
      <path id="Trazado_878943" data-name="Trazado 878943" d="M266.745,262.518a4.3,4.3,0,1,0,4.293-4.53,4.416,4.416,0,0,0-4.293,4.53" transform="translate(-114 -110.257)"/>
      <path id="Trazado_878944" data-name="Trazado 878944" d="M268.775,279.918l2.008-10.841,2.348.077,1.922,10.764Z" transform="translate(-114.867 -114.997)"/>
    </g>
  </g>
</svg>
