<svg id="Grupo_1107190" data-name="Grupo 1107190" xmlns="http://www.w3.org/2000/svg" xmlns:xlink="http://www.w3.org/1999/xlink" width="248.045" height="245.558" viewBox="0 0 248.045 245.558">
  <defs>
    <clipPath id="clip-path">
      <rect id="Rectángulo_403773" data-name="Rectángulo 403773" width="248.045" height="245.558" fill="none"/>
    </clipPath>
  </defs>
  <g id="Grupo_1107189" data-name="Grupo 1107189">
    <g id="Grupo_1107188" data-name="Grupo 1107188" clip-path="url(#clip-path)">
      <path id="Trazado_879045" data-name="Trazado 879045" d="M352.509,211.455a22.833,22.833,0,1,1,22.832-22.832,22.858,22.858,0,0,1-22.832,22.832m0-36.377a13.545,13.545,0,1,0,13.544,13.545,13.56,13.56,0,0,0-13.544-13.545" transform="translate(-149.554 -75.209)" fill="#340b81"/>
      <path id="Trazado_879046" data-name="Trazado 879046" d="M291.2,290.258a65.14,65.14,0,1,0-104.031,0Z" transform="translate(-78.955 -84.333)" fill="#340b81"/>
      <path id="Trazado_879047" data-name="Trazado 879047" d="M289.378,229.021c1.023-3.242,1.93-6.52,2.958-9.8.673-2.144-2.855-3.5-3.975-1.629-1.922,3.209-4.089,6.258-6.078,9.417a34.89,34.89,0,0,0-4.144-.574c-10.823-.775-23.663,3.882-22.88,14.394.4,5.327,4.837,9.8,10.167,12.9.669.39,1.391.763,2.139,1.133q-4.835,9.427-9.706,18.838c-3.571-4.217-6.092-9.774-7.818-13.714-1.224-2.8-5.569-4.238-8.357-3.426-3.26.949-3.924,3.845-2.728,6.654,3.081,7.234,7.178,14.877,13.832,20.228-1.068,1.981-2.149,3.961-3.038,6.013-1.091,2.52-3.436,5.626-2.3,8.631a4.27,4.27,0,0,0,5.024,2.688c3.179-.814,4.207-3.746,5.655-6,1.312-2.042,2.448-4.174,3.569-6.323q1.23.442,2.543.8c11.421,3.067,22.175-2.144,26.833-9.908,4.844-8.073,3.037-19.44-6.68-26.545a30.5,30.5,0,0,0-3.928-2.384q2.856-6.254,5.592-12.553c4.98,1.68,9.208,4.91,14.312,6.265a1.992,1.992,0,0,0,2.536-1.6c.222-6.216-6.384-10.834-13.53-13.505m-9.594,33.4c4.825,6.389-.045,14.456-6.633,16.612a12.48,12.48,0,0,1-6.8.4q2.09-4.094,4.156-8.2,2.976-5.913,5.811-11.9a13.713,13.713,0,0,1,3.469,3.091m-10.969-18.456c-3.093-2.565-.592-4.982,2.146-6.281a14.976,14.976,0,0,1,6.1-1.263q-2.547,4.858-5.039,9.743a23.57,23.57,0,0,1-3.21-2.2" transform="translate(-108.148 -98.308)" fill="#ae9dcc"/>
      <path id="Trazado_879048" data-name="Trazado 879048" d="M151.358,85.165a3.806,3.806,0,0,0-.231-.522,2.694,2.694,0,0,0,.659-2.452c-.567-3.261.616-6.229.6-9.424a1.4,1.4,0,0,0-2.081-1.194,8.188,8.188,0,0,0-3.531,5.667c-1.34-1.576-3.464-2.957-5.458-1.791a4.546,4.546,0,0,0-2.04,4.335c-1.412,1.4-1,3.982-.1,5.76a5.624,5.624,0,0,0,2.58,2.5,3.765,3.765,0,0,0,1.441.664,3.611,3.611,0,0,0,.742.068,31.8,31.8,0,0,0,2.374,2.516,1.779,1.779,0,0,0,2.485,0,1.833,1.833,0,0,0,.212-.258,2.755,2.755,0,0,0,.9-.532,1.6,1.6,0,0,0,.266-.308,2.3,2.3,0,0,0,.853-.538,2.477,2.477,0,0,0,.7-1.655,1.759,1.759,0,0,0,.134-.859,6.858,6.858,0,0,0-.5-1.973" transform="translate(-62.761 -32.38)" fill="#e2997d"/>
      <path id="Trazado_879051" data-name="Trazado 879051" d="M142.346,80.788a3.183,3.183,0,0,0,.952-.638,2.092,2.092,0,0,0,.321-2.486c-.864-1.592-2.558-1.652-4.193-1.777a15.6,15.6,0,0,0-4.619.2,2.079,2.079,0,0,0-1.489,2.418l.032.149a2.072,2.072,0,0,0,1.457,1.457c.41.113.823.2,1.238.272a7.9,7.9,0,0,0-1.178.3c-1.675.588-2.007,3.309,0,3.74a14.846,14.846,0,0,0,1.529.239,8.023,8.023,0,0,0-1.441.271,1.615,1.615,0,0,0,0,3.088,12.692,12.692,0,0,0,4.07.306,1.856,1.856,0,0,0,.919-3.426c.392.028.784.06,1.174.106a2.329,2.329,0,0,0,2.315-2.315,2.161,2.161,0,0,0-1.085-1.91" transform="translate(-60.458 -34.39)" fill="#eea886"/>
      <path id="Trazado_879052" data-name="Trazado 879052" d="M194.561,96.558l-23.09,13.089L156.679,92.28l-8.917,9.172,18.817,21.184s1.646,1.989,6.733-.588l24.646-12.487Z" transform="translate(-67.031 -41.862)" fill="#3e4566"/>
      <path id="Trazado_879053" data-name="Trazado 879053" d="M358.924,199.639a19.1,19.1,0,0,0-6.457-5.606,17.983,17.983,0,0,1,5.339,3.535c1.217,1.157,3.211-.892,2.06-2.122-3.14-3.36-8.416-5.885-13-4.3a.885.885,0,0,0-.306,1.384,4.6,4.6,0,0,0-1.581.465.883.883,0,0,0,0,1.578,1.076,1.076,0,0,0-.262,1.83.9.9,0,0,0,.013.182,18.164,18.164,0,0,1,.259,2.653c.022.938-.309,1.921.079,2.8a1.371,1.371,0,0,0,2.324.266c.752-.835.581-2.43.376-3.464a6.9,6.9,0,0,0-.223-.845,13.478,13.478,0,0,1,5.264,6.984c.482,1.414,2.714.973,2.818-.441a7.912,7.912,0,0,0-2.935-6.447c-.5-.444-1.033-.9-1.588-1.325.136.089.266.175.379.254a22.428,22.428,0,0,1,4.674,4.806c1.392,1.792,4.146-.4,2.757-2.185" transform="translate(-156.203 -86.491)" fill="#eea886"/>
      <path id="Trazado_879054" data-name="Trazado 879054" d="M289.709,120.73l7.692,23.842,23.11,13.094-6.475,10.009-25.18-11.6-9.814-21.749Z" transform="translate(-126.584 -54.768)" fill="#3e4566"/>
      <rect id="Rectángulo_403770" data-name="Rectángulo 403770" width="8.291" height="3.49" transform="translate(96.209 129.523) rotate(-48.199)" fill="#aaa"/>
      <path id="Trazado_879055" data-name="Trazado 879055" d="M177.793,236.191s-1.535,11.87-3.2,14.16,1.3,4.91,4.693,1.53,11.354-17.734,11.354-17.734l-7.316-4.136Z" transform="translate(-78.983 -104.342)" fill="#7f5a4b"/>
      <rect id="Rectángulo_403771" data-name="Rectángulo 403771" width="8.932" height="11.23" transform="translate(139.557 57.268) rotate(-72.099)" fill="#d88d71"/>
      <path id="Trazado_879056" data-name="Trazado 879056" d="M278.7,59.938a11.542,11.542,0,0,0-22.407-5.2l-1.551,4.8a11.542,11.542,0,0,0,21.215,8.89,4.463,4.463,0,0,0,2.743-8.493" transform="translate(-115.305 -21.202)" fill="#eea886"/>
      <path id="Trazado_879057" data-name="Trazado 879057" d="M282.835,49.876a2.326,2.326,0,0,0-.553-1.05,1.552,1.552,0,0,0-.321-.374,5.131,5.131,0,0,0,.29-.443,4.834,4.834,0,0,0-1.323-6.3,5.191,5.191,0,0,0-3.319-1.069,4.409,4.409,0,0,0-.226-.985,6.071,6.071,0,0,0-2-2.827,5.308,5.308,0,0,0-3.348-1.184,6.1,6.1,0,0,0-1.983.381,6.644,6.644,0,0,0-4.423-4.727A6.488,6.488,0,0,0,259,33.038a7.011,7.011,0,0,0-1.587,6.589,3.433,3.433,0,0,0-1.658.441l-.627.484a2.321,2.321,0,0,0-.462.6,3.308,3.308,0,0,0-.462,2.684,3.43,3.43,0,0,0,.856,1.51,2.8,2.8,0,0,0,1.136.75,2.423,2.423,0,0,0,1.248.279,3.3,3.3,0,0,0,.911-.122,3.3,3.3,0,0,0,2.313-2.38,6.537,6.537,0,0,0,6.528-.633,5.212,5.212,0,0,0,3.691,3.3,5.619,5.619,0,0,0,1.971.114c.033.144.073.288.121.43.061.179.131.352.207.523.017.085.028.17.053.254a3.957,3.957,0,0,0,.9,1.606,3.025,3.025,0,0,0,1.6.86c.1.049.2.087.3.126a3.647,3.647,0,0,0-.014.6c-.021.15-.04.3-.061.451a1.468,1.468,0,0,0,.168.75.969.969,0,0,0,.251.43,1.459,1.459,0,0,0,.464.444,3.268,3.268,0,0,0,.98.861,3.466,3.466,0,0,0,2.851.343l.735-.31a2.333,2.333,0,0,0,.864-.793,1.541,1.541,0,0,0,.4-.679,2.325,2.325,0,0,0,.265-1.186l.008-.662q-.056-.411-.11-.821" transform="translate(-115.269 -14.066)" fill="#7f5a4b"/>
      <path id="Trazado_879058" data-name="Trazado 879058" d="M264.02,83.853a11.851,11.851,0,0,1,3.706-.174,10.545,10.545,0,0,1,3.167,1.31c.67.361,1.432-.532.838-1.086a7.193,7.193,0,0,0-8.09-.951.5.5,0,0,0,.38.9" transform="translate(-119.487 -37.247)" fill="#d88d71"/>
      <path id="Trazado_879059" data-name="Trazado 879059" d="M266.6,63.489c0,1.026-.514,1.858-1.149,1.858s-1.149-.832-1.149-1.858.515-1.858,1.149-1.858,1.149.832,1.149,1.858" transform="translate(-119.896 -27.958)" fill="#7f5a4b"/>
      <path id="Trazado_879060" data-name="Trazado 879060" d="M282.122,66.889c0,1.026-.514,1.858-1.149,1.858s-1.149-.832-1.149-1.858.515-1.858,1.149-1.858,1.149.832,1.149,1.858" transform="translate(-126.939 -29.501)" fill="#7f5a4b"/>
      <path id="Trazado_879061" data-name="Trazado 879061" d="M270.648,64.011c-.062.06-.117.127-.177.189a.526.526,0,0,0-.237.164,3.118,3.118,0,0,0-.289.449A18.5,18.5,0,0,0,267.8,68.8c-.426.991-.479,2.474.821,2.825,1.359.367,2.32-1.041,2.6-2.166a10.829,10.829,0,0,0,.379-4.132,6.179,6.179,0,0,0,.164-.664.672.672,0,0,0-1.113-.648" transform="translate(-121.361 -28.949)" fill="#d88d71"/>
      <path id="Trazado_879062" data-name="Trazado 879062" d="M299.142,73.86c-.988-.226-2.225.642-2.92,1.283a5.77,5.77,0,0,0-1.716,2.911c-.093.4.521.714.7.3a6.807,6.807,0,0,1,.79-1.369,4.479,4.479,0,0,1,.341,1.135c.065.431-.083.938.16,1.31a.3.3,0,0,0,.459.06c.373-.375.236-1.009.155-1.489A4.338,4.338,0,0,0,296.5,76.4a5.37,5.37,0,0,1,.422-.4,5.81,5.81,0,0,1,1.275-.8,4.141,4.141,0,0,0,1.159-.546.483.483,0,0,0-.212-.8" transform="translate(-133.595 -33.489)" fill="#d88d71"/>
      <path id="Trazado_879063" data-name="Trazado 879063" d="M258.047,104.259a3.027,3.027,0,0,1-1.348.536,2.779,2.779,0,0,1-.778.093c-1.637.584-4.442-.858-4.854-2.531l-4.388-1.41s-7.471,39.264-6.213,39,6.037,3.284,6.037,3.284l16.3-37.851Z" transform="translate(-109.02 -45.794)" fill="#dcd6da"/>
      <path id="Trazado_879064" data-name="Trazado 879064" d="M252.053,104.822l-18.17,31.247-.491,1.21,2.534-36.893s-8.517-1.4-10.611-.172c-4.068,2.384-8.7,43.482-8.7,43.482L229,148.082l17.85,11.069,14.538-47.956s-5.33-5.713-9.339-6.372" transform="translate(-98.267 -45.232)" fill="#323757"/>
      <path id="Trazado_879065" data-name="Trazado 879065" d="M262.566,106.8c.849.319,1.9.614,1.9.614l-1.285,3.979-1.071.838-2.009-.74-.719-1.324,1.544-4.782a3.97,3.97,0,0,0,1.64,1.417" transform="translate(-117.666 -47.806)" fill="#e97045"/>
      <path id="Trazado_879066" data-name="Trazado 879066" d="M271.926,103.357s-2.018,2.537-6.716,2.524l.615,4.592s5.62-1.3,8.27-4Z" transform="translate(-120.31 -46.887)" fill="#bfbcc7"/>
      <path id="Trazado_879067" data-name="Trazado 879067" d="M255.227,97.04s.153,3.238,3.971,5.976l-3.185,3.365s-3.487-3.466-4.057-7.205Z" transform="translate(-114.297 -44.021)" fill="#bfbcc7"/>
      <path id="Trazado_879068" data-name="Trazado 879068" d="M247.317,144.114l.491-1.21,5.129-8.82,3.954-18.695-1.9-.614-6.731,17.359Z" transform="translate(-112.193 -52.067)" fill="#e97045"/>
      <path id="Trazado_879069" data-name="Trazado 879069" d="M179.092,168.165s-32.175-8.161-38.268-.029c-7.007,9.35,14.986,39.8,14.986,39.8l12.679-13.309-10.138-15.769,27.539,5.453-18.9,21.322S154.8,235.26,156.754,234.961s14.1,2.884,14.1,2.884,11-25.878,13.219-29.635c1.206-2.044,16.118-8.172,24.062-13.592a11.662,11.662,0,0,0,5.391-11.263s-3.469,1.26-21.3-6.88c-5.573-2.544-8.511-7.414-13.132-8.309" transform="translate(-63.258 -74.637)" fill="#3e4566"/>
      <rect id="Rectángulo_403772" data-name="Rectángulo 403772" width="3.49" height="8.291" transform="translate(96.222 164.141) rotate(-80.356)" fill="#aaa"/>
      <path id="Trazado_879070" data-name="Trazado 879070" d="M162.907,300.426s-10.865,5.019-13.693,4.825-3.464,3.715,1.2,4.787,21.057.172,21.057.172l-.393-8.4Z" transform="translate(-66.685 -136.285)" fill="#7f5a4b"/>
      <path id="Trazado_879071" data-name="Trazado 879071" d="M342.892,115.4a9.2,9.2,0,0,1,9.66-8.69l9.267.49a9.188,9.188,0,0,1-.97,18.35l-9.268-.49a9.2,9.2,0,0,1-8.689-9.66m23.422,1.239A4.992,4.992,0,0,0,361.6,111.4l-9.267-.49a4.986,4.986,0,1,0-.527,9.959l9.267.491a4.993,4.993,0,0,0,5.243-4.716" transform="translate(-155.543 -48.404)" fill="#8970f2"/>
      <path id="Trazado_879072" data-name="Trazado 879072" d="M307.4,151.6a9.2,9.2,0,0,1,.22-12.992l6.673-6.45a9.188,9.188,0,0,1,12.771,13.212l-6.673,6.45A9.2,9.2,0,0,1,307.4,151.6m16.864-16.3a4.992,4.992,0,0,0-7.051-.12l-6.673,6.45a4.986,4.986,0,1,0,6.931,7.17l6.672-6.45a4.992,4.992,0,0,0,.12-7.051" transform="translate(-138.281 -58.785)" fill="#8970f2"/>
      <path id="Trazado_879073" data-name="Trazado 879073" d="M288.276,201.154a9.2,9.2,0,0,1-5.9-11.578l2.869-8.825a9.188,9.188,0,0,1,17.475,5.681l-2.869,8.826a9.2,9.2,0,0,1-11.578,5.9m7.251-22.305a4.992,4.992,0,0,0-6.284,3.2l-2.869,8.826a4.986,4.986,0,1,0,9.484,3.083l2.869-8.826a4.992,4.992,0,0,0-3.2-6.284" transform="translate(-127.893 -79.116)" fill="#8970f2"/>
      <path id="Trazado_879074" data-name="Trazado 879074" d="M270.116,251.1a9.2,9.2,0,0,1-5.137-11.934l3.432-8.623a9.188,9.188,0,0,1,17.073,6.8l-3.433,8.622a9.2,9.2,0,0,1-11.935,5.137m8.676-21.791a4.991,4.991,0,0,0-6.477,2.789l-3.433,8.622a4.986,4.986,0,1,0,9.265,3.688l3.433-8.622a4.992,4.992,0,0,0-2.788-6.477" transform="translate(-119.909 -101.956)" fill="#8970f2"/>
      <path id="Trazado_879075" data-name="Trazado 879075" d="M234.58,287.626a9.2,9.2,0,0,1,1.369-12.921l7.217-5.834a9.188,9.188,0,0,1,11.552,14.291L247.5,289a9.2,9.2,0,0,1-12.921-1.37m18.24-14.745a4.992,4.992,0,0,0-7.013-.743l-7.217,5.834a4.986,4.986,0,1,0,6.27,7.756l7.217-5.834a4.992,4.992,0,0,0,.744-7.013" transform="translate(-105.49 -121.046)" fill="#8970f2"/>
      <path id="Trazado_879076" data-name="Trazado 879076" d="M190.237,311.067a9.2,9.2,0,0,1,4.115-12.324l8.3-4.146a9.188,9.188,0,0,1,8.21,16.44l-8.3,4.146a9.2,9.2,0,0,1-12.324-4.115m20.984-10.479a4.992,4.992,0,0,0-6.689-2.233l-8.3,4.146a4.986,4.986,0,1,0,4.456,8.922l8.3-4.146a4.992,4.992,0,0,0,2.234-6.689" transform="translate(-85.86 -133.201)" fill="#8970f2"/>
      <path id="Trazado_879077" data-name="Trazado 879077" d="M397.165,159.893a9.2,9.2,0,0,1-9.759-8.578l-.6-9.261a9.188,9.188,0,0,1,18.338-1.18l.6,9.261a9.2,9.2,0,0,1-8.579,9.759m-1.506-23.406a4.992,4.992,0,0,0-4.656,5.3l.6,9.261a4.986,4.986,0,1,0,9.952-.64l-.6-9.261a4.992,4.992,0,0,0-5.3-4.656" transform="translate(-175.463 -60.005)" fill="#8970f2"/>
      <path id="Trazado_879078" data-name="Trazado 879078" d="M389.28,187.08l-.2-.1a2.384,2.384,0,0,1-1.05-3.2l6.1-12.043a2.384,2.384,0,0,1,3.2-1.05l.2.1a2.383,2.383,0,0,1,1.049,3.2l-6.1,12.042a2.383,2.383,0,0,1-3.2,1.05" transform="translate(-175.911 -77.313)" fill="#9b8cf4"/>
      <path id="Trazado_879079" data-name="Trazado 879079" d="M392.451,134.849l-.142.167a2.384,2.384,0,0,1-3.361.267l-10.27-8.761a2.383,2.383,0,0,1-.267-3.36l.142-.167a2.384,2.384,0,0,1,3.361-.266l10.27,8.761a2.383,2.383,0,0,1,.267,3.36" transform="translate(-171.403 -55.416)" fill="#9b8cf4"/>
      <path id="Trazado_879080" data-name="Trazado 879080" d="M333.618,136.161l-.167-.142a2.384,2.384,0,0,1-.267-3.361l8.761-10.27a2.383,2.383,0,0,1,3.36-.267l.167.142a2.384,2.384,0,0,1,.266,3.361l-8.761,10.27a2.383,2.383,0,0,1-3.36.267" transform="translate(-150.887 -55.14)" fill="#9b8cf4"/>
      <path id="Trazado_879081" data-name="Trazado 879081" d="M303.547,177.294l-.2-.09a2.384,2.384,0,0,1-1.191-3.154l5.558-12.3a2.384,2.384,0,0,1,3.154-1.191l.2.09a2.384,2.384,0,0,1,1.191,3.154L306.7,176.1a2.384,2.384,0,0,1-3.154,1.191" transform="translate(-136.974 -72.739)" fill="#9b8cf4"/>
      <path id="Trazado_879082" data-name="Trazado 879082" d="M287.45,224.96l-.209-.066a2.384,2.384,0,0,1-1.558-2.99l4.053-12.876a2.384,2.384,0,0,1,2.989-1.558l.209.066a2.383,2.383,0,0,1,1.558,2.989L290.439,223.4a2.384,2.384,0,0,1-2.989,1.558" transform="translate(-129.547 -94.066)" fill="#9b8cf4"/>
      <path id="Trazado_879083" data-name="Trazado 879083" d="M263.385,272.455l-.187-.114a2.384,2.384,0,0,1-.8-3.275l7.015-11.534a2.383,2.383,0,0,1,3.275-.8l.187.114a2.384,2.384,0,0,1,.8,3.275l-7.014,11.534a2.383,2.383,0,0,1-3.275.8" transform="translate(-118.877 -116.307)" fill="#9b8cf4"/>
      <path id="Trazado_879084" data-name="Trazado 879084" d="M217.712,302.074l-.1-.2a2.383,2.383,0,0,1,1.063-3.2l12.07-6.047a2.383,2.383,0,0,1,3.2,1.063l.1.2a2.384,2.384,0,0,1-1.063,3.2l-12.069,6.047a2.384,2.384,0,0,1-3.2-1.063" transform="translate(-98.603 -132.635)" fill="#9b8cf4"/>
      <path id="Trazado_879085" data-name="Trazado 879085" d="M171.435,297.988l.052-.213a2.384,2.384,0,0,1,2.88-1.751l18.387,4.487a2.383,2.383,0,0,1,1.751,2.88l-.052.213a2.383,2.383,0,0,1-2.88,1.751l-18.387-4.487a2.383,2.383,0,0,1-1.751-2.88" transform="translate(-77.739 -134.257)" fill="#9b8cf4"/>
      <path id="Trazado_879086" data-name="Trazado 879086" d="M170.979,379.011c4.625,1.21,9.818,1.247,14.576,1.394,5.1.158,10.192.229,15.295.247,10.014.035,20.029.1,30.043.1h61.178c5.644,0,11.289.037,16.933-.03l8.193-.1c2.748-.033,5.171.238,7.385-1.6a1.951,1.951,0,0,0,0-2.753c-1.8-1.494-3.464-1.55-5.746-1.577l-7.647-.091c-5.1-.06-10.2-.055-15.295-.055H265.852q-30.589,0-61.178.086c-5.647.02-11.289.019-16.933.193-5.472.169-11.438.07-16.761,1.462a1.42,1.42,0,0,0,0,2.716" transform="translate(-77.106 -169.912)" fill="#01d2b5"/>
      <path id="Trazado_879087" data-name="Trazado 879087" d="M282.792,394.719q7.46.123,14.914.352c2.488.078,4.969.113,7.457.12,2.24.006,4.7.384,6.814-.426a1.6,1.6,0,0,0,0-3.062c-2.108-.808-4.574-.432-6.814-.426-2.489.007-4.969.042-7.457.12q-7.457.234-14.914.352a1.486,1.486,0,0,0,0,2.971" transform="translate(-127.635 -177.456)" fill="#01d2b5"/>
      <path id="Trazado_879088" data-name="Trazado 879088" d="M230.844,393.517a96.107,96.107,0,0,0,11.518.764c3.6.084,8.166.812,11.575-.409a1.37,1.37,0,0,0,0-2.618c-3.342-1.026-7.562-.251-11.041-.213-3.924.043-7.83-.057-11.746.211-1.2.082-1.673,2.067-.307,2.264" transform="translate(-104.343 -177.248)" fill="#01d2b5"/>
      <path id="Trazado_879089" data-name="Trazado 879089" d="M252.133,406.309c4.446.07,8.889.154,13.333.3,2.133.069,4.267.167,6.4.188,1.914.019,3.646.269,5.343-.659a1.085,1.085,0,0,0,0-1.858c-1.577-.863-3.021-.673-4.81-.659-2.311.017-4.623.114-6.933.189-4.444.144-8.887.228-13.333.3a1.1,1.1,0,0,0,0,2.2" transform="translate(-113.894 -183.085)" fill="#01d2b5"/>
      <path id="Trazado_879090" data-name="Trazado 879090" d="M306.52,406.87c2.819.05,5.64.18,8.458.132,2.251-.039,4.789.366,6.8-.759a.9.9,0,0,0,0-1.548c-2.1-.981-4.526-.428-6.8-.3-2.825.154-5.64.486-8.458.738a.871.871,0,0,0,0,1.742" transform="translate(-138.669 -183.326)" fill="#01d2b5"/>
      <path id="Trazado_879091" data-name="Trazado 879091" d="M287.894,417.554a87.3,87.3,0,0,0,9.282.782c2.484.042,5.446.524,7.7-.622.811-.412.454-1.448-.226-1.732-2.317-.968-5.506-.3-7.992-.3-2.923-.007-5.842.1-8.765.081-1.186-.007-1.112,1.655,0,1.793" transform="translate(-130.209 -188.468)" fill="#01d2b5"/>
      <path id="Trazado_879092" data-name="Trazado 879092" d="M368.842,394.744q11.319.465,22.654.55c3.6.026,7.192.042,10.787-.049q2.966-.075,5.931-.182c1.688-.061,3,.091,4.406-.909a1.272,1.272,0,0,0,0-2.167c-2.621-1.548-6.846-.5-9.8-.4-3.776.118-7.55.274-11.326.375q-11.326.3-22.654.123a1.333,1.333,0,0,0,0,2.664" transform="translate(-166.738 -177.439)" fill="#b3efff"/>
      <path id="Trazado_879093" data-name="Trazado 879093" d="M360.993,405.859c3.871-.247,7.741-.381,11.617-.533,1.763-.069,3.525-.166,5.288-.223s3.3.185,4.788-.842a1.117,1.117,0,0,0,0-1.9c-2.546-1.651-7.141-.66-10.077-.513-3.879.193-7.756.589-11.617.992-1.9.2-1.967,3.148,0,3.022" transform="translate(-163.103 -182.098)" fill="#b3efff"/>
      <path id="Trazado_879094" data-name="Trazado 879094" d="M84.313,251.526,65.09,205.438,33.858,218.465l13.79,33.06Z" transform="translate(-15.36 -93.195)" fill="#53c187"/>
      <path id="Trazado_879095" data-name="Trazado 879095" d="M55.305,254.992,43.863,227.559a4.52,4.52,0,0,0,1.765-4.291l17.693-7.38a4.515,4.515,0,0,0,4.289,1.764l15.575,37.34h2.368L68.837,214.917l-1.008.421a2.325,2.325,0,0,1-3.036-1.248l-.421-1.009-21.481,8.96.421,1.009a2.321,2.321,0,0,1-1.249,3.036l-1.009.42,11.882,28.487Z" transform="translate(-18.624 -96.662)" fill="#2b7f51"/>
      <path id="Trazado_879096" data-name="Trazado 879096" d="M83.149,257.635a6.521,6.521,0,1,0-3.508,8.529,6.521,6.521,0,0,0,3.508-8.529" transform="translate(-32.03 -115.053)" fill="#2b7f51"/>
      <path id="Trazado_879097" data-name="Trazado 879097" d="M72.824,237.9a3.032,3.032,0,1,0-1.631,3.966,3.032,3.032,0,0,0,1.631-3.966" transform="translate(-30.391 -107.074)" fill="#2b7f51"/>
      <path id="Trazado_879098" data-name="Trazado 879098" d="M94.03,288.256a3.031,3.031,0,0,0-5.581,0Z" transform="translate(-40.124 -129.926)" fill="#2b7f51"/>
      <path id="Trazado_879099" data-name="Trazado 879099" d="M22.364,291.587c10.865.305,21.73.243,32.6.254l16.3.015,7.607.007c2.328,0,4.989.5,7.011-.819a.986.986,0,0,0,0-1.681c-2.022-1.324-4.683-.822-7.011-.82l-7.607.007-16.3.016c-10.869.01-21.734-.052-32.6.254a1.384,1.384,0,0,0,0,2.766" transform="translate(-9.539 -130.852)" fill="#01d2b5"/>
      <path id="Trazado_879100" data-name="Trazado 879100" d="M43.781,300.936c3.735.368,7.347.73,11.1.819,3.21.076,7.339.811,10.359-.426a1.191,1.191,0,0,0,0-2.272c-3.012-1.233-7.161-.5-10.359-.426-3.755.089-7.37.452-11.1.819a.743.743,0,0,0,0,1.486" transform="translate(-19.536 -135.342)" fill="#01d2b5"/>
      <path id="Trazado_879101" data-name="Trazado 879101" d="M90.247,301.45a48.024,48.024,0,0,0,11.246,1.115c3.361.07,7.512.852,10.589-.7a1.083,1.083,0,0,0,0-1.858c-3.075-1.555-7.238-.774-10.589-.7a47.97,47.97,0,0,0-11.246,1.115.542.542,0,0,0,0,1.037" transform="translate(-40.765 -135.656)" fill="#01d2b5"/>
      <path id="Trazado_879102" data-name="Trazado 879102" d="M71.722,309.212c3.4,1.044,6.964,1.02,10.492,1.12,3.425.1,7.385.6,10.7-.355a1.291,1.291,0,0,0,0-2.47c-3.312-.948-7.288-.452-10.7-.355-3.527.1-7.092.076-10.492,1.12a.491.491,0,0,0,0,.939" transform="translate(-32.379 -139.238)" fill="#01d2b5"/>
      <path id="Trazado_879103" data-name="Trazado 879103" d="M141.325,407.861a15.615,15.615,0,1,0-23.128,0Z" transform="translate(-51.781 -173.178)" fill="#ddc14e"/>
      <path id="Trazado_879104" data-name="Trazado 879104" d="M129.244,411.461h8.235a11.279,11.279,0,1,0-8.235,0" transform="translate(-55.381 -176.778)" fill="#f2db79"/>
      <path id="Trazado_879105" data-name="Trazado 879105" d="M98.128,427.664c8.123.044,16.247.1,24.37.107l11.915.011c3.751,0,8.022.6,11.672-.287a1.136,1.136,0,0,0,0-2.173c-3.477-.845-7.556-.291-11.13-.287l-12.456.011c-8.123.007-16.247.063-24.37.107a1.256,1.256,0,0,0,0,2.51" transform="translate(-43.965 -192.73)" fill="#01d2b5"/>
      <path id="Trazado_879106" data-name="Trazado 879106" d="M131.986,436.105c4.693.119,9.382.406,14.077.416,4.239.009,9.111.661,13.239-.4a.929.929,0,0,0,0-1.778c-4.139-1.061-8.99-.406-13.239-.4-4.694.01-9.384.3-14.077.416a.871.871,0,0,0,0,1.742" transform="translate(-59.492 -196.761)" fill="#01d2b5"/>
      <path id="Trazado_879107" data-name="Trazado 879107" d="M110.141,436.81c1.164.054,2.329.1,3.492.166a11.88,11.88,0,0,0,3.171.04.671.671,0,0,0,0-1.284,11.972,11.972,0,0,0-3.171.04c-1.163.068-2.329.112-3.492.166a.436.436,0,0,0,0,.871" transform="translate(-49.773 -197.619)" fill="#01d2b5"/>
      <path id="Trazado_879108" data-name="Trazado 879108" d="M102.484,445.1c5.165.221,10.309.3,15.48.315l7.473.028c2.385.009,4.878.271,7.178-.451a.9.9,0,0,0,0-1.729c-2.143-.674-4.419-.462-6.644-.453l-8.006.029c-5.17.019-10.314.094-15.48.315a.974.974,0,0,0,0,1.947" transform="translate(-46.064 -200.856)" fill="#01d2b5"/>
      <path id="Trazado_879109" data-name="Trazado 879109" d="M166.593,447.122a4.239,4.239,0,0,0,2.556.345,7.479,7.479,0,0,0,2.423-.611.591.591,0,0,0,0-1.017,7.484,7.484,0,0,0-2.423-.611,4.228,4.228,0,0,0-2.556.346.909.909,0,0,0,0,1.548" transform="translate(-75.377 -201.953)" fill="#b3efff"/>
      <path id="Trazado_879110" data-name="Trazado 879110" d="M42.83,352.074a15.615,15.615,0,1,0-27.7,0Z" transform="translate(-6.062 -149.361)" fill="#ddc14e"/>
      <path id="Trazado_879111" data-name="Trazado 879111" d="M41.252,355.673a11.28,11.28,0,1,0-17.347,0Z" transform="translate(-9.662 -152.96)" fill="#f2db79"/>
      <path id="Trazado_879112" data-name="Trazado 879112" d="M1.212,369.148c8.123.044,16.247.1,24.37.108l11.914.011c3.751,0,8.023.6,11.672-.287a1.136,1.136,0,0,0,0-2.173c-3.477-.845-7.556-.29-11.13-.287l-12.456.011c-8.123.008-16.247.063-24.37.107a1.256,1.256,0,0,0,0,2.51" transform="translate(0 -166.185)" fill="#01d2b5"/>
      <path id="Trazado_879113" data-name="Trazado 879113" d="M35.069,377.589c4.693.119,9.382.406,14.077.416,4.239.009,9.111.661,13.239-.4a.93.93,0,0,0,0-1.778c-4.139-1.061-8.99-.406-13.239-.4-4.694.01-9.384.3-14.077.416a.871.871,0,0,0,0,1.742" transform="translate(-15.527 -170.216)" fill="#01d2b5"/>
      <path id="Trazado_879114" data-name="Trazado 879114" d="M13.224,378.295c1.164.054,2.33.1,3.492.166a11.88,11.88,0,0,0,3.171.04.671.671,0,0,0,0-1.284,12,12,0,0,0-3.171.04c-1.163.068-2.327.112-3.492.166a.436.436,0,0,0,0,.871" transform="translate(-5.808 -171.075)" fill="#b3efff"/>
      <path id="Trazado_879115" data-name="Trazado 879115" d="M5.568,386.581c5.165.221,10.309.3,15.48.315l7.473.028c2.385.009,4.878.271,7.178-.451a.9.9,0,0,0,0-1.729c-2.143-.674-4.419-.462-6.644-.453l-8.006.03c-5.17.019-10.314.094-15.48.315a.974.974,0,0,0,0,1.947" transform="translate(-2.1 -174.312)" fill="#01d2b5"/>
      <path id="Trazado_879116" data-name="Trazado 879116" d="M69.677,388.607a4.239,4.239,0,0,0,2.556.345,7.493,7.493,0,0,0,2.423-.611.592.592,0,0,0,0-1.017,7.5,7.5,0,0,0-2.423-.611,4.227,4.227,0,0,0-2.556.346.909.909,0,0,0,0,1.548" transform="translate(-31.412 -175.408)" fill="#b3efff"/>
    </g>
  </g>
</svg>
