<svg xmlns="http://www.w3.org/2000/svg" xmlns:xlink="http://www.w3.org/1999/xlink" width="88" height="88" viewBox="0 0 88 88">
  <defs>
    <clipPath id="clip-path">
      <rect id="Rectángulo_403780" data-name="Rectángulo 403780" width="67.848" height="50.805" fill="none"/>
    </clipPath>
  </defs>
  <g id="Grupo_1107195" data-name="Grupo 1107195" transform="translate(-351.635 -9465.584)">
    <circle id="Elipse_11778" data-name="Elipse 11778" cx="44" cy="44" r="44" transform="translate(351.635 9465.584)" fill="#fd5a37"/>
    <g id="Grupo_1107200" data-name="Grupo 1107200" transform="translate(361.711 9487.946)">
      <g id="Grupo_1107199" data-name="Grupo 1107199" clip-path="url(#clip-path)">
        <path id="Trazado_879157" data-name="Trazado 879157" d="M59.147,78.7l-4.592-4.563L68.733,60.309l8.163.016h.016l3.828,6.908L97.907,83.975l.273.266a2.955,2.955,0,0,1,0,4.255l-3.272,3.191L89.455,97,86.183,100.2a3.888,3.888,0,0,1-5.426-.021l-2.705-2.691" transform="translate(-46.261 -51.14)" fill="#f7b71b"/>
        <path id="Trazado_879158" data-name="Trazado 879158" d="M79.8,98.265a4.52,4.52,0,0,1-3.189-1.3L73.908,94.27a.66.66,0,0,1,.931-.935l2.7,2.691a3.227,3.227,0,0,0,4.5.017l12-11.7a2.3,2.3,0,0,0,0-3.31L76.6,64.025a.658.658,0,0,1-.116-.152L72.844,57.3l-7.523-.015L51.816,70.46l4.116,4.09a.66.66,0,0,1-.93.936l-4.592-4.563a.66.66,0,0,1,0-.94L64.593,56.156a.66.66,0,0,1,.461-.187h0l8.179.016a.66.66,0,0,1,.577.34l3.781,6.823,17.37,16.94a3.615,3.615,0,0,1,0,5.2l-12,11.7A4.517,4.517,0,0,1,79.8,98.265" transform="translate(-42.581 -47.46)" fill="#1c2e66"/>
        <line id="Línea_709" data-name="Línea 709" x1="0.005" y1="0.005" transform="translate(27.473 42.051)" fill="#fff"/>
        <path id="Trazado_879159" data-name="Trazado 879159" d="M177.024,273.573a.651.651,0,0,1-.456-.186l-.005-.005a.656.656,0,1,1,.462.191" transform="translate(-149.55 -230.858)" fill="#1c2e66"/>
        <path id="Trazado_879160" data-name="Trazado 879160" d="M183,60.1l-9.27,9.041L156.564,52.4l-6.009,5.845a3.927,3.927,0,0,1-5.453-.005,3.7,3.7,0,0,1,0-5.318l7.618-7.429.027-.027a9.387,9.387,0,0,1,6.555-2.648h5.977Z" transform="translate(-122.084 -36.308)" fill="#fff"/>
        <path id="Trazado_879161" data-name="Trazado 879161" d="M170.052,66.124a.658.658,0,0,1-.461-.187L152.884,49.644l-5.549,5.4a4.594,4.594,0,0,1-6.374-.006,4.356,4.356,0,0,1,0-6.263l7.645-7.456a9.986,9.986,0,0,1,7.015-2.836H161.6a.66.66,0,0,1,.461.187l17.723,17.284a.66.66,0,0,1,0,.945l-9.27,9.041a.658.658,0,0,1-.461.187M152.885,48.063a.658.658,0,0,1,.461.187l16.706,16.292,8.326-8.119L161.331,39.8h-5.708a8.673,8.673,0,0,0-6.094,2.461l-7.645,7.456a3.037,3.037,0,0,0,0,4.374,3.266,3.266,0,0,0,4.532.005l6.01-5.845a.657.657,0,0,1,.46-.187" transform="translate(-118.405 -32.63)" fill="#1c2e66"/>
        <line id="Línea_710" data-name="Línea 710" x2="8.725" y2="7.977" transform="translate(39.923 32.569)" fill="#fff"/>
        <path id="Trazado_879162" data-name="Trazado 879162" d="M267.635,219.177a.657.657,0,0,1-.445-.173l-8.725-7.977a.66.66,0,0,1,.89-.974l8.725,7.977a.66.66,0,0,1-.445,1.146" transform="translate(-218.987 -177.971)" fill="#1c2e66"/>
        <line id="Línea_711" data-name="Línea 711" x2="7.634" y2="7.445" transform="translate(35.56 38.419)" fill="#fff"/>
        <path id="Trazado_879163" data-name="Trazado 879163" d="M237.85,257.123a.657.657,0,0,1-.461-.187l-7.634-7.445a.66.66,0,1,1,.921-.945l7.634,7.445a.66.66,0,0,1-.461,1.132" transform="translate(-194.655 -210.599)" fill="#1c2e66"/>
        <path id="Trazado_879164" data-name="Trazado 879164" d="M60.822,170.438l-.545-.532a2.956,2.956,0,0,1,0-4.255l5.453-5.318a3.141,3.141,0,0,1,4.363,0l.545.532a2.956,2.956,0,0,1,0,4.255l-5.453,5.318a3.14,3.14,0,0,1-4.362,0" transform="translate(-50.346 -135.21)" fill="#fff"/>
        <path id="Trazado_879165" data-name="Trazado 879165" d="M59.323,168.314a3.774,3.774,0,0,1-2.642-1.065l-.545-.532a3.616,3.616,0,0,1,0-5.2l5.453-5.318a3.808,3.808,0,0,1,5.284,0l.545.532a3.616,3.616,0,0,1,0,5.2l-5.453,5.318a3.774,3.774,0,0,1-2.642,1.065m4.908-11.864a2.457,2.457,0,0,0-1.721.694l-5.453,5.318a2.3,2.3,0,0,0,0,3.31l.545.532a2.48,2.48,0,0,0,3.441,0l5.453-5.318a2.3,2.3,0,0,0,0-3.31l-.545-.532a2.457,2.457,0,0,0-1.721-.694" transform="translate(-46.666 -131.548)" fill="#1c2e66"/>
        <path id="Trazado_879166" data-name="Trazado 879166" d="M93.1,201.92l-.545-.532a2.956,2.956,0,0,1,0-4.255l5.453-5.318a3.141,3.141,0,0,1,4.362,0l.545.532a2.956,2.956,0,0,1,0,4.255l-5.453,5.318a3.14,3.14,0,0,1-4.362,0" transform="translate(-77.719 -161.906)" fill="#fff"/>
        <path id="Trazado_879167" data-name="Trazado 879167" d="M91.6,199.794a3.773,3.773,0,0,1-2.642-1.065l-.545-.532a3.615,3.615,0,0,1,0-5.2l5.453-5.318a3.808,3.808,0,0,1,5.284,0l.545.532a3.615,3.615,0,0,1,0,5.2l-5.453,5.318a3.774,3.774,0,0,1-2.642,1.065m4.908-11.864a2.457,2.457,0,0,0-1.721.694l-5.453,5.318a2.3,2.3,0,0,0,0,3.31l.545.532a2.48,2.48,0,0,0,3.441,0l5.453-5.318a2.3,2.3,0,0,0,0-3.31l-.545-.532a2.457,2.457,0,0,0-1.721-.694" transform="translate(-74.038 -158.243)" fill="#1c2e66"/>
        <path id="Trazado_879168" data-name="Trazado 879168" d="M125.384,233.4l-.545-.532a2.956,2.956,0,0,1,0-4.255l5.453-5.318a3.141,3.141,0,0,1,4.362,0l.545.532a2.956,2.956,0,0,1,0,4.255l-5.453,5.318a3.14,3.14,0,0,1-4.362,0" transform="translate(-105.092 -188.601)" fill="#fff"/>
        <path id="Trazado_879169" data-name="Trazado 879169" d="M123.885,231.277a3.774,3.774,0,0,1-2.642-1.066l-.545-.532a3.616,3.616,0,0,1,0-5.2l5.453-5.318a3.808,3.808,0,0,1,5.284,0l.545.532a3.616,3.616,0,0,1,0,5.2l-5.453,5.318a3.775,3.775,0,0,1-2.642,1.066m4.908-11.864a2.457,2.457,0,0,0-1.721.694l-5.453,5.318a2.3,2.3,0,0,0,0,3.31l.545.532a2.48,2.48,0,0,0,3.441,0l5.453-5.318a2.3,2.3,0,0,0,0-3.31l-.545-.532a2.457,2.457,0,0,0-1.721-.694" transform="translate(-101.412 -184.939)" fill="#1c2e66"/>
        <path id="Trazado_879170" data-name="Trazado 879170" d="M157.12,279.182h0a2.956,2.956,0,0,1,0-4.255l2.727-2.659a3.14,3.14,0,0,1,4.362,0,2.956,2.956,0,0,1,0,4.255l-2.727,2.659a3.141,3.141,0,0,1-4.362,0" transform="translate(-132.466 -230.127)" fill="#fff"/>
        <path id="Trazado_879171" data-name="Trazado 879171" d="M155.621,277.059a3.774,3.774,0,0,1-2.642-1.066,3.616,3.616,0,0,1,0-5.2l2.727-2.659a3.808,3.808,0,0,1,5.284,0,3.616,3.616,0,0,1,0,5.2l-2.727,2.659a3.774,3.774,0,0,1-2.642,1.066m2.727-8.673a2.458,2.458,0,0,0-1.721.694l-2.726,2.659a2.3,2.3,0,0,0,0,3.31,2.48,2.48,0,0,0,3.441,0l2.727-2.659a2.3,2.3,0,0,0,0-3.31,2.457,2.457,0,0,0-1.721-.694" transform="translate(-128.786 -226.466)" fill="#1c2e66"/>
        <path id="Trazado_879172" data-name="Trazado 879172" d="M9.793,34.736,4.34,29.417,22.88,11.336l5.453,5.318Z" transform="translate(-3.68 -9.612)" fill="#ae9dcc"/>
        <path id="Trazado_879173" data-name="Trazado 879173" d="M6.113,31.715a.657.657,0,0,1-.461-.187L.2,26.21a.66.66,0,0,1,0-.944L18.74,7.184a.659.659,0,0,1,.921,0L25.114,12.5a.66.66,0,0,1,0,.945L6.574,31.528a.658.658,0,0,1-.461.187M1.6,25.737l4.508,4.4,17.6-17.16L19.2,8.577Z" transform="translate(0 -5.932)" fill="#1c2e66"/>
        <path id="Trazado_879174" data-name="Trazado 879174" d="M299.609,28.271l5.453-5.318L285.976,4.34l-5.453,5.318Z" transform="translate(-237.873 -3.68)" fill="#01d2b5"/>
        <path id="Trazado_879175" data-name="Trazado 879175" d="M295.93,25.251a.658.658,0,0,1-.461-.187L276.383,6.45a.66.66,0,0,1,0-.944L281.836.187a.66.66,0,0,1,.921,0L301.844,18.8a.66.66,0,0,1,0,.945l-5.453,5.318a.658.658,0,0,1-.461.187M277.789,5.978,295.93,23.67l4.508-4.4L282.3,1.581Z" transform="translate(-234.194)" fill="#1c2e66"/>
      </g>
    </g>
  </g>
</svg>
