<svg xmlns="http://www.w3.org/2000/svg" xmlns:xlink="http://www.w3.org/1999/xlink" width="90" height="90" viewBox="0 0 90 90">
  <defs>
    <clipPath id="clip-path">
      <rect id="Rect치ngulo_403796" data-name="Rect치ngulo 403796" width="56.198" height="65.066" fill="none"/>
    </clipPath>
  </defs>
  <g id="Grupo_1107212" data-name="Grupo 1107212" transform="translate(-317.92 -1534)">
    <g id="Grupo_1106918" data-name="Grupo 1106918" transform="translate(-228.08 495)">
      <rect id="Rect치ngulo_403565" data-name="Rect치ngulo 403565" width="90" height="90" rx="45" transform="translate(546 1039)" fill="#fff" opacity="0.859"/>
    </g>
    <g id="Grupo_1107209" data-name="Grupo 1107209" transform="translate(333.802 1546.468)">
      <g id="Grupo_1107208" data-name="Grupo 1107208" clip-path="url(#clip-path)">
        <path id="Trazado_879190" data-name="Trazado 879190" d="M83.362,189.406c-.216-3.322-.658-6.538-2.026-8.482-.9-1.279-2.306-2.721-3.814-2.843a4.634,4.634,0,0,0,1.9-3.768,4.44,4.44,0,1,0-8.874,0,4.634,4.634,0,0,0,1.926,3.786,6.29,6.29,0,0,0-3.469,2.635c-1.447,1.96-1.925,5.249-2.156,8.662a2.936,2.936,0,0,0,2.925,3.139H80.436a2.935,2.935,0,0,0,2.926-3.128" transform="translate(-55.804 -141.684)" fill="#fff"/>
        <path id="Trazado_879191" data-name="Trazado 879191" d="M77.146,189.894H66.487a3.544,3.544,0,0,1-2.615-1.135,3.61,3.61,0,0,1-.96-2.7c.217-3.219.658-6.806,2.282-9a8.539,8.539,0,0,1,2.743-2.5,5.336,5.336,0,0,1-1.328-3.531,5.091,5.091,0,1,1,10.177,0,5.341,5.341,0,0,1-1.261,3.452,8.343,8.343,0,0,1,3.053,2.784c1.525,2.169,1.939,5.673,2.143,8.815a3.6,3.6,0,0,1-.963,2.689,3.546,3.546,0,0,1-2.613,1.132M71.7,167.078a3.871,3.871,0,0,0-3.786,3.943,3.992,3.992,0,0,0,1.652,3.255.651.651,0,0,1-.271,1.173,5.553,5.553,0,0,0-3.052,2.379c-1.432,1.94-1.837,5.465-2.03,8.319a2.285,2.285,0,0,0,2.275,2.444H77.146a2.284,2.284,0,0,0,2.276-2.435c-.181-2.788-.561-6.234-1.909-8.15-.515-.733-1.872-2.45-3.334-2.568a.651.651,0,0,1-.329-1.177,4,4,0,0,0,1.633-3.24,3.871,3.871,0,0,0-3.786-3.943" transform="translate(-52.513 -138.393)" fill="#1c2e66"/>
        <path id="Trazado_879192" data-name="Trazado 879192" d="M77.531,220.323c1.5.126,2.908,1.569,3.805,2.846,1.367,1.945,1.81,5.161,2.026,8.483a2.935,2.935,0,0,1-2.926,3.128H69.777a2.936,2.936,0,0,1-2.925-3.139c.23-3.413.709-6.7,2.156-8.662a6.37,6.37,0,0,1,3.42-2.63" transform="translate(-55.804 -183.929)" fill="#fff"/>
        <path id="Trazado_879193" data-name="Trazado 879193" d="M77.146,232.138H66.487A3.544,3.544,0,0,1,63.872,231a3.609,3.609,0,0,1-.96-2.7c.217-3.219.658-6.806,2.282-9,.694-.941,2.115-2.566,3.825-2.883a.651.651,0,1,1,.238,1.281,5.638,5.638,0,0,0-3.015,2.377c-1.432,1.94-1.837,5.465-2.03,8.319a2.285,2.285,0,0,0,2.276,2.444H77.146a2.283,2.283,0,0,0,2.276-2.435c-.181-2.788-.561-6.234-1.909-8.15-.515-.732-1.87-2.449-3.327-2.571a.651.651,0,1,1,.109-1.3c1.932.162,3.513,2.024,4.284,3.12,1.525,2.169,1.939,5.673,2.143,8.815a3.6,3.6,0,0,1-.963,2.689,3.546,3.546,0,0,1-2.613,1.132" transform="translate(-52.513 -180.636)" fill="#1c2e66"/>
        <path id="Trazado_879194" data-name="Trazado 879194" d="M98.152,174.313a4.44,4.44,0,1,1-4.437-4.594,4.518,4.518,0,0,1,4.437,4.594" transform="translate(-74.531 -141.684)" fill="#fff"/>
        <path id="Trazado_879195" data-name="Trazado 879195" d="M90.424,176.266a5.248,5.248,0,1,1,5.089-5.245,5.174,5.174,0,0,1-5.089,5.245m0-9.188a3.946,3.946,0,1,0,3.786,3.943,3.871,3.871,0,0,0-3.786-3.943" transform="translate(-71.24 -138.393)" fill="#1c2e66"/>
        <path id="Trazado_879196" data-name="Trazado 879196" d="M189.67,189.406c-.216-3.322-.658-6.538-2.026-8.482-.9-1.279-2.306-2.721-3.814-2.843a4.634,4.634,0,0,0,1.9-3.768,4.44,4.44,0,1,0-8.874,0,4.634,4.634,0,0,0,1.925,3.786,6.292,6.292,0,0,0-3.469,2.635c-1.447,1.96-1.925,5.249-2.156,8.662a2.936,2.936,0,0,0,2.925,3.139h10.659a2.935,2.935,0,0,0,2.926-3.128" transform="translate(-144.552 -141.684)" fill="#fff"/>
        <path id="Trazado_879197" data-name="Trazado 879197" d="M183.454,189.894H172.8a3.544,3.544,0,0,1-2.615-1.135,3.609,3.609,0,0,1-.96-2.7c.217-3.219.658-6.806,2.282-9a8.542,8.542,0,0,1,2.744-2.5,5.335,5.335,0,0,1-1.328-3.531,5.091,5.091,0,1,1,10.177,0,5.341,5.341,0,0,1-1.261,3.452,8.344,8.344,0,0,1,3.053,2.784c1.525,2.168,1.939,5.673,2.143,8.815h0a3.605,3.605,0,0,1-.963,2.689,3.546,3.546,0,0,1-2.613,1.132m-5.448-22.815a3.871,3.871,0,0,0-3.786,3.943,3.992,3.992,0,0,0,1.652,3.255.651.651,0,0,1-.271,1.173,5.552,5.552,0,0,0-3.052,2.379c-1.432,1.94-1.837,5.465-2.03,8.319a2.285,2.285,0,0,0,2.275,2.444h10.659a2.284,2.284,0,0,0,2.276-2.435c-.181-2.788-.561-6.234-1.909-8.15-.515-.733-1.872-2.45-3.334-2.568a.651.651,0,0,1-.329-1.177,4,4,0,0,0,1.633-3.24,3.871,3.871,0,0,0-3.786-3.943" transform="translate(-141.261 -138.393)" fill="#1c2e66"/>
        <path id="Trazado_879198" data-name="Trazado 879198" d="M183.84,220.323c1.5.126,2.908,1.569,3.805,2.846,1.367,1.945,1.81,5.161,2.026,8.483a2.935,2.935,0,0,1-2.926,3.128H176.086a2.936,2.936,0,0,1-2.925-3.139c.23-3.413.709-6.7,2.156-8.662a6.37,6.37,0,0,1,3.42-2.63" transform="translate(-144.552 -183.929)" fill="#fff"/>
        <path id="Trazado_879199" data-name="Trazado 879199" d="M183.455,232.138H172.8A3.544,3.544,0,0,1,170.181,231a3.608,3.608,0,0,1-.96-2.7c.217-3.219.658-6.806,2.281-9,.694-.941,2.115-2.566,3.825-2.883a.651.651,0,1,1,.238,1.281,5.638,5.638,0,0,0-3.015,2.377c-1.432,1.94-1.837,5.465-2.03,8.319a2.285,2.285,0,0,0,2.275,2.444h10.659a2.284,2.284,0,0,0,2.276-2.435c-.181-2.788-.561-6.234-1.909-8.15-.515-.732-1.87-2.449-3.327-2.571a.651.651,0,1,1,.109-1.3c1.932.162,3.513,2.024,4.284,3.12,1.525,2.168,1.939,5.673,2.143,8.815a3.605,3.605,0,0,1-.963,2.689,3.546,3.546,0,0,1-2.613,1.132" transform="translate(-141.262 -180.636)" fill="#1c2e66"/>
        <path id="Trazado_879200" data-name="Trazado 879200" d="M204.461,174.313a4.44,4.44,0,1,1-4.437-4.594,4.518,4.518,0,0,1,4.437,4.594" transform="translate(-163.279 -141.684)" fill="#fff"/>
        <path id="Trazado_879201" data-name="Trazado 879201" d="M196.732,176.266a5.248,5.248,0,1,1,5.089-5.245,5.174,5.174,0,0,1-5.089,5.245m0-9.188a3.946,3.946,0,1,0,3.786,3.943,3.871,3.871,0,0,0-3.786-3.943" transform="translate(-159.988 -138.393)" fill="#1c2e66"/>
        <path id="Trazado_879202" data-name="Trazado 879202" d="M7.53,275.865a3.593,3.593,0,0,1-3.58-3.842c.282-4.177.868-8.2,2.638-10.6,1.132-1.533,2.913-3.277,4.763-3.272q2.275.006,5.414.012c1.937,0,3.763,1.859,4.912,3.494,1.673,2.38,2.215,6.316,2.479,10.381a3.592,3.592,0,0,1-3.581,3.828Z" transform="translate(-3.29 -215.508)" fill="#ae9dcc"/>
        <path id="Trazado_879203" data-name="Trazado 879203" d="M17.284,273.225H4.239a4.193,4.193,0,0,1-3.094-1.343,4.27,4.27,0,0,1-1.136-3.193c.265-3.918.8-8.283,2.764-10.943.977-1.323,2.967-3.55,5.288-3.537l1.077,0q1.911,0,4.336.009c2.432,0,4.454,2.363,5.443,3.77,1.846,2.624,2.348,6.888,2.6,10.714a4.265,4.265,0,0,1-1.14,3.182,4.2,4.2,0,0,1-3.091,1.34m-13.045-1.3H17.284a2.941,2.941,0,0,0,2.931-3.135c-.223-3.431-.692-7.674-2.362-10.049-.68-.966-2.467-3.214-4.38-3.217q-2.424,0-4.338-.009l-1.076,0H8.053c-1.815,0-3.563,2.1-4.231,3.008-1.775,2.4-2.275,6.745-2.512,10.257a2.942,2.942,0,0,0,2.93,3.147Z" transform="translate(0 -212.217)" fill="#1c2e66"/>
        <path id="Trazado_879204" data-name="Trazado 879204" d="M42.257,201.977a5.434,5.434,0,1,1-5.431-5.622,5.529,5.529,0,0,1,5.431,5.622" transform="translate(-26.21 -163.92)" fill="#fff"/>
        <path id="Trazado_879205" data-name="Trazado 879205" d="M33.534,204.96a6.276,6.276,0,1,1,6.082-6.273,6.187,6.187,0,0,1-6.082,6.273m0-11.244a4.975,4.975,0,1,0,4.779,4.971,4.883,4.883,0,0,0-4.779-4.971" transform="translate(-22.917 -160.63)" fill="#1c2e66"/>
        <path id="Trazado_879206" data-name="Trazado 879206" d="M217.442,275.865a3.593,3.593,0,0,1-3.58-3.842c.282-4.177.868-8.2,2.638-10.6,1.132-1.533,2.913-3.277,4.763-3.272q2.275.006,5.414.012c1.937,0,3.763,1.859,4.912,3.494,1.673,2.38,2.215,6.316,2.479,10.381a3.592,3.592,0,0,1-3.581,3.828Z" transform="translate(-178.528 -215.508)" fill="#ae9dcc"/>
        <path id="Trazado_879207" data-name="Trazado 879207" d="M227.2,273.226H214.152a4.193,4.193,0,0,1-3.094-1.343,4.27,4.27,0,0,1-1.136-3.193c.265-3.919.8-8.283,2.764-10.943.976-1.322,2.958-3.537,5.28-3.537h.009l1.077,0q1.911,0,4.336.009c2.432,0,4.454,2.363,5.444,3.77,1.846,2.624,2.348,6.888,2.6,10.714a4.266,4.266,0,0,1-1.14,3.182,4.2,4.2,0,0,1-3.091,1.34m-13.045-1.3H227.2a2.941,2.941,0,0,0,2.931-3.135c-.223-3.431-.692-7.674-2.362-10.049-.68-.966-2.467-3.214-4.38-3.217q-2.424,0-4.337-.009l-1.077,0h-.006c-1.815,0-3.564,2.1-4.232,3.008-1.775,2.4-2.275,6.745-2.512,10.257a2.942,2.942,0,0,0,2.93,3.147Z" transform="translate(-175.239 -212.217)" fill="#1c2e66"/>
        <path id="Trazado_879208" data-name="Trazado 879208" d="M252.169,201.977a5.434,5.434,0,1,1-5.431-5.622,5.529,5.529,0,0,1,5.431,5.622" transform="translate(-201.448 -163.92)" fill="#fff"/>
        <path id="Trazado_879209" data-name="Trazado 879209" d="M243.448,204.96a6.276,6.276,0,1,1,6.082-6.273,6.187,6.187,0,0,1-6.082,6.273m0-11.244a4.975,4.975,0,1,0,4.779,4.971,4.883,4.883,0,0,0-4.779-4.971" transform="translate(-198.157 -160.63)" fill="#1c2e66"/>
        <path id="Trazado_879210" data-name="Trazado 879210" d="M109.659,297.952A3.693,3.693,0,0,1,105.98,294c.29-4.293.892-8.429,2.711-10.893,1.163-1.576,2.994-3.367,4.894-3.363q2.338.006,5.563.012c1.991,0,3.866,1.91,5.048,3.59,1.72,2.446,2.277,6.491,2.548,10.668a3.691,3.691,0,0,1-3.68,3.934Z" transform="translate(-88.466 -233.538)" fill="#f7b71b"/>
        <path id="Trazado_879211" data-name="Trazado 879211" d="M119.773,295.312H106.368a4.291,4.291,0,0,1-3.166-1.374,4.372,4.372,0,0,1-1.163-3.268c.272-4.024.821-8.506,2.837-11.236,1-1.355,3.033-3.627,5.411-3.627h.009l1.038,0q1.989.005,4.525.01c2.491,0,4.565,2.424,5.58,3.867,1.894,2.693,2.41,7.072,2.665,11a4.366,4.366,0,0,1-1.167,3.257,4.293,4.293,0,0,1-3.163,1.371m-9.486-18.2c-1.873,0-3.675,2.166-4.363,3.1-1.827,2.475-2.341,6.938-2.585,10.55a3.041,3.041,0,0,0,3.029,3.253h13.405a3.04,3.04,0,0,0,3.03-3.241c-.229-3.528-.712-7.892-2.431-10.336-.7-1-2.541-3.311-4.516-3.314q-2.535,0-4.527-.009l-1.038,0Z" transform="translate(-85.176 -230.247)" fill="#1c2e66"/>
        <path id="Trazado_879212" data-name="Trazado 879212" d="M145.345,222.024a5.584,5.584,0,1,1-5.581-5.778,5.682,5.682,0,0,1,5.581,5.778" transform="translate(-112.019 -180.526)" fill="#fff"/>
        <path id="Trazado_879213" data-name="Trazado 879213" d="M136.473,225.161a6.432,6.432,0,1,1,6.232-6.429,6.34,6.34,0,0,1-6.232,6.429m0-11.555a5.13,5.13,0,1,0,4.929,5.126,5.036,5.036,0,0,0-4.929-5.126" transform="translate(-108.727 -177.234)" fill="#1c2e66"/>
        <path id="Trazado_879214" data-name="Trazado 879214" d="M103.412,3.942H78.979A2.758,2.758,0,0,0,76.221,6.7V23.617a2.758,2.758,0,0,0,2.758,2.758h8.3l3.6,5.146a.394.394,0,0,0,.646,0l3.6-5.146h8.3a2.758,2.758,0,0,0,2.758-2.758V6.7a2.758,2.758,0,0,0-2.758-2.758" transform="translate(-63.631 -3.291)" fill="#fff"/>
        <path id="Trazado_879215" data-name="Trazado 879215" d="M87.9,29.049a1.046,1.046,0,0,1-.857-.446l-3.4-4.868H75.687a3.413,3.413,0,0,1-3.409-3.409V3.408A3.413,3.413,0,0,1,75.687,0H100.12a3.413,3.413,0,0,1,3.409,3.409V20.325a3.413,3.413,0,0,1-3.409,3.409H92.163L88.76,28.6a1.046,1.046,0,0,1-.857.446M75.687,1.3a2.109,2.109,0,0,0-2.107,2.107V20.325a2.109,2.109,0,0,0,2.107,2.107h8.3a.651.651,0,0,1,.534.278L87.9,27.555,91.29,22.71a.651.651,0,0,1,.534-.278h8.3a2.109,2.109,0,0,0,2.107-2.107V3.408A2.109,2.109,0,0,0,100.12,1.3Z" transform="translate(-60.339 0.001)" fill="#1c2e66"/>
        <path id="Trazado_879216" data-name="Trazado 879216" d="M117.877,31.658a8.094,8.094,0,1,1,8.093,8.093,8.094,8.094,0,0,1-8.093-8.093" transform="translate(-98.406 -19.672)" fill="#f7b71b"/>
        <path id="Trazado_879217" data-name="Trazado 879217" d="M122.679,37.111a8.745,8.745,0,1,1,8.745-8.745,8.755,8.755,0,0,1-8.745,8.745m0-16.187a7.442,7.442,0,1,0,7.442,7.442,7.451,7.451,0,0,0-7.442-7.442" transform="translate(-95.114 -16.381)" fill="#1c2e66"/>
        <path id="Trazado_879218" data-name="Trazado 879218" d="M139.133,57.926a.648.648,0,0,1-.383-.125l-2.335-1.7a.651.651,0,1,1,.768-1.052l2.335,1.7a.651.651,0,0,1-.385,1.177" transform="translate(-113.658 -45.848)" fill="#1c2e66"/>
        <path id="Trazado_879219" data-name="Trazado 879219" d="M176.234,57.926a.651.651,0,0,1-.385-1.177l2.335-1.7a.651.651,0,1,1,.768,1.052l-2.335,1.7a.648.648,0,0,1-.383.125" transform="translate(-146.579 -45.848)" fill="#1c2e66"/>
        <path id="Trazado_879220" data-name="Trazado 879220" d="M152.136,89.838h-5.647a.651.651,0,0,1,0-1.3h5.647a.651.651,0,1,1,0,1.3" transform="translate(-121.747 -73.911)" fill="#1c2e66"/>
      </g>
    </g>
  </g>
</svg>
