<svg xmlns="http://www.w3.org/2000/svg" xmlns:xlink="http://www.w3.org/1999/xlink" width="90" height="90" viewBox="0 0 90 90">
  <defs>
    <clipPath id="clip-path">
      <rect id="Rect치ngulo_403797" data-name="Rect치ngulo 403797" width="61.449" height="57.575" fill="none"/>
    </clipPath>
  </defs>
  <g id="Grupo_1107213" data-name="Grupo 1107213" transform="translate(-842.92 -1534)">
    <g id="Grupo_1106920" data-name="Grupo 1106920" transform="translate(296.92 495)">
      <rect id="Rect치ngulo_403565" data-name="Rect치ngulo 403565" width="90" height="90" rx="45" transform="translate(546 1039)" fill="#fff" opacity="0.859"/>
    </g>
    <g id="Grupo_1107211" data-name="Grupo 1107211" transform="translate(856.551 1548.918)">
      <g id="Grupo_1107210" data-name="Grupo 1107210" clip-path="url(#clip-path)">
        <path id="Trazado_879221" data-name="Trazado 879221" d="M135.682,262.251a.692.692,0,1,1,0-1.384,3.666,3.666,0,1,0-3.645-3.259.692.692,0,1,1-1.375.152,5.052,5.052,0,1,1,5.021,4.491" transform="translate(-109.801 -211.943)" fill="#1c2e66"/>
        <path id="Trazado_879222" data-name="Trazado 879222" d="M25.026,247.96a3.151,3.151,0,0,1-3.007,4.084H7.729a3.391,3.391,0,0,1-3.391-3.391V237.331a5.147,5.147,0,0,1,5.147-5.147H21.292" transform="translate(-3.646 -195.162)" fill="#febdaf"/>
        <path id="Trazado_879223" data-name="Trazado 879223" d="M18.372,249.089H4.083A4.087,4.087,0,0,1,0,245.006V233.684a5.845,5.845,0,0,1,5.839-5.839H17.646a.692.692,0,1,1,0,1.384H5.839a4.46,4.46,0,0,0-4.455,4.455v11.323a2.7,2.7,0,0,0,2.7,2.7h14.29a2.459,2.459,0,0,0,2.346-3.187.692.692,0,1,1,1.321-.411,3.843,3.843,0,0,1-3.668,4.982" transform="translate(0 -191.515)" fill="#1c2e66"/>
        <path id="Trazado_879224" data-name="Trazado 879224" d="M96.522,230.086a.46.46,0,0,1,.347.033,9.029,9.029,0,0,0,1.415.586.452.452,0,0,1,.32.429v1.707a.844.844,0,0,0,.844.844H102.6a.844.844,0,0,0,.844-.844v-1.707a.452.452,0,0,1,.32-.429,9.015,9.015,0,0,0,1.415-.586.451.451,0,0,1,.53.077l1.207,1.207a.844.844,0,0,0,1.194,0l2.257-2.257a.844.844,0,0,0,0-1.193l-1.207-1.207a.451.451,0,0,1-.077-.529,9.026,9.026,0,0,0,.587-1.415.452.452,0,0,1,.429-.32h1.707a.844.844,0,0,0,.844-.844v-2.672a.844.844,0,0,0-.844-.844H110.1a.452.452,0,0,1-.429-.32,9.024,9.024,0,0,0-.587-1.415.451.451,0,0,1,.077-.529l1.207-1.207a.844.844,0,0,0,0-1.193l-2.257-2.257a.844.844,0,0,0-1.194,0l-1.207,1.207a.451.451,0,0,1-.53.077,9.028,9.028,0,0,0-1.415-.586.452.452,0,0,1-.32-.429v-1.707a.844.844,0,0,0-.844-.844H99.447a.844.844,0,0,0-.844.844v1.707a.452.452,0,0,1-.32.429,9.042,9.042,0,0,0-1.415.586.451.451,0,0,1-.53-.077L95.132,213.2a.844.844,0,0,0-1.194,0l-2.257,2.257a.844.844,0,0,0,0,1.193l1.207,1.207a.451.451,0,0,1,.077.529,9.022,9.022,0,0,0-.587,1.415.452.452,0,0,1-.429.32H90.244a.844.844,0,0,0-.844.844v2.672a.844.844,0,0,0,.844.844H91.95a.452.452,0,0,1,.429.32,9.024,9.024,0,0,0,.587,1.415.451.451,0,0,1-.077.529l-1.126,1.126" transform="translate(-75.145 -177.287)" fill="#fff"/>
        <path id="Trazado_879225" data-name="Trazado 879225" d="M98.957,230.73H95.8a1.538,1.538,0,0,1-1.536-1.536v-1.529a9.783,9.783,0,0,1-1.289-.541.692.692,0,0,1-.3-1.346,1.146,1.146,0,0,1,.869.08,8.354,8.354,0,0,0,1.306.541,1.141,1.141,0,0,1,.8,1.088v1.707a.152.152,0,0,0,.152.152h3.156a.152.152,0,0,0,.152-.152v-1.707a1.141,1.141,0,0,1,.8-1.088,8.36,8.36,0,0,0,1.307-.541,1.141,1.141,0,0,1,1.337.2l1.207,1.207a.152.152,0,0,0,.215,0l2.257-2.257a.152.152,0,0,0,0-.215l-1.207-1.207a1.141,1.141,0,0,1-.2-1.337,8.381,8.381,0,0,0,.542-1.307,1.141,1.141,0,0,1,1.089-.8h1.707a.152.152,0,0,0,.152-.152v-2.672a.152.152,0,0,0-.152-.152h-1.706a1.142,1.142,0,0,1-1.089-.8,8.366,8.366,0,0,0-.541-1.307,1.141,1.141,0,0,1,.2-1.337l1.207-1.207a.152.152,0,0,0,0-.215l-2.257-2.257a.152.152,0,0,0-.215,0l-1.207,1.207a1.141,1.141,0,0,1-1.337.2,8.359,8.359,0,0,0-1.307-.541,1.141,1.141,0,0,1-.8-1.088v-1.707a.152.152,0,0,0-.152-.152H95.8a.152.152,0,0,0-.152.152v1.707a1.141,1.141,0,0,1-.8,1.088,8.368,8.368,0,0,0-1.306.541,1.14,1.14,0,0,1-1.337-.2L91,210.042a.152.152,0,0,0-.215,0L88.524,212.3a.152.152,0,0,0,0,.215l1.207,1.207a1.141,1.141,0,0,1,.2,1.337,8.374,8.374,0,0,0-.541,1.306,1.142,1.142,0,0,1-1.089.8H86.6a.152.152,0,0,0-.152.152v2.672a.152.152,0,0,0,.152.152H88.3a1.142,1.142,0,0,1,1.089.8,8.369,8.369,0,0,0,.541,1.307,1.141,1.141,0,0,1-.2,1.337L88.6,224.714a.692.692,0,0,1-.979-.979l1-1a9.753,9.753,0,0,1-.5-1.209H86.6a1.537,1.537,0,0,1-1.536-1.536v-2.672a1.538,1.538,0,0,1,1.536-1.536h1.53a9.744,9.744,0,0,1,.5-1.209l-1.082-1.082a1.537,1.537,0,0,1,0-2.172l2.257-2.257a1.538,1.538,0,0,1,2.172,0l1.082,1.082a9.746,9.746,0,0,1,1.209-.5v-1.529a1.538,1.538,0,0,1,1.536-1.536h3.156a1.537,1.537,0,0,1,1.536,1.536v1.529a9.743,9.743,0,0,1,1.209.5l1.081-1.082a1.538,1.538,0,0,1,2.172,0l2.256,2.257a1.537,1.537,0,0,1,0,2.172l-1.082,1.082a9.766,9.766,0,0,1,.5,1.209h1.53a1.538,1.538,0,0,1,1.536,1.536v2.672a1.537,1.537,0,0,1-1.536,1.536h-1.53a9.766,9.766,0,0,1-.5,1.209l1.082,1.082a1.537,1.537,0,0,1,0,2.172l-2.256,2.257a1.538,1.538,0,0,1-2.172,0l-1.081-1.082a9.748,9.748,0,0,1-1.209.5v1.529a1.537,1.537,0,0,1-1.536,1.536" transform="translate(-71.498 -173.64)" fill="#1c2e66"/>
        <path id="Trazado_879226" data-name="Trazado 879226" d="M138.437,32.335q.33-.145.65-.308a.623.623,0,0,1,.722.1l1.761,1.722a1.165,1.165,0,0,0,1.63,0l2.19-2.142,4.292-10.9V18.584a1.165,1.165,0,0,0-1.165-1.165H146.04a.624.624,0,0,1-.591-.438,12.4,12.4,0,0,0-.834-1.97.624.624,0,0,1,.109-.741l1.711-1.673a1.165,1.165,0,0,0,0-1.666L143.2,7.766a1.166,1.166,0,0,0-1.63,0l-1.761,1.722a.624.624,0,0,1-.722.1,12.981,12.981,0,0,0-2.039-.827.624.624,0,0,1-.446-.593V5.506a1.166,1.166,0,0,0-1.166-1.166h-4.45a1.166,1.166,0,0,0-1.166,1.166V8.171a.624.624,0,0,1-.446.593,12.987,12.987,0,0,0-2.039.827.623.623,0,0,1-.722-.1l-1.761-1.722a1.166,1.166,0,0,0-1.63,0l-3.236,3.165a1.166,1.166,0,0,0,0,1.666l1.71,1.673a.623.623,0,0,1,.109.741,12.406,12.406,0,0,0-.834,1.97.624.624,0,0,1-.591.438h-2.475a1.165,1.165,0,0,0-1.165,1.165v4.451h0a1.165,1.165,0,0,0,1.165,1.165h2.475a.624.624,0,0,1,.591.438,12.4,12.4,0,0,0,.834,1.969.623.623,0,0,1-.109.741l-1.71,1.673a1.165,1.165,0,0,0,0,1.666l3.236,3.165a1.165,1.165,0,0,0,1.63,0l1.761-1.722a.623.623,0,0,1,.722-.1,13,13,0,0,0,2.039.827.624.624,0,0,1,.446.593v2.666a1.166,1.166,0,0,0,1.166,1.166h4.45Z" transform="translate(-98.127 -3.648)" fill="#d6cee6"/>
        <path id="Trazado_879227" data-name="Trazado 879227" d="M131.789,34.323h-4.45a1.86,1.86,0,0,1-1.857-1.858V29.854a13.725,13.725,0,0,1-2.068-.839L121.69,30.7a1.869,1.869,0,0,1-2.6,0l-3.236-3.165a1.857,1.857,0,0,1,0-2.655l1.671-1.635a13.141,13.141,0,0,1-.847-2h-2.421a1.859,1.859,0,0,1-1.857-1.857V14.936a1.859,1.859,0,0,1,1.857-1.857h2.421a13.159,13.159,0,0,1,.847-2l-1.671-1.635a1.857,1.857,0,0,1,0-2.655l3.236-3.165a1.869,1.869,0,0,1,2.6,0l1.723,1.685a13.725,13.725,0,0,1,2.068-.839V1.858A1.86,1.86,0,0,1,127.338,0h4.45a1.86,1.86,0,0,1,1.857,1.858V4.469a13.724,13.724,0,0,1,2.068.84l1.723-1.685a1.869,1.869,0,0,1,2.6,0l3.236,3.165a1.857,1.857,0,0,1,0,2.655L141.6,11.078a13.137,13.137,0,0,1,.847,2h2.421a1.859,1.859,0,0,1,1.857,1.857v2.225a.69.69,0,0,1-.048.254l-4.293,10.9a.687.687,0,0,1-.16.241l-2.19,2.142a1.869,1.869,0,0,1-2.6,0l-1.723-1.685c-.146.074-.3.146-.445.215l-2.889,4.76a.692.692,0,0,1-.592.333M123.4,27.617a1.33,1.33,0,0,1,.6.145,12.336,12.336,0,0,0,1.93.783,1.311,1.311,0,0,1,.932,1.254v2.666a.474.474,0,0,0,.474.474H131.4l2.8-4.611a.691.691,0,0,1,.312-.274c.207-.091.414-.189.615-.292a1.316,1.316,0,0,1,1.519.226l1.76,1.722a.477.477,0,0,0,.663,0l2.084-2.038,4.19-10.642V14.936a.474.474,0,0,0-.474-.473h-2.475a1.314,1.314,0,0,1-1.249-.917,11.77,11.77,0,0,0-.787-1.86,1.308,1.308,0,0,1,.237-1.559l1.71-1.673a.473.473,0,0,0,0-.677l-3.236-3.165a.477.477,0,0,0-.663,0l-1.761,1.722a1.315,1.315,0,0,1-1.519.226,12.349,12.349,0,0,0-1.93-.783,1.311,1.311,0,0,1-.932-1.254V1.858a.474.474,0,0,0-.474-.474h-4.45a.474.474,0,0,0-.474.474V4.523a1.311,1.311,0,0,1-.932,1.254,12.34,12.34,0,0,0-1.93.784,1.316,1.316,0,0,1-1.519-.226l-1.76-1.722a.477.477,0,0,0-.663,0l-3.236,3.165a.474.474,0,0,0,0,.677l1.71,1.673a1.308,1.308,0,0,1,.236,1.56,11.771,11.771,0,0,0-.787,1.86,1.315,1.315,0,0,1-1.249.917h-2.475a.474.474,0,0,0-.474.473v4.451a.474.474,0,0,0,.474.474h2.475a1.314,1.314,0,0,1,1.249.917,11.77,11.77,0,0,0,.787,1.86,1.308,1.308,0,0,1-.237,1.559l-1.71,1.673a.474.474,0,0,0,0,.677l3.236,3.165a.477.477,0,0,0,.663,0l1.761-1.722a1.3,1.3,0,0,1,.915-.372" transform="translate(-94.479)" fill="#1c2e66"/>
        <path id="Trazado_879228" data-name="Trazado 879228" d="M233.986,210.834a1.172,1.172,0,0,0,.194-.016" transform="translate(-196.677 -177.203)" fill="#ffe946"/>
        <path id="Trazado_879229" data-name="Trazado 879229" d="M230.339,207.877a.692.692,0,0,1,0-1.384.48.48,0,0,0,.079-.006.692.692,0,1,1,.229,1.365,1.86,1.86,0,0,1-.308.026" transform="translate(-193.03 -173.554)" fill="#1c2e66"/>
        <path id="Trazado_879230" data-name="Trazado 879230" d="M193.132,74.433a6.3,6.3,0,1,0-6.3,6.3,6.3,6.3,0,0,0,6.3-6.3" transform="translate(-151.751 -57.272)" fill="#fff"/>
        <path id="Trazado_879231" data-name="Trazado 879231" d="M183.188,77.775a6.989,6.989,0,1,1,6.989-6.989,7,7,0,0,1-6.989,6.989m0-12.594a5.605,5.605,0,1,0,5.605,5.605,5.612,5.612,0,0,0-5.605-5.605" transform="translate(-148.104 -53.625)" fill="#1c2e66"/>
        <path id="Trazado_879232" data-name="Trazado 879232" d="M41.236,138.229a6.3,6.3,0,1,1-6.3-6.3,6.3,6.3,0,0,1,6.3,6.3" transform="translate(-24.075 -110.895)" fill="#fff"/>
        <path id="Trazado_879233" data-name="Trazado 879233" d="M31.292,141.571a6.989,6.989,0,1,1,6.989-6.989,7,7,0,0,1-6.989,6.989m0-12.594a5.605,5.605,0,1,0,5.605,5.605,5.612,5.612,0,0,0-5.605-5.605" transform="translate(-20.428 -107.248)" fill="#1c2e66"/>
        <path id="Trazado_879234" data-name="Trazado 879234" d="M54.574,316.5a.692.692,0,0,1-.661-.487,2.445,2.445,0,0,0-2.346-1.726H40.184a.692.692,0,0,1,0-1.384H51.567a3.823,3.823,0,0,1,3.668,2.7.693.693,0,0,1-.661.9" transform="translate(-33.195 -263.013)" fill="#1c2e66"/>
        <path id="Trazado_879235" data-name="Trazado 879235" d="M283.827,113.926a6.3,6.3,0,1,0,6.3-6.3,6.3,6.3,0,0,0-6.3,6.3" transform="translate(-238.571 -90.467)" fill="#fff"/>
        <path id="Trazado_879236" data-name="Trazado 879236" d="M286.477,117.268a6.989,6.989,0,1,1,6.989-6.989,7,7,0,0,1-6.989,6.989m0-12.594a5.605,5.605,0,1,0,5.605,5.605,5.612,5.612,0,0,0-5.605-5.605" transform="translate(-234.923 -86.82)" fill="#1c2e66"/>
        <path id="Trazado_879237" data-name="Trazado 879237" d="M223.737,183.124a2.894,2.894,0,0,0,2.513.818,3.1,3.1,0,0,0,2.447-2.971V163.632a3.391,3.391,0,0,0-3.391-3.391H212.712l-8.235-8.23a2.74,2.74,0,0,0-3.88,3.87l10.662,10.657v12.473a3.028,3.028,0,0,0,3.027,3.027h8.763" transform="translate(-167.94 -127.095)" fill="#feded7"/>
        <path id="Trazado_879238" data-name="Trazado 879238" d="M222.14,181.022a3.55,3.55,0,0,1-2.541-1.058.692.692,0,0,1-.07-.892.684.684,0,0,1-.126.012h-8.763a3.724,3.724,0,0,1-3.719-3.72V163.178l-10.459-10.454a3.434,3.434,0,0,1,2.429-5.859h0a3.407,3.407,0,0,1,2.427,1.011l8.031,8.026H221.66a4.087,4.087,0,0,1,4.083,4.083v17.338a3.592,3.592,0,0,1-3.6,3.7m-2.05-2.237a.69.69,0,0,1,.491.2,2.2,2.2,0,0,0,1.918.62,2.4,2.4,0,0,0,1.859-2.287V159.985a2.7,2.7,0,0,0-2.7-2.7H209.065a.692.692,0,0,1-.489-.2l-8.235-8.23a2.034,2.034,0,0,0-1.449-.6h0a2.05,2.05,0,0,0-1.451,3.5L208.1,162.4a.691.691,0,0,1,.2.489v12.473a2.338,2.338,0,0,0,2.335,2.336H219.4a.692.692,0,0,0,.688,1.085" transform="translate(-164.293 -123.447)" fill="#1c2e66"/>
        <path id="Trazado_879239" data-name="Trazado 879239" d="M342.66,342.716a.69.69,0,0,1-.487-.2,3.589,3.589,0,0,1-.853-1.346.692.692,0,1,1,1.3-.46,2.2,2.2,0,0,0,.522.824.692.692,0,0,1-.487,1.183" transform="translate(-286.863 -285.994)" fill="#1c2e66"/>
        <path id="Trazado_879240" data-name="Trazado 879240" d="M341.1,277.794a.692.692,0,0,1-.652-.462,3.592,3.592,0,0,1-.2-1.2V264.992a.692.692,0,1,1,1.384,0v11.141a2.205,2.205,0,0,0,.125.738.692.692,0,0,1-.652.923" transform="translate(-285.994 -222.157)" fill="#1c2e66"/>
      </g>
    </g>
  </g>
</svg>
